<?xml version="1.0" encoding="UTF-8"?>
<svg id="Layer_2" data-name="Layer 2" xmlns="http://www.w3.org/2000/svg" viewBox="0 0 753.94 188.48">
  <defs>
    <style>
      .cls-1 {
        fill: #2d2d2d;
      }
    </style>
  </defs>
  <g id="svg6668">
    <g id="layer1">
      <g id="g6645">
        <path id="path6497" class="cls-1" d="M204.31,0H0V31.4H194.11v.03c5.62,0,10.11,4.51,10.11,10.1v105.43l-.03,.09c-.03,5.57-4.57,10.05-10.13,10.05H41.52c-5.58,0-10.15-4.51-10.15-10.14v-42.59c0-5.59,4.57-10.14,10.15-10.14H172.76v-31.36H31.31C14.02,62.87,0,76.86,0,94.14v63.04c0,17.29,14.02,31.3,31.31,31.3H204.31c17.3,0,31.3-14.01,31.3-31.3V31.31C235.61,14.02,221.61,0,204.31,0"/>
        <path id="path6499" class="cls-1" d="M320.64,97.83h21.25l-10.53-31.53h-.29l-10.43,31.53Zm30.95-53.32l24.48,73.21c2.9,8.93,4.96,11,10.06,11h4.98v12.89h-53.44v-12.89h4.38c4.39,0,8.05-.58,8.05-2.18,0-1.5-.15-3.11-.73-5.32l-3.06-10.52h-29.88l-1.79,5.86c-1.6,5.11-2.19,7.28-2.19,9.34,0,2.36,5.14,2.81,9.13,2.81h4.21v12.89h-43.05v-12.89h4.99c5.13,0,7.14-2.07,10.11-11l24.46-73.21h29.31Z"/>
        <path id="path6501" class="cls-1" d="M423.94,107.31c0,14.97,3.36,23.88,11.55,23.88s11.58-8.92,11.58-23.88-3.33-23.85-11.58-23.85-11.55,8.93-11.55,23.85m-24.34-44.78c0-4.14-1.02-6.31-5.27-6.31h-6.73v-11.71h36.33v36.45c5.41-6.15,12.31-10.1,18.86-10.1,21.98,0,30.17,17.17,30.17,36.46s-8.19,36.47-30.17,36.47c-9.22,0-17.43-3.22-22.54-11.27l-4.23,9.11h-16.43V62.53Z"/>
        <path id="path6503" class="cls-1" d="M506.09,107.31c0,14.97,3.4,23.88,11.58,23.88s11.56-8.92,11.56-23.88-3.35-23.85-11.56-23.85-11.58,8.93-11.58,23.85m-24.33-44.78c0-4.14-1.03-6.31-5.24-6.31h-6.75v-11.71h36.31v36.45c5.43-6.15,12.31-10.1,18.9-10.1,21.98,0,30.19,17.17,30.19,36.46s-8.21,36.47-30.19,36.47c-9.22,0-17.43-3.22-22.55-11.27l-4.26,9.11h-16.41V62.53Z"/>
        <path id="path6505" class="cls-1" d="M588.13,107.32c0,17.28,3.07,24.75,11.86,24.75s11.84-7.47,11.84-24.75-3.07-24.74-11.84-24.74-11.86,7.46-11.86,24.74m49.65,0c0,23.44-15.98,36.46-37.79,36.46s-37.8-13.02-37.8-36.46,15.94-36.46,37.8-36.46,37.79,13.03,37.79,36.46"/>
        <path id="path6507" class="cls-1" d="M742.2,108.51v11.42c0,6.73-1.45,10.71-7.02,10.71-3.36,0-4.96-2.51-4.96-5.6v-40.27h17.98v-11.72h-17.98v-27.2h-14.53c-1.19,12.13-4.98,27.2-19.62,27.2h-22.84v-27.2h-14.49c-1.18,12.13-5,27.2-19.62,27.2v11.72h9.81v36.76c0,14.94,8.34,22.25,23.4,22.25,17.62,0,24.6-7.89,24.6-22.25v-13.02h-11.68v11.42c0,6.73-1.48,10.71-7.03,10.71-3.4,0-5-2.51-5-5.6v-40.27h32.7v36.76c0,14.94,8.31,22.25,23.4,22.25,17.57,0,24.62-7.89,24.62-22.25v-13.02h-11.74Z"/>
      </g>
    </g>
  </g>
</svg>