<?xml version="1.0" encoding="UTF-8"?>
<svg id="Layer_2" data-name="Layer 2" xmlns="http://www.w3.org/2000/svg" xmlns:xlink="http://www.w3.org/1999/xlink" viewBox="0 0 152.45 152.15">
  <defs>
    <style>
      .cls-1 {
        fill: url(#linear-gradient);
      }
    </style>
    <linearGradient id="linear-gradient" x1="-39.05" y1="347.36" x2="-39.05" y2="346.67" gradientTransform="translate(8801.27 77460.59) scale(223.45 -223)" gradientUnits="userSpaceOnUse">
      <stop offset="0" stop-color="#ef4044"/>
      <stop offset="1" stop-color="#1c1d1d"/>
    </linearGradient>
  </defs>
  <g id="Layer_1-2" data-name="Layer 1">
    <path id="Adaptability" class="cls-1" d="M87.66,76.4h-.09c3.28-3.05,5.33-7.39,5.33-12.2,0-9.19-7.48-16.67-16.67-16.67s-16.67,7.48-16.67,16.67c0,4.82,2.05,9.16,5.33,12.2h-.09c-6.54,0-11.86,5.32-11.86,11.86v14.44c0,1.23,1,2.23,2.23,2.23h42.11c1.23,0,2.23-1,2.23-2.23v-14.44c0-6.54-5.32-11.86-11.86-11.86Zm-23.63-12.2c0-6.73,5.47-12.2,12.2-12.2s12.2,5.47,12.2,12.2-5.48,12.2-12.2,12.2-12.2-5.47-12.2-12.2Zm31.03,36.27H57.4v-12.2c0-4.08,3.32-7.39,7.39-7.39h22.86c4.08,0,7.39,3.32,7.39,7.39v12.2ZM62.76,37.55h26.94c2.93,0,5.31-2.38,5.31-5.31v-9.04c0-1.23-1-2.23-2.23-2.23s-2.23,1-2.23,2.23v9.04c0,.46-.38,.84-.84,.84h-26.94c-.46,0-.84-.38-.84-.84V5.3c0-.46,.38-.84,.84-.84h26.94c.46,0,.84,.38,.84,.84v7.48c0,1.23,1,2.23,2.23,2.23s2.23-1,2.23-2.23V5.3c0-2.92-2.38-5.3-5.31-5.3h-26.94c-2.93,0-5.31,2.38-5.31,5.3v26.94c0,2.93,2.38,5.31,5.31,5.31h0Zm84.62,25.83c-.84-.9-2.26-.95-3.16-.1-.9,.84-.95,2.26-.1,3.16,2.5,2.66,3.87,6.14,3.87,9.79,0,7.89-6.42,14.31-14.31,14.31s-14.31-6.42-14.31-14.31,6.42-14.31,14.31-14.31c.88,0,1.76,.08,2.61,.24,1.21,.23,2.38-.58,2.6-1.79,.23-1.21-.58-2.38-1.79-2.6-1.12-.21-2.28-.31-3.43-.31-10.35,0-18.78,8.42-18.78,18.78s8.42,18.77,18.78,18.77,18.78-8.42,18.78-18.77c0-4.79-1.8-9.35-5.08-12.84h0Zm-110.66,28.95c1.03-1.67,1.12-3.71,.25-5.47l-13.15-26.31c-.96-1.92-2.88-3.11-5.03-3.11s-4.07,1.19-5.03,3.11L.6,86.86c-.88,1.76-.79,3.8,.25,5.47,1.03,1.67,2.82,2.67,4.78,2.67H31.94c1.96,0,3.75-1,4.78-2.67Zm-32.07-2.35c-.1-.16-.31-.6-.05-1.12l13.15-26.31c.29-.58,.82-.64,1.03-.64s.75,.06,1.03,.64l13.15,26.31c.26,.52,.05,.96-.05,1.12-.1,.16-.4,.55-.98,.55H5.63c-.58,0-.88-.38-.98-.55Zm86.81,28.69l-11.68-6.74c-2.19-1.26-4.91-1.26-7.1,0l-11.68,6.74c-2.19,1.26-3.55,3.62-3.55,6.15v1.53c0,1.23,1,2.23,2.23,2.23s2.23-1,2.23-2.23v-1.53c0-.94,.5-1.81,1.32-2.28l11.68-6.74c.81-.47,1.82-.47,2.63,0l11.68,6.74c.81,.47,1.32,1.34,1.32,2.28v13.48c0,.94-.5,1.81-1.32,2.28l-11.68,6.74c-.81,.47-1.82,.47-2.63,0l-11.68-6.74c-.81-.47-1.32-1.34-1.32-2.28v-1.53c0-1.23-1-2.23-2.23-2.23s-2.23,1-2.23,2.23v1.53c0,2.53,1.36,4.88,3.55,6.15l11.68,6.74c1.09,.63,2.32,.95,3.55,.95s2.45-.32,3.55-.95l11.68-6.74c2.19-1.26,3.55-3.62,3.55-6.15v-13.48c0-2.53-1.36-4.88-3.55-6.15h0Zm10.94-97.67h25.27c2.09,0,3.78,1.7,3.78,3.78v19.87l-3.41-3.41c-.87-.87-2.29-.87-3.16,0-.87,.87-.87,2.29,0,3.16l7.22,7.22c.42,.42,.99,.65,1.58,.65s1.16-.24,1.58-.65l7.22-7.22c.87-.87,.87-2.29,0-3.16-.87-.87-2.29-.87-3.16,0l-3.41,3.41V24.79c0-4.55-3.7-8.25-8.25-8.25h-25.27c-1.23,0-2.23,1-2.23,2.23s1,2.23,2.23,2.23ZM44.42,9.98c-.87-.87-2.29-.87-3.16,0-.87,.87-.87,2.29,0,3.16l3.41,3.41H24.79c-4.55,0-8.25,3.7-8.25,8.25v25.27c0,1.23,1,2.23,2.23,2.23s2.23-1,2.23-2.23V24.79c0-2.09,1.7-3.78,3.78-3.78h19.87l-3.41,3.41c-.87,.87-.87,2.29,0,3.16,.44,.44,1.01,.65,1.58,.65s1.14-.22,1.58-.65l7.22-7.22c.42-.42,.65-.99,.65-1.58s-.24-1.16-.65-1.58l-7.22-7.22Zm5.64,121.46H24.79c-2.09,0-3.78-1.7-3.78-3.78v-19.87l3.41,3.41c.44,.44,1.01,.65,1.58,.65s1.14-.22,1.58-.65c.87-.87,.87-2.29,0-3.16l-7.22-7.22c-.42-.42-.99-.65-1.58-.65s-1.16,.24-1.58,.65l-7.22,7.22c-.87,.87-.87,2.29,0,3.16,.87,.87,2.29,.87,3.16,0l3.41-3.41v19.87c0,4.55,3.7,8.25,8.25,8.25h25.27c1.23,0,2.23-1,2.23-2.23s-1-2.23-2.23-2.23Zm83.62-31.28c-1.23,0-2.23,1-2.23,2.23v25.27c0,2.09-1.7,3.78-3.78,3.78h-19.87l3.41-3.41c.87-.87,.87-2.29,0-3.16-.87-.87-2.29-.87-3.16,0l-7.22,7.22c-.42,.42-.65,.99-.65,1.58s.24,1.16,.65,1.58l7.22,7.22c.44,.44,1.01,.65,1.58,.65s1.14-.22,1.58-.65c.87-.87,.87-2.29,0-3.16l-3.41-3.41h19.87c4.55,0,8.25-3.7,8.25-8.25v-25.27c0-1.23-1-2.23-2.23-2.23Z"/>
  </g>
</svg>