<?xml version="1.0" encoding="UTF-8"?>
<svg id="Layer_2" data-name="Layer 2" xmlns="http://www.w3.org/2000/svg" viewBox="0 0 355.16 158.47">
  <defs>
    <style>
      .cls-1 {
        fill: #2d2d2d;
      }

      .cls-2 {
        fill: none;
        stroke: #2d2d2d;
        stroke-miterlimit: 10;
        stroke-width: 7.56px;
      }
    </style>
  </defs>
  <g id="Layer_1-2" data-name="Layer 1">
    <g>
      <g>
        <path class="cls-1" d="M194.24,125.47c-.97,2.82-1.5,5.25-2.65,7.34-.62,1.13-2.31,2.39-3.5,2.39-18.27-.09-36.54-.28-54.8-.66-6.58-.14-8.53-3.99-5.98-11.2,7.6-21.47,15.26-42.93,22.89-64.39,2.71-7.62,5.36-15.27,8.11-22.88,2.8-7.75,7.21-10.93,15.32-10.84,45.01,.54,90.01,1.11,135.02,1.72,7.92,.11,10.28,3.41,7.69,10.76-5.81,16.51-11.68,33-17.6,49.47-2.53,7.05-7.01,10.12-14.68,10.38-1.29,.04-2.59,.11-4.59,.19,2.04,12.96,4.03,25.59,6.11,38.72-8.6-.11-16.71-.07-24.8-.38-4.03-.15-5.52-3.18-6.03-6.74-1.31-8.99-2.48-18.01-4-26.96-.32-1.87-1.54-4.53-3-5.07-3.49-1.28-3.74,2.22-4.52,4.39-4.06,11.32-8.04,22.67-12.04,34.01-9.95-.13-19.56-.25-29.8-.38,3.38-9.59,6.64-18.89,9.92-28.18,7.48-21.17,14.99-42.34,22.46-63.52,2.22-6.3,1.23-7.76-5.42-7.84-11.13-.13-22.25-.12-33.38-.29-3.7-.05-6.73,1.09-8.04,4.6-4.07,10.96-7.91,22.01-12.15,33.89,9.8,.12,18.94,.24,28.09,.36-.24,8.86-1.51,10.17-9.13,10.07-6.14-.08-12.29-.05-18.43-.28-2.84-.11-4.45,.5-5.46,3.55-3.35,10.19-7.16,20.24-10.67,30.38-1.82,5.26-.58,6.88,5.14,6.98,9.78,.17,19.55,.26,29.94,.39Zm54.24-38.43c5.62,.07,10.49,.76,15.09-.05,2.6-.46,6.01-2.88,6.94-5.25,5.1-13.04,9.61-26.31,14.1-39.58,.46-1.36-.44-4.59-.94-4.64-5.54-.57-11.13-.73-16.7-.83-.45,0-1.1,1.17-1.36,1.9-5.62,15.82-11.2,31.65-17.12,48.45Z"/>
        <path class="cls-1" d="M32.14,133.27c7.12-20.13,14.02-39.72,20.97-59.28,4.64-13.06,9.3-26.11,14.02-39.14,2.82-7.79,7.1-10.8,15.32-10.71,18.93,.19,37.85,.43,56.77,.72,8.15,.13,10.37,3.37,7.62,11.14-11.12,31.42-22.35,62.79-33.39,94.24-1.13,3.23-2.68,4.24-6.07,4.08-8.07-.37-16.16-.29-25-.41,4.56-13.03,8.89-25.41,13.55-38.71-6.81-.09-13-.33-19.16-.07-.92,.04-2.05,2.29-2.56,3.7-3.74,10.22-7.52,20.44-10.89,30.79-1.1,3.37-2.72,4.19-6.03,4.05-8.12-.34-16.25-.28-25.16-.4Zm46.91-48.19c6.05,.08,11.03-.07,15.97,.28,3.4,.24,4.99-.89,6.08-4.16,3.85-11.58,8-23.06,12.07-34.56,4.3-12.19,3.74-13.17-9.37-12.32-2.81,.18-7.05,2.21-7.93,4.45-5.91,14.98-11.08,30.24-16.82,46.32Z"/>
      </g>
      <path class="cls-2" d="M283.92,154.69H9.11c-5.09,0-6.84-5.79-3.9-12.93L56.69,16.71c2.94-7.14,9.45-12.93,14.55-12.93H346.06c5.09,0,6.84,5.79,3.9,12.93l-51.48,125.04c-2.94,7.14-9.45,12.93-14.55,12.93Z"/>
    </g>
  </g>
</svg>