<?xml version="1.0" encoding="UTF-8"?>
<svg id="Layer_2" data-name="Layer 2" xmlns="http://www.w3.org/2000/svg" xmlns:xlink="http://www.w3.org/1999/xlink" viewBox="0 0 147.09 147.09">
  <defs>
    <style>
      .cls-1 {
        fill: url(#linear-gradient);
      }

      .cls-1, .cls-2 {
        fill-rule: evenodd;
      }

      .cls-2 {
        fill: #1c1d1d;
      }
    </style>
    <linearGradient id="linear-gradient" x1="-318.97" y1="574.49" x2="-318.97" y2="573.83" gradientTransform="translate(71202.99 128111.14) scale(223 -223)" gradientUnits="userSpaceOnUse">
      <stop offset="0" stop-color="#ef4044"/>
      <stop offset="1" stop-color="#1c1d1d"/>
    </linearGradient>
  </defs>
  <g id="Layer_1-2" data-name="Layer 1">
    <g id="Site-Icons">
      <g id="Combined-Shape">
        <path id="path-kj_q56jx9w-2" data-name="path-kj q56jx9w-2" class="cls-2" d="M117.67,0c5.42,0,9.81,4.39,9.81,9.81h0v63.74h9.81c5.42,0,9.81,4.39,9.81,9.81h0v53.93c0,5.42-4.39,9.81-9.81,9.81h-53.93c-5.42,0-9.81-4.39-9.81-9.81H9.81c-5.42,0-9.81-4.39-9.81-9.81H0V9.81C0,4.39,4.39,0,9.81,0H117.67Zm19.61,78.45h-53.93c-2.71,0-4.9,2.2-4.9,4.9h0v53.93c0,2.71,2.2,4.9,4.9,4.9h53.93c2.71,0,4.9-2.2,4.9-4.9h0v-53.93c0-2.71-2.2-4.9-4.9-4.9h0Zm-33.79,7.3c1.35,0,2.44,1.09,2.44,2.44s-1.09,2.44-2.44,2.44h-9.76c-1.35,0-2.44,1.09-2.44,2.44h0v34.17c0,1.35,1.09,2.44,2.44,2.44h34.17c1.35,0,2.44-1.09,2.44-2.44h0v-9.76c0-1.35,1.09-2.44,2.44-2.44s2.44,1.09,2.44,2.44h0v9.76c0,4.04-3.28,7.32-7.32,7.32h-34.17c-4.04,0-7.32-3.28-7.32-7.32h0v-34.17c0-4.04,3.28-7.32,7.32-7.32h9.76Zm19.08-61.23H4.9V127.48c0,2.71,2.2,4.9,4.9,4.9h63.74v-49.03c0-5.42,4.39-9.81,9.81-9.81h39.22V24.51ZM29.35,29.02c1.27,0,2.31,1.1,2.31,2.46h0V124.84c0,1.36-1.03,2.46-2.31,2.46s-2.31-1.1-2.31-2.46h0V31.48c0-1.36,1.03-2.46,2.31-2.46ZM61.51,120.05c1.37,0,2.47,1.03,2.47,2.31s-1.11,2.31-2.47,2.31h-14.84c-1.37,0-2.47-1.03-2.47-2.31s1.11-2.31,2.47-2.31h14.84Zm-41.55,0c1.37,0,2.47,1.03,2.47,2.31s-1.11,2.31-2.47,2.31h-4.95c-1.37,0-2.47-1.03-2.47-2.31s1.11-2.31,2.47-2.31h4.95Zm98.41-29.14c1.82-.9,3.99-.68,5.59,.56h0l9.34,7.27c1.21,.92,1.92,2.35,1.92,3.86s-.71,2.94-1.92,3.86h0l-9.33,7.27c-1.6,1.25-3.78,1.47-5.6,.57-1.62-.76-2.7-2.34-2.83-4.11-4.04,.8-7.42,3.52-9.04,7.28-.65,1.57-2.19,2.58-3.9,2.58-.29,0-.58-.03-.87-.09-2.02-.39-3.47-2.15-3.45-4.19h0v-8.49c0-6.63,5.42-12.01,12.09-12.02h5.15c.05-1.87,1.14-3.55,2.84-4.35Zm-59.49,19.24c1.37,0,2.47,1.03,2.47,2.31s-1.11,2.31-2.47,2.31h-14.84c-1.37,0-2.47-1.03-2.47-2.31s1.11-2.31,2.47-2.31h14.84Zm-38.92,0c1.37,0,2.47,1.03,2.47,2.31s-1.11,2.31-2.47,2.31h-4.95c-1.37,0-2.47-1.03-2.47-2.31s1.11-2.31,2.47-2.31h4.95Zm100.75-14.9h-.06s-.2,2.46-.2,2.46c0,1.35-1.1,2.45-2.46,2.45h-7.61c-3.96,0-7.16,3.19-7.17,7.12h0v5.92c3.18-5.07,8.77-8.15,14.78-8.15,1.36,0,2.46,1.1,2.46,2.45h0v2.35c.37,.12,.46,.05,.49,.03h0l9.32-7.27h.01l.03-.03-9.38-7.25c-.08-.06-.18-.08-.27-.06h.06Zm-59.2,5c1.37,0,2.47,1.03,2.47,2.31s-1.11,2.31-2.47,2.31h-14.84c-1.37,0-2.47-1.03-2.47-2.31s1.11-2.31,2.47-2.31h14.84Zm-41.55,0c1.37,0,2.47,1.03,2.47,2.31s-1.11,2.31-2.47,2.31h-4.95c-1.37,0-2.47-1.03-2.47-2.31s1.11-2.31,2.47-2.31h4.95Zm44.19-9.89c1.37,0,2.47,1.03,2.47,2.31s-1.11,2.31-2.47,2.31h-24.73c-1.37,0-2.47-1.03-2.47-2.31s1.11-2.31,2.47-2.31h24.73Zm-44.19,0c1.37,0,2.47,1.03,2.47,2.31s-1.11,2.31-2.47,2.31h-4.95c-1.37,0-2.47-1.03-2.47-2.31s1.11-2.31,2.47-2.31h4.95Zm38.95-9.89c1.35,0,2.44,1.03,2.44,2.31s-1.09,2.31-2.44,2.31h-19.52c-1.35,0-2.44-1.03-2.44-2.31s1.09-2.31,2.44-2.31h19.52Zm-38.95,0c1.37,0,2.47,1.03,2.47,2.31s-1.11,2.31-2.47,2.31h-4.95c-1.37,0-2.47-1.03-2.47-2.31s1.11-2.31,2.47-2.31h4.95Zm0-9.23c1.37,0,2.47,1.03,2.47,2.31s-1.11,2.31-2.47,2.31h-4.95c-1.37,0-2.47-1.03-2.47-2.31s1.11-2.31,2.47-2.31h4.95Zm41.55,0c1.37,0,2.47,1.03,2.47,2.31s-1.11,2.31-2.47,2.31h-14.84c-1.37,0-2.47-1.03-2.47-2.31s1.11-2.31,2.47-2.31h14.84Zm29.7-9.89c1.36,0,2.46,1.03,2.46,2.31s-1.1,2.31-2.46,2.31h-22.13c-1.36,0-2.46-1.03-2.46-2.31s1.1-2.31,2.46-2.31h22.13Zm19.17,0c1.34,0,2.42,1.03,2.42,2.31s-1.08,2.31-2.42,2.31h-9.67c-1.34,0-2.42-1.03-2.42-2.31s1.08-2.31,2.42-2.31h9.67Zm-51.5,0c1.37,0,2.47,1.03,2.47,2.31s-1.11,2.31-2.47,2.31h-14.84c-1.37,0-2.47-1.03-2.47-2.31s1.11-2.31,2.47-2.31h14.84Zm-38.92,0c1.37,0,2.47,1.03,2.47,2.31s-1.11,2.31-2.47,2.31h-4.95c-1.37,0-2.47-1.03-2.47-2.31s1.11-2.31,2.47-2.31h4.95Zm41.55-9.89c1.37,0,2.47,1.03,2.47,2.31s-1.11,2.31-2.47,2.31h-14.84c-1.37,0-2.47-1.03-2.47-2.31s1.11-2.31,2.47-2.31h14.84Zm31.67,0c1.36,0,2.46,1.03,2.46,2.31s-1.1,2.31-2.46,2.31h-22.13c-1.36,0-2.46-1.03-2.46-2.31s1.1-2.31,2.46-2.31h22.13Zm19.83,0c1.34,0,2.42,1.03,2.42,2.31s-1.08,2.31-2.42,2.31h-9.67c-1.34,0-2.42-1.03-2.42-2.31s1.08-2.31,2.42-2.31h9.67Zm-93.06,0c1.37,0,2.47,1.03,2.47,2.31s-1.11,2.31-2.47,2.31h-4.95c-1.37,0-2.47-1.03-2.47-2.31s1.11-2.31,2.47-2.31h4.95Zm44.19-9.89c1.37,0,2.47,1.03,2.47,2.31s-1.11,2.31-2.47,2.31h-24.73c-1.37,0-2.47-1.03-2.47-2.31s1.11-2.31,2.47-2.31h24.73Zm-44.19,0c1.37,0,2.47,1.03,2.47,2.31s-1.11,2.31-2.47,2.31h-4.95c-1.37,0-2.47-1.03-2.47-2.31s1.11-2.31,2.47-2.31h4.95Zm38.95-9.89c1.35,0,2.44,1.03,2.44,2.31s-1.09,2.31-2.44,2.31h-19.52c-1.35,0-2.44-1.03-2.44-2.31s1.09-2.31,2.44-2.31h19.52Zm-38.95,0c1.37,0,2.47,1.03,2.47,2.31s-1.11,2.31-2.47,2.31h-4.95c-1.37,0-2.47-1.03-2.47-2.31s1.11-2.31,2.47-2.31h4.95ZM117.67,4.9H9.81c-2.71,0-4.9,2.2-4.9,4.9h0v9.81H122.57V9.81c0-2.71-2.2-4.9-4.9-4.9h0ZM14.73,9.89c1.34,0,2.42,1.03,2.42,2.31s-1.08,2.31-2.42,2.31h-2.42c-1.34,0-2.42-1.03-2.42-2.31s1.08-2.31,2.42-2.31h2.42Zm12.53,0c1.34,0,2.42,1.03,2.42,2.31s-1.08,2.31-2.42,2.31h-2.42c-1.34,0-2.42-1.03-2.42-2.31s1.08-2.31,2.42-2.31h2.42Zm11.87,0c1.34,0,2.42,1.03,2.42,2.31s-1.08,2.31-2.42,2.31h-2.42c-1.34,0-2.42-1.03-2.42-2.31s1.08-2.31,2.42-2.31h2.42Zm76.46,0c1.37,0,2.47,1.03,2.47,2.31s-1.11,2.31-2.47,2.31h-14.84c-1.37,0-2.47-1.03-2.47-2.31s1.11-2.31,2.47-2.31h14.84Z"/>
        <path id="path-kj_q56jx9w-2-2" data-name="path-kj q56jx9w-2" class="cls-1" d="M117.67,0c5.42,0,9.81,4.39,9.81,9.81h0v63.74h9.81c5.42,0,9.81,4.39,9.81,9.81h0v53.93c0,5.42-4.39,9.81-9.81,9.81h-53.93c-5.42,0-9.81-4.39-9.81-9.81H9.81c-5.42,0-9.81-4.39-9.81-9.81H0V9.81C0,4.39,4.39,0,9.81,0H117.67Zm19.61,78.45h-53.93c-2.71,0-4.9,2.2-4.9,4.9h0v53.93c0,2.71,2.2,4.9,4.9,4.9h53.93c2.71,0,4.9-2.2,4.9-4.9h0v-53.93c0-2.71-2.2-4.9-4.9-4.9h0Zm-33.79,7.3c1.35,0,2.44,1.09,2.44,2.44s-1.09,2.44-2.44,2.44h-9.76c-1.35,0-2.44,1.09-2.44,2.44h0v34.17c0,1.35,1.09,2.44,2.44,2.44h34.17c1.35,0,2.44-1.09,2.44-2.44h0v-9.76c0-1.35,1.09-2.44,2.44-2.44s2.44,1.09,2.44,2.44h0v9.76c0,4.04-3.28,7.32-7.32,7.32h-34.17c-4.04,0-7.32-3.28-7.32-7.32h0v-34.17c0-4.04,3.28-7.32,7.32-7.32h9.76Zm19.08-61.23H4.9V127.48c0,2.71,2.2,4.9,4.9,4.9h63.74v-49.03c0-5.42,4.39-9.81,9.81-9.81h39.22V24.51ZM29.35,29.02c1.27,0,2.31,1.1,2.31,2.46h0V124.84c0,1.36-1.03,2.46-2.31,2.46s-2.31-1.1-2.31-2.46h0V31.48c0-1.36,1.03-2.46,2.31-2.46ZM61.51,120.05c1.37,0,2.47,1.03,2.47,2.31s-1.11,2.31-2.47,2.31h-14.84c-1.37,0-2.47-1.03-2.47-2.31s1.11-2.31,2.47-2.31h14.84Zm-41.55,0c1.37,0,2.47,1.03,2.47,2.31s-1.11,2.31-2.47,2.31h-4.95c-1.37,0-2.47-1.03-2.47-2.31s1.11-2.31,2.47-2.31h4.95Zm98.41-29.14c1.82-.9,3.99-.68,5.59,.56h0l9.34,7.27c1.21,.92,1.92,2.35,1.92,3.86s-.71,2.94-1.92,3.86h0l-9.33,7.27c-1.6,1.25-3.78,1.47-5.6,.57-1.62-.76-2.7-2.34-2.83-4.11-4.04,.8-7.42,3.52-9.04,7.28-.65,1.57-2.19,2.58-3.9,2.58-.29,0-.58-.03-.87-.09-2.02-.39-3.47-2.15-3.45-4.19h0v-8.49c0-6.63,5.42-12.01,12.09-12.02h5.15c.05-1.87,1.14-3.55,2.84-4.35Zm-59.49,19.24c1.37,0,2.47,1.03,2.47,2.31s-1.11,2.31-2.47,2.31h-14.84c-1.37,0-2.47-1.03-2.47-2.31s1.11-2.31,2.47-2.31h14.84Zm-38.92,0c1.37,0,2.47,1.03,2.47,2.31s-1.11,2.31-2.47,2.31h-4.95c-1.37,0-2.47-1.03-2.47-2.31s1.11-2.31,2.47-2.31h4.95Zm100.75-14.9h-.06s-.2,2.46-.2,2.46c0,1.35-1.1,2.45-2.46,2.45h-7.61c-3.96,0-7.16,3.19-7.17,7.12h0v5.92c3.18-5.07,8.77-8.15,14.78-8.15,1.36,0,2.46,1.1,2.46,2.45h0v2.35c.37,.12,.46,.05,.49,.03h0l9.32-7.27h.01l.03-.03-9.38-7.25c-.08-.06-.18-.08-.27-.06h.06Zm-59.2,5c1.37,0,2.47,1.03,2.47,2.31s-1.11,2.31-2.47,2.31h-14.84c-1.37,0-2.47-1.03-2.47-2.31s1.11-2.31,2.47-2.31h14.84Zm-41.55,0c1.37,0,2.47,1.03,2.47,2.31s-1.11,2.31-2.47,2.31h-4.95c-1.37,0-2.47-1.03-2.47-2.31s1.11-2.31,2.47-2.31h4.95Zm44.19-9.89c1.37,0,2.47,1.03,2.47,2.31s-1.11,2.31-2.47,2.31h-24.73c-1.37,0-2.47-1.03-2.47-2.31s1.11-2.31,2.47-2.31h24.73Zm-44.19,0c1.37,0,2.47,1.03,2.47,2.31s-1.11,2.31-2.47,2.31h-4.95c-1.37,0-2.47-1.03-2.47-2.31s1.11-2.31,2.47-2.31h4.95Zm38.95-9.89c1.35,0,2.44,1.03,2.44,2.31s-1.09,2.31-2.44,2.31h-19.52c-1.35,0-2.44-1.03-2.44-2.31s1.09-2.31,2.44-2.31h19.52Zm-38.95,0c1.37,0,2.47,1.03,2.47,2.31s-1.11,2.31-2.47,2.31h-4.95c-1.37,0-2.47-1.03-2.47-2.31s1.11-2.31,2.47-2.31h4.95Zm0-9.23c1.37,0,2.47,1.03,2.47,2.31s-1.11,2.31-2.47,2.31h-4.95c-1.37,0-2.47-1.03-2.47-2.31s1.11-2.31,2.47-2.31h4.95Zm41.55,0c1.37,0,2.47,1.03,2.47,2.31s-1.11,2.31-2.47,2.31h-14.84c-1.37,0-2.47-1.03-2.47-2.31s1.11-2.31,2.47-2.31h14.84Zm29.7-9.89c1.36,0,2.46,1.03,2.46,2.31s-1.1,2.31-2.46,2.31h-22.13c-1.36,0-2.46-1.03-2.46-2.31s1.1-2.31,2.46-2.31h22.13Zm19.17,0c1.34,0,2.42,1.03,2.42,2.31s-1.08,2.31-2.42,2.31h-9.67c-1.34,0-2.42-1.03-2.42-2.31s1.08-2.31,2.42-2.31h9.67Zm-51.5,0c1.37,0,2.47,1.03,2.47,2.31s-1.11,2.31-2.47,2.31h-14.84c-1.37,0-2.47-1.03-2.47-2.31s1.11-2.31,2.47-2.31h14.84Zm-38.92,0c1.37,0,2.47,1.03,2.47,2.31s-1.11,2.31-2.47,2.31h-4.95c-1.37,0-2.47-1.03-2.47-2.31s1.11-2.31,2.47-2.31h4.95Zm41.55-9.89c1.37,0,2.47,1.03,2.47,2.31s-1.11,2.31-2.47,2.31h-14.84c-1.37,0-2.47-1.03-2.47-2.31s1.11-2.31,2.47-2.31h14.84Zm31.67,0c1.36,0,2.46,1.03,2.46,2.31s-1.1,2.31-2.46,2.31h-22.13c-1.36,0-2.46-1.03-2.46-2.31s1.1-2.31,2.46-2.31h22.13Zm19.83,0c1.34,0,2.42,1.03,2.42,2.31s-1.08,2.31-2.42,2.31h-9.67c-1.34,0-2.42-1.03-2.42-2.31s1.08-2.31,2.42-2.31h9.67Zm-93.06,0c1.37,0,2.47,1.03,2.47,2.31s-1.11,2.31-2.47,2.31h-4.95c-1.37,0-2.47-1.03-2.47-2.31s1.11-2.31,2.47-2.31h4.95Zm44.19-9.89c1.37,0,2.47,1.03,2.47,2.31s-1.11,2.31-2.47,2.31h-24.73c-1.37,0-2.47-1.03-2.47-2.31s1.11-2.31,2.47-2.31h24.73Zm-44.19,0c1.37,0,2.47,1.03,2.47,2.31s-1.11,2.31-2.47,2.31h-4.95c-1.37,0-2.47-1.03-2.47-2.31s1.11-2.31,2.47-2.31h4.95Zm38.95-9.89c1.35,0,2.44,1.03,2.44,2.31s-1.09,2.31-2.44,2.31h-19.52c-1.35,0-2.44-1.03-2.44-2.31s1.09-2.31,2.44-2.31h19.52Zm-38.95,0c1.37,0,2.47,1.03,2.47,2.31s-1.11,2.31-2.47,2.31h-4.95c-1.37,0-2.47-1.03-2.47-2.31s1.11-2.31,2.47-2.31h4.95ZM117.67,4.9H9.81c-2.71,0-4.9,2.2-4.9,4.9h0v9.81H122.57V9.81c0-2.71-2.2-4.9-4.9-4.9h0ZM14.73,9.89c1.34,0,2.42,1.03,2.42,2.31s-1.08,2.31-2.42,2.31h-2.42c-1.34,0-2.42-1.03-2.42-2.31s1.08-2.31,2.42-2.31h2.42Zm12.53,0c1.34,0,2.42,1.03,2.42,2.31s-1.08,2.31-2.42,2.31h-2.42c-1.34,0-2.42-1.03-2.42-2.31s1.08-2.31,2.42-2.31h2.42Zm11.87,0c1.34,0,2.42,1.03,2.42,2.31s-1.08,2.31-2.42,2.31h-2.42c-1.34,0-2.42-1.03-2.42-2.31s1.08-2.31,2.42-2.31h2.42Zm76.46,0c1.37,0,2.47,1.03,2.47,2.31s-1.11,2.31-2.47,2.31h-14.84c-1.37,0-2.47-1.03-2.47-2.31s1.11-2.31,2.47-2.31h14.84Z"/>
      </g>
    </g>
  </g>
</svg>