<?xml version="1.0" encoding="UTF-8"?>
<svg id="Layer_2" data-name="Layer 2" xmlns="http://www.w3.org/2000/svg" xmlns:xlink="http://www.w3.org/1999/xlink" viewBox="0 0 161.73 161.73">
  <defs>
    <style>
      .cls-1 {
        fill: url(#linear-gradient);
      }

      .cls-1, .cls-2 {
        fill-rule: evenodd;
      }

      .cls-2 {
        fill: #1c1d1d;
      }
    </style>
    <linearGradient id="linear-gradient" x1="-502.4" y1="586.03" x2="-502.4" y2="585.3" gradientTransform="translate(112117.03 130684.64) scale(223 -223)" gradientUnits="userSpaceOnUse">
      <stop offset="0" stop-color="#ef4044"/>
      <stop offset="1" stop-color="#1c1d1d"/>
    </linearGradient>
  </defs>
  <g id="Layer_1-2" data-name="Layer 1">
    <g id="Site-Icons">
      <g id="Combined-Shape">
        <path id="path-ije6ncpycq-2" class="cls-2" d="M49.61,70.52c1.86,.19,3.48,1.36,4.24,3.06l.08,.18,1.48,3.72c3.55,.89,6.95,2.28,10.12,4.11l.53,.31,3.68-1.57c1.79-.79,3.88-.49,5.38,.78,1.98,1.67,3.82,3.5,5.49,5.49,1.23,1.45,1.55,3.45,.86,5.2l-.08,.19-1.57,3.67c1.88,3.14,3.32,6.53,4.26,10.06l.15,.59,3.71,1.48c1.8,.72,3.05,2.38,3.25,4.3,.24,2.62,.24,5.25,0,7.86-.19,1.86-1.36,3.48-3.06,4.24l-.18,.08-3.72,1.49c-.89,3.55-2.28,6.95-4.11,10.12l-.31,.53,1.56,3.68c.79,1.79,.49,3.88-.78,5.38-1.67,1.99-3.51,3.82-5.49,5.49-1.44,1.22-3.44,1.55-5.19,.86l-.19-.08-3.67-1.57c-3.14,1.88-6.52,3.32-10.05,4.26l-.59,.15-1.48,3.71c-.72,1.81-2.39,3.06-4.33,3.26-1.31,.13-2.6,.18-3.79,.18-1.57,0-2.98-.08-4.05-.18-1.87-.19-3.48-1.36-4.25-3.06l-.08-.18-1.48-3.72c-3.55-.89-6.95-2.28-10.12-4.11l-.53-.31-3.68,1.57c-1.79,.79-3.88,.49-5.38-.78-1.98-1.67-3.82-3.5-5.49-5.49-1.23-1.45-1.55-3.45-.86-5.2l.08-.19,1.57-3.67c-1.88-3.14-3.32-6.52-4.26-10.05l-.15-.59-3.7-1.48c-1.81-.72-3.06-2.39-3.26-4.33-.24-2.61-.24-5.24,0-7.84,.19-1.86,1.36-3.48,3.06-4.24l.18-.08,3.72-1.49c.89-3.55,2.28-6.95,4.11-10.12l.31-.53-1.57-3.68c-.79-1.79-.49-3.88,.78-5.37,1.67-1.99,3.51-3.82,5.5-5.49,1.44-1.23,3.44-1.55,5.19-.86l.19,.08,3.67,1.57c3.14-1.88,6.52-3.32,10.05-4.26l.59-.15,1.48-3.71c.73-1.81,2.39-3.06,4.33-3.26,2.61-.23,5.24-.23,7.84,0Zm-6.6,5.3l-.74,.06-1.84,4.91c-.33,.83-1.06,1.44-1.93,1.63-4.09,.87-7.98,2.49-11.48,4.77-.7,.46-1.58,.56-2.36,.28l-.16-.06-4.96-2.12c-1.47,1.32-2.87,2.73-4.17,4.23l-.48,.56,2.17,4.77c.35,.82,.27,1.77-.22,2.52-2.28,3.5-3.89,7.39-4.76,11.48-.18,.83-.73,1.52-1.49,1.87l-.14,.06-5.01,2c-.11,1.98-.09,3.96,.04,5.93l.06,.74,4.91,1.84c.83,.33,1.45,1.06,1.63,1.94,.87,4.09,2.48,7.98,4.76,11.48,.46,.7,.56,1.58,.28,2.36l-.06,.16-2.12,4.96c1.32,1.47,2.74,2.86,4.23,4.17l.56,.48,4.78-2.17c.33-.14,.69-.21,1.06-.22,.52,0,1.03,.15,1.46,.43,3.5,2.28,7.4,3.89,11.48,4.76,.82,.18,1.52,.73,1.87,1.48l.06,.14,2,5.01c1.98,.11,3.96,.1,5.94-.04l.74-.06,1.84-4.91c.33-.83,1.06-1.44,1.93-1.63,4.09-.87,7.98-2.48,11.48-4.76,.7-.46,1.58-.56,2.36-.28l.16,.06,4.96,2.12c1.47-1.32,2.87-2.73,4.17-4.22l.48-.56-2.17-4.78c-.35-.82-.27-1.77,.22-2.52,2.28-3.5,3.89-7.4,4.76-11.48,.17-.83,.73-1.52,1.49-1.88l.14-.06,5.01-2c.11-1.94,.1-3.88-.03-5.82l-.05-.73-4.92-1.96c-.83-.33-1.45-1.06-1.63-1.94-.87-4.09-2.48-7.98-4.76-11.48-.46-.7-.56-1.58-.28-2.36l.06-.16,2.12-4.96c-1.32-1.47-2.73-2.87-4.22-4.17l-.56-.48-4.78,2.17c-.82,.35-1.77,.27-2.52-.22-3.5-2.28-7.39-3.89-11.48-4.76-.83-.18-1.52-.73-1.87-1.49l-.06-.14-2-5.01c-1.98-.11-3.96-.1-5.94,.04Zm2.68,10.48c16.42,0,29.73,13.31,29.73,29.73s-13.31,29.73-29.73,29.73c-16.41-.02-29.71-13.32-29.73-29.73,0-16.42,13.31-29.73,29.73-29.73Zm91.95,10.88c4.49,0,8.13,3.61,8.13,8.06h0v18.81c0,7.42-6.07,13.43-13.55,13.44h-16.34c-.35,2.24-1.88,4.12-4.01,4.94-2.13,.82-4.53,.46-6.32-.95h0l-8.88-7.08c-1.51-1.21-2.39-3.04-2.39-4.97s.88-3.76,2.39-4.97h0l8.86-7.07c1.78-1.42,4.2-1.79,6.33-.97,2.13,.82,3.66,2.7,4.02,4.94h13.63v-16.13c0-4.45,3.64-8.06,8.13-8.06Zm-91.95-5.47c-13.43,.01-24.31,10.9-24.33,24.33,0,13.44,10.89,24.33,24.33,24.33s24.33-10.89,24.33-24.33-10.89-24.33-24.33-24.33Zm91.95,10.85c-1.5,0-2.71,1.2-2.71,2.69h0v16.13c0,2.97-2.43,5.38-5.42,5.38h-16.26c-1.5,0-2.71-1.2-2.71-2.69h0v-1.69c.01-.38-.2-.73-.54-.89-.35-.18-.78-.13-1.08,.12h0l-8.83,7.05c-.24,.19-.38,.48-.38,.79s.14,.59,.38,.79h0l8.86,7.06c.3,.24,.71,.28,1.05,.11,.34-.16,.56-.51,.54-.89h0v-1.69c0-1.48,1.21-2.69,2.71-2.69h18.97c4.49,0,8.13-3.61,8.13-8.06h0v-18.81c0-1.48-1.21-2.69-2.71-2.69Zm-79.25,.24c1.15,.86,1.41,2.46,.63,3.63l-.09,.12-16.12,21.47c-.44,.58-1.09,.96-1.8,1.06l-.15,.02h-.19c-.66,0-1.29-.24-1.78-.67l-.12-.11-5.37-5.37c-1.02-1.05-1-2.73,.03-3.76,1-1,2.59-1.05,3.65-.14l.12,.1,3.18,3.18,14.26-18.99c.89-1.19,2.57-1.43,3.76-.54ZM119.96,.18c1.87,.19,3.49,1.37,4.25,3.07l.08,.18,1.48,3.71c3.55,.89,6.95,2.27,10.12,4.11l.53,.31,3.68-1.57c1.79-.79,3.88-.49,5.38,.78,1.99,1.67,3.83,3.51,5.49,5.5,1.23,1.44,1.55,3.44,.85,5.19l-.08,.19-1.57,3.67c1.88,3.14,3.32,6.53,4.26,10.06l.15,.59,3.71,1.48c1.8,.72,3.05,2.38,3.25,4.3,.24,2.62,.24,5.25,0,7.86-.19,1.86-1.36,3.48-3.06,4.24l-.18,.08-3.72,1.49c-.89,3.55-2.27,6.95-4.11,10.12l-.31,.53,1.56,3.67c.8,1.8,.49,3.89-.79,5.39-1.67,1.98-3.5,3.82-5.49,5.49-1.44,1.22-3.44,1.54-5.19,.86l-.19-.08-3.67-1.57c-3.14,1.88-6.52,3.32-10.05,4.26l-.59,.15-1.48,3.71c-.72,1.81-2.39,3.06-4.33,3.26-1.31,.13-2.6,.18-3.79,.18-1.57,0-2.98-.09-4.05-.18-1.86-.19-3.48-1.36-4.24-3.06l-.08-.18-1.49-3.72c-3.55-.89-6.95-2.27-10.12-4.11l-.53-.31-3.68,1.56c-1.79,.79-3.88,.49-5.38-.78-1.98-1.67-3.82-3.5-5.49-5.49-1.22-1.44-1.55-3.44-.86-5.19l.08-.19,1.57-3.67c-1.88-3.14-3.32-6.52-4.26-10.05l-.15-.59-3.7-1.48c-1.81-.72-3.06-2.39-3.26-4.33-.24-2.61-.24-5.24,0-7.85,.19-1.86,1.36-3.48,3.06-4.24l.18-.08,3.72-1.49c.89-3.55,2.28-6.95,4.11-10.12l.31-.53-1.57-3.68c-.79-1.79-.49-3.88,.78-5.38,1.67-1.99,3.51-3.82,5.5-5.49,1.44-1.23,3.44-1.55,5.19-.86l.19,.08,3.67,1.57c3.14-1.88,6.52-3.32,10.05-4.26l.59-.15,1.48-3.71c.73-1.8,2.39-3.06,4.33-3.26,2.61-.23,5.24-.23,7.84,0Zm-6.6,5.3l-.74,.06-1.84,4.91c-.33,.83-1.06,1.45-1.94,1.63-4.09,.87-7.98,2.48-11.48,4.76-.7,.46-1.58,.56-2.36,.28l-.16-.06-4.96-2.12c-1.47,1.32-2.87,2.73-4.17,4.22l-.48,.56,2.17,4.78c.35,.82,.27,1.77-.22,2.52-2.28,3.5-3.89,7.39-4.76,11.48-.18,.83-.73,1.52-1.49,1.88l-.14,.06-5.01,2c-.11,1.98-.09,3.96,.04,5.93l.06,.74,4.91,1.84c.83,.33,1.45,1.06,1.63,1.94,.87,4.09,2.48,7.98,4.76,11.48,.46,.7,.56,1.58,.28,2.36l-.06,.16-2.12,4.96c1.32,1.47,2.73,2.87,4.22,4.17l.56,.48,4.78-2.17c.33-.14,.69-.21,1.06-.21,.52,0,1.03,.15,1.46,.43,3.5,2.28,7.39,3.89,11.48,4.76,.83,.18,1.52,.73,1.88,1.49l.06,.14,2,5.01c1.98,.11,3.96,.1,5.94-.04l.74-.06,1.84-4.91c.33-.83,1.06-1.45,1.94-1.63,4.09-.87,7.98-2.48,11.48-4.76,.71-.45,1.58-.55,2.36-.28l.16,.06,4.96,2.12c1.47-1.32,2.87-2.73,4.17-4.22l.48-.56-2.17-4.78c-.35-.82-.27-1.77,.22-2.52,2.28-3.5,3.89-7.39,4.76-11.48,.17-.83,.73-1.52,1.49-1.87l.14-.06,5.01-2c.11-1.94,.1-3.88-.03-5.82l-.05-.73-4.92-1.96c-.83-.33-1.45-1.06-1.63-1.94-.87-4.09-2.48-7.98-4.76-11.48-.46-.7-.56-1.58-.28-2.36l.06-.16,2.12-4.96c-1.32-1.47-2.73-2.87-4.22-4.17l-.56-.48-4.78,2.17c-.82,.35-1.77,.27-2.52-.22-3.5-2.28-7.39-3.89-11.48-4.76-.83-.17-1.52-.73-1.87-1.49l-.06-.14-2-5.01c-1.98-.11-3.96-.1-5.93,.04Zm2.68,10.48c16.42,0,29.73,13.31,29.73,29.73s-13.31,29.73-29.73,29.73c-16.41-.02-29.71-13.32-29.73-29.73,0-16.42,13.31-29.73,29.73-29.73Zm0,5.41c-13.43,.01-24.31,10.9-24.33,24.33,0,13.44,10.89,24.33,24.33,24.33s24.33-10.89,24.33-24.33-10.89-24.33-24.33-24.33Zm-66.19-2.07c2.13-.82,4.53-.46,6.32,.94h0l8.88,7.08c1.51,1.21,2.39,3.04,2.39,4.97s-.88,3.76-2.39,4.97h0l-8.86,7.07c-1.78,1.42-4.2,1.79-6.33,.97-2.13-.82-3.66-2.7-4.02-4.94h-13.63v16.13c0,4.45-3.64,8.06-8.13,8.06s-8.13-3.61-8.13-8.06h0v-18.82c0-7.42,6.07-13.43,13.55-13.44h16.34c.36-2.24,1.88-4.11,4.01-4.94Zm2.94,5.15c-.3-.24-.71-.28-1.06-.11-.34,.16-.56,.51-.54,.89h0v1.69c0,1.48-1.21,2.69-2.71,2.69H29.51c-4.49,0-8.13,3.61-8.13,8.06h0v18.82c0,1.48,1.21,2.69,2.71,2.69s2.71-1.2,2.71-2.69h0v-16.13c0-2.97,2.43-5.38,5.42-5.38h16.26c1.5,0,2.71,1.2,2.71,2.69h0v1.69c-.01,.38,.2,.73,.54,.89,.35,.18,.78,.13,1.08-.12h0l8.83-7.05c.24-.19,.38-.48,.38-.79s-.14-.59-.38-.79h0l-8.85-7.06Zm72.19,8.54c.89-1.19,2.57-1.43,3.76-.54,1.19,.89,1.43,2.57,.54,3.76h0l-16.12,21.47c-.47,.62-1.18,1.02-1.96,1.07h-.19c-.71,0-1.4-.28-1.9-.79h0l-5.37-5.37c-1.02-1.05-1-2.73,.03-3.76,1.04-1.03,2.71-1.05,3.77-.03h0l3.18,3.18,14.26-18.99Z"/>
        <path id="path-ije6ncpycq-2-2" data-name="path-ije6ncpycq-2" class="cls-1" d="M49.61,70.52c1.86,.19,3.48,1.36,4.24,3.06l.08,.18,1.48,3.72c3.55,.89,6.95,2.28,10.12,4.11l.53,.31,3.68-1.57c1.79-.79,3.88-.49,5.38,.78,1.98,1.67,3.82,3.5,5.49,5.49,1.23,1.45,1.55,3.45,.86,5.2l-.08,.19-1.57,3.67c1.88,3.14,3.32,6.53,4.26,10.06l.15,.59,3.71,1.48c1.8,.72,3.05,2.38,3.25,4.3,.24,2.62,.24,5.25,0,7.86-.19,1.86-1.36,3.48-3.06,4.24l-.18,.08-3.72,1.49c-.89,3.55-2.28,6.95-4.11,10.12l-.31,.53,1.56,3.68c.79,1.79,.49,3.88-.78,5.38-1.67,1.99-3.51,3.82-5.49,5.49-1.44,1.22-3.44,1.55-5.19,.86l-.19-.08-3.67-1.57c-3.14,1.88-6.52,3.32-10.05,4.26l-.59,.15-1.48,3.71c-.72,1.81-2.39,3.06-4.33,3.26-1.31,.13-2.6,.18-3.79,.18-1.57,0-2.98-.08-4.05-.18-1.87-.19-3.48-1.36-4.25-3.06l-.08-.18-1.48-3.72c-3.55-.89-6.95-2.28-10.12-4.11l-.53-.31-3.68,1.57c-1.79,.79-3.88,.49-5.38-.78-1.98-1.67-3.82-3.5-5.49-5.49-1.23-1.45-1.55-3.45-.86-5.2l.08-.19,1.57-3.67c-1.88-3.14-3.32-6.52-4.26-10.05l-.15-.59-3.7-1.48c-1.81-.72-3.06-2.39-3.26-4.33-.24-2.61-.24-5.24,0-7.84,.19-1.86,1.36-3.48,3.06-4.24l.18-.08,3.72-1.49c.89-3.55,2.28-6.95,4.11-10.12l.31-.53-1.57-3.68c-.79-1.79-.49-3.88,.78-5.37,1.67-1.99,3.51-3.82,5.5-5.49,1.44-1.23,3.44-1.55,5.19-.86l.19,.08,3.67,1.57c3.14-1.88,6.52-3.32,10.05-4.26l.59-.15,1.48-3.71c.73-1.81,2.39-3.06,4.33-3.26,2.61-.23,5.24-.23,7.84,0Zm-6.6,5.3l-.74,.06-1.84,4.91c-.33,.83-1.06,1.44-1.93,1.63-4.09,.87-7.98,2.49-11.48,4.77-.7,.46-1.58,.56-2.36,.28l-.16-.06-4.96-2.12c-1.47,1.32-2.87,2.73-4.17,4.23l-.48,.56,2.17,4.77c.35,.82,.27,1.77-.22,2.52-2.28,3.5-3.89,7.39-4.76,11.48-.18,.83-.73,1.52-1.49,1.87l-.14,.06-5.01,2c-.11,1.98-.09,3.96,.04,5.93l.06,.74,4.91,1.84c.83,.33,1.45,1.06,1.63,1.94,.87,4.09,2.48,7.98,4.76,11.48,.46,.7,.56,1.58,.28,2.36l-.06,.16-2.12,4.96c1.32,1.47,2.74,2.86,4.23,4.17l.56,.48,4.78-2.17c.33-.14,.69-.21,1.06-.22,.52,0,1.03,.15,1.46,.43,3.5,2.28,7.4,3.89,11.48,4.76,.82,.18,1.52,.73,1.87,1.48l.06,.14,2,5.01c1.98,.11,3.96,.1,5.94-.04l.74-.06,1.84-4.91c.33-.83,1.06-1.44,1.93-1.63,4.09-.87,7.98-2.48,11.48-4.76,.7-.46,1.58-.56,2.36-.28l.16,.06,4.96,2.12c1.47-1.32,2.87-2.73,4.17-4.22l.48-.56-2.17-4.78c-.35-.82-.27-1.77,.22-2.52,2.28-3.5,3.89-7.4,4.76-11.48,.17-.83,.73-1.52,1.49-1.88l.14-.06,5.01-2c.11-1.94,.1-3.88-.03-5.82l-.05-.73-4.92-1.96c-.83-.33-1.45-1.06-1.63-1.94-.87-4.09-2.48-7.98-4.76-11.48-.46-.7-.56-1.58-.28-2.36l.06-.16,2.12-4.96c-1.32-1.47-2.73-2.87-4.22-4.17l-.56-.48-4.78,2.17c-.82,.35-1.77,.27-2.52-.22-3.5-2.28-7.39-3.89-11.48-4.76-.83-.18-1.52-.73-1.87-1.49l-.06-.14-2-5.01c-1.98-.11-3.96-.1-5.94,.04Zm2.68,10.48c16.42,0,29.73,13.31,29.73,29.73s-13.31,29.73-29.73,29.73c-16.41-.02-29.71-13.32-29.73-29.73,0-16.42,13.31-29.73,29.73-29.73Zm91.95,10.88c4.49,0,8.13,3.61,8.13,8.06h0v18.81c0,7.42-6.07,13.43-13.55,13.44h-16.34c-.35,2.24-1.88,4.12-4.01,4.94-2.13,.82-4.53,.46-6.32-.95h0l-8.88-7.08c-1.51-1.21-2.39-3.04-2.39-4.97s.88-3.76,2.39-4.97h0l8.86-7.07c1.78-1.42,4.2-1.79,6.33-.97,2.13,.82,3.66,2.7,4.02,4.94h13.63v-16.13c0-4.45,3.64-8.06,8.13-8.06Zm-91.95-5.47c-13.43,.01-24.31,10.9-24.33,24.33,0,13.44,10.89,24.33,24.33,24.33s24.33-10.89,24.33-24.33-10.89-24.33-24.33-24.33Zm91.95,10.85c-1.5,0-2.71,1.2-2.71,2.69h0v16.13c0,2.97-2.43,5.38-5.42,5.38h-16.26c-1.5,0-2.71-1.2-2.71-2.69h0v-1.69c.01-.38-.2-.73-.54-.89-.35-.18-.78-.13-1.08,.12h0l-8.83,7.05c-.24,.19-.38,.48-.38,.79s.14,.59,.38,.79h0l8.86,7.06c.3,.24,.71,.28,1.05,.11,.34-.16,.56-.51,.54-.89h0v-1.69c0-1.48,1.21-2.69,2.71-2.69h18.97c4.49,0,8.13-3.61,8.13-8.06h0v-18.81c0-1.48-1.21-2.69-2.71-2.69Zm-79.25,.24c1.15,.86,1.41,2.46,.63,3.63l-.09,.12-16.12,21.47c-.44,.58-1.09,.96-1.8,1.06l-.15,.02h-.19c-.66,0-1.29-.24-1.78-.67l-.12-.11-5.37-5.37c-1.02-1.05-1-2.73,.03-3.76,1-1,2.59-1.05,3.65-.14l.12,.1,3.18,3.18,14.26-18.99c.89-1.19,2.57-1.43,3.76-.54ZM119.96,.18c1.87,.19,3.49,1.37,4.25,3.07l.08,.18,1.48,3.71c3.55,.89,6.95,2.27,10.12,4.11l.53,.31,3.68-1.57c1.79-.79,3.88-.49,5.38,.78,1.99,1.67,3.83,3.51,5.49,5.5,1.23,1.44,1.55,3.44,.85,5.19l-.08,.19-1.57,3.67c1.88,3.14,3.32,6.53,4.26,10.06l.15,.59,3.71,1.48c1.8,.72,3.05,2.38,3.25,4.3,.24,2.62,.24,5.25,0,7.86-.19,1.86-1.36,3.48-3.06,4.24l-.18,.08-3.72,1.49c-.89,3.55-2.27,6.95-4.11,10.12l-.31,.53,1.56,3.67c.8,1.8,.49,3.89-.79,5.39-1.67,1.98-3.5,3.82-5.49,5.49-1.44,1.22-3.44,1.54-5.19,.86l-.19-.08-3.67-1.57c-3.14,1.88-6.52,3.32-10.05,4.26l-.59,.15-1.48,3.71c-.72,1.81-2.39,3.06-4.33,3.26-1.31,.13-2.6,.18-3.79,.18-1.57,0-2.98-.09-4.05-.18-1.86-.19-3.48-1.36-4.24-3.06l-.08-.18-1.49-3.72c-3.55-.89-6.95-2.27-10.12-4.11l-.53-.31-3.68,1.56c-1.79,.79-3.88,.49-5.38-.78-1.98-1.67-3.82-3.5-5.49-5.49-1.22-1.44-1.55-3.44-.86-5.19l.08-.19,1.57-3.67c-1.88-3.14-3.32-6.52-4.26-10.05l-.15-.59-3.7-1.48c-1.81-.72-3.06-2.39-3.26-4.33-.24-2.61-.24-5.24,0-7.85,.19-1.86,1.36-3.48,3.06-4.24l.18-.08,3.72-1.49c.89-3.55,2.28-6.95,4.11-10.12l.31-.53-1.57-3.68c-.79-1.79-.49-3.88,.78-5.38,1.67-1.99,3.51-3.82,5.5-5.49,1.44-1.23,3.44-1.55,5.19-.86l.19,.08,3.67,1.57c3.14-1.88,6.52-3.32,10.05-4.26l.59-.15,1.48-3.71c.73-1.8,2.39-3.06,4.33-3.26,2.61-.23,5.24-.23,7.84,0Zm-6.6,5.3l-.74,.06-1.84,4.91c-.33,.83-1.06,1.45-1.94,1.63-4.09,.87-7.98,2.48-11.48,4.76-.7,.46-1.58,.56-2.36,.28l-.16-.06-4.96-2.12c-1.47,1.32-2.87,2.73-4.17,4.22l-.48,.56,2.17,4.78c.35,.82,.27,1.77-.22,2.52-2.28,3.5-3.89,7.39-4.76,11.48-.18,.83-.73,1.52-1.49,1.88l-.14,.06-5.01,2c-.11,1.98-.09,3.96,.04,5.93l.06,.74,4.91,1.84c.83,.33,1.45,1.06,1.63,1.94,.87,4.09,2.48,7.98,4.76,11.48,.46,.7,.56,1.58,.28,2.36l-.06,.16-2.12,4.96c1.32,1.47,2.73,2.87,4.22,4.17l.56,.48,4.78-2.17c.33-.14,.69-.21,1.06-.21,.52,0,1.03,.15,1.46,.43,3.5,2.28,7.39,3.89,11.48,4.76,.83,.18,1.52,.73,1.88,1.49l.06,.14,2,5.01c1.98,.11,3.96,.1,5.94-.04l.74-.06,1.84-4.91c.33-.83,1.06-1.45,1.94-1.63,4.09-.87,7.98-2.48,11.48-4.76,.71-.45,1.58-.55,2.36-.28l.16,.06,4.96,2.12c1.47-1.32,2.87-2.73,4.17-4.22l.48-.56-2.17-4.78c-.35-.82-.27-1.77,.22-2.52,2.28-3.5,3.89-7.39,4.76-11.48,.17-.83,.73-1.52,1.49-1.87l.14-.06,5.01-2c.11-1.94,.1-3.88-.03-5.82l-.05-.73-4.92-1.96c-.83-.33-1.45-1.06-1.63-1.94-.87-4.09-2.48-7.98-4.76-11.48-.46-.7-.56-1.58-.28-2.36l.06-.16,2.12-4.96c-1.32-1.47-2.73-2.87-4.22-4.17l-.56-.48-4.78,2.17c-.82,.35-1.77,.27-2.52-.22-3.5-2.28-7.39-3.89-11.48-4.76-.83-.17-1.52-.73-1.87-1.49l-.06-.14-2-5.01c-1.98-.11-3.96-.1-5.93,.04Zm2.68,10.48c16.42,0,29.73,13.31,29.73,29.73s-13.31,29.73-29.73,29.73c-16.41-.02-29.71-13.32-29.73-29.73,0-16.42,13.31-29.73,29.73-29.73Zm0,5.41c-13.43,.01-24.31,10.9-24.33,24.33,0,13.44,10.89,24.33,24.33,24.33s24.33-10.89,24.33-24.33-10.89-24.33-24.33-24.33Zm-66.19-2.07c2.13-.82,4.53-.46,6.32,.94h0l8.88,7.08c1.51,1.21,2.39,3.04,2.39,4.97s-.88,3.76-2.39,4.97h0l-8.86,7.07c-1.78,1.42-4.2,1.79-6.33,.97-2.13-.82-3.66-2.7-4.02-4.94h-13.63v16.13c0,4.45-3.64,8.06-8.13,8.06s-8.13-3.61-8.13-8.06h0v-18.82c0-7.42,6.07-13.43,13.55-13.44h16.34c.36-2.24,1.88-4.11,4.01-4.94Zm2.94,5.15c-.3-.24-.71-.28-1.06-.11-.34,.16-.56,.51-.54,.89h0v1.69c0,1.48-1.21,2.69-2.71,2.69H29.51c-4.49,0-8.13,3.61-8.13,8.06h0v18.82c0,1.48,1.21,2.69,2.71,2.69s2.71-1.2,2.71-2.69h0v-16.13c0-2.97,2.43-5.38,5.42-5.38h16.26c1.5,0,2.71,1.2,2.71,2.69h0v1.69c-.01,.38,.2,.73,.54,.89,.35,.18,.78,.13,1.08-.12h0l8.83-7.05c.24-.19,.38-.48,.38-.79s-.14-.59-.38-.79h0l-8.85-7.06Zm72.19,8.54c.89-1.19,2.57-1.43,3.76-.54,1.19,.89,1.43,2.57,.54,3.76h0l-16.12,21.47c-.47,.62-1.18,1.02-1.96,1.07h-.19c-.71,0-1.4-.28-1.9-.79h0l-5.37-5.37c-1.02-1.05-1-2.73,.03-3.76,1.04-1.03,2.71-1.05,3.77-.03h0l3.18,3.18,14.26-18.99Z"/>
      </g>
    </g>
  </g>
</svg>