<?xml version="1.0" encoding="UTF-8"?>
<svg id="Layer_2" data-name="Layer 2" xmlns="http://www.w3.org/2000/svg" xmlns:xlink="http://www.w3.org/1999/xlink" viewBox="0 0 153.36 153.36">
  <defs>
    <style>
      .cls-1 {
        fill: url(#linear-gradient);
      }

      .cls-1, .cls-2 {
        fill-rule: evenodd;
      }

      .cls-2 {
        fill: #1c1d1d;
      }
    </style>
    <linearGradient id="linear-gradient" x1="-317.36" y1="580.52" x2="-317.36" y2="579.83" gradientTransform="translate(70847.07 129455.9) scale(223 -223)" gradientUnits="userSpaceOnUse">
      <stop offset="0" stop-color="#ef4044"/>
      <stop offset="1" stop-color="#1c1d1d"/>
    </linearGradient>
  </defs>
  <g id="Layer_1-2" data-name="Layer 1">
    <g id="Combined-Shape">
      <path id="path-t0aag1p1-v-14" class="cls-2" d="M112.46,0c5.65,0,10.22,4.58,10.22,10.22h0V46.43c17.57,2.57,30.61,17.6,30.67,35.36h0v20.45c0,8.95-3.36,17.57-9.43,24.14,2.82,4.2,4.33,9.14,4.32,14.2h0v5.11c0,4.23-3.43,7.67-7.67,7.67h-46.01c-4.23,0-7.67-3.43-7.67-7.67h0v-5.11c0-5.06,1.5-10.01,4.33-14.21-6.09-6.56-9.46-15.18-9.44-24.13h0v-20.45c0-7.32,2.25-14.46,6.47-20.45h-30.13c2.1,2.99,3.23,6.57,3.22,10.22h0v15.34c0,3.29-2.1,6.21-5.21,7.26-.86,8.91-6.8,16.52-15.24,19.51h0v1.47c14.47,1.33,25.54,13.46,25.56,27.98h0v2.56c0,4.23-3.43,7.67-7.67,7.67H7.67c-4.23,0-7.67-3.43-7.67-7.67H0v-2.56c.02-14.53,11.09-26.65,25.56-27.98h0v-1.47c-8.44-2.99-14.38-10.6-15.24-19.51-3.12-1.05-5.21-3.98-5.21-7.26h0v-17.89c.01-12.7,10.31-22.99,23-23h2.56V10.22c0-5.65,4.58-10.22,10.22-10.22H112.46ZM40.38,120.23c-1.11,3-3.96,4.99-7.16,5.01-2.05,.01-4.01-.81-5.44-2.28-.78-.77-1.37-1.7-1.74-2.72-11.85,1.08-20.93,11-20.94,22.9h0v2.56c0,1.41,1.14,2.56,2.56,2.56H58.79c1.41,0,2.56-1.14,2.56-2.56h0v-2.56c-.02-11.9-9.1-21.83-20.96-22.9Zm84.35,0c-1.11,3-3.96,4.99-7.16,5.01-2.05,.01-4.01-.81-5.44-2.28-.78-.77-1.37-1.7-1.74-2.72-10.43,1.07-18.37,9.85-18.38,20.34h0v5.11c0,1.41,1.14,2.56,2.56,2.56h46.01c1.41,0,2.56-1.14,2.56-2.56h0v-5.11c-.01-10.5-7.96-19.28-18.4-20.34Zm-2.09-68.66c-.24,5.45-4.72,9.75-10.18,9.77h-17.68c-5.08,5.6-7.89,12.89-7.88,20.45h0v20.45c-.02,7.43,2.69,14.61,7.61,20.17,4.15-4.11,9.58-6.67,15.39-7.26h0v-1.63c-6.99-2.84-11.86-9.29-12.67-16.79-3.12-1.05-5.22-3.98-5.22-7.27h0v-6.39c0-2.96,2.03-5.53,4.92-6.22,2.88-.68,5.85,.7,7.18,3.35,4.28-1.4,7.54-7.19,8.54-9.61,.39-.96,1.33-1.58,2.36-1.58h.01c1.04,0,1.97,.64,2.36,1.6,.17,.44,4.11,9.78,13.46,9.99,1.18-2.81,4.17-4.4,7.15-3.8,2.99,.6,5.13,3.22,5.13,6.27h0v6.39c0,3.29-2.11,6.22-5.22,7.27-.81,7.5-5.68,13.95-12.67,16.79h0v1.63c5.81,.58,11.24,3.15,15.39,7.26,4.91-5.57,7.62-12.74,7.61-20.17h0v-20.45c-.05-14.96-10.86-27.71-25.61-30.22Zm-2.51,63.26c-.85,.11-1.7,.17-2.56,.18-.85,0-1.71-.07-2.56-.18h0v2.73c0,.66,.26,1.3,.73,1.77,.47,.5,1.13,.79,1.82,.78,1.41,0,2.56-1.14,2.56-2.56h0v-2.73Zm-84.35,.02c-1.7,.21-3.41,.21-5.11,0h0v2.71c0,.66,.26,1.3,.73,1.77,.47,.5,1.13,.79,1.82,.78,1.41,0,2.56-1.14,2.56-2.56h0v-2.71Zm79.29-38c-2.43,3.82-6.76,8.76-12.84,8.76-1.41,0-2.56-1.14-2.56-2.56,0-.71-.57-1.28-1.28-1.28s-1.28,.57-1.28,1.28h0v6.39c0,1.41,1.14,2.56,2.56,2.56s2.56,1.14,2.56,2.56c0,8.47,6.87,15.33,15.34,15.34,8.47,0,15.33-6.87,15.34-15.34,0-1.41,1.14-2.56,2.56-2.56s2.56-1.14,2.56-2.56h0v-6.39c0-.71-.57-1.28-1.28-1.28s-1.28,.57-1.28,1.28c0,1.31-.99,2.41-2.3,2.54-7.18,.63-14.12-2.73-18.09-8.75Zm-80.85-6.35c-.58-.42-1.37-.43-1.96-.02-3.23,2.2-6.8,3.86-10.56,4.91-2.26,.68-3.8,2.75-3.81,5.11,0,1.41-1.14,2.56-2.56,2.56s-2.56-1.14-2.56-2.56c0-.71-.57-1.28-1.28-1.28s-1.28,.57-1.28,1.28h0v6.39c0,1.41,1.14,2.56,2.56,2.56s2.56,1.14,2.56,2.56c0,9.88,8.01,17.89,17.89,17.89s17.89-8.01,17.89-17.89c0-1.41,1.14-2.56,2.56-2.56s2.56-1.14,2.56-2.56h0v-6.39c0-.71-.57-1.28-1.28-1.28s-1.28,.57-1.28,1.28c0,1.41-1.14,2.56-2.56,2.56s-2.56-1.14-2.56-2.56c0-2.36-1.55-4.43-3.81-5.11-3.75-1.05-7.31-2.7-10.53-4.89Zm2.87,28.7c1.28-.52,2.74,.1,3.28,1.41,.54,1.31-.04,2.81-1.3,3.39-3.89,1.61-8.24,1.61-12.13,0-1.26-.58-1.84-2.08-1.3-3.39,.54-1.31,1.99-1.93,3.28-1.41,2.63,1.06,5.55,1.06,8.18,0Zm84.59,0c1.28-.52,2.74,.1,3.28,1.41,.54,1.31-.04,2.81-1.3,3.39-3.89,1.61-8.24,1.61-12.13,0-1.26-.58-1.84-2.08-1.3-3.39,.54-1.31,1.99-1.93,3.28-1.41,2.63,1.06,5.55,1.06,8.18,0ZM30.67,51.12h-2.56c-9.88,.01-17.88,8.02-17.89,17.89h0v5.24c1.44-.29,2.93-.08,4.23,.6,1.35-2.1,3.41-3.64,5.8-4.35,3.23-.9,6.3-2.31,9.07-4.19,2.34-1.65,5.47-1.65,7.81,.02,2.78,1.86,5.83,3.27,9.05,4.18,2.39,.71,4.45,2.25,5.8,4.34,1.3-.68,2.8-.89,4.24-.6h0v-2.69c.02-3.39-1.33-6.64-3.74-9.02-.44-.44-.91-.84-1.41-1.2h-10.19c-5.65,0-10.22-4.58-10.22-10.22h0ZM112.46,5.11H40.9c-2.82,0-5.11,2.29-5.11,5.11h0V51.12c0,2.82,2.29,5.11,5.11,5.11H112.46c2.82,0,5.11-2.29,5.11-5.11h0V10.22c0-2.82-2.29-5.11-5.11-5.11h0Zm-35.7,14.64c.37-1.34,1.75-2.14,3.12-1.8,1.36,.34,2.2,1.68,1.89,3.03h0l-5.17,20.4c-.29,1.13-1.32,1.93-2.5,1.93-.21,0-.42-.03-.63-.08-.66-.16-1.24-.58-1.59-1.16-.35-.58-.46-1.27-.29-1.93h0l5.17-20.4Zm-14.5,1.6c1.03-.98,2.66-.97,3.67,.03,1.01,1,1.02,2.61,.03,3.63h0l-6.01,5.93,6.01,5.93c.99,1.02,.98,2.63-.03,3.63-1.01,1-2.64,1.01-3.67,.03h0l-7.86-7.76c-1.02-1.01-1.02-2.65,0-3.66h0l7.86-7.76Zm25.18,.03c1.01-1,2.64-1.01,3.66-.03h0l7.84,7.75c1.02,1.01,1.02,2.64,0,3.65h0l-7.84,7.75c-1.02,1.01-2.67,1.01-3.7,0-1.02-1.01-1.02-2.64,0-3.65h0l5.99-5.92-5.99-5.92c-.99-1.01-.98-2.62,.03-3.62Z"/>
      <path id="path-t0aag1p1-v-14-2" data-name="path-t0aag1p1-v-14" class="cls-1" d="M112.46,0c5.65,0,10.22,4.58,10.22,10.22h0V46.43c17.57,2.57,30.61,17.6,30.67,35.36h0v20.45c0,8.95-3.36,17.57-9.43,24.14,2.82,4.2,4.33,9.14,4.32,14.2h0v5.11c0,4.23-3.43,7.67-7.67,7.67h-46.01c-4.23,0-7.67-3.43-7.67-7.67h0v-5.11c0-5.06,1.5-10.01,4.33-14.21-6.09-6.56-9.46-15.18-9.44-24.13h0v-20.45c0-7.32,2.25-14.46,6.47-20.45h-30.13c2.1,2.99,3.23,6.57,3.22,10.22h0v15.34c0,3.29-2.1,6.21-5.21,7.26-.86,8.91-6.8,16.52-15.24,19.51h0v1.47c14.47,1.33,25.54,13.46,25.56,27.98h0v2.56c0,4.23-3.43,7.67-7.67,7.67H7.67c-4.23,0-7.67-3.43-7.67-7.67H0v-2.56c.02-14.53,11.09-26.65,25.56-27.98h0v-1.47c-8.44-2.99-14.38-10.6-15.24-19.51-3.12-1.05-5.21-3.98-5.21-7.26h0v-17.89c.01-12.7,10.31-22.99,23-23h2.56V10.22c0-5.65,4.58-10.22,10.22-10.22H112.46ZM40.38,120.23c-1.11,3-3.96,4.99-7.16,5.01-2.05,.01-4.01-.81-5.44-2.28-.78-.77-1.37-1.7-1.74-2.72-11.85,1.08-20.93,11-20.94,22.9h0v2.56c0,1.41,1.14,2.56,2.56,2.56H58.79c1.41,0,2.56-1.14,2.56-2.56h0v-2.56c-.02-11.9-9.1-21.83-20.96-22.9Zm84.35,0c-1.11,3-3.96,4.99-7.16,5.01-2.05,.01-4.01-.81-5.44-2.28-.78-.77-1.37-1.7-1.74-2.72-10.43,1.07-18.37,9.85-18.38,20.34h0v5.11c0,1.41,1.14,2.56,2.56,2.56h46.01c1.41,0,2.56-1.14,2.56-2.56h0v-5.11c-.01-10.5-7.96-19.28-18.4-20.34Zm-2.09-68.66c-.24,5.45-4.72,9.75-10.18,9.77h-17.68c-5.08,5.6-7.89,12.89-7.88,20.45h0v20.45c-.02,7.43,2.69,14.61,7.61,20.17,4.15-4.11,9.58-6.67,15.39-7.26h0v-1.63c-6.99-2.84-11.86-9.29-12.67-16.79-3.12-1.05-5.22-3.98-5.22-7.27h0v-6.39c0-2.96,2.03-5.53,4.92-6.22,2.88-.68,5.85,.7,7.18,3.35,4.28-1.4,7.54-7.19,8.54-9.61,.39-.96,1.33-1.58,2.36-1.58h.01c1.04,0,1.97,.64,2.36,1.6,.17,.44,4.11,9.78,13.46,9.99,1.18-2.81,4.17-4.4,7.15-3.8,2.99,.6,5.13,3.22,5.13,6.27h0v6.39c0,3.29-2.11,6.22-5.22,7.27-.81,7.5-5.68,13.95-12.67,16.79h0v1.63c5.81,.58,11.24,3.15,15.39,7.26,4.91-5.57,7.62-12.74,7.61-20.17h0v-20.45c-.05-14.96-10.86-27.71-25.61-30.22Zm-2.51,63.26c-.85,.11-1.7,.17-2.56,.18-.85,0-1.71-.07-2.56-.18h0v2.73c0,.66,.26,1.3,.73,1.77,.47,.5,1.13,.79,1.82,.78,1.41,0,2.56-1.14,2.56-2.56h0v-2.73Zm-84.35,.02c-1.7,.21-3.41,.21-5.11,0h0v2.71c0,.66,.26,1.3,.73,1.77,.47,.5,1.13,.79,1.82,.78,1.41,0,2.56-1.14,2.56-2.56h0v-2.71Zm79.29-38c-2.43,3.82-6.76,8.76-12.84,8.76-1.41,0-2.56-1.14-2.56-2.56,0-.71-.57-1.28-1.28-1.28s-1.28,.57-1.28,1.28h0v6.39c0,1.41,1.14,2.56,2.56,2.56s2.56,1.14,2.56,2.56c0,8.47,6.87,15.33,15.34,15.34,8.47,0,15.33-6.87,15.34-15.34,0-1.41,1.14-2.56,2.56-2.56s2.56-1.14,2.56-2.56h0v-6.39c0-.71-.57-1.28-1.28-1.28s-1.28,.57-1.28,1.28c0,1.31-.99,2.41-2.3,2.54-7.18,.63-14.12-2.73-18.09-8.75Zm-80.85-6.35c-.58-.42-1.37-.43-1.96-.02-3.23,2.2-6.8,3.86-10.56,4.91-2.26,.68-3.8,2.75-3.81,5.11,0,1.41-1.14,2.56-2.56,2.56s-2.56-1.14-2.56-2.56c0-.71-.57-1.28-1.28-1.28s-1.28,.57-1.28,1.28h0v6.39c0,1.41,1.14,2.56,2.56,2.56s2.56,1.14,2.56,2.56c0,9.88,8.01,17.89,17.89,17.89s17.89-8.01,17.89-17.89c0-1.41,1.14-2.56,2.56-2.56s2.56-1.14,2.56-2.56h0v-6.39c0-.71-.57-1.28-1.28-1.28s-1.28,.57-1.28,1.28c0,1.41-1.14,2.56-2.56,2.56s-2.56-1.14-2.56-2.56c0-2.36-1.55-4.43-3.81-5.11-3.75-1.05-7.31-2.7-10.53-4.89Zm2.87,28.7c1.28-.52,2.74,.1,3.28,1.41,.54,1.31-.04,2.81-1.3,3.39-3.89,1.61-8.24,1.61-12.13,0-1.26-.58-1.84-2.08-1.3-3.39,.54-1.31,1.99-1.93,3.28-1.41,2.63,1.06,5.55,1.06,8.18,0Zm84.59,0c1.28-.52,2.74,.1,3.28,1.41,.54,1.31-.04,2.81-1.3,3.39-3.89,1.61-8.24,1.61-12.13,0-1.26-.58-1.84-2.08-1.3-3.39,.54-1.31,1.99-1.93,3.28-1.41,2.63,1.06,5.55,1.06,8.18,0ZM30.67,51.12h-2.56c-9.88,.01-17.88,8.02-17.89,17.89h0v5.24c1.44-.29,2.93-.08,4.23,.6,1.35-2.1,3.41-3.64,5.8-4.35,3.23-.9,6.3-2.31,9.07-4.19,2.34-1.65,5.47-1.65,7.81,.02,2.78,1.86,5.83,3.27,9.05,4.18,2.39,.71,4.45,2.25,5.8,4.34,1.3-.68,2.8-.89,4.24-.6h0v-2.69c.02-3.39-1.33-6.64-3.74-9.02-.44-.44-.91-.84-1.41-1.2h-10.19c-5.65,0-10.22-4.58-10.22-10.22h0ZM112.46,5.11H40.9c-2.82,0-5.11,2.29-5.11,5.11h0V51.12c0,2.82,2.29,5.11,5.11,5.11H112.46c2.82,0,5.11-2.29,5.11-5.11h0V10.22c0-2.82-2.29-5.11-5.11-5.11h0Zm-35.7,14.64c.37-1.34,1.75-2.14,3.12-1.8,1.36,.34,2.2,1.68,1.89,3.03h0l-5.17,20.4c-.29,1.13-1.32,1.93-2.5,1.93-.21,0-.42-.03-.63-.08-.66-.16-1.24-.58-1.59-1.16-.35-.58-.46-1.27-.29-1.93h0l5.17-20.4Zm-14.5,1.6c1.03-.98,2.66-.97,3.67,.03,1.01,1,1.02,2.61,.03,3.63h0l-6.01,5.93,6.01,5.93c.99,1.02,.98,2.63-.03,3.63-1.01,1-2.64,1.01-3.67,.03h0l-7.86-7.76c-1.02-1.01-1.02-2.65,0-3.66h0l7.86-7.76Zm25.18,.03c1.01-1,2.64-1.01,3.66-.03h0l7.84,7.75c1.02,1.01,1.02,2.64,0,3.65h0l-7.84,7.75c-1.02,1.01-2.67,1.01-3.7,0-1.02-1.01-1.02-2.64,0-3.65h0l5.99-5.92-5.99-5.92c-.99-1.01-.98-2.62,.03-3.62Z"/>
    </g>
  </g>
</svg>