<?xml version="1.0" encoding="UTF-8"?>
<svg id="Layer_2" data-name="Layer 2" xmlns="http://www.w3.org/2000/svg" xmlns:xlink="http://www.w3.org/1999/xlink" viewBox="0 0 153.36 153.36">
  <defs>
    <style>
      .cls-1 {
        fill: url(#linear-gradient);
      }

      .cls-1, .cls-2 {
        fill-rule: evenodd;
      }

      .cls-2 {
        fill: #1c1d1d;
      }
    </style>
    <linearGradient id="linear-gradient" x1="-702.4" y1="583.8" x2="-702.4" y2="583.12" gradientTransform="translate(156712.89 130188.15) scale(223 -223)" gradientUnits="userSpaceOnUse">
      <stop offset="0" stop-color="#ef4044"/>
      <stop offset="1" stop-color="#1c1d1d"/>
    </linearGradient>
  </defs>
  <g id="Layer_1-2" data-name="Layer 1">
    <g id="Web_Mobile-Development" data-name="Web Mobile-Development">
      <path id="path-t0aag1p1-v-12" class="cls-2" d="M130.35,0c4.23,0,7.67,3.43,7.67,7.67h0V56.23h7.67c4.23,0,7.67,3.43,7.67,7.67h0v81.79c0,4.23-3.43,7.67-7.67,7.67h-46.01c-4.23,0-7.67-3.43-7.67-7.67h0v-7.67H40.64c-2.68,0-4.86-2.17-4.86-4.86-.09-5.52,4.2-10.12,9.71-10.43,3.84-.95,6.86-3.9,7.89-7.72H7.67c-4.23,0-7.67-3.43-7.67-7.67H0V7.67C0,3.43,3.43,0,7.67,0h122.68Zm-25.56,61.34h-5.11c-1.41,0-2.56,1.14-2.56,2.56h0v81.79c0,1.41,1.14,2.56,2.56,2.56h46.01c1.41,0,2.56-1.14,2.56-2.56h0V63.9c0-1.41-1.14-2.56-2.56-2.56h-5.11v2.56c0,4.23-3.43,7.67-7.67,7.67h-20.45c-4.23,0-7.67-3.43-7.67-7.67h0v-2.56Zm28.14,76.88c1.41,0,2.54,1.08,2.54,2.41s-1.14,2.41-2.54,2.41h-20.36c-1.41,0-2.54-1.08-2.54-2.41s1.14-2.41,2.54-2.41h20.36Zm-14.99-61.2c1.33,0,2.41,1.15,2.41,2.56h0v51.26c0,1.42-1.08,2.56-2.41,2.56s-2.41-1.15-2.41-2.56h0v-51.26c0-1.42,1.08-2.56,2.41-2.56Zm-25.93,50.77H46.01c-2.82,0-5.11,2.29-5.11,5.11h51.12v-5.11Zm15.5,.11c1.39,0,2.52,1.08,2.52,2.41s-1.13,2.41-2.52,2.41h-2.52c-1.39,0-2.52-1.08-2.52-2.41s1.13-2.41,2.52-2.41h2.52Zm30.95,0c1.39,0,2.52,1.08,2.52,2.41s-1.13,2.41-2.52,2.41h-10.09c-1.39,0-2.52-1.08-2.52-2.41s1.13-2.41,2.52-2.41h10.09Zm-59.01-12.89h-20.86c-.4,2.85-1.64,5.52-3.55,7.67h27.96c-1.91-2.15-3.15-4.82-3.55-7.67h0Zm12.57,0h-7.38c.95,3.65,3.75,6.53,7.38,7.57h0v-7.57Zm15.5,2.58c1.39,0,2.52,1.08,2.52,2.41s-1.13,2.41-2.52,2.41h-2.52c-1.39,0-2.52-1.08-2.52-2.41s1.13-2.41,2.52-2.41h2.52Zm33.01,0c1.39,0,2.52,1.08,2.52,2.41s-1.13,2.41-2.52,2.41h-10.09c-1.39,0-2.52-1.08-2.52-2.41s1.13-2.41,2.52-2.41h10.09Zm-33.01-9.63c1.39,0,2.52,1.08,2.52,2.41s-1.13,2.41-2.52,2.41h-2.52c-1.39,0-2.52-1.08-2.52-2.41s1.13-2.41,2.52-2.41h2.52Zm33.61,0c1.44,0,2.61,1.08,2.61,2.41s-1.17,2.41-2.61,2.41h-7.84c-1.44,0-2.61-1.08-2.61-2.41s1.17-2.41,2.61-2.41h7.84Zm-49.1-5.73H5.11v5.11c0,1.41,1.14,2.56,2.56,2.56H92.01v-7.67Zm15.5-4.58c1.39,0,2.52,1.08,2.52,2.41s-1.13,2.41-2.52,2.41h-2.52c-1.39,0-2.52-1.08-2.52-2.41s1.13-2.41,2.52-2.41h2.52Zm33.01,0c1.39,0,2.52,1.08,2.52,2.41s-1.13,2.41-2.52,2.41h-10.09c-1.39,0-2.52-1.08-2.52-2.41s1.13-2.41,2.52-2.41h10.09ZM130.35,5.11H7.67c-1.41,0-2.56,1.14-2.56,2.56h0V97.13H92.01v-5.11H15.34c-2.82,0-5.11-2.29-5.11-5.11h0V15.34c0-2.82,2.29-5.11,5.11-5.11H122.68c2.82,0,5.11,2.29,5.11,5.11h0V56.23h5.11V7.67c0-1.41-1.14-2.56-2.56-2.56h0Zm10.13,82.23c1.41,0,2.55,1.08,2.55,2.41s-1.14,2.41-2.55,2.41h-12.77c-1.41,0-2.55-1.08-2.55-2.41s1.14-2.41,2.55-2.41h12.77Zm-32.98,0c1.39,0,2.52,1.08,2.52,2.41s-1.13,2.41-2.52,2.41h-2.52c-1.39,0-2.52-1.08-2.52-2.41s1.13-2.41,2.52-2.41h2.52ZM122.68,15.34H15.34V86.9H92.01v-23c0-4.23,3.43-7.67,7.67-7.67h23V15.34Zm-15.17,61.69c1.39,0,2.52,1.08,2.52,2.41s-1.13,2.41-2.52,2.41h-2.52c-1.39,0-2.52-1.08-2.52-2.41s1.13-2.41,2.52-2.41h2.52Zm30.95,0c1.39,0,2.52,1.08,2.52,2.41s-1.13,2.41-2.52,2.41h-10.09c-1.39,0-2.52-1.08-2.52-2.41s1.13-2.41,2.52-2.41h10.09ZM38.17,23.38c1.33,0,2.41,1.15,2.41,2.56h0v51.26c0,1.42-1.08,2.56-2.41,2.56s-2.41-1.15-2.41-2.56h0V25.94c0-1.42,1.08-2.56,2.41-2.56Zm36.28,50.89c1.42,0,2.58,1.08,2.58,2.41s-1.15,2.41-2.58,2.41h-25.79c-1.42,0-2.58-1.08-2.58-2.41s1.15-2.41,2.58-2.41h25.79Zm-46.08,0c1.42,0,2.58,1.08,2.58,2.41s-1.15,2.41-2.58,2.41h-5.16c-1.42,0-2.58-1.08-2.58-2.41s1.15-2.41,2.58-2.41h5.16Zm40.61-10.32c1.41,0,2.54,1.08,2.54,2.41s-1.14,2.41-2.54,2.41h-20.36c-1.4,0-2.54-1.08-2.54-2.41s1.14-2.41,2.54-2.41h20.36Zm-40.61,0c1.42,0,2.58,1.08,2.58,2.41s-1.15,2.41-2.58,2.41h-5.16c-1.42,0-2.58-1.08-2.58-2.41s1.15-2.41,2.58-2.41h5.16Zm107.1-2.61h-25.56v2.56c0,1.41,1.14,2.56,2.56,2.56h20.45c1.41,0,2.56-1.14,2.56-2.56h0v-2.56Zm-63.77-7.7c1.42,0,2.58,1.08,2.58,2.41s-1.15,2.41-2.58,2.41h-15.47c-1.42,0-2.58-1.08-2.58-2.41s1.15-2.41,2.58-2.41h15.47Zm15.13,0c1.42,0,2.58,1.08,2.58,2.41s-1.15,2.41-2.58,2.41h-5.16c-1.42,0-2.58-1.08-2.58-2.41s1.15-2.41,2.58-2.41h5.16Zm-58.45,0c1.42,0,2.58,1.08,2.58,2.41s-1.15,2.41-2.58,2.41h-5.16c-1.42,0-2.58-1.08-2.58-2.41s1.15-2.41,2.58-2.41h5.16Zm40.57-9.63c1.42,0,2.58,1.08,2.58,2.41s-1.15,2.41-2.58,2.41h-15.47c-1.42,0-2.58-1.08-2.58-2.41s1.15-2.41,2.58-2.41h15.47Zm44.01,0c1.42,0,2.58,1.08,2.58,2.41s-1.15,2.41-2.58,2.41h-5.16c-1.42,0-2.58-1.08-2.58-2.41s1.15-2.41,2.58-2.41h5.16Zm-15.76,0c1.39,0,2.52,1.08,2.52,2.41s-1.13,2.41-2.52,2.41h-17.65c-1.39,0-2.52-1.08-2.52-2.41s1.13-2.41,2.52-2.41h17.65Zm-68.83,0c1.42,0,2.58,1.08,2.58,2.41s-1.15,2.41-2.58,2.41h-5.16c-1.42,0-2.58-1.08-2.58-2.41s1.15-2.41,2.58-2.41h5.16Zm43.32-10.32c1.42,0,2.58,1.08,2.58,2.41s-1.15,2.41-2.58,2.41h-15.47c-1.42,0-2.58-1.08-2.58-2.41s1.15-2.41,2.58-2.41h15.47Zm28.25,0c1.39,0,2.52,1.08,2.52,2.41s-1.13,2.41-2.52,2.41h-17.65c-1.39,0-2.52-1.08-2.52-2.41s1.13-2.41,2.52-2.41h17.65Zm15.07,0c1.42,0,2.58,1.08,2.58,2.41s-1.15,2.41-2.58,2.41h-5.16c-1.42,0-2.58-1.08-2.58-2.41s1.15-2.41,2.58-2.41h5.16Zm-86.65,0c1.42,0,2.58,1.08,2.58,2.41s-1.15,2.41-2.58,2.41h-5.16c-1.42,0-2.58-1.08-2.58-2.41s1.15-2.41,2.58-2.41h5.16Zm46.08-10.32c1.42,0,2.58,1.08,2.58,2.41s-1.15,2.41-2.58,2.41h-25.79c-1.42,0-2.58-1.08-2.58-2.41s1.15-2.41,2.58-2.41h25.79Zm-46.08,0c1.42,0,2.58,1.08,2.58,2.41s-1.15,2.41-2.58,2.41h-5.16c-1.42,0-2.58-1.08-2.58-2.41s1.15-2.41,2.58-2.41h5.16Z"/>
      <path id="path-t0aag1p1-v-12-2" data-name="path-t0aag1p1-v-12" class="cls-1" d="M130.35,0c4.23,0,7.67,3.43,7.67,7.67h0V56.23h7.67c4.23,0,7.67,3.43,7.67,7.67h0v81.79c0,4.23-3.43,7.67-7.67,7.67h-46.01c-4.23,0-7.67-3.43-7.67-7.67h0v-7.67H40.64c-2.68,0-4.86-2.17-4.86-4.86-.09-5.52,4.2-10.12,9.71-10.43,3.84-.95,6.86-3.9,7.89-7.72H7.67c-4.23,0-7.67-3.43-7.67-7.67H0V7.67C0,3.43,3.43,0,7.67,0h122.68Zm-25.56,61.34h-5.11c-1.41,0-2.56,1.14-2.56,2.56h0v81.79c0,1.41,1.14,2.56,2.56,2.56h46.01c1.41,0,2.56-1.14,2.56-2.56h0V63.9c0-1.41-1.14-2.56-2.56-2.56h-5.11v2.56c0,4.23-3.43,7.67-7.67,7.67h-20.45c-4.23,0-7.67-3.43-7.67-7.67h0v-2.56Zm28.14,76.88c1.41,0,2.54,1.08,2.54,2.41s-1.14,2.41-2.54,2.41h-20.36c-1.41,0-2.54-1.08-2.54-2.41s1.14-2.41,2.54-2.41h20.36Zm-14.99-61.2c1.33,0,2.41,1.15,2.41,2.56h0v51.26c0,1.42-1.08,2.56-2.41,2.56s-2.41-1.15-2.41-2.56h0v-51.26c0-1.42,1.08-2.56,2.41-2.56Zm-25.93,50.77H46.01c-2.82,0-5.11,2.29-5.11,5.11h51.12v-5.11Zm15.5,.11c1.39,0,2.52,1.08,2.52,2.41s-1.13,2.41-2.52,2.41h-2.52c-1.39,0-2.52-1.08-2.52-2.41s1.13-2.41,2.52-2.41h2.52Zm30.95,0c1.39,0,2.52,1.08,2.52,2.41s-1.13,2.41-2.52,2.41h-10.09c-1.39,0-2.52-1.08-2.52-2.41s1.13-2.41,2.52-2.41h10.09Zm-59.01-12.89h-20.86c-.4,2.85-1.64,5.52-3.55,7.67h27.96c-1.91-2.15-3.15-4.82-3.55-7.67h0Zm12.57,0h-7.38c.95,3.65,3.75,6.53,7.38,7.57h0v-7.57Zm15.5,2.58c1.39,0,2.52,1.08,2.52,2.41s-1.13,2.41-2.52,2.41h-2.52c-1.39,0-2.52-1.08-2.52-2.41s1.13-2.41,2.52-2.41h2.52Zm33.01,0c1.39,0,2.52,1.08,2.52,2.41s-1.13,2.41-2.52,2.41h-10.09c-1.39,0-2.52-1.08-2.52-2.41s1.13-2.41,2.52-2.41h10.09Zm-33.01-9.63c1.39,0,2.52,1.08,2.52,2.41s-1.13,2.41-2.52,2.41h-2.52c-1.39,0-2.52-1.08-2.52-2.41s1.13-2.41,2.52-2.41h2.52Zm33.61,0c1.44,0,2.61,1.08,2.61,2.41s-1.17,2.41-2.61,2.41h-7.84c-1.44,0-2.61-1.08-2.61-2.41s1.17-2.41,2.61-2.41h7.84Zm-49.1-5.73H5.11v5.11c0,1.41,1.14,2.56,2.56,2.56H92.01v-7.67Zm15.5-4.58c1.39,0,2.52,1.08,2.52,2.41s-1.13,2.41-2.52,2.41h-2.52c-1.39,0-2.52-1.08-2.52-2.41s1.13-2.41,2.52-2.41h2.52Zm33.01,0c1.39,0,2.52,1.08,2.52,2.41s-1.13,2.41-2.52,2.41h-10.09c-1.39,0-2.52-1.08-2.52-2.41s1.13-2.41,2.52-2.41h10.09ZM130.35,5.11H7.67c-1.41,0-2.56,1.14-2.56,2.56h0V97.13H92.01v-5.11H15.34c-2.82,0-5.11-2.29-5.11-5.11h0V15.34c0-2.82,2.29-5.11,5.11-5.11H122.68c2.82,0,5.11,2.29,5.11,5.11h0V56.23h5.11V7.67c0-1.41-1.14-2.56-2.56-2.56h0Zm10.13,82.23c1.41,0,2.55,1.08,2.55,2.41s-1.14,2.41-2.55,2.41h-12.77c-1.41,0-2.55-1.08-2.55-2.41s1.14-2.41,2.55-2.41h12.77Zm-32.98,0c1.39,0,2.52,1.08,2.52,2.41s-1.13,2.41-2.52,2.41h-2.52c-1.39,0-2.52-1.08-2.52-2.41s1.13-2.41,2.52-2.41h2.52ZM122.68,15.34H15.34V86.9H92.01v-23c0-4.23,3.43-7.67,7.67-7.67h23V15.34Zm-15.17,61.69c1.39,0,2.52,1.08,2.52,2.41s-1.13,2.41-2.52,2.41h-2.52c-1.39,0-2.52-1.08-2.52-2.41s1.13-2.41,2.52-2.41h2.52Zm30.95,0c1.39,0,2.52,1.08,2.52,2.41s-1.13,2.41-2.52,2.41h-10.09c-1.39,0-2.52-1.08-2.52-2.41s1.13-2.41,2.52-2.41h10.09ZM38.17,23.38c1.33,0,2.41,1.15,2.41,2.56h0v51.26c0,1.42-1.08,2.56-2.41,2.56s-2.41-1.15-2.41-2.56h0V25.94c0-1.42,1.08-2.56,2.41-2.56Zm36.28,50.89c1.42,0,2.58,1.08,2.58,2.41s-1.15,2.41-2.58,2.41h-25.79c-1.42,0-2.58-1.08-2.58-2.41s1.15-2.41,2.58-2.41h25.79Zm-46.08,0c1.42,0,2.58,1.08,2.58,2.41s-1.15,2.41-2.58,2.41h-5.16c-1.42,0-2.58-1.08-2.58-2.41s1.15-2.41,2.58-2.41h5.16Zm40.61-10.32c1.41,0,2.54,1.08,2.54,2.41s-1.14,2.41-2.54,2.41h-20.36c-1.4,0-2.54-1.08-2.54-2.41s1.14-2.41,2.54-2.41h20.36Zm-40.61,0c1.42,0,2.58,1.08,2.58,2.41s-1.15,2.41-2.58,2.41h-5.16c-1.42,0-2.58-1.08-2.58-2.41s1.15-2.41,2.58-2.41h5.16Zm107.1-2.61h-25.56v2.56c0,1.41,1.14,2.56,2.56,2.56h20.45c1.41,0,2.56-1.14,2.56-2.56h0v-2.56Zm-63.77-7.7c1.42,0,2.58,1.08,2.58,2.41s-1.15,2.41-2.58,2.41h-15.47c-1.42,0-2.58-1.08-2.58-2.41s1.15-2.41,2.58-2.41h15.47Zm15.13,0c1.42,0,2.58,1.08,2.58,2.41s-1.15,2.41-2.58,2.41h-5.16c-1.42,0-2.58-1.08-2.58-2.41s1.15-2.41,2.58-2.41h5.16Zm-58.45,0c1.42,0,2.58,1.08,2.58,2.41s-1.15,2.41-2.58,2.41h-5.16c-1.42,0-2.58-1.08-2.58-2.41s1.15-2.41,2.58-2.41h5.16Zm40.57-9.63c1.42,0,2.58,1.08,2.58,2.41s-1.15,2.41-2.58,2.41h-15.47c-1.42,0-2.58-1.08-2.58-2.41s1.15-2.41,2.58-2.41h15.47Zm44.01,0c1.42,0,2.58,1.08,2.58,2.41s-1.15,2.41-2.58,2.41h-5.16c-1.42,0-2.58-1.08-2.58-2.41s1.15-2.41,2.58-2.41h5.16Zm-15.76,0c1.39,0,2.52,1.08,2.52,2.41s-1.13,2.41-2.52,2.41h-17.65c-1.39,0-2.52-1.08-2.52-2.41s1.13-2.41,2.52-2.41h17.65Zm-68.83,0c1.42,0,2.58,1.08,2.58,2.41s-1.15,2.41-2.58,2.41h-5.16c-1.42,0-2.58-1.08-2.58-2.41s1.15-2.41,2.58-2.41h5.16Zm43.32-10.32c1.42,0,2.58,1.08,2.58,2.41s-1.15,2.41-2.58,2.41h-15.47c-1.42,0-2.58-1.08-2.58-2.41s1.15-2.41,2.58-2.41h15.47Zm28.25,0c1.39,0,2.52,1.08,2.52,2.41s-1.13,2.41-2.52,2.41h-17.65c-1.39,0-2.52-1.08-2.52-2.41s1.13-2.41,2.52-2.41h17.65Zm15.07,0c1.42,0,2.58,1.08,2.58,2.41s-1.15,2.41-2.58,2.41h-5.16c-1.42,0-2.58-1.08-2.58-2.41s1.15-2.41,2.58-2.41h5.16Zm-86.65,0c1.42,0,2.58,1.08,2.58,2.41s-1.15,2.41-2.58,2.41h-5.16c-1.42,0-2.58-1.08-2.58-2.41s1.15-2.41,2.58-2.41h5.16Zm46.08-10.32c1.42,0,2.58,1.08,2.58,2.41s-1.15,2.41-2.58,2.41h-25.79c-1.42,0-2.58-1.08-2.58-2.41s1.15-2.41,2.58-2.41h25.79Zm-46.08,0c1.42,0,2.58,1.08,2.58,2.41s-1.15,2.41-2.58,2.41h-5.16c-1.42,0-2.58-1.08-2.58-2.41s1.15-2.41,2.58-2.41h5.16Z"/>
    </g>
  </g>
</svg>