<?xml version="1.0" encoding="UTF-8"?>
<svg id="Layer_2" data-name="Layer 2" xmlns="http://www.w3.org/2000/svg" xmlns:xlink="http://www.w3.org/1999/xlink" viewBox="0 0 132.73 153.36">
  <defs>
    <style>
      .cls-1 {
        fill: url(#linear-gradient);
      }

      .cls-1, .cls-2 {
        fill-rule: evenodd;
      }

      .cls-2 {
        fill: #1c1d1d;
      }
    </style>
    <linearGradient id="linear-gradient" x1="-906.44" y1="581.97" x2="-906.44" y2="581.28" gradientTransform="translate(175010.76 129779.98) scale(193 -223)" gradientUnits="userSpaceOnUse">
      <stop offset="0" stop-color="#ef4044"/>
      <stop offset="1" stop-color="#1c1d1d"/>
    </linearGradient>
  </defs>
  <g id="Layer_1-2" data-name="Layer 1">
    <g id="Combined-Shape">
      <path id="path-t0aag1p1-v-10" class="cls-2" d="M3.76,16.67c38.78-22.23,86.42-22.23,125.2,0,2.49,1.46,3.94,4.2,3.74,7.09-1.03,16.3-8.92,99.18-62.71,128.67-1.12,.61-2.37,.93-3.64,.92-1.27,0-2.52-.31-3.64-.92C8.95,122.95,1.04,40.07,.02,23.76c-.19-2.88,1.26-5.63,3.74-7.09Zm122.61,4.4C89.19-.22,43.53-.22,6.34,21.07c-.82,.49-1.3,1.4-1.24,2.35,1.02,15.85,8.63,96.32,60.06,124.52,.74,.4,1.63,.4,2.37,0,51.44-28.2,59.06-108.67,60.06-124.52,.07-.96-.41-1.87-1.24-2.35Zm-60.01-10.75c18.51,.11,36.73,4.52,53.25,12.88,1.87,.95,2.97,2.95,2.78,5.04-6.92,76.23-39.55,104.65-53.26,113.33h0c-1.69,1.06-3.84,1.06-5.53,0-13.71-8.68-46.34-37.09-53.26-113.33-.19-2.09,.91-4.08,2.78-5.04,16.51-8.36,34.74-12.77,53.25-12.88Zm0,5.13c-17.7,.11-35.12,4.33-50.91,12.32,1.74,19.23,10.56,83.93,50.89,109.47h.05c40.32-25.53,49.15-90.23,50.89-109.46-15.79-8-33.22-12.22-50.92-12.33Zm8.08,92.53c1.42,0,2.58,1.08,2.58,2.41s-1.15,2.41-2.58,2.41h-15.47c-1.42,0-2.58-1.08-2.58-2.41s1.15-2.41,2.58-2.41h15.47Zm7.59-10.32c1.41,0,2.55,1.08,2.55,2.41s-1.14,2.41-2.55,2.41h-30.65c-1.41,0-2.55-1.08-2.55-2.41s1.14-2.41,2.55-2.41h30.65Zm4.79-10.32c1.42,0,2.58,1.08,2.58,2.41s-1.15,2.41-2.58,2.41h-5.16c-1.42,0-2.58-1.08-2.58-2.41s1.15-2.41,2.58-2.41h5.16Zm-15.16,0c1.44,0,2.61,1.08,2.61,2.41s-1.17,2.41-2.61,2.41h-7.84c-1.44,0-2.61-1.08-2.61-2.41s1.17-2.41,2.61-2.41h7.84Zm-17.88,0c1.44,0,2.61,1.08,2.61,2.41s-1.17,2.41-2.61,2.41h-7.84c-1.44,0-2.61-1.08-2.61-2.41s1.17-2.41,2.61-2.41h7.84Zm38.56-10.32c1.42,0,2.57,1.08,2.57,2.41s-1.15,2.41-2.57,2.41H58.96c-1.42,0-2.57-1.08-2.57-2.41s1.15-2.41,2.57-2.41h33.38Zm-43.37,0c1.44,0,2.61,1.08,2.61,2.41s-1.17,2.41-2.61,2.41h-7.84c-1.44,0-2.61-1.08-2.61-2.41s1.17-2.41,2.61-2.41h7.84Zm22.17-48.75c.87-.22,1.8,.04,2.43,.71,.63,.66,.86,1.62,.61,2.5h0l-10.09,36.1c-.31,1.11-1.3,1.87-2.42,1.87-.23,0-.47-.03-.69-.1-.64-.19-1.19-.63-1.51-1.23-.33-.6-.41-1.3-.22-1.96h0l10.09-36.1c.25-.89,.94-1.57,1.81-1.8Zm-21.85,5.46c1-.98,2.6-.96,3.58,.03,.99,1,1,2.61,.03,3.62h0l-10.97,11.08,10.97,11.08c.73,.74,.95,1.85,.55,2.81-.4,.96-1.33,1.59-2.36,1.59-.68,0-1.33-.27-1.81-.76h0l-12.77-12.91c-1-1.01-1-2.64,0-3.65h0l12.77-12.91Zm31.27,.03c.99-1,2.58-1.01,3.58-.03h0l12.77,12.91c1,1.01,1,2.64,0,3.65h0l-12.77,12.91c-1,1.01-2.61,1.01-3.61,0-1-1.01-1-2.64,0-3.65h0l10.97-11.08-10.97-11.08c-.97-1.01-.95-2.62,.03-3.62Z"/>
      <path id="path-t0aag1p1-v-10-2" data-name="path-t0aag1p1-v-10" class="cls-1" d="M3.76,16.67c38.78-22.23,86.42-22.23,125.2,0,2.49,1.46,3.94,4.2,3.74,7.09-1.03,16.3-8.92,99.18-62.71,128.67-1.12,.61-2.37,.93-3.64,.92-1.27,0-2.52-.31-3.64-.92C8.95,122.95,1.04,40.07,.02,23.76c-.19-2.88,1.26-5.63,3.74-7.09Zm122.61,4.4C89.19-.22,43.53-.22,6.34,21.07c-.82,.49-1.3,1.4-1.24,2.35,1.02,15.85,8.63,96.32,60.06,124.52,.74,.4,1.63,.4,2.37,0,51.44-28.2,59.06-108.67,60.06-124.52,.07-.96-.41-1.87-1.24-2.35Zm-60.01-10.75c18.51,.11,36.73,4.52,53.25,12.88,1.87,.95,2.97,2.95,2.78,5.04-6.92,76.23-39.55,104.65-53.26,113.33h0c-1.69,1.06-3.84,1.06-5.53,0-13.71-8.68-46.34-37.09-53.26-113.33-.19-2.09,.91-4.08,2.78-5.04,16.51-8.36,34.74-12.77,53.25-12.88Zm0,5.13c-17.7,.11-35.12,4.33-50.91,12.32,1.74,19.23,10.56,83.93,50.89,109.47h.05c40.32-25.53,49.15-90.23,50.89-109.46-15.79-8-33.22-12.22-50.92-12.33Zm8.08,92.53c1.42,0,2.58,1.08,2.58,2.41s-1.15,2.41-2.58,2.41h-15.47c-1.42,0-2.58-1.08-2.58-2.41s1.15-2.41,2.58-2.41h15.47Zm7.59-10.32c1.41,0,2.55,1.08,2.55,2.41s-1.14,2.41-2.55,2.41h-30.65c-1.41,0-2.55-1.08-2.55-2.41s1.14-2.41,2.55-2.41h30.65Zm4.79-10.32c1.42,0,2.58,1.08,2.58,2.41s-1.15,2.41-2.58,2.41h-5.16c-1.42,0-2.58-1.08-2.58-2.41s1.15-2.41,2.58-2.41h5.16Zm-15.16,0c1.44,0,2.61,1.08,2.61,2.41s-1.17,2.41-2.61,2.41h-7.84c-1.44,0-2.61-1.08-2.61-2.41s1.17-2.41,2.61-2.41h7.84Zm-17.88,0c1.44,0,2.61,1.08,2.61,2.41s-1.17,2.41-2.61,2.41h-7.84c-1.44,0-2.61-1.08-2.61-2.41s1.17-2.41,2.61-2.41h7.84Zm38.56-10.32c1.42,0,2.57,1.08,2.57,2.41s-1.15,2.41-2.57,2.41H58.96c-1.42,0-2.57-1.08-2.57-2.41s1.15-2.41,2.57-2.41h33.38Zm-43.37,0c1.44,0,2.61,1.08,2.61,2.41s-1.17,2.41-2.61,2.41h-7.84c-1.44,0-2.61-1.08-2.61-2.41s1.17-2.41,2.61-2.41h7.84Zm22.17-48.75c.87-.22,1.8,.04,2.43,.71,.63,.66,.86,1.62,.61,2.5h0l-10.09,36.1c-.31,1.11-1.3,1.87-2.42,1.87-.23,0-.47-.03-.69-.1-.64-.19-1.19-.63-1.51-1.23-.33-.6-.41-1.3-.22-1.96h0l10.09-36.1c.25-.89,.94-1.57,1.81-1.8Zm-21.85,5.46c1-.98,2.6-.96,3.58,.03,.99,1,1,2.61,.03,3.62h0l-10.97,11.08,10.97,11.08c.73,.74,.95,1.85,.55,2.81-.4,.96-1.33,1.59-2.36,1.59-.68,0-1.33-.27-1.81-.76h0l-12.77-12.91c-1-1.01-1-2.64,0-3.65h0l12.77-12.91Zm31.27,.03c.99-1,2.58-1.01,3.58-.03h0l12.77,12.91c1,1.01,1,2.64,0,3.65h0l-12.77,12.91c-1,1.01-2.61,1.01-3.61,0-1-1.01-1-2.64,0-3.65h0l10.97-11.08-10.97-11.08c-.97-1.01-.95-2.62,.03-3.62Z"/>
    </g>
  </g>
</svg>