<?xml version="1.0" encoding="UTF-8"?>
<svg id="Layer_2" data-name="Layer 2" xmlns="http://www.w3.org/2000/svg" xmlns:xlink="http://www.w3.org/1999/xlink" viewBox="0 0 148.38 148.38">
  <defs>
    <style>
      .cls-1 {
        fill: url(#linear-gradient);
        fill-rule: evenodd;
      }
    </style>
    <linearGradient id="linear-gradient" x1="-525.81" y1="280.32" x2="-525.81" y2="279.65" gradientTransform="translate(117330.32 62510.66) scale(223 -223)" gradientUnits="userSpaceOnUse">
      <stop offset="0" stop-color="#ef4044"/>
      <stop offset="1" stop-color="#1c1d1d"/>
    </linearGradient>
  </defs>
  <g id="Layer_1-2" data-name="Layer 1">
    <path id="Augemented-Reality" class="cls-1" d="M107.92,0c7.2,0,13.05,5.85,13.05,13.04h0V57.48l26.39,16.61c.63,.4,1.02,1.09,1.02,1.84s-.38,1.44-1.02,1.84h0l-26.39,16.61v40.96c0,7.19-5.86,13.04-13.05,13.04h-23.35c-1.2,0-2.18-.97-2.18-2.17s.97-2.17,2.18-2.17h23.35c4.8,0,8.7-3.9,8.7-8.69h0v-38.23l-5.26,3.31c-1,.63-2.36,.34-3-.68-.64-1.02-.33-2.36,.68-3h0l7.57-4.77V59.88l-7.57-4.77c-1.02-.64-1.32-1.98-.68-3,.64-1.02,1.98-1.32,3-.68h0l5.26,3.31V13.04c0-4.79-3.9-8.69-8.7-8.69H40.33c-4.8,0-8.7,3.9-8.7,8.69h0v6.67c0,1.2-.97,2.17-2.18,2.17s-2.18-.97-2.18-2.17h0v-6.67c0-7.19,5.86-13.04,13.05-13.04H107.92ZM29.51,27.28c1.2,0,2.17,.98,2.17,2.18h0v24.98l5.24-3.32c1.01-.64,2.35-.34,2.99,.68,.64,1.02,.33,2.37-.68,3.01h0l-7.55,4.78v32.2l7.55,4.78c1.01,.64,1.32,1.99,.68,3.01-.64,1.03-1.99,1.32-2.99,.68h0l-5.24-3.32v38.35c0,4.81,3.89,8.72,8.68,8.72h33.99c1.2,0,2.17,.98,2.17,2.18s-.97,2.18-2.17,2.18H40.36c-7.18,0-13.02-5.87-13.02-13.08h0v-41.1L1.01,77.54c-.63-.4-1.01-1.1-1.01-1.85s.38-1.45,1.01-1.85h0l26.33-16.66V29.46c0-1.2,.97-2.18,2.17-2.18Zm52.36,86.18c1.01-.65,2.33-.34,2.97,.7,.63,1.04,.33,2.41-.67,3.07h0l-8.49,5.53c-.7,.46-1.59,.46-2.29,0h0l-8.49-5.53c-1.01-.65-1.31-2.03-.67-3.07,.63-1.04,1.96-1.35,2.97-.7h0l7.35,4.79,7.35-4.79Zm18.02-11.33c1-.63,2.32-.31,2.93,.71,.62,1.02,.3,2.35-.7,2.98h0l-9.04,5.65c-.99,.62-2.31,.32-2.93-.71-.62-1.02-.3-2.36,.7-2.98h0l9.04-5.65Zm-54.32,.69c.63-1.01,1.95-1.31,2.95-.68h0l9.03,5.68c1,.63,1.31,1.96,.68,2.96-.63,1.02-1.96,1.31-2.95,.68h0l-9.03-5.68c-1-.63-1.31-1.96-.68-2.96Zm27.63-61.22c.71-.45,1.63-.45,2.34,0h0l25.24,15.77c.63,.39,1.02,1.1,1.02,1.83h0v16.62c0,1.2-.98,2.17-2.19,2.17s-2.19-.97-2.19-2.17h0v-12.69l-20.86,13.03v27.54l20.86-13.03v-4.73c0-1.2,.98-2.17,2.19-2.17s2.19,.97,2.19,2.17h0v5.93c0,.74-.39,1.44-1.02,1.83h0l-25.24,15.77c-.72,.45-1.63,.45-2.34,0h0l-24.95-15.77c-.63-.4-1.01-1.09-1.01-1.83h0V59.19c0-.72,.38-1.42,.99-1.81h0l.02-.02,24.95-15.77Zm1.18,4.4l-20.88,13.2,5.48,3.46c1.02,.64,1.32,1.98,.67,2.99-.65,1.02-2.02,1.3-3.02,.66h0l-5-3.16v27.52l20.57,13v-27.52l-6.94-4.39c-1.02-.64-1.32-1.98-.67-2.99,.65-1.01,2-1.3,3.02-.66h0l6.78,4.29,21.13-13.2-21.13-13.2Zm46.59,16.63v26.62l21.15-13.31-21.15-13.31Zm-93.63-.28l-21.1,13.35,21.1,13.35v-26.71Zm27.92-22.75c1-.63,2.33-.34,2.96,.66,.63,1,.34,2.32-.66,2.95h0l-9.02,5.7c-.99,.63-2.32,.34-2.96-.66-.63-1-.34-2.32,.66-2.95h0l9.02-5.7Zm34.89,.68c.63-1.01,1.95-1.31,2.95-.68h0l9.03,5.68c1,.63,1.31,1.96,.68,2.96-.63,1.02-1.96,1.31-2.95,.68h0l-9.03-5.68c-1-.63-1.31-1.96-.68-2.96Zm-16.78-11.98c.7-.46,1.59-.46,2.29,0h0l8.49,5.53c1.01,.65,1.31,2.03,.67,3.07-.64,1.05-1.98,1.35-2.97,.7h0l-7.35-4.79-7.35,4.79c-1.01,.65-2.33,.34-2.97-.7-.63-1.04-.33-2.41,.67-3.07h0l8.49-5.53Zm4.32-20.3c1.19,0,2.15,1.04,2.15,2.33s-.96,2.33-2.15,2.33h-14.33c-1.19,0-2.15-1.04-2.15-2.33s.96-2.33,2.15-2.33h14.33Zm5.49,.68c.86-.91,2.44-.9,3.3,0,1.04,.98,.85,2.83-.35,3.59-1.03,.71-2.56,.41-3.24-.65-.61-.89-.49-2.19,.29-2.95Z"/>
  </g>
</svg>