<?xml version="1.0" encoding="UTF-8"?>
<svg id="Layer_2" data-name="Layer 2" xmlns="http://www.w3.org/2000/svg" xmlns:xlink="http://www.w3.org/1999/xlink" viewBox="0 0 148.38 148.38">
  <defs>
    <style>
      .cls-1 {
        fill: url(#linear-gradient);
        fill-rule: evenodd;
      }
    </style>
    <linearGradient id="linear-gradient" x1="-324.49" y1="304.88" x2="-324.49" y2="304.22" gradientTransform="translate(72434.94 67988.53) scale(223 -223)" gradientUnits="userSpaceOnUse">
      <stop offset="0" stop-color="#ef4044"/>
      <stop offset="1" stop-color="#1c1d1d"/>
    </linearGradient>
  </defs>
  <g id="Layer_1-2" data-name="Layer 1">
    <path id="BI-Data-Analysis" class="cls-1" d="M141.2,0c3.97,0,7.18,3.21,7.18,7.18h0V98.12c0,3.97-3.21,7.18-7.18,7.18h-22.94l6.19,6.19,.71-.7c.93-.93,2.45-.93,3.38,0h0l16.17,16.17c3.17,3.17,4.41,7.79,3.25,12.12-1.16,4.33-4.54,7.71-8.87,8.87-4.33,1.16-8.95-.08-12.12-3.25h0l-16.17-16.17c-.93-.93-.93-2.45,0-3.38h0l.7-.7-6.22-6.22c-9.29,5.89-20.59,7.7-31.26,4.99h0l-10.1,10.1c-.45,.45-1.06,.7-1.69,.7h-9.57v7.18c0,3.97-3.21,7.18-7.18,7.18H16.75c-3.97,0-7.18-3.21-7.18-7.18h0v-19.15c0-3.97,3.21-7.18,7.18-7.18h28.72c3.97,0,7.18,3.21,7.18,7.18h0v7.18h8.58l7.63-7.65c-8.09-3.21-14.94-8.91-19.57-16.29H7.18c-3.97,0-7.18-3.21-7.18-7.18H0V7.18C0,3.21,3.21,0,7.18,0H141.2Zm-14.36,115.87l-10.97,10.98,14.64,14.64c1.95,1.88,4.74,2.61,7.37,1.92,2.7-.71,4.81-2.82,5.52-5.52,.71-2.7-.08-5.58-2.08-7.53h0l-14.48-14.48Zm-81.37,3.8H16.75c-1.32,0-2.39,1.07-2.39,2.39h0v19.15c0,1.32,1.07,2.39,2.39,2.39h28.72c1.32,0,2.39-1.07,2.39-2.39h0v-19.15c0-1.32-1.07-2.39-2.39-2.39h0Zm-2.22,14.75v4.66H19.3v-4.66h23.95Zm0-9.98v4.66H19.3v-4.66h23.95Zm72.18-15.18c-1.84,2.28-3.91,4.35-6.19,6.19h0l5.63,5.63,6.19-6.19-5.63-5.63Zm-31.67-61.38c-19.83,0-35.9,16.07-35.9,35.9,.02,19.82,16.08,35.88,35.9,35.9,19.83,0,35.9-16.07,35.9-35.9s-16.07-35.9-35.9-35.9Zm.08,4.7c17.26,.02,31.25,14.01,31.27,31.27,0,17.27-14,31.27-31.27,31.27s-31.27-14-31.27-31.27,14-31.27,31.27-31.27Zm5.28,5.34l-20.41,20.41c-.45,.45-1.06,.7-1.7,.7h-.07c-.66-.02-1.29-.31-1.73-.81h0l-5.18-5.83c-2.84,5.81-3.41,12.46-1.62,18.67h30.25v4.81h-28.35c4.52,8.85,13.61,14.42,23.54,14.43,13.59,0,24.97-10.29,26.33-23.81,1.36-13.52-7.74-25.87-21.05-28.58h0ZM141.2,4.79H7.18c-1.32,0-2.39,1.07-2.39,2.39h0V98.12c0,1.32,1.07,2.39,2.39,2.39H46.73c-.72-1.55-1.34-3.15-1.85-4.79H11.97c-1.32,0-2.39-1.07-2.39-2.39h0V26.33h4.79V90.94h29.39c-1.93-10.4,.32-21.13,6.26-29.88h0l-2.18-2.45-24.53,26.77-3.53-3.24,26.32-28.72c.45-.49,1.09-.78,1.76-.78h.01c.68,0,1.32,.3,1.77,.8h0l3.35,3.76c6.76-7.86,16.27-12.85,26.58-13.92h0l-9.11-14.58h-8.25v7.18c0,3.97-3.21,7.18-7.18,7.18H26.32c-3.97,0-7.18-3.21-7.18-7.18h0V16.75c0-3.97,3.21-7.18,7.18-7.18h28.72c3.97,0,7.18,3.21,7.18,7.18h0v7.18h9.57c.83,0,1.59,.43,2.03,1.12h0l11.3,18.09c3.48,.11,6.94,.66,10.28,1.65h0l13.69-13.69h-6.19v-4.79h11.97c1.32,0,2.39,1.07,2.39,2.39h0v11.97h-4.79v-6.19l-12.15,12.15c9.9,4.39,17.63,12.55,21.47,22.67,3.84,10.12,3.48,21.36-1.01,31.21h20.4c1.32,0,2.39-1.07,2.39-2.39h0V7.18c0-1.32-1.07-2.39-2.39-2.39h0Zm-58.41,52.64c-7.99,.32-15.4,4.23-20.16,10.65h0l4.47,5.03,15.69-15.69ZM55.04,14.36H26.32c-1.32,0-2.39,1.07-2.39,2.39h0v19.15c0,1.32,1.07,2.39,2.39,2.39h28.72c1.32,0,2.39-1.07,2.39-2.39h0V16.75c0-1.32-1.07-2.39-2.39-2.39h0Zm-1.81,13.59v5.99H27.95v-5.99h25.28Zm0-9.32v5.99H27.95v-5.99h25.28Z"/>
  </g>
</svg>