<?xml version="1.0" encoding="UTF-8"?>
<svg id="Layer_2" data-name="Layer 2" xmlns="http://www.w3.org/2000/svg" xmlns:xlink="http://www.w3.org/1999/xlink" viewBox="0 0 152.15 146.05">
  <defs>
    <style>
      .cls-1 {
        fill: url(#linear-gradient);
      }
    </style>
    <linearGradient id="linear-gradient" x1="201.61" y1="90.27" x2="201.61" y2="89.59" gradientTransform="translate(-44882.83 19323.25) scale(223 -214.06)" gradientUnits="userSpaceOnUse">
      <stop offset="0" stop-color="#ef4044"/>
      <stop offset="1" stop-color="#1c1d1d"/>
    </linearGradient>
  </defs>
  <g id="Layer_1-2" data-name="Layer 1">
    <path id="Combined-Shape" class="cls-1" d="M102.77,0c5.57,0,10.1,4.53,10.1,10.1,0,4.73-3.27,8.71-7.67,9.8h0v7.55c10.77,2.39,21,7.76,29.35,16.12,9.78,9.78,15.92,22.73,17.29,36.48,1.35,13.55-1.97,27.26-9.35,38.62-.89,1.38-2.73,1.77-4.11,.87-1.38-.89-1.77-2.73-.87-4.11,13.8-21.25,10.79-49.71-7.16-67.66-21.09-21.09-55.4-21.09-76.49,0-21.09,21.09-21.09,55.4,0,76.49,17.97,17.97,46.45,20.97,67.71,7.12,1.38-.9,3.22-.51,4.11,.87,.9,1.38,.51,3.22-.87,4.11-9.71,6.33-21.16,9.68-32.76,9.68-1.96,0-3.93-.1-5.89-.29-13.75-1.36-26.72-7.5-36.51-17.29-6.2-6.2-10.75-13.43-13.67-21.14H14.86c-1.64,0-2.97-1.33-2.97-2.97s1.33-2.97,2.97-2.97h19.25c-.99-3.75-1.6-7.58-1.86-11.42h-13.24c-1.64,0-2.97-1.33-2.97-2.97s1.33-2.97,2.97-2.97h13.14c.13-3.84,.62-7.66,1.47-11.42H2.97c-1.64,0-2.97-1.33-2.97-2.97s1.33-2.97,2.97-2.97H35.31c1.34-3.94,3.09-7.77,5.27-11.42H23.23c-1.64,0-2.97-1.33-2.97-2.97s1.33-2.97,2.97-2.97h21.18c.08,0,.15,0,.23,.01,1.54-1.99,3.22-3.9,5.05-5.73,8.33-8.33,18.53-13.7,29.26-16.1h0v-7.57c-4.4-1.09-7.66-5.07-7.66-9.8,0-5.57,4.53-10.1,10.1-10.1h21.4Zm-10.65,39.92c25.42,0,46.1,20.68,46.1,46.1s-20.68,46.1-46.1,46.1-46.1-20.68-46.1-46.1,20.68-46.1,46.1-46.1Zm40.35,83.47c.78,0,1.55,.32,2.1,.87,.55,.55,.87,1.32,.87,2.1s-.32,1.55-.87,2.1c-.56,.56-1.32,.87-2.1,.87s-1.55-.31-2.1-.87c-.56-.55-.87-1.32-.87-2.1s.32-1.55,.87-2.1c.55-.55,1.32-.87,2.1-.87ZM92.12,45.87c-22.14,0-40.16,18.01-40.16,40.16s18.01,40.16,40.16,40.16,40.16-18.01,40.16-40.16-18.01-40.16-40.16-40.16Zm-.04,66.2c1.64,0,2.97,1.33,2.97,2.97h0v2.75c0,1.64-1.33,2.97-2.97,2.97s-2.97-1.33-2.97-2.97h0v-2.75c0-1.64,1.33-2.97,2.97-2.97ZM2.97,101.39c.78,0,1.55,.32,2.1,.87,.55,.55,.87,1.32,.87,2.1s-.32,1.55-.87,2.1c-.55,.55-1.32,.87-2.1,.87s-1.55-.32-2.1-.87c-.55-.55-.87-1.32-.87-2.1s.32-1.55,.87-2.1c.55-.55,1.32-.87,2.1-.87ZM110.92,63.02c1.16-1.16,3.04-1.16,4.2,0,1.16,1.16,1.16,3.04,0,4.2h0l-.43,.43-14.29,14.29c.61,1.23,.95,2.62,.95,4.08,0,5.09-4.14,9.23-9.23,9.23s-9.23-4.14-9.23-9.23c0-1.46,.34-2.85,.95-4.08h0l-6.59-6.59c-1.16-1.16-1.16-3.04,0-4.2,1.16-1.16,3.04-1.16,4.2,0h0l6.59,6.59c1.23-.61,2.62-.95,4.08-.95s2.85,.34,4.08,.95h0l14.72-14.72Zm-18.8,19.71c-1.81,0-3.29,1.48-3.29,3.29s1.48,3.29,3.29,3.29,3.29-1.48,3.29-3.29-1.48-3.29-3.29-3.29Zm31.77,.36c1.64,0,2.97,1.33,2.97,2.97s-1.33,2.97-2.97,2.97h-2.75c-1.64,0-2.97-1.33-2.97-2.97s1.33-2.97,2.97-2.97h2.75Zm-60.79-.07c1.64,0,2.97,1.33,2.97,2.97s-1.33,2.97-2.97,2.97h-2.75c-1.64,0-2.97-1.33-2.97-2.97s1.33-2.97,2.97-2.97h2.75Zm29.06-31.74c1.64,0,2.97,1.33,2.97,2.97h0v2.75c0,1.64-1.33,2.97-2.97,2.97s-2.97-1.33-2.97-2.97h0v-2.75c0-1.64,1.33-2.97,2.97-2.97Zm7.11-31.07h-14.39v6.25c4.78-.58,9.61-.58,14.39-.01h0v-6.24Zm3.5-14.26h-21.4c-2.29,0-4.16,1.87-4.16,4.16s1.87,4.16,4.16,4.16h21.4c2.29,0,4.16-1.87,4.16-4.16s-1.87-4.16-4.16-4.16h0Z"/>
  </g>
</svg>