<?xml version="1.0" encoding="UTF-8"?>
<svg width="223px" height="223px" viewBox="0 0 223 223" version="1.1" xmlns="http://www.w3.org/2000/svg" xmlns:xlink="http://www.w3.org/1999/xlink">
    <title>Combined Shape</title>
    <defs>
        <linearGradient x1="50%" y1="0%" x2="50%" y2="100%" id="linearGradient-1">
            <stop stop-color="#FF3B3F" offset="0%"></stop>
            <stop stop-color="#1D1D1D" offset="100%"></stop>
        </linearGradient>
        <path d="M1146.693,72.6687709 C1162.275,68.2797709 1179.011,72.6937709 1190.401,84.1967709 C1193.305,82.8517709 1196.467,82.1537709 1199.667,82.1527709 C1209.138,82.1737709 1217.569,88.1567709 1220.715,97.0897709 C1244.811,98.4467709 1263.457,118.725771 1262.79,142.851771 C1262.123,166.976771 1242.385,186.194771 1218.25,186.218771 C1212.904,186.221771 1207.601,185.250771 1202.603,183.352771 C1200.065,188.540771 1196.544,193.185771 1192.234,197.029771 L1192.234,227.101771 C1192.234,229.153771 1193.898,230.817771 1195.95,230.817771 L1240.551,230.817771 L1240.551,219.909771 C1240.544,216.944771 1242.262,214.245771 1244.951,212.996771 C1247.675,211.682771 1250.915,212.074771 1253.247,213.999771 L1271.176,228.613771 C1272.962,230.060771 1274,232.235771 1274,234.534771 C1274,236.832771 1272.962,239.008771 1271.176,240.454771 L1253.243,255.072771 C1251.859,256.211771 1250.122,256.835771 1248.33,256.837771 C1247.161,256.837771 1246.006,256.576771 1244.951,256.072771 C1242.262,254.823771 1240.544,252.124771 1240.551,249.159771 L1240.551,238.251771 L1195.95,238.251771 C1189.792,238.251771 1184.8,233.259771 1184.8,227.101771 L1184.8,202.437771 C1179.119,205.757771 1172.772,207.774771 1166.217,208.343771 L1166.217,260.550771 L1177.125,260.550771 C1180.091,260.544771 1182.789,262.262771 1184.038,264.951771 C1185.349,267.675771 1184.957,270.913771 1183.035,273.246771 L1168.421,291.175771 C1166.974,292.961771 1164.798,293.999771 1162.5,293.999771 C1160.202,293.999771 1158.026,292.961771 1156.579,291.175771 L1141.961,273.243771 C1140.041,270.910771 1139.651,267.673771 1140.962,264.951771 C1142.211,262.262771 1144.909,260.544771 1147.875,260.550771 L1158.783,260.550771 L1158.783,208.287771 C1152.23,207.726771 1145.883,205.718771 1140.2,202.407771 L1140.2,227.101771 C1140.2,233.259771 1135.208,238.251771 1129.05,238.251771 L1084.449,238.251771 L1084.449,249.159771 C1084.454,252.123771 1082.737,254.819771 1080.049,256.068771 C1078.995,256.572771 1077.842,256.833771 1076.674,256.834771 C1074.879,256.833771 1073.139,256.209771 1071.753,255.068771 L1053.824,240.454771 C1052.038,239.008771 1051,236.832771 1051,234.534771 C1051,232.235771 1052.038,230.060771 1053.824,228.613771 L1071.757,213.996771 C1074.09,212.076771 1077.326,211.686771 1080.049,212.996771 C1082.738,214.245771 1084.456,216.944771 1084.449,219.909771 L1084.449,230.817771 L1129.05,230.817771 C1131.102,230.817771 1132.766,229.153771 1132.766,227.101771 L1132.766,197.066771 C1130.176,194.757771 1127.864,192.154771 1125.876,189.310771 C1108.365,197.655771 1087.469,193.726771 1074.186,179.591771 C1060.903,165.456771 1058.279,144.357771 1067.694,127.399771 C1077.11,110.441771 1096.407,101.513771 1115.428,105.314771 C1119.14,89.5577709 1131.111,77.0577709 1146.693,72.6687709 Z M1147.875,267.984771 C1147.57,268.363771 1147.678,268.489771 1147.719,268.541771 L1162.344,286.481771 C1162.379,286.533771 1162.437,286.565771 1162.5,286.567771 L1177.278,268.541771 C1177.382,268.430771 1177.399,268.262771 1177.319,268.132771 Z M1076.596,219.701771 C1076.545,219.702771 1076.497,219.720771 1076.458,219.753771 L1058.518,234.378771 C1058.466,234.413771 1058.434,234.471771 1058.432,234.534771 L1076.455,249.308771 C1076.563,249.422771 1076.735,249.439771 1076.863,249.352771 L1077.016,219.909771 C1076.902,219.796771 1076.755,219.723771 1076.596,219.701771 Z M1248.322,219.667771 C1248.257,219.668771 1248.194,219.685771 1248.136,219.716771 L1247.984,249.159771 C1248.359,249.460771 1248.486,249.352771 1248.542,249.315771 L1266.482,234.690771 L1266.482,234.378771 L1248.545,219.757771 C1248.484,219.701771 1248.405,219.670771 1248.322,219.667771 Z M1184.139,88.4707709 C1174.442,79.3637709 1160.608,76.1517709 1147.891,80.0537709 C1135.173,83.9557709 1125.522,94.3737709 1122.601,107.351771 C1125.585,108.460771 1128.434,109.903771 1131.094,111.651771 C1132.227,112.370771 1132.884,113.645771 1132.813,114.986771 C1132.741,116.327771 1131.952,117.524771 1130.749,118.120771 C1129.545,118.715771 1128.114,118.614771 1127.005,117.857771 C1124.033,115.889771 1120.773,114.395771 1117.342,113.427771 L1117.294,113.427771 C1106.053,110.082771 1093.892,112.245771 1084.495,119.262771 C1075.097,126.279771 1069.568,137.323771 1069.58197,149.051771 C1069.571,162.329771 1076.653,174.601771 1088.155,181.235771 C1099.657,187.869771 1113.826,187.855771 1125.314,181.196771 L1125.363,181.196771 C1129.205,178.997771 1132.619,176.121771 1135.439,172.708771 C1136.745,171.132771 1139.079,170.910771 1140.66,172.209771 C1142.241,173.508771 1142.474,175.841771 1141.181,177.428771 C1138.632,180.515771 1135.676,183.243771 1132.395,185.537771 C1140.328,196.678771 1153.756,202.540771 1167.32,200.784771 C1180.884,199.028771 1192.376,189.939771 1197.21,177.145771 L1197.21,177.112771 C1198.435,173.949771 1199.218,170.632771 1199.537,167.255771 C1199.742,165.213771 1201.564,163.724771 1203.607,163.929771 C1205.649,164.134771 1207.138,165.956771 1206.933,167.999771 C1206.63,170.829771 1206.056,173.625771 1205.22,176.346771 C1209.379,177.946771 1213.795,178.772771 1218.25,178.784771 C1238.042,178.767771 1254.348,163.245771 1255.339,143.479771 C1256.33,123.713771 1241.657,106.637771 1221.967,104.641771 C1221.94,109.403771 1220.376,114.030771 1217.507,117.831771 C1216.711,118.894771 1215.408,119.450771 1214.089,119.291771 C1212.771,119.133771 1211.638,118.283771 1211.116,117.061771 C1210.594,115.840771 1210.764,114.434771 1211.56,113.371771 C1213.498,110.802771 1214.543,107.670771 1214.534,104.452771 C1214.539,103.476771 1214.438,102.503771 1214.233,101.549771 L1214.233,101.478771 C1213.265,96.6707709 1209.98,92.6527709 1205.459,90.7507709 C1200.938,88.8487709 1195.768,89.3087709 1191.654,91.9787709 L1191.628,91.9787709 C1188.265,94.1517709 1185.909,97.5787709 1185.086,101.497771 C1184.726,103.216771 1183.212,104.448771 1181.455,104.452771 C1181.205,104.450771 1180.957,104.424771 1180.712,104.373771 C1179.741,104.175771 1178.889,103.597771 1178.346,102.768771 C1177.803,101.939771 1177.614,100.927771 1177.82,99.9587709 C1178.742,95.5887709 1180.941,91.5897709 1184.139,88.4707709 Z M1115.849,131.097771 C1116.921,130.025771 1118.534,129.704771 1119.935,130.285771 C1121.336,130.865771 1122.25,132.232771 1122.25,133.748771 L1122.25,152.499771 C1124.321,152.499771 1126,154.178771 1126,156.249771 C1126,158.320771 1124.321,159.999771 1122.25,159.999771 L1114.75,159.999771 C1112.679,159.999771 1111,158.320771 1111,156.249771 C1111,154.178771 1112.679,152.499771 1114.75,152.499771 L1114.75,141.249771 C1113.233,141.248771 1111.866,140.335771 1111.286,138.933771 C1110.706,137.532771 1111.027,135.920771 1112.099,134.847771 Z M1140,129.999771 C1146.075,129.999771 1151,135.036771 1151,141.249771 L1151,148.749771 C1151,154.962771 1146.075,159.999771 1140,159.999771 C1133.925,159.999771 1129,154.962771 1129,148.749771 L1129,141.249771 C1129,135.036771 1133.925,129.999771 1140,129.999771 Z M1233,129.999771 C1239.075,129.999771 1244,135.036771 1244,141.249771 L1244,148.749771 C1244,154.962771 1239.075,159.999771 1233,159.999771 C1226.925,159.999771 1222,154.962771 1222,148.749771 L1222,141.249771 C1222,135.036771 1226.925,129.999771 1233,129.999771 Z M1163.849,131.097771 C1164.921,130.025771 1166.534,129.704771 1167.935,130.285771 C1169.336,130.865771 1170.25,132.232771 1170.25,133.748771 L1170.25,152.499771 C1172.321,152.499771 1174,154.178771 1174,156.249771 C1174,158.320771 1172.321,159.999771 1170.25,159.999771 L1162.75,159.999771 C1160.679,159.999771 1159,158.320771 1159,156.249771 C1159,154.178771 1160.679,152.499771 1162.75,152.499771 L1162.75,141.249771 C1161.233,141.248771 1159.866,140.335771 1159.286,138.933771 C1158.706,137.532771 1159.027,135.920771 1160.099,134.847771 Z M1185.849,131.097771 C1186.921,130.025771 1188.534,129.704771 1189.935,130.285771 C1191.336,130.865771 1192.25,132.232771 1192.25,133.748771 L1192.25,152.499771 C1194.321,152.499771 1196,154.178771 1196,156.249771 C1196,158.320771 1194.321,159.999771 1192.25,159.999771 L1184.75,159.999771 C1182.679,159.999771 1181,158.320771 1181,156.249771 C1181,154.178771 1182.679,152.499771 1184.75,152.499771 L1184.75,141.249771 C1183.233,141.248771 1181.866,140.335771 1181.286,138.933771 C1180.706,137.532771 1181.027,135.920771 1182.099,134.847771 Z M1208.849,131.097771 C1209.921,130.025771 1211.534,129.704771 1212.935,130.285771 C1214.336,130.865771 1215.25,132.232771 1215.25,133.748771 L1215.25,152.499771 C1217.321,152.499771 1219,154.178771 1219,156.249771 C1219,158.320771 1217.321,159.999771 1215.25,159.999771 L1207.75,159.999771 C1205.679,159.999771 1204,158.320771 1204,156.249771 C1204,154.178771 1205.679,152.499771 1207.75,152.499771 L1207.75,141.249771 C1206.233,141.248771 1204.866,140.335771 1204.286,138.933771 C1203.706,137.532771 1204.027,135.920771 1205.099,134.847771 Z M1092,129.999771 C1098.075,129.999771 1103,135.036771 1103,141.249771 L1103,148.749771 C1103,154.962771 1098.075,159.999771 1092,159.999771 C1085.925,159.999771 1081,154.962771 1081,148.749771 L1081,141.249771 C1081,135.036771 1085.925,129.999771 1092,129.999771 Z M1140,137.499771 C1137.975,137.499771 1136.333,139.178771 1136.333,141.249771 L1136.333,148.749771 C1136.333,150.820771 1137.975,152.499771 1140,152.499771 C1142.025,152.499771 1143.667,150.820771 1143.667,148.749771 L1143.667,141.249771 C1143.667,139.178771 1142.025,137.499771 1140,137.499771 Z M1233,137.499771 C1230.975,137.499771 1229.333,139.178771 1229.333,141.249771 L1229.333,148.749771 C1229.333,150.820771 1230.975,152.499771 1233,152.499771 C1235.025,152.499771 1236.667,150.820771 1236.667,148.749771 L1236.667,141.249771 C1236.667,139.178771 1235.025,137.499771 1233,137.499771 Z M1092,137.499771 C1089.975,137.499771 1088.333,139.178771 1088.333,141.249771 L1088.333,148.749771 C1088.333,150.820771 1089.975,152.499771 1092,152.499771 C1094.025,152.499771 1095.667,150.820771 1095.667,148.749771 L1095.667,141.249771 C1095.667,139.178771 1094.025,137.499771 1092,137.499771 Z" id="path-2"></path>
    </defs>
    <g id="Site-Icons" stroke="none" stroke-width="1" fill="none" fill-rule="evenodd">
        <g id="Combined-Shape" transform="translate(-1051.000000, -71.000000)">
            <use fill="#1D1D1D" xlink:href="#path-2"></use>
            <use fill="url(#linearGradient-1)" xlink:href="#path-2"></use>
        </g>
    </g>
</svg>