<?xml version="1.0" encoding="UTF-8"?>
<svg id="Layer_2" data-name="Layer 2" xmlns="http://www.w3.org/2000/svg" viewBox="0 0 207.58 76.76">
  <defs>
    <style>
      .cls-1 {
        fill: #6a797e;
      }

      .cls-2 {
        fill: #ef4335;
      }

      .cls-3 {
        fill: #17313b;
      }

      .cls-4 {
        fill: #fff;
        stroke: #d2d2d2;
        stroke-miterlimit: 10;
      }
    </style>
  </defs>
  <g id="Layer_1-2" data-name="Layer 1">
    <g>
      <rect class="cls-4" x=".5" y=".5" width="206.58" height="75.76" rx="12" ry="12"/>
      <g>
        <rect class="cls-3" x="33.75" y="35.64" width="3.76" height="22.9"/>
        <path class="cls-3" d="M50.25,51.25c.07,1.02-.33,2.02-1.1,2.73-.76,.72-1.81,1.08-2.87,1-2.28,0-2.67-2-2.67-3.23v-8.74h-3.84v8.71c-.09,1.89,.61,3.74,1.95,5.13,1.23,1.09,2.85,1.67,4.52,1.63,1.44,.03,2.85-.4,4.01-1.21v1.26h3.81v-15.51h-3.81v8.23Z"/>
        <path class="cls-3" d="M61.14,37.11h-3.61v5.59h-2.71v3.73h2.71v12.1h3.61v-12.1h2.71v-3.73h-2.71v-5.59Z"/>
        <path class="cls-3" d="M76.51,53.77c-.84,.76-1.93,1.18-3.07,1.18-1.22,.04-2.39-.43-3.25-1.3-.86-.87-1.32-2.05-1.28-3.27-.05-1.22,.42-2.39,1.28-3.25,.86-.85,2.04-1.3,3.25-1.23,1.13-.01,2.23,.39,3.09,1.12l.56,.5,2.53-2.54-.63-.57c-1.52-1.38-3.5-2.13-5.55-2.12-2.16-.08-4.25,.74-5.79,2.27-1.53,1.53-2.36,3.63-2.3,5.8-.05,2.18,.78,4.28,2.31,5.82,1.53,1.54,3.61,2.39,5.78,2.35,2.06,.02,4.06-.74,5.59-2.13l.61-.58-2.6-2.58-.54,.52Z"/>
        <path class="cls-3" d="M92.27,44.32c-2.05-2.01-5.26-2.18-7.52-.41v-8.26h-3.61v22.9h3.61v-8.59c0-3.45,2.48-3.78,3.35-3.78,2.19,0,2.12,2.06,2.12,3.29v9.08h3.69v-9.06c.16-1.87-.43-3.73-1.64-5.16Z"/>
        <path class="cls-2" d="M73.57,53.08c1.45,0,2.63-1.16,2.63-2.59s-1.18-2.58-2.63-2.58-2.63,1.16-2.63,2.58,1.18,2.59,2.63,2.59Z"/>
        <path class="cls-3" d="M28.37,52.85c-1.44,1.41-3.42,2.2-5.48,2.19-4.24,0-7.36-3.17-7.36-7.55s3.08-7.59,7.32-7.59c2.05,0,4.02,.78,5.46,2.17l.59,.56,2.58-2.47-.56-.56c-2.1-2.08-5.01-3.24-8.03-3.22-6.25,.03-10.95,4.8-10.95,11.13s4.78,11.03,10.95,11.03c3.03,.02,5.94-1.15,8.05-3.23l.56-.55-2.53-2.48-.6,.57Z"/>
        <path class="cls-1" d="M13.84,20.4h2.59c.59,0,1.08,.09,1.49,.27,.41,.18,.72,.44,.93,.79,.21,.35,.32,.78,.32,1.28,0,.36-.07,.69-.22,.98-.14,.29-.35,.54-.62,.75-.27,.2-.59,.36-.97,.46l-.29,.11h-2.43v-.84s1.83,0,1.83,0c.37,0,.68-.07,.93-.19,.25-.13,.43-.31,.56-.53,.12-.22,.19-.47,.19-.74,0-.3-.06-.56-.18-.79-.12-.23-.3-.4-.56-.52-.25-.12-.57-.19-.97-.19h-1.55v6.97h-1.04v-7.82Zm4.57,7.82l-1.9-3.54h1.08s1.93,3.48,1.93,3.48v.06h-1.11Zm8.27-.84v.84h-4.14v-.84h4.14Zm-3.93-6.98v7.82h-1.04v-7.82h1.04Zm3.38,3.36v.84h-3.59v-.84h3.59Zm.5-3.36v.85h-4.09v-.85h4.09Zm4.96,6.63l2.3-6.63h1.12l-2.9,7.82h-.8l.27-1.19Zm-2.15-6.63l2.28,6.63,.29,1.19h-.8l-2.89-7.82h1.12Zm8.85,0v7.82h-1.04v-7.82h1.04Zm7.95,6.98v.84h-4.14v-.84h4.14Zm-3.93-6.98v7.82h-1.04v-7.82h1.04Zm3.38,3.36v.84h-3.59v-.84h3.59Zm.49-3.36v.85h-4.09v-.85h4.09Zm4.49,5.46l1.55-5.46h.75l-.43,2.12-1.67,5.7h-.75l.55-2.36Zm-1.61-5.46l1.24,5.35,.37,2.47h-.74l-1.9-7.82h1.03Zm5.92,5.34l1.21-5.34h1.04l-1.89,7.82h-.74l.39-2.48Zm-1.9-5.34l1.51,5.46,.55,2.36h-.75l-1.61-5.7-.44-2.12h.74Zm11.36,6.98v.84h-4.14v-.84h4.14Zm-3.93-6.98v7.82h-1.04v-7.82h1.04Zm3.38,3.36v.84h-3.59v-.84h3.59Zm.49-3.36v.85h-4.09v-.85h4.09Zm4.55,7.82h-1.63v-.84h1.63c.56,0,1.02-.12,1.4-.35,.37-.24,.65-.57,.84-.99,.19-.43,.29-.92,.29-1.49v-.48c0-.45-.05-.85-.16-1.19-.11-.35-.26-.65-.47-.89-.21-.24-.46-.43-.76-.55-.3-.12-.64-.19-1.03-.19h-1.76v-.85h1.76c.51,0,.98,.09,1.4,.26,.42,.17,.79,.41,1.09,.74,.31,.32,.54,.71,.71,1.16,.16,.45,.25,.96,.25,1.53v.47c0,.57-.08,1.08-.25,1.53-.16,.45-.4,.84-.71,1.15-.31,.32-.68,.56-1.12,.74-.43,.17-.92,.25-1.47,.25Zm-1.08-7.82v7.82h-1.04v-7.82h1.04Zm17.13,3.66v.49c0,.59-.07,1.11-.22,1.58-.15,.47-.36,.86-.63,1.19-.28,.33-.61,.57-.99,.75-.38,.17-.81,.26-1.29,.26s-.89-.09-1.27-.26c-.38-.17-.72-.42-1-.75-.28-.33-.5-.72-.65-1.19-.15-.46-.23-.99-.23-1.58v-.49c0-.59,.07-1.11,.23-1.57,.15-.46,.37-.86,.65-1.19,.28-.33,.61-.58,.99-.75,.39-.17,.81-.26,1.27-.26s.91,.09,1.29,.26c.39,.17,.72,.42,.99,.75,.28,.33,.49,.72,.64,1.19,.15,.46,.23,.99,.23,1.57Zm-1.03,.49v-.51c0-.46-.05-.88-.14-1.24-.09-.36-.23-.66-.41-.9-.18-.24-.41-.43-.67-.55-.26-.12-.56-.19-.89-.19s-.61,.06-.88,.19c-.26,.12-.48,.31-.67,.55-.18,.24-.32,.54-.42,.9-.1,.36-.15,.77-.15,1.24v.51c0,.47,.05,.88,.15,1.25,.1,.36,.24,.66,.43,.91,.19,.24,.41,.43,.67,.55,.26,.12,.55,.19,.88,.19s.64-.06,.9-.19,.48-.31,.66-.55c.18-.25,.32-.55,.41-.91,.09-.36,.14-.78,.14-1.25Zm9.69-4.16v7.82h-1.04l-3.94-6.03v6.03h-1.04v-7.82h1.04l3.95,6.05v-6.05h1.03Z"/>
        <path class="cls-2" d="M118.45,30.93l-3.92,2.55c-.22,.15-.49,.14-.7-.03-.21-.16-.3-.44-.24-.71l1.01-4.77-3.45-3.24c-.19-.18-.26-.46-.18-.72,.08-.26,.29-.44,.55-.47l4.54-.41,1.82-4.49c.1-.25,.32-.42,.58-.42s.48,.17,.58,.42l1.79,4.5,4.55,.41c.25,.03,.46,.21,.54,.47,.08,.26,0,.54-.19,.72l-3.44,3.24,1.01,4.77c.06,.27-.04,.54-.25,.7-.21,.16-.48,.17-.7,.03l-3.89-2.56Z"/>
        <path class="cls-2" d="M135.45,30.93l-3.92,2.55c-.22,.15-.49,.14-.7-.03-.21-.16-.3-.44-.24-.71l1.01-4.77-3.45-3.24c-.19-.18-.26-.46-.18-.72,.08-.26,.29-.44,.55-.47l4.54-.41,1.82-4.49c.1-.25,.32-.42,.58-.42s.48,.17,.58,.42l1.79,4.5,4.55,.41c.25,.03,.46,.21,.54,.47,.08,.26,0,.54-.19,.72l-3.44,3.24,1.01,4.77c.06,.27-.04,.54-.25,.7-.21,.16-.48,.17-.7,.03l-3.89-2.56Z"/>
        <path class="cls-2" d="M152.45,30.93l-3.92,2.55c-.22,.15-.49,.14-.7-.03-.21-.16-.3-.44-.24-.71l1.01-4.77-3.45-3.24c-.19-.18-.26-.46-.18-.72,.08-.26,.29-.44,.55-.47l4.54-.41,1.82-4.49c.1-.25,.32-.42,.58-.42s.48,.17,.58,.42l1.79,4.5,4.55,.41c.25,.03,.46,.21,.54,.47,.08,.26,0,.54-.19,.72l-3.44,3.24,1.01,4.77c.06,.27-.04,.54-.25,.7-.21,.16-.48,.17-.7,.03l-3.89-2.56Z"/>
        <path class="cls-2" d="M169.45,30.93l-3.92,2.55c-.22,.15-.49,.14-.7-.03-.21-.16-.3-.44-.24-.71l1.01-4.77-3.45-3.24c-.19-.18-.26-.46-.18-.72,.08-.26,.29-.44,.55-.47l4.54-.41,1.82-4.49c.1-.25,.32-.42,.58-.42s.48,.17,.58,.42l1.79,4.5,4.55,.41c.25,.03,.46,.21,.54,.47,.08,.26,0,.54-.19,.72l-3.44,3.24,1.01,4.77c.06,.27-.04,.54-.25,.7-.21,.16-.48,.17-.7,.03l-3.89-2.56Z"/>
        <path class="cls-2" d="M186.45,30.93l-3.92,2.55c-.22,.15-.49,.14-.7-.03-.21-.16-.3-.44-.24-.71l1.01-4.77-3.45-3.24c-.19-.18-.26-.46-.18-.72,.08-.26,.29-.44,.55-.47l4.54-.41,1.82-4.49c.1-.25,.32-.42,.58-.42s.48,.17,.58,.42l1.79,4.5,4.55,.41c.25,.03,.46,.21,.54,.47,.08,.26,0,.54-.19,.72l-3.44,3.24,1.01,4.77c.06,.27-.04,.54-.25,.7-.21,.16-.48,.17-.7,.03l-3.89-2.56Z"/>
        <path class="cls-1" d="M114.92,47.85v10.01h-1.26v-8.43l-2.55,.93v-1.14l3.62-1.37h.2Zm10.97,4.24v1.52c0,.82-.07,1.5-.22,2.07-.14,.56-.35,1.01-.63,1.35-.27,.34-.6,.59-.99,.75-.38,.15-.82,.23-1.3,.23-.38,0-.74-.05-1.06-.14-.32-.1-.61-.25-.88-.46-.26-.21-.47-.49-.66-.83-.18-.34-.32-.76-.42-1.25-.1-.49-.14-1.06-.14-1.71v-1.52c0-.82,.07-1.5,.22-2.05,.15-.55,.36-.99,.64-1.33,.27-.34,.6-.58,.98-.72,.39-.15,.82-.22,1.3-.22,.39,0,.74,.05,1.07,.14,.33,.09,.62,.24,.88,.44,.26,.2,.47,.47,.65,.81,.18,.33,.32,.74,.42,1.22,.1,.48,.14,1.05,.14,1.7Zm-1.27,1.72v-1.93c0-.45-.03-.84-.08-1.18-.05-.34-.13-.63-.23-.88-.1-.24-.23-.44-.38-.59-.15-.15-.33-.26-.53-.33-.2-.07-.42-.11-.66-.11-.3,0-.57,.06-.8,.17-.23,.11-.43,.28-.59,.53-.15,.24-.27,.56-.36,.95s-.12,.87-.12,1.43v1.93c0,.45,.02,.84,.07,1.18,.05,.34,.13,.64,.24,.89,.1,.25,.23,.45,.38,.61,.15,.16,.32,.28,.52,.36,.2,.07,.42,.11,.66,.11,.31,0,.58-.06,.81-.18,.23-.12,.43-.3,.58-.55,.16-.26,.28-.58,.36-.98,.08-.4,.12-.88,.12-1.43Zm8.7-5.91h3.3c.75,0,1.38,.11,1.89,.34,.52,.23,.91,.57,1.18,1.01,.27,.44,.41,.99,.41,1.63,0,.46-.09,.87-.28,1.25-.18,.37-.45,.69-.79,.96-.34,.26-.75,.45-1.23,.58l-.37,.14h-3.1v-1.07s2.32,0,2.32,0c.47,0,.87-.08,1.18-.25,.32-.17,.55-.39,.71-.68,.16-.28,.24-.6,.24-.94,0-.38-.08-.72-.23-1-.15-.29-.39-.51-.71-.66-.32-.16-.73-.24-1.24-.24h-1.98v8.87h-1.32v-9.95Zm5.82,9.95l-2.42-4.51h1.37s2.46,4.43,2.46,4.43v.08h-1.41Zm10.13-1.07v1.07h-5.27v-1.07h5.27Zm-5-8.88v9.95h-1.32v-9.95h1.32Zm4.31,4.28v1.07h-4.57v-1.07h4.57Zm.63-4.28v1.08h-5.2v-1.08h5.2Zm5.91,8.44l2.93-8.44h1.43l-3.68,9.95h-1.02l.34-1.51Zm-2.74-8.44l2.9,8.44,.36,1.51h-1.02l-3.68-9.95h1.43Zm10.86,0v9.95h-1.32v-9.95h1.32Zm9.72,8.88v1.07h-5.27v-1.07h5.27Zm-5-8.88v9.95h-1.32v-9.95h1.32Zm4.31,4.28v1.07h-4.57v-1.07h4.57Zm.63-4.28v1.08h-5.2v-1.08h5.2Zm5.32,6.95l1.98-6.95h.96l-.55,2.7-2.13,7.25h-.95l.7-3.01Zm-2.04-6.95l1.57,6.81,.47,3.14h-.94l-2.41-9.95h1.31Zm7.53,6.8l1.54-6.8h1.32l-2.41,9.95h-.94l.49-3.15Zm-2.41-6.8l1.92,6.95,.7,3.01h-.95l-2.05-7.25-.56-2.7h.94Zm13.04,7.44c0-.23-.04-.44-.11-.61-.07-.18-.19-.35-.37-.49-.17-.15-.41-.28-.72-.42-.31-.13-.69-.27-1.16-.4-.49-.15-.94-.31-1.33-.49-.4-.18-.74-.39-1.02-.62-.28-.23-.5-.5-.65-.8-.15-.3-.23-.65-.23-1.03s.08-.75,.24-1.07c.16-.33,.39-.61,.68-.85,.3-.25,.66-.44,1.07-.57,.42-.14,.88-.21,1.39-.21,.75,0,1.38,.14,1.9,.43,.52,.28,.92,.65,1.2,1.11,.27,.46,.41,.94,.41,1.46h-1.31c0-.37-.08-.7-.24-.99-.16-.29-.4-.52-.73-.68-.32-.17-.73-.25-1.23-.25-.47,0-.86,.07-1.16,.21-.31,.14-.53,.33-.68,.57-.15,.24-.22,.52-.22,.83,0,.21,.04,.4,.13,.57,.09,.17,.23,.33,.42,.47,.19,.15,.43,.28,.73,.4,.3,.12,.65,.24,1.06,.36,.57,.16,1.05,.34,1.46,.53,.41,.2,.75,.42,1.01,.66,.27,.24,.47,.52,.6,.83,.13,.31,.2,.65,.2,1.04,0,.41-.08,.77-.25,1.1s-.4,.61-.7,.84c-.31,.23-.67,.41-1.1,.54-.42,.12-.9,.18-1.42,.18-.46,0-.91-.06-1.36-.19-.44-.13-.84-.32-1.21-.57-.36-.26-.65-.57-.87-.94-.21-.38-.32-.82-.32-1.31h1.31c0,.34,.07,.63,.2,.88,.13,.24,.31,.44,.54,.6,.23,.16,.5,.28,.79,.36,.3,.07,.6,.11,.92,.11,.46,0,.85-.06,1.17-.19,.32-.13,.56-.31,.73-.55,.17-.24,.25-.52,.25-.84Z"/>
      </g>
    </g>
  </g>
</svg>