<?xml version="1.0" encoding="UTF-8"?>
<svg id="Layer_2" data-name="Layer 2" xmlns="http://www.w3.org/2000/svg" xmlns:xlink="http://www.w3.org/1999/xlink" viewBox="0 0 148.38 148.38">
  <defs>
    <style>
      .cls-1 {
        fill: url(#linear-gradient);
      }

      .cls-2 {
        fill: #ef4044;
      }
    </style>
    <linearGradient id="linear-gradient" x1="-324.49" y1="-123.99" x2="-324.49" y2="-124.66" gradientTransform="translate(72434.88 -27649.72) scale(223 -223)" gradientUnits="userSpaceOnUse">
      <stop offset="0" stop-color="#ef4044"/>
      <stop offset="1" stop-color="#1c1d1d"/>
    </linearGradient>
  </defs>
  <g id="Layer_1-2" data-name="Layer 1">
    <g id="Combined-Shape">
      <path id="path-y79m0wrag_-20" data-name="path-y79m0wrag -20" class="cls-2" d="M111.29,0c4.1,0,7.42,3.32,7.42,7.42,0,1.32,1.04,2.4,2.34,2.47h.13s19.78,0,19.78,0c4.03,0,7.31,3.22,7.42,7.22v.19s0,19.78,0,19.78c0,4.03-3.22,7.31-7.22,7.42h-.19s-44.51,0-44.51,0c-4.03,0-7.31-3.22-7.42-7.22v-.19s0-7.42,0-7.42h-7.42c-1.32,0-2.4,1.04-2.47,2.34v.13s0,39.57,0,39.57h9.89v-12.37c0-4.03,3.22-7.31,7.22-7.42h.19s14.84,0,14.84,0c4.1,0,7.42,3.32,7.42,7.42,0,1.32,1.04,2.4,2.34,2.47h.13s19.78,0,19.78,0c4.03,0,7.31,3.22,7.42,7.22v.19s0,19.78,0,19.78c0,4.03-3.22,7.31-7.22,7.42h-.19s-44.51,0-44.51,0c-4.03,0-7.31-3.22-7.42-7.22v-.19s0-12.37,0-12.37h-9.89v39.57c0,1.32,1.04,2.4,2.34,2.47h.13s7.42,0,7.42,0v-7.42c0-4.03,3.22-7.31,7.22-7.42h.19s14.84,0,14.84,0c4.1,0,7.42,3.32,7.42,7.42,0,1.32,1.04,2.4,2.34,2.47h.13s19.78,0,19.78,0c4.03,0,7.31,3.22,7.42,7.22v.19s0,19.78,0,19.78c0,4.03-3.22,7.31-7.22,7.42h-.19s-44.51,0-44.51,0c-4.03,0-7.31-3.22-7.42-7.22v-.19s0-17.31,0-17.31h-7.42c-4.03,0-7.31-3.22-7.42-7.22v-.19s0-39.57,0-39.57h-9.89v27.2c0,8.12-16.17,12.37-32.15,12.37S.32,112.07,0,104.11v-.24s0-59.35,0-59.35c.02-.16,.05-.31,.09-.46-.05-.26-.08-.52-.09-.78,0-8.83,16.57-13.6,32.15-13.6s32.15,4.77,32.15,13.6c-.02,.26-.05,.52-.09,.78,.03,.1,.05,.2,.07,.3l.02,.15v27.2h9.89V32.15c0-4.03,3.22-7.31,7.22-7.42h.19s7.42,0,7.42,0V7.42C89.03,3.39,92.25,.11,96.25,0h.19s14.84,0,14.84,0Zm0,108.81h-14.84c-1.32,0-2.4,1.04-2.47,2.34v.13s0,29.68,0,29.68c0,1.32,1.04,2.4,2.34,2.47h.13s44.51,0,44.51,0c1.32,0,2.4-1.04,2.47-2.34v-.13s0-19.78,0-19.78c0-1.32-1.04-2.4-2.34-2.47h-.13s-19.78,0-19.78,0c-4.1,0-7.42-3.32-7.42-7.42,0-1.37-1.11-2.47-2.47-2.47Zm-9.89,24.73c1.37,0,2.47,1.11,2.47,2.47s-1.11,2.47-2.47,2.47-2.47-1.11-2.47-2.47,1.11-2.47,2.47-2.47Zm0-9.89c1.37,0,2.47,1.11,2.47,2.47s-1.11,2.47-2.47,2.47-2.47-1.11-2.47-2.47,1.11-2.47,2.47-2.47Zm-42.04-32.69c-6,3.61-16.63,5.48-27.2,5.48s-20.87-1.81-26.92-5.31l-.28-.17v12.9c0,2.52,9.6,7.42,27.2,7.42s27.01-4.8,27.2-7.34v-.08s0-12.9,0-12.9Zm-46.99,7.96c1.37,0,2.47,1.11,2.47,2.47s-1.11,2.47-2.47,2.47-2.47-1.11-2.47-2.47,1.11-2.47,2.47-2.47Zm46.99-27.74c-6,3.61-16.63,5.48-27.2,5.48s-20.87-1.81-26.92-5.31l-.28-.17v12.9c0,2.52,9.6,7.42,27.2,7.42s27.01-4.8,27.2-7.34v-.08s0-12.9,0-12.9Zm51.93-14.3h-14.84c-1.32,0-2.4,1.04-2.47,2.34v.13s0,29.68,0,29.68c0,1.32,1.04,2.4,2.34,2.47h.13s44.51,0,44.51,0c1.32,0,2.4-1.04,2.47-2.34v-.13s0-19.78,0-19.78c0-1.32-1.04-2.4-2.34-2.47h-.13s-19.78,0-19.78,0c-4.1,0-7.42-3.32-7.42-7.42,0-1.37-1.11-2.47-2.47-2.47Zm-9.89,24.73c1.37,0,2.47,1.11,2.47,2.47s-1.11,2.47-2.47,2.47-2.47-1.11-2.47-2.47,1.11-2.47,2.47-2.47Zm-89.03-2.47c1.37,0,2.47,1.11,2.47,2.47s-1.11,2.47-2.47,2.47-2.47-1.11-2.47-2.47,1.11-2.47,2.47-2.47Zm89.03-7.42c1.37,0,2.47,1.11,2.47,2.47s-1.11,2.47-2.47,2.47-2.47-1.11-2.47-2.47,1.11-2.47,2.47-2.47Zm-42.04-20.97c-6.07,4.01-16.84,6.13-27.2,6.13s-20.8-2.05-26.92-5.95l-.28-.18v13.55c0,2.52,9.6,7.42,27.2,7.42s27.01-4.8,27.2-7.34v-.08s0-13.55,0-13.55ZM12.37,59.35c1.37,0,2.47,1.11,2.47,2.47s-1.11,2.47-2.47,2.47-2.47-1.11-2.47-2.47,1.11-2.47,2.47-2.47Zm19.78-24.73c-16.61,0-27.2,5.13-27.2,8.66s10.6,8.66,27.2,8.66,27.2-5.13,27.2-8.66-10.6-8.66-27.2-8.66ZM111.29,4.95h-14.84c-1.32,0-2.4,1.04-2.47,2.34v.13s0,29.68,0,29.68c0,1.32,1.04,2.4,2.34,2.47h.13s44.51,0,44.51,0c1.32,0,2.4-1.04,2.47-2.34v-.13s0-19.78,0-19.78c0-1.32-1.04-2.4-2.34-2.47h-.13s-19.78,0-19.78,0c-4.1,0-7.42-3.32-7.42-7.42,0-1.37-1.11-2.47-2.47-2.47Zm-9.89,24.73c1.37,0,2.47,1.11,2.47,2.47s-1.11,2.47-2.47,2.47-2.47-1.11-2.47-2.47,1.11-2.47,2.47-2.47Zm0-9.89c1.37,0,2.47,1.11,2.47,2.47s-1.11,2.47-2.47,2.47-2.47-1.11-2.47-2.47,1.11-2.47,2.47-2.47Z"/>
      <path id="path-y79m0wrag_-20-2" data-name="path-y79m0wrag -20" class="cls-1" d="M111.29,0c4.1,0,7.42,3.32,7.42,7.42,0,1.32,1.04,2.4,2.34,2.47h.13s19.78,0,19.78,0c4.03,0,7.31,3.22,7.42,7.22v.19s0,19.78,0,19.78c0,4.03-3.22,7.31-7.22,7.42h-.19s-44.51,0-44.51,0c-4.03,0-7.31-3.22-7.42-7.22v-.19s0-7.42,0-7.42h-7.42c-1.32,0-2.4,1.04-2.47,2.34v.13s0,39.57,0,39.57h9.89v-12.37c0-4.03,3.22-7.31,7.22-7.42h.19s14.84,0,14.84,0c4.1,0,7.42,3.32,7.42,7.42,0,1.32,1.04,2.4,2.34,2.47h.13s19.78,0,19.78,0c4.03,0,7.31,3.22,7.42,7.22v.19s0,19.78,0,19.78c0,4.03-3.22,7.31-7.22,7.42h-.19s-44.51,0-44.51,0c-4.03,0-7.31-3.22-7.42-7.22v-.19s0-12.37,0-12.37h-9.89v39.57c0,1.32,1.04,2.4,2.34,2.47h.13s7.42,0,7.42,0v-7.42c0-4.03,3.22-7.31,7.22-7.42h.19s14.84,0,14.84,0c4.1,0,7.42,3.32,7.42,7.42,0,1.32,1.04,2.4,2.34,2.47h.13s19.78,0,19.78,0c4.03,0,7.31,3.22,7.42,7.22v.19s0,19.78,0,19.78c0,4.03-3.22,7.31-7.22,7.42h-.19s-44.51,0-44.51,0c-4.03,0-7.31-3.22-7.42-7.22v-.19s0-17.31,0-17.31h-7.42c-4.03,0-7.31-3.22-7.42-7.22v-.19s0-39.57,0-39.57h-9.89v27.2c0,8.12-16.17,12.37-32.15,12.37S.32,112.07,0,104.11v-.24s0-59.35,0-59.35c.02-.16,.05-.31,.09-.46-.05-.26-.08-.52-.09-.78,0-8.83,16.57-13.6,32.15-13.6s32.15,4.77,32.15,13.6c-.02,.26-.05,.52-.09,.78,.03,.1,.05,.2,.07,.3l.02,.15v27.2h9.89V32.15c0-4.03,3.22-7.31,7.22-7.42h.19s7.42,0,7.42,0V7.42C89.03,3.39,92.25,.11,96.25,0h.19s14.84,0,14.84,0Zm0,108.81h-14.84c-1.32,0-2.4,1.04-2.47,2.34v.13s0,29.68,0,29.68c0,1.32,1.04,2.4,2.34,2.47h.13s44.51,0,44.51,0c1.32,0,2.4-1.04,2.47-2.34v-.13s0-19.78,0-19.78c0-1.32-1.04-2.4-2.34-2.47h-.13s-19.78,0-19.78,0c-4.1,0-7.42-3.32-7.42-7.42,0-1.37-1.11-2.47-2.47-2.47Zm-9.89,24.73c1.37,0,2.47,1.11,2.47,2.47s-1.11,2.47-2.47,2.47-2.47-1.11-2.47-2.47,1.11-2.47,2.47-2.47Zm0-9.89c1.37,0,2.47,1.11,2.47,2.47s-1.11,2.47-2.47,2.47-2.47-1.11-2.47-2.47,1.11-2.47,2.47-2.47Zm-42.04-32.69c-6,3.61-16.63,5.48-27.2,5.48s-20.87-1.81-26.92-5.31l-.28-.17v12.9c0,2.52,9.6,7.42,27.2,7.42s27.01-4.8,27.2-7.34v-.08s0-12.9,0-12.9Zm-46.99,7.96c1.37,0,2.47,1.11,2.47,2.47s-1.11,2.47-2.47,2.47-2.47-1.11-2.47-2.47,1.11-2.47,2.47-2.47Zm46.99-27.74c-6,3.61-16.63,5.48-27.2,5.48s-20.87-1.81-26.92-5.31l-.28-.17v12.9c0,2.52,9.6,7.42,27.2,7.42s27.01-4.8,27.2-7.34v-.08s0-12.9,0-12.9Zm51.93-14.3h-14.84c-1.32,0-2.4,1.04-2.47,2.34v.13s0,29.68,0,29.68c0,1.32,1.04,2.4,2.34,2.47h.13s44.51,0,44.51,0c1.32,0,2.4-1.04,2.47-2.34v-.13s0-19.78,0-19.78c0-1.32-1.04-2.4-2.34-2.47h-.13s-19.78,0-19.78,0c-4.1,0-7.42-3.32-7.42-7.42,0-1.37-1.11-2.47-2.47-2.47Zm-9.89,24.73c1.37,0,2.47,1.11,2.47,2.47s-1.11,2.47-2.47,2.47-2.47-1.11-2.47-2.47,1.11-2.47,2.47-2.47Zm-89.03-2.47c1.37,0,2.47,1.11,2.47,2.47s-1.11,2.47-2.47,2.47-2.47-1.11-2.47-2.47,1.11-2.47,2.47-2.47Zm89.03-7.42c1.37,0,2.47,1.11,2.47,2.47s-1.11,2.47-2.47,2.47-2.47-1.11-2.47-2.47,1.11-2.47,2.47-2.47Zm-42.04-20.97c-6.07,4.01-16.84,6.13-27.2,6.13s-20.8-2.05-26.92-5.95l-.28-.18v13.55c0,2.52,9.6,7.42,27.2,7.42s27.01-4.8,27.2-7.34v-.08s0-13.55,0-13.55ZM12.37,59.35c1.37,0,2.47,1.11,2.47,2.47s-1.11,2.47-2.47,2.47-2.47-1.11-2.47-2.47,1.11-2.47,2.47-2.47Zm19.78-24.73c-16.61,0-27.2,5.13-27.2,8.66s10.6,8.66,27.2,8.66,27.2-5.13,27.2-8.66-10.6-8.66-27.2-8.66ZM111.29,4.95h-14.84c-1.32,0-2.4,1.04-2.47,2.34v.13s0,29.68,0,29.68c0,1.32,1.04,2.4,2.34,2.47h.13s44.51,0,44.51,0c1.32,0,2.4-1.04,2.47-2.34v-.13s0-19.78,0-19.78c0-1.32-1.04-2.4-2.34-2.47h-.13s-19.78,0-19.78,0c-4.1,0-7.42-3.32-7.42-7.42,0-1.37-1.11-2.47-2.47-2.47Zm-9.89,24.73c1.37,0,2.47,1.11,2.47,2.47s-1.11,2.47-2.47,2.47-2.47-1.11-2.47-2.47,1.11-2.47,2.47-2.47Zm0-9.89c1.37,0,2.47,1.11,2.47,2.47s-1.11,2.47-2.47,2.47-2.47-1.11-2.47-2.47,1.11-2.47,2.47-2.47Z"/>
    </g>
  </g>
</svg>