<?xml version="1.0" encoding="UTF-8"?>
<svg id="Layer_2" data-name="Layer 2" xmlns="http://www.w3.org/2000/svg" xmlns:xlink="http://www.w3.org/1999/xlink" viewBox="0 0 142.12 148.38">
  <defs>
    <style>
      .cls-1 {
        fill: url(#linear-gradient);
      }

      .cls-2 {
        fill: #1c1d1d;
      }
    </style>
    <linearGradient id="linear-gradient" x1="-327.68" y1="90.45" x2="-327.68" y2="89.78" gradientTransform="translate(70061.57 20169.39) scale(213.6 -223)" gradientUnits="userSpaceOnUse">
      <stop offset="0" stop-color="#ef4044"/>
      <stop offset="1" stop-color="#1c1d1d"/>
    </linearGradient>
  </defs>
  <g id="Layer_1-2" data-name="Layer 1">
    <g id="Combined-Shape">
      <path id="path-y79m0wrag_-13" data-name="path-y79m0wrag -13" class="cls-2" d="M84.1,0c1.32,0,2.4,1.04,2.47,2.34v.13s0,4.95,0,4.95h16.74l1.04-1.44c.68-.95,1.93-1.29,2.99-.83l.12,.06,7.17,3.59c14.66,7.27,23.92,22.25,23.86,38.61,.01,4.42-1.5,8.71-4.29,12.15l-.22,.26,7.69,17.31c.68,1.53,.54,3.3-.37,4.7-.88,1.35-2.36,2.19-3.96,2.25h-.19s-3.61,0-3.61,0v7.42c0,.61-.23,1.19-.62,1.64l-.1,.11-4.22,4.22v13.81c0,1.32-1.04,2.4-2.34,2.47h-.13s-14.84,0-14.84,0c-.78,0-2.35-.59-4.7-1.75l-.4-.2c-2.75-1.38-6.49-3.5-11.18-6.32l-.44-.27-5.54,9.22v13.13l16.59,16.59c.71,.71,.92,1.77,.53,2.7-.36,.88-1.2,1.47-2.15,1.52h-.14s-79.14,0-79.14,0c-1,0-1.9-.6-2.28-1.53-.36-.88-.19-1.89,.44-2.59l.1-.1,21.53-21.53v-36.08c0-1.32,1.04-2.4,2.34-2.47h.13s7.42,0,7.42,0v-12.37h-1.29c-1.17,0-2.17-.81-2.42-1.94l-.02-.13-1.67-10.03c-.41-.22-.82-.45-1.23-.7l-.4-.26-7.91,2.97,.11,12.53c0,.66-.25,1.29-.72,1.76-.43,.43-1,.69-1.6,.73h-.15s-14.84,0-14.84,0c-.14-.01-.29-.04-.43-.09-1.17,3.44-4.65,5.53-8.23,4.93-3.58-.59-6.21-3.69-6.21-7.32s2.63-6.73,6.21-7.32c3.58-.59,7.07,1.5,8.23,4.93,.09-.03,.19-.05,.28-.07l.14-.02h12.34l-.1-11.13-4.62-7.98c-.58-1.01-.38-2.28,.47-3.05l.1-.09,3.39-2.8-19.45,.3c-1.03,2.98-3.83,4.98-6.97,4.98-1.18,0-2.34-.28-3.39-.82-2.97-1.51-4.56-4.82-3.9-8.08,.66-3.26,3.41-5.69,6.74-5.93,3.26-.24,6.27,1.68,7.45,4.71l.07,.19,23.89-.37c0-.12,.01-.25,.01-.37v-.18s-7.84-6.46-7.84-6.46c-.68-.57-1-1.46-.84-2.33l.03-.14H14.86c-1.32,0-2.4-1.04-2.47-2.34v-.13s0-10.35,0-10.35c-3.41-1.2-5.45-4.69-4.84-8.25,.61-3.56,3.7-6.16,7.31-6.16s6.7,2.6,7.31,6.16c.6,3.5-1.36,6.92-4.65,8.18l-.18,.07v7.87h14.84s.08,.02,.12,.03h.06s2.49-4.31,2.49-4.31c.58-1.01,1.78-1.47,2.88-1.12l.13,.04,9.52,3.57c.4-.26,.81-.51,1.22-.73l.41-.22,1.67-10.02c.19-1.15,1.16-2.01,2.31-2.06h.13s3.77,0,3.77,0V2.47C56.9,1.15,57.94,.07,59.24,0h.13s24.73,0,24.73,0Zm0,121.18h-4.95v22.26h18.76l-13.09-13.09c-.43-.43-.68-1-.72-1.6v-.15s0-7.42,0-7.42Zm-9.89,0h-4.95v4.95c0,.55-.18,1.08-.52,1.51l-.09,.12-9.28,10.61v.13h-.11l-4.34,4.95h19.29v-22.26Zm-9.89-32.15h-14.84v34.62c0,.61-.22,1.19-.62,1.64l-.1,.11-18.04,18.04h17.64l6.07-6.92v-17.81h4.95v12.14l4.95-5.65v-36.17Zm9.89,0h-4.95v27.2h14.84v-1.45l-9.17-9.17c-.43-.43-.68-1-.72-1.6v-.15s0-14.84,0-14.84Zm-14.84,19.78v4.95h-4.95v-4.95h4.95Zm27.2-19.78h-7.42v13.82l6.92,6.93,4.28-7.13c-.87-.54-1.7-1.05-2.63-1.62-.68-.43-1.11-1.15-1.16-1.95v-.15s0-9.89,0-9.89ZM107.14,10.57l-10.68,14.95v28.06l6.92,9.23c.29,.39,.46,.85,.49,1.32v.16s0,9.89,0,9.89c0,.97-.56,1.84-1.43,2.25l-.12,.05-10.81,4.32v16.74c.77,.48,1.54,.95,2.32,1.43l1.16,.71h.03c4.97,3.24,10.15,6.14,15.5,8.67l1.01,.47h12.13v-12.38c0-.61,.22-1.19,.62-1.64l.1-.11,.95-.95c-4.11-.59-7.92-2.5-10.85-5.44-.94-.97-.92-2.51,.03-3.47,.95-.95,2.5-.97,3.47-.03,2.63,2.64,6.17,4.15,9.89,4.22h.3s.43,0,.43,0v-7.42c0-1.32,1.04-2.4,2.34-2.47h.13s6.09,0,6.09,0l-8.35-18.78c-.42-.93-.21-2.03,.51-2.75,2.71-2.7,4.23-6.37,4.22-10.19,.05-14.35-7.98-27.49-20.74-33.99l-.39-.2-5.29-2.65ZM59.37,98.92v4.95h-4.95v-4.95h4.95Zm9.39-40.25c-.4,.26-.81,.51-1.22,.73l-.41,.22-1.67,10.03c-.19,1.15-1.16,2-2.31,2.06h-.13s-3.65,0-3.65,0v12.37h27.2v-4.95c0-.97,.56-1.84,1.43-2.25l.12-.05,6.62-2.65h-5.71v-4.95h9.89v-4.12l-4.41-5.88c-.13,.04-.26,.07-.4,.09h-.14s-11.65,.01-11.65,.01l-1.05,1.81c-.58,1.01-1.78,1.47-2.88,1.12l-.13-.04-9.53-3.57Zm-53.9,13.04c-1.37,0-2.47,1.11-2.47,2.47s1.11,2.47,2.47,2.47,2.47-1.11,2.47-2.47-1.11-2.47-2.47-2.47Zm59.35-2.47v4.95h-4.95v-4.95h4.95Zm9.89,0v4.95h-4.95v-4.95h4.95ZM60.92,17.31h-5.7l-1.54,9.23c-.14,.83-.69,1.53-1.46,1.87-1.07,.46-2.08,1.05-3.01,1.76-.63,.47-1.45,.61-2.21,.38l-.14-.05-8.78-3.29-2.85,4.95,7.23,5.95c.65,.54,.98,1.37,.89,2.2-.15,1.15-.15,2.32,0,3.48,0,.06,0,.14,0,.17,0,.03,.02,.05,.02,.08,0,.04-.01,.07-.02,.11,0,.23-.04,.46-.1,.69l-.06,.17-.02,.03c-.11,.25-.26,.48-.44,.68-.04,.05-.09,.1-.14,.14l-.06,.07h0l-.06,.07-7.23,5.95,2.85,4.95,8.78-3.29c.79-.3,1.67-.17,2.35,.33,.93,.7,1.94,1.29,3.01,1.76,.73,.31,1.26,.95,1.43,1.72l.03,.15,1.53,9.23h5.71l1.54-9.23c.14-.83,.69-1.53,1.46-1.87,1.07-.47,2.08-1.06,3.01-1.76,.63-.47,1.45-.61,2.2-.38l.14,.05,8.78,3.29,2.85-4.95-7.23-5.95c-.65-.54-.98-1.37-.88-2.2,.15-1.15,.15-2.32,0-3.48-.09-.79,.2-1.57,.77-2.11l.11-.1,7.23-5.95-2.85-4.95-8.78,3.29c-.79,.29-1.67,.17-2.34-.33-.93-.7-1.94-1.29-3.01-1.76-.73-.31-1.26-.95-1.43-1.72l-.03-.15-1.54-9.23Zm62.75,32.15c1.32,0,2.4,1.04,2.47,2.34v.13s0,7.42,0,7.42c0,1.32-1.04,2.4-2.34,2.47h-.13s-7.42,0-7.42,0c-1.37,0-2.47-1.11-2.47-2.47s1.04-2.4,2.34-2.47h.13s4.95,0,4.95,0v-4.95c0-1.37,1.11-2.47,2.47-2.47Zm-17.31,0v4.95h-4.95v-4.95h4.95Zm-14.84-4.95h-11.84l6,4.95c.89,.74,1.15,1.99,.63,3.01l-.07,.12-1.04,1.81h6.32v-9.89Zm-33.45-12.37c5.46,0,9.89,4.43,9.89,9.89s-4.43,9.89-9.89,9.89-9.89-4.43-9.89-9.89,4.43-9.89,9.89-9.89Zm0,4.95c-2.73,0-4.95,2.21-4.95,4.95s2.21,4.95,4.95,4.95,4.95-2.21,4.95-4.95-2.21-4.95-4.95-4.95ZM6.69,42.15c-.63,.2-1.15,.65-1.44,1.24-.3,.58-.35,1.25-.15,1.86,.42,1.3,1.81,2.02,3.11,1.6,1.21-.48,1.85-1.82,1.45-3.06-.4-1.24-1.7-1.96-2.96-1.64Zm99.68-2.58v4.95h-4.95v-4.95h4.95Zm-14.84-9.89h-6.32l1.04,1.81c.58,1,.38,2.27-.46,3.04l-.1,.09-6,4.95h11.84v-9.89Zm14.84-4.95v9.89h-4.95v-9.89h4.95ZM81.63,4.95h-19.78v7.42h1.17c1.16,0,2.16,.81,2.41,1.94l.02,.13,1.68,10.03c.41,.21,.82,.45,1.23,.7l.4,.26,9.52-3.57c1.09-.41,2.31,0,2.94,.96l.07,.11,1.05,1.81h9.18c0-.46,.13-.92,.38-1.31l.09-.13,7.8-10.93h-15.69c-1.32,0-2.4-1.04-2.47-2.34v-.13s0-4.95,0-4.95ZM14.86,9.89c-1.37,0-2.47,1.11-2.47,2.47s1.11,2.47,2.47,2.47,2.47-1.11,2.47-2.47-1.11-2.47-2.47-2.47Z"/>
      <path id="path-y79m0wrag_-13-2" data-name="path-y79m0wrag -13" class="cls-1" d="M84.1,0c1.32,0,2.4,1.04,2.47,2.34v.13s0,4.95,0,4.95h16.74l1.04-1.44c.68-.95,1.93-1.29,2.99-.83l.12,.06,7.17,3.59c14.66,7.27,23.92,22.25,23.86,38.61,.01,4.42-1.5,8.71-4.29,12.15l-.22,.26,7.69,17.31c.68,1.53,.54,3.3-.37,4.7-.88,1.35-2.36,2.19-3.96,2.25h-.19s-3.61,0-3.61,0v7.42c0,.61-.23,1.19-.62,1.64l-.1,.11-4.22,4.22v13.81c0,1.32-1.04,2.4-2.34,2.47h-.13s-14.84,0-14.84,0c-.78,0-2.35-.59-4.7-1.75l-.4-.2c-2.75-1.38-6.49-3.5-11.18-6.32l-.44-.27-5.54,9.22v13.13l16.59,16.59c.71,.71,.92,1.77,.53,2.7-.36,.88-1.2,1.47-2.15,1.52h-.14s-79.14,0-79.14,0c-1,0-1.9-.6-2.28-1.53-.36-.88-.19-1.89,.44-2.59l.1-.1,21.53-21.53v-36.08c0-1.32,1.04-2.4,2.34-2.47h.13s7.42,0,7.42,0v-12.37h-1.29c-1.17,0-2.17-.81-2.42-1.94l-.02-.13-1.67-10.03c-.41-.22-.82-.45-1.23-.7l-.4-.26-7.91,2.97,.11,12.53c0,.66-.25,1.29-.72,1.76-.43,.43-1,.69-1.6,.73h-.15s-14.84,0-14.84,0c-.14-.01-.29-.04-.43-.09-1.17,3.44-4.65,5.53-8.23,4.93-3.58-.59-6.21-3.69-6.21-7.32s2.63-6.73,6.21-7.32c3.58-.59,7.07,1.5,8.23,4.93,.09-.03,.19-.05,.28-.07l.14-.02h12.34l-.1-11.13-4.62-7.98c-.58-1.01-.38-2.28,.47-3.05l.1-.09,3.39-2.8-19.45,.3c-1.03,2.98-3.83,4.98-6.97,4.98-1.18,0-2.34-.28-3.39-.82-2.97-1.51-4.56-4.82-3.9-8.08,.66-3.26,3.41-5.69,6.74-5.93,3.26-.24,6.27,1.68,7.45,4.71l.07,.19,23.89-.37c0-.12,.01-.25,.01-.37v-.18s-7.84-6.46-7.84-6.46c-.68-.57-1-1.46-.84-2.33l.03-.14H14.86c-1.32,0-2.4-1.04-2.47-2.34v-.13s0-10.35,0-10.35c-3.41-1.2-5.45-4.69-4.84-8.25,.61-3.56,3.7-6.16,7.31-6.16s6.7,2.6,7.31,6.16c.6,3.5-1.36,6.92-4.65,8.18l-.18,.07v7.87h14.84s.08,.02,.12,.03h.06s2.49-4.31,2.49-4.31c.58-1.01,1.78-1.47,2.88-1.12l.13,.04,9.52,3.57c.4-.26,.81-.51,1.22-.73l.41-.22,1.67-10.02c.19-1.15,1.16-2.01,2.31-2.06h.13s3.77,0,3.77,0V2.47C56.9,1.15,57.94,.07,59.24,0h.13s24.73,0,24.73,0Zm0,121.18h-4.95v22.26h18.76l-13.09-13.09c-.43-.43-.68-1-.72-1.6v-.15s0-7.42,0-7.42Zm-9.89,0h-4.95v4.95c0,.55-.18,1.08-.52,1.51l-.09,.12-9.28,10.61v.13h-.11l-4.34,4.95h19.29v-22.26Zm-9.89-32.15h-14.84v34.62c0,.61-.22,1.19-.62,1.64l-.1,.11-18.04,18.04h17.64l6.07-6.92v-17.81h4.95v12.14l4.95-5.65v-36.17Zm9.89,0h-4.95v27.2h14.84v-1.45l-9.17-9.17c-.43-.43-.68-1-.72-1.6v-.15s0-14.84,0-14.84Zm-14.84,19.78v4.95h-4.95v-4.95h4.95Zm27.2-19.78h-7.42v13.82l6.92,6.93,4.28-7.13c-.87-.54-1.7-1.05-2.63-1.62-.68-.43-1.11-1.15-1.16-1.95v-.15s0-9.89,0-9.89ZM107.14,10.57l-10.68,14.95v28.06l6.92,9.23c.29,.39,.46,.85,.49,1.32v.16s0,9.89,0,9.89c0,.97-.56,1.84-1.43,2.25l-.12,.05-10.81,4.32v16.74c.77,.48,1.54,.95,2.32,1.43l1.16,.71h.03c4.97,3.24,10.15,6.14,15.5,8.67l1.01,.47h12.13v-12.38c0-.61,.22-1.19,.62-1.64l.1-.11,.95-.95c-4.11-.59-7.92-2.5-10.85-5.44-.94-.97-.92-2.51,.03-3.47,.95-.95,2.5-.97,3.47-.03,2.63,2.64,6.17,4.15,9.89,4.22h.3s.43,0,.43,0v-7.42c0-1.32,1.04-2.4,2.34-2.47h.13s6.09,0,6.09,0l-8.35-18.78c-.42-.93-.21-2.03,.51-2.75,2.71-2.7,4.23-6.37,4.22-10.19,.05-14.35-7.98-27.49-20.74-33.99l-.39-.2-5.29-2.65ZM59.37,98.92v4.95h-4.95v-4.95h4.95Zm9.39-40.25c-.4,.26-.81,.51-1.22,.73l-.41,.22-1.67,10.03c-.19,1.15-1.16,2-2.31,2.06h-.13s-3.65,0-3.65,0v12.37h27.2v-4.95c0-.97,.56-1.84,1.43-2.25l.12-.05,6.62-2.65h-5.71v-4.95h9.89v-4.12l-4.41-5.88c-.13,.04-.26,.07-.4,.09h-.14s-11.65,.01-11.65,.01l-1.05,1.81c-.58,1.01-1.78,1.47-2.88,1.12l-.13-.04-9.53-3.57Zm-53.9,13.04c-1.37,0-2.47,1.11-2.47,2.47s1.11,2.47,2.47,2.47,2.47-1.11,2.47-2.47-1.11-2.47-2.47-2.47Zm59.35-2.47v4.95h-4.95v-4.95h4.95Zm9.89,0v4.95h-4.95v-4.95h4.95ZM60.92,17.31h-5.7l-1.54,9.23c-.14,.83-.69,1.53-1.46,1.87-1.07,.46-2.08,1.05-3.01,1.76-.63,.47-1.45,.61-2.21,.38l-.14-.05-8.78-3.29-2.85,4.95,7.23,5.95c.65,.54,.98,1.37,.89,2.2-.15,1.15-.15,2.32,0,3.48,0,.06,0,.14,0,.17,0,.03,.02,.05,.02,.08,0,.04-.01,.07-.02,.11,0,.23-.04,.46-.1,.69l-.06,.17-.02,.03c-.11,.25-.26,.48-.44,.68-.04,.05-.09,.1-.14,.14l-.06,.07h0l-.06,.07-7.23,5.95,2.85,4.95,8.78-3.29c.79-.3,1.67-.17,2.35,.33,.93,.7,1.94,1.29,3.01,1.76,.73,.31,1.26,.95,1.43,1.72l.03,.15,1.53,9.23h5.71l1.54-9.23c.14-.83,.69-1.53,1.46-1.87,1.07-.47,2.08-1.06,3.01-1.76,.63-.47,1.45-.61,2.2-.38l.14,.05,8.78,3.29,2.85-4.95-7.23-5.95c-.65-.54-.98-1.37-.88-2.2,.15-1.15,.15-2.32,0-3.48-.09-.79,.2-1.57,.77-2.11l.11-.1,7.23-5.95-2.85-4.95-8.78,3.29c-.79,.29-1.67,.17-2.34-.33-.93-.7-1.94-1.29-3.01-1.76-.73-.31-1.26-.95-1.43-1.72l-.03-.15-1.54-9.23Zm62.75,32.15c1.32,0,2.4,1.04,2.47,2.34v.13s0,7.42,0,7.42c0,1.32-1.04,2.4-2.34,2.47h-.13s-7.42,0-7.42,0c-1.37,0-2.47-1.11-2.47-2.47s1.04-2.4,2.34-2.47h.13s4.95,0,4.95,0v-4.95c0-1.37,1.11-2.47,2.47-2.47Zm-17.31,0v4.95h-4.95v-4.95h4.95Zm-14.84-4.95h-11.84l6,4.95c.89,.74,1.15,1.99,.63,3.01l-.07,.12-1.04,1.81h6.32v-9.89Zm-33.45-12.37c5.46,0,9.89,4.43,9.89,9.89s-4.43,9.89-9.89,9.89-9.89-4.43-9.89-9.89,4.43-9.89,9.89-9.89Zm0,4.95c-2.73,0-4.95,2.21-4.95,4.95s2.21,4.95,4.95,4.95,4.95-2.21,4.95-4.95-2.21-4.95-4.95-4.95ZM6.69,42.15c-.63,.2-1.15,.65-1.44,1.24-.3,.58-.35,1.25-.15,1.86,.42,1.3,1.81,2.02,3.11,1.6,1.21-.48,1.85-1.82,1.45-3.06-.4-1.24-1.7-1.96-2.96-1.64Zm99.68-2.58v4.95h-4.95v-4.95h4.95Zm-14.84-9.89h-6.32l1.04,1.81c.58,1,.38,2.27-.46,3.04l-.1,.09-6,4.95h11.84v-9.89Zm14.84-4.95v9.89h-4.95v-9.89h4.95ZM81.63,4.95h-19.78v7.42h1.17c1.16,0,2.16,.81,2.41,1.94l.02,.13,1.68,10.03c.41,.21,.82,.45,1.23,.7l.4,.26,9.52-3.57c1.09-.41,2.31,0,2.94,.96l.07,.11,1.05,1.81h9.18c0-.46,.13-.92,.38-1.31l.09-.13,7.8-10.93h-15.69c-1.32,0-2.4-1.04-2.47-2.34v-.13s0-4.95,0-4.95ZM14.86,9.89c-1.37,0-2.47,1.11-2.47,2.47s1.11,2.47,2.47,2.47,2.47-1.11,2.47-2.47-1.11-2.47-2.47-2.47Z"/>
    </g>
  </g>
</svg>