<?xml version="1.0" encoding="UTF-8"?>
<svg id="Layer_2" data-name="Layer 2" xmlns="http://www.w3.org/2000/svg" xmlns:xlink="http://www.w3.org/1999/xlink" viewBox="0 0 133.74 149.05">
  <defs>
    <style>
      .cls-1 {
        fill: url(#linear-gradient);
      }

      .cls-1, .cls-2 {
        fill-rule: evenodd;
      }

      .cls-2 {
        fill: #1c1d1d;
      }
    </style>
    <linearGradient id="linear-gradient" x1="-734.37" y1="280.33" x2="-734.37" y2="279.66" gradientTransform="translate(147676.05 62793.23) scale(201 -224)" gradientUnits="userSpaceOnUse">
      <stop offset="0" stop-color="#ef4044"/>
      <stop offset="1" stop-color="#1c1d1d"/>
    </linearGradient>
  </defs>
  <g id="Layer_1-2" data-name="Layer 1">
    <g id="Combined-Shape">
      <path id="path-y79m0wrag_-8" data-name="path-y79m0wrag -8" class="cls-2" d="M87.52,127.75v9.03h22.21c.84-4.94,5.12-8.71,10.27-8.71,5.75,0,10.42,4.7,10.42,10.49s-4.68,10.49-10.42,10.49c-4.86,0-8.95-3.36-10.1-7.89h-26.72v-13.4h4.35ZM13.33,92.49v4.34h-.87v30.96c4.66,1,8.16,5.19,8.16,10.18,0,5.74-4.63,10.41-10.31,10.41s-10.31-4.67-10.31-10.41c0-5,3.51-9.18,8.16-10.18h0v-35.3h5.17Zm106.66,39.96c-3.35,0-6.07,2.74-6.07,6.11s2.72,6.11,6.07,6.11,6.07-2.74,6.07-6.11-2.72-6.11-6.07-6.11Zm-109.68-.55c-3.31,0-6.01,2.72-6.01,6.07s2.7,6.07,6.01,6.07,6.01-2.72,6.01-6.07-2.7-6.07-6.01-6.07ZM76.25,15.97l1.57,9.51c1.75,.42,3.48,.93,5.15,1.52h0l-1.46,4.1c-2.33-.83-4.06-1.26-5.77-1.63l-.57-.12c-.38-.08-.77-.16-1.16-.24h0l-1.45-8.79h-12.69l-1.45,8.79c-8.6,1.77-12.81,3.91-18.55,7.69h0l-7.25-5.19-8.97,8.97,5.19,7.25c-4.82,7.33-6.3,11.8-7.69,18.55h0l-8.79,1.45v12.69l8.79,1.45c1.76,8.57,3.9,12.79,7.69,18.55h0l-5.19,7.25,8.97,8.97,7.25-5.19c7.37,4.85,11.86,6.31,18.55,7.69h0l1.45,8.79h12.69l1.45-8.79c8.56-1.76,12.77-3.89,18.55-7.69h0l7.25,5.19,8.97-8.97-5.19-7.25c4.83-7.34,6.31-11.82,7.69-18.55h0l8.79-1.45v-12.69l-8.79-1.45c-1.76-8.56-3.89-12.77-7.69-18.55h0l5.19-7.25-8.97-8.97-7.25,5.19c-1.9-1.25-3.8-2.53-6.89-3.99h0l1.86-3.94c1.68,.79,3.33,1.69,4.91,2.66h0l7.84-5.61,14.2,14.2-5.61,7.84c2.8,4.54,4.83,9.44,6.06,14.62h0l9.51,1.57v20.08l-9.51,1.57c-1.23,5.17-3.26,10.08-6.06,14.62h0l5.61,7.84-14.2,14.2-7.84-5.61c-4.54,2.8-9.44,4.83-14.62,6.06h0l-1.57,9.51h-20.08l-1.57-9.51c-5.17-1.23-10.08-3.26-14.62-6.06h0l-7.84,5.61-14.2-14.2,5.61-7.84c-2.8-4.54-4.83-9.44-6.06-14.62h0l-9.51-1.57v-20.08l9.51-1.57c1.23-5.17,3.26-10.08,6.06-14.62h0l-5.61-7.84,14.2-14.2,7.84,5.61c4.54-2.8,9.44-4.83,14.62-6.06h0l1.57-9.51h20.08Zm-10.04,25.28c18.16,0,32.94,14.77,32.94,32.94s-14.77,32.94-32.94,32.94c-7.88,0-15.5-2.82-21.46-7.95h0l2.84-3.3c5.18,4.45,11.79,6.9,18.63,6.9,15.76,0,28.58-12.82,28.58-28.58s-12.82-28.58-28.58-28.58-28.58,12.82-28.58,28.58c0,6.94,2.52,13.63,7.08,18.83h0l-3.27,2.87c-5.26-6-8.16-13.71-8.16-21.7,0-18.16,14.77-32.94,32.94-32.94Zm-5.66,21.96v22.62h-4.36v-8.07h-6.57v8.07h-4.36v-22.62h15.3Zm18.63,0v14.4h-10.94v8.22h-4.36v-22.62h15.3Zm7.98,0v22.62h-4.66v-22.62h4.66Zm16.1-7.85c2.98,5.93,4.53,12.46,4.53,19.17h-4.28c0-5.96-1.36-11.8-4.05-17.16l3.81-2.01Zm-47.08,12.18h-6.57v5.91h6.57v-5.91Zm18.63,0h-6.57v5.75h6.57v-5.75ZM123.43,0c5.69,0,10.31,4.71,10.31,10.5,0,5.04-3.51,9.26-8.16,10.26h0V57.22h-6.63v-4.38h2.33V20.76c-4.66-1.01-8.16-5.23-8.16-10.26,0-5.79,4.63-10.5,10.31-10.5Zm-25.15,47.66c.96,1.18,1.87,2.43,2.7,3.71l-3.57,2.43c-.74-1.15-1.56-2.26-2.42-3.32l3.29-2.81Zm-6.5-6.4c1.19,.94,2.34,1.95,3.42,3.02l-2.97,3.16c-.97-.96-2-1.87-3.07-2.71l2.61-3.48ZM10.42,0C15.48,0,19.71,3.69,20.65,8.56h26.6v13.4h-4.35V12.97H20.57c-1.07,4.69-5.21,8.2-10.15,8.2C4.67,21.17,0,16.42,0,10.59S4.67,0,10.42,0Zm0,4.41c-3.35,0-6.07,2.77-6.07,6.17s2.72,6.17,6.07,6.17,6.07-2.77,6.07-6.17-2.72-6.17-6.07-6.17Zm113.01-.04c-3.31,0-6.01,2.74-6.01,6.12s2.7,6.12,6.01,6.12,6.01-2.75,6.01-6.12-2.7-6.12-6.01-6.12Z"/>
      <path id="path-y79m0wrag_-8-2" data-name="path-y79m0wrag -8" class="cls-1" d="M87.52,127.75v9.03h22.21c.84-4.94,5.12-8.71,10.27-8.71,5.75,0,10.42,4.7,10.42,10.49s-4.68,10.49-10.42,10.49c-4.86,0-8.95-3.36-10.1-7.89h-26.72v-13.4h4.35ZM13.33,92.49v4.34h-.87v30.96c4.66,1,8.16,5.19,8.16,10.18,0,5.74-4.63,10.41-10.31,10.41s-10.31-4.67-10.31-10.41c0-5,3.51-9.18,8.16-10.18h0v-35.3h5.17Zm106.66,39.96c-3.35,0-6.07,2.74-6.07,6.11s2.72,6.11,6.07,6.11,6.07-2.74,6.07-6.11-2.72-6.11-6.07-6.11Zm-109.68-.55c-3.31,0-6.01,2.72-6.01,6.07s2.7,6.07,6.01,6.07,6.01-2.72,6.01-6.07-2.7-6.07-6.01-6.07ZM76.25,15.97l1.57,9.51c1.75,.42,3.48,.93,5.15,1.52h0l-1.46,4.1c-2.33-.83-4.06-1.26-5.77-1.63l-.57-.12c-.38-.08-.77-.16-1.16-.24h0l-1.45-8.79h-12.69l-1.45,8.79c-8.6,1.77-12.81,3.91-18.55,7.69h0l-7.25-5.19-8.97,8.97,5.19,7.25c-4.82,7.33-6.3,11.8-7.69,18.55h0l-8.79,1.45v12.69l8.79,1.45c1.76,8.57,3.9,12.79,7.69,18.55h0l-5.19,7.25,8.97,8.97,7.25-5.19c7.37,4.85,11.86,6.31,18.55,7.69h0l1.45,8.79h12.69l1.45-8.79c8.56-1.76,12.77-3.89,18.55-7.69h0l7.25,5.19,8.97-8.97-5.19-7.25c4.83-7.34,6.31-11.82,7.69-18.55h0l8.79-1.45v-12.69l-8.79-1.45c-1.76-8.56-3.89-12.77-7.69-18.55h0l5.19-7.25-8.97-8.97-7.25,5.19c-1.9-1.25-3.8-2.53-6.89-3.99h0l1.86-3.94c1.68,.79,3.33,1.69,4.91,2.66h0l7.84-5.61,14.2,14.2-5.61,7.84c2.8,4.54,4.83,9.44,6.06,14.62h0l9.51,1.57v20.08l-9.51,1.57c-1.23,5.17-3.26,10.08-6.06,14.62h0l5.61,7.84-14.2,14.2-7.84-5.61c-4.54,2.8-9.44,4.83-14.62,6.06h0l-1.57,9.51h-20.08l-1.57-9.51c-5.17-1.23-10.08-3.26-14.62-6.06h0l-7.84,5.61-14.2-14.2,5.61-7.84c-2.8-4.54-4.83-9.44-6.06-14.62h0l-9.51-1.57v-20.08l9.51-1.57c1.23-5.17,3.26-10.08,6.06-14.62h0l-5.61-7.84,14.2-14.2,7.84,5.61c4.54-2.8,9.44-4.83,14.62-6.06h0l1.57-9.51h20.08Zm-10.04,25.28c18.16,0,32.94,14.77,32.94,32.94s-14.77,32.94-32.94,32.94c-7.88,0-15.5-2.82-21.46-7.95h0l2.84-3.3c5.18,4.45,11.79,6.9,18.63,6.9,15.76,0,28.58-12.82,28.58-28.58s-12.82-28.58-28.58-28.58-28.58,12.82-28.58,28.58c0,6.94,2.52,13.63,7.08,18.83h0l-3.27,2.87c-5.26-6-8.16-13.71-8.16-21.7,0-18.16,14.77-32.94,32.94-32.94Zm-5.66,21.96v22.62h-4.36v-8.07h-6.57v8.07h-4.36v-22.62h15.3Zm18.63,0v14.4h-10.94v8.22h-4.36v-22.62h15.3Zm7.98,0v22.62h-4.66v-22.62h4.66Zm16.1-7.85c2.98,5.93,4.53,12.46,4.53,19.17h-4.28c0-5.96-1.36-11.8-4.05-17.16l3.81-2.01Zm-47.08,12.18h-6.57v5.91h6.57v-5.91Zm18.63,0h-6.57v5.75h6.57v-5.75ZM123.43,0c5.69,0,10.31,4.71,10.31,10.5,0,5.04-3.51,9.26-8.16,10.26h0V57.22h-6.63v-4.38h2.33V20.76c-4.66-1.01-8.16-5.23-8.16-10.26,0-5.79,4.63-10.5,10.31-10.5Zm-25.15,47.66c.96,1.18,1.87,2.43,2.7,3.71l-3.57,2.43c-.74-1.15-1.56-2.26-2.42-3.32l3.29-2.81Zm-6.5-6.4c1.19,.94,2.34,1.95,3.42,3.02l-2.97,3.16c-.97-.96-2-1.87-3.07-2.71l2.61-3.48ZM10.42,0C15.48,0,19.71,3.69,20.65,8.56h26.6v13.4h-4.35V12.97H20.57c-1.07,4.69-5.21,8.2-10.15,8.2C4.67,21.17,0,16.42,0,10.59S4.67,0,10.42,0Zm0,4.41c-3.35,0-6.07,2.77-6.07,6.17s2.72,6.17,6.07,6.17,6.07-2.77,6.07-6.17-2.72-6.17-6.07-6.17Zm113.01-.04c-3.31,0-6.01,2.74-6.01,6.12s2.7,6.12,6.01,6.12,6.01-2.75,6.01-6.12-2.7-6.12-6.01-6.12Z"/>
    </g>
  </g>
</svg>