<?xml version="1.0" encoding="UTF-8"?>
<svg id="Layer_2" data-name="Layer 2" xmlns="http://www.w3.org/2000/svg" xmlns:xlink="http://www.w3.org/1999/xlink" viewBox="0 0 174.18 148.38">
  <defs>
    <style>
      .cls-1 {
        fill: url(#linear-gradient);
      }

      .cls-2 {
        fill: #1c1d1d;
      }
    </style>
    <linearGradient id="linear-gradient" x1="-512.64" y1="-148.56" x2="-512.64" y2="-149.22" gradientTransform="translate(134282.58 -33127.81) scale(261.77 -223)" gradientUnits="userSpaceOnUse">
      <stop offset="0" stop-color="#ef4044"/>
      <stop offset="1" stop-color="#1c1d1d"/>
    </linearGradient>
  </defs>
  <g id="Layer_1-2" data-name="Layer 1">
    <g id="Combined-Shape">
      <path id="path-y79m0wrag_-15" data-name="path-y79m0wrag -15" class="cls-2" d="M26.77,0h2.97s.53,0,.53,0h2.81c.26,0,.53,0,.8,0h2.95c.29,0,.59,0,.89,0h3.27s.49,0,.49,0h4.11s.54,0,.54,0h4.53s.59,0,.59,0h4.96c.43,0,.86,0,1.3,0h9.09s.75,0,.75,0h33.64s.95,0,.95,0h6.86c.33,0,.67,0,1.01,0h5.15c.35,0,.7,0,1.05,0h4.27c.36,0,.72,0,1.09,0h4.42c.75,0,1.5,0,2.25,0,6.84,0,12.42,5.5,12.54,12.31v.22s0,29.76,0,29.76h7.93c1.41,0,2.55,1.14,2.55,2.55s-1.07,2.48-2.42,2.55h-.13s-99.11,0-99.11,0c-.8,0-1.47,.64-1.53,1.43v.1s0,27.57,0,27.57c0,.8,.64,1.47,1.43,1.53h.1s118.14,0,118.14,0c.8,0,1.47-.64,1.53-1.43v-.1s0-27.57,0-27.57c0-.8-.64-1.47-1.43-1.53h-.1s-7.12,0-7.12,0c-1.41,0-2.55-1.14-2.55-2.55s1.07-2.48,2.42-2.55h.13s7.12,0,7.12,0c3.6,0,6.54,2.88,6.63,6.45v.19s0,27.57,0,27.57c0,3.6-2.88,6.54-6.45,6.63h-.19s-26.96,0-26.96,0v9.19h26.96c3.6,0,6.54,2.88,6.63,6.45v.19s0,27.57,0,27.57c0,3.6-2.88,6.54-6.45,6.63h-.19s-26.96,0-26.96,0v2.67c0,6.84-5.5,12.42-12.31,12.54h-.22s-87.4,0-87.4,0c-1.41,0-2.55-1.14-2.55-2.55s1.07-2.48,2.42-2.55h.13s87.4,0,87.4,0c4.03,0,7.33-3.23,7.43-7.24v-.19s0-2.67,0-2.67H49.4c-3.6,0-6.54-2.88-6.63-6.45v-.19s0-27.57,0-27.57c0-3.6,2.88-6.54,6.45-6.63h.19s86.08,0,86.08,0v-9.19H49.4c-3.6,0-6.54-2.88-6.63-6.45v-.19s0-27.57,0-27.57c0-3.6,2.88-6.54,6.45-6.63h.19s86.08,0,86.08,0v-10.2H5.14v12.08c0,1.41-1.14,2.55-2.55,2.55S.1,45.66,.03,44.31v-.13s0-1.9,0-1.9v-.53h0v-1.03C.03,31.03,0,24.56,0,20.15v-2.25c0-5.58,.07-6.9,.31-8.01l.03-.13,.02-.07H.36l.03-.13c.02-.09,.05-.18,.07-.28C1.82,4.25,6.23,.45,11.62,.04c.03,0,.05,0,.07,0h.02s.01,0,.02,0h.02s0,0,0,0h.02c.13-.01,.44-.02,2.56-.02h.36c.06,0,.13,0,.19,0h.41c.07,0,.14,0,.22,0h.77c.14,0,.28,0,.43,0h9.13c.3,0,.6,0,.91,0ZM2.58,53.54c1.37,0,2.48,1.07,2.55,2.42v.13s0,79.75,0,79.75c0,4.03,3.23,7.33,7.24,7.43h.19s16.16,0,16.16,0c1.41,0,2.55,1.14,2.55,2.55,0,1.37-1.07,2.48-2.42,2.55h-.13s-16.16,0-16.16,0c-6.84,0-12.42-5.5-12.54-12.31v-.22s0-79.75,0-79.75c0-1.41,1.14-2.55,2.55-2.55Zm164.96,43.9H49.4c-.8,0-1.47,.64-1.53,1.43v.1s0,27.57,0,27.57c0,.8,.64,1.47,1.43,1.53h.1s118.14,0,118.14,0c.8,0,1.47-.64,1.53-1.43v-.1s0-27.57,0-27.57c0-.83-.7-1.53-1.53-1.53ZM22.47,121.1c1.41,0,2.55,1.14,2.55,2.55,0,1.41-1.14,2.55-2.55,2.55h-5.09c-1.41,0-2.55-1.14-2.55-2.55s1.14-2.55,2.55-2.55h5.09Zm56.57-18.94c.48-1.32,1.95-2.01,3.27-1.53,1.32,.48,2.01,1.95,1.53,3.27h0l-7.08,19.44c-.38,1.04-1.36,1.68-2.4,1.68-.29,0-.58-.05-.87-.15-1.32-.48-2.01-1.95-1.53-3.27h0l7.08-19.44Zm-13.19,1.93c1-1,2.61-1,3.61,0,1,1,1,2.61,0,3.61h0l-4.5,4.49,4.5,4.49c1,1,1,2.61,0,3.61-.5,.5-1.15,.75-1.81,.75s-1.31-.25-1.81-.75h0l-6.3-6.3c-1-1-1-2.61,0-3.61h0l6.3-6.3Zm21.05,0c1-1,2.61-1,3.61,0h0l6.3,6.3c1,1,1,2.61,0,3.61h0l-6.3,6.3c-.5,.5-1.15,.75-1.81,.75s-1.31-.25-1.81-.75c-1-1-1-2.61,0-3.61h0l4.5-4.49-4.5-4.49c-1-1-1-2.61,0-3.61Zm-64.43,4.76c1.41,0,2.55,1.14,2.55,2.55,0,1.41-1.14,2.55-2.55,2.55h-5.09c-1.41,0-2.55-1.14-2.55-2.55s1.14-2.55,2.55-2.55h5.09Zm0-12.25c1.41,0,2.55,1.14,2.55,2.55,0,1.41-1.14,2.55-2.55,2.55h-5.09c-1.41,0-2.55-1.14-2.55-2.55s1.14-2.55,2.55-2.55h5.09Zm0-12.25c1.41,0,2.55,1.14,2.55,2.55,0,1.41-1.14,2.55-2.55,2.55h-5.09c-1.41,0-2.55-1.14-2.55-2.55s1.14-2.55,2.55-2.55h5.09Zm0-12.25c1.41,0,2.55,1.14,2.55,2.55,0,1.41-1.14,2.55-2.55,2.55h-5.09c-1.41,0-2.55-1.14-2.55-2.55s1.14-2.55,2.55-2.55h5.09Zm134.8-5.74c.33-.07,.67-.07,1,0,.16,.03,.32,.08,.48,.14,.15,.06,.3,.14,.44,.23,.14,.1,.27,.2,.39,.32,.12,.12,.22,.25,.32,.39,.09,.14,.17,.29,.23,.44,.06,.16,.12,.32,.15,.48,.03,.16,.05,.33,.05,.5,0,.17-.02,.33-.05,.5-.03,.16-.08,.32-.15,.48-.06,.15-.14,.3-.23,.44-.09,.14-.2,.27-.32,.39-.12,.12-.25,.22-.39,.32-.14,.09-.29,.17-.44,.23-.16,.06-.32,.11-.48,.14-.16,.03-.33,.05-.5,.05s-.33-.02-.5-.05c-.16-.03-.32-.08-.48-.14-.15-.06-.3-.14-.44-.23-.14-.1-.27-.2-.39-.32-.12-.12-.22-.25-.32-.39-.09-.14-.17-.29-.23-.44-.06-.15-.11-.31-.15-.48-.03-.17-.05-.33-.05-.5s.02-.33,.05-.5c.03-.16,.08-.32,.15-.48,.06-.15,.14-.3,.23-.44,.1-.14,.2-.27,.32-.39,.12-.12,.25-.22,.39-.32,.14-.09,.29-.17,.44-.23,.15-.06,.31-.11,.48-.14Zm-53.75-.05c1.41,0,2.55,1.14,2.55,2.55,0,1.41-1.14,2.55-2.55,2.55h-9.7c-1.41,0-2.55-1.14-2.55-2.55s1.14-2.55,2.55-2.55h9.7Zm42.96,0c1.41,0,2.55,1.14,2.55,2.55s-1.14,2.55-2.55,2.55h-33.49c-1.41,0-2.55-1.14-2.55-2.55s1.14-2.55,2.55-2.55h33.49Zm-62.58,0c1.41,0,2.55,1.14,2.55,2.55s-1.14,2.55-2.55,2.55h-5.09c-1.41,0-2.55-1.14-2.55-2.55s1.14-2.55,2.55-2.55h5.09Zm-17.79,0c1.41,0,2.55,1.14,2.55,2.55s-1.14,2.55-2.55,2.55h-5.09c-1.41,0-2.55-1.14-2.55-2.55s1.14-2.55,2.55-2.55h5.09Zm-43.63-6.46c1.41,0,2.55,1.14,2.55,2.55s-1.07,2.48-2.42,2.55h-.13s-5.09,0-5.09,0c-1.41,0-2.55-1.14-2.55-2.55s1.07-2.48,2.42-2.55h.13s5.09,0,5.09,0Zm109.72-5.79c1.41,0,2.55,1.14,2.55,2.55s-1.14,2.55-2.55,2.55h-9.7c-1.41,0-2.55-1.14-2.55-2.55s1.14-2.55,2.55-2.55h9.7Zm25.57,0c1.41,0,2.55,1.14,2.55,2.55s-1.14,2.55-2.55,2.55h-15.79c-1.41,0-2.55-1.14-2.55-2.55s1.14-2.55,2.55-2.55h15.79Zm-46.25,0c1.41,0,2.55,1.14,2.55,2.55s-1.14,2.55-2.55,2.55h-32.25c-1.41,0-2.55-1.14-2.55-2.55s1.14-2.55,2.55-2.55h32.25Zm-45.41,0c1.41,0,2.55,1.14,2.55,2.55s-1.14,2.55-2.55,2.55h-5.09c-1.41,0-2.55-1.14-2.55-2.55s1.14-2.55,2.55-2.55h5.09Zm-43.63-6.46c1.41,0,2.55,1.14,2.55,2.55,0,1.41-1.14,2.55-2.55,2.55h-5.09c-1.41,0-2.55-1.14-2.55-2.55s1.14-2.55,2.55-2.55h5.09ZM128.04,5.11H12.57c-1.92,0-3.69,.74-5.01,1.95-2.11,1.94-2.49,3.49-2.5,8.62v.48c0,2.51,.08,5.84,.08,10.38v.46s130.34,0,130.34,0V12.54c0-4.1-3.33-7.43-7.43-7.43ZM17.38,13.5c.67,0,1.33,.27,1.81,.75,.12,.12,.22,.25,.32,.39,.09,.14,.17,.29,.23,.44,.06,.15,.11,.32,.14,.48,.03,.17,.05,.33,.05,.5,0,.67-.27,1.33-.75,1.8-.12,.12-.25,.22-.39,.32-.14,.09-.29,.17-.44,.23-.15,.06-.31,.12-.48,.15-.17,.03-.33,.05-.5,.05-.67,0-1.33-.27-1.8-.75-.48-.47-.75-1.13-.75-1.8,0-.17,.02-.33,.05-.5,.03-.16,.08-.32,.15-.48,.06-.15,.14-.3,.23-.44,.1-.14,.2-.27,.32-.39,.47-.48,1.13-.75,1.8-.75Zm8.65,0c.67,0,1.33,.27,1.81,.75,.47,.47,.75,1.13,.75,1.8s-.28,1.33-.75,1.8c-.48,.48-1.13,.75-1.81,.75s-1.33-.27-1.8-.75c-.48-.47-.75-1.13-.75-1.8s.27-1.33,.75-1.8c.48-.48,1.13-.75,1.8-.75Zm8.16,.05c.33-.06,.67-.06,1,0,.16,.03,.32,.09,.48,.15,.15,.06,.3,.14,.44,.23,.14,.1,.27,.2,.39,.32,.12,.12,.22,.25,.32,.39,.09,.14,.17,.29,.23,.44,.06,.15,.11,.32,.15,.48,.03,.17,.05,.33,.05,.5,0,.67-.27,1.33-.75,1.8-.12,.12-.25,.22-.39,.32s-.29,.17-.44,.23c-.16,.06-.32,.12-.48,.15-.16,.03-.33,.05-.5,.05s-.34-.02-.5-.05c-.16-.03-.32-.08-.48-.15-.16-.06-.3-.14-.44-.23-.14-.09-.27-.2-.39-.32-.47-.47-.75-1.13-.75-1.8,0-.17,.02-.33,.05-.5,.03-.16,.08-.32,.15-.48,.06-.15,.14-.3,.23-.44,.09-.14,.2-.27,.32-.39,.12-.12,.25-.22,.39-.32,.14-.09,.29-.17,.44-.23,.15-.06,.31-.11,.48-.15Zm72-.05c1.41,0,2.55,1.14,2.55,2.55s-1.14,2.55-2.55,2.55H45.31c-1.41,0-2.55-1.14-2.55-2.55s1.14-2.55,2.55-2.55h60.87Zm19.41,0c1.41,0,2.55,1.14,2.55,2.55s-1.14,2.55-2.55,2.55h-10.44c-1.41,0-2.55-1.14-2.55-2.55s1.14-2.55,2.55-2.55h10.44Z"/>
      <path id="path-y79m0wrag_-15-2" data-name="path-y79m0wrag -15" class="cls-1" d="M26.77,0h2.97s.53,0,.53,0h2.81c.26,0,.53,0,.8,0h2.95c.29,0,.59,0,.89,0h3.27s.49,0,.49,0h4.11s.54,0,.54,0h4.53s.59,0,.59,0h4.96c.43,0,.86,0,1.3,0h9.09s.75,0,.75,0h33.64s.95,0,.95,0h6.86c.33,0,.67,0,1.01,0h5.15c.35,0,.7,0,1.05,0h4.27c.36,0,.72,0,1.09,0h4.42c.75,0,1.5,0,2.25,0,6.84,0,12.42,5.5,12.54,12.31v.22s0,29.76,0,29.76h7.93c1.41,0,2.55,1.14,2.55,2.55s-1.07,2.48-2.42,2.55h-.13s-99.11,0-99.11,0c-.8,0-1.47,.64-1.53,1.43v.1s0,27.57,0,27.57c0,.8,.64,1.47,1.43,1.53h.1s118.14,0,118.14,0c.8,0,1.47-.64,1.53-1.43v-.1s0-27.57,0-27.57c0-.8-.64-1.47-1.43-1.53h-.1s-7.12,0-7.12,0c-1.41,0-2.55-1.14-2.55-2.55s1.07-2.48,2.42-2.55h.13s7.12,0,7.12,0c3.6,0,6.54,2.88,6.63,6.45v.19s0,27.57,0,27.57c0,3.6-2.88,6.54-6.45,6.63h-.19s-26.96,0-26.96,0v9.19h26.96c3.6,0,6.54,2.88,6.63,6.45v.19s0,27.57,0,27.57c0,3.6-2.88,6.54-6.45,6.63h-.19s-26.96,0-26.96,0v2.67c0,6.84-5.5,12.42-12.31,12.54h-.22s-87.4,0-87.4,0c-1.41,0-2.55-1.14-2.55-2.55s1.07-2.48,2.42-2.55h.13s87.4,0,87.4,0c4.03,0,7.33-3.23,7.43-7.24v-.19s0-2.67,0-2.67H49.4c-3.6,0-6.54-2.88-6.63-6.45v-.19s0-27.57,0-27.57c0-3.6,2.88-6.54,6.45-6.63h.19s86.08,0,86.08,0v-9.19H49.4c-3.6,0-6.54-2.88-6.63-6.45v-.19s0-27.57,0-27.57c0-3.6,2.88-6.54,6.45-6.63h.19s86.08,0,86.08,0v-10.2H5.14v12.08c0,1.41-1.14,2.55-2.55,2.55S.1,45.66,.03,44.31v-.13s0-1.9,0-1.9v-.53h0v-1.03C.03,31.03,0,24.56,0,20.15v-2.25c0-5.58,.07-6.9,.31-8.01l.03-.13,.02-.07H.36l.03-.13c.02-.09,.05-.18,.07-.28C1.82,4.25,6.23,.45,11.62,.04c.03,0,.05,0,.07,0h.02s.01,0,.02,0h.02s0,0,0,0h.02c.13-.01,.44-.02,2.56-.02h.36c.06,0,.13,0,.19,0h.41c.07,0,.14,0,.22,0h.77c.14,0,.28,0,.43,0h9.13c.3,0,.6,0,.91,0ZM2.58,53.54c1.37,0,2.48,1.07,2.55,2.42v.13s0,79.75,0,79.75c0,4.03,3.23,7.33,7.24,7.43h.19s16.16,0,16.16,0c1.41,0,2.55,1.14,2.55,2.55,0,1.37-1.07,2.48-2.42,2.55h-.13s-16.16,0-16.16,0c-6.84,0-12.42-5.5-12.54-12.31v-.22s0-79.75,0-79.75c0-1.41,1.14-2.55,2.55-2.55Zm164.96,43.9H49.4c-.8,0-1.47,.64-1.53,1.43v.1s0,27.57,0,27.57c0,.8,.64,1.47,1.43,1.53h.1s118.14,0,118.14,0c.8,0,1.47-.64,1.53-1.43v-.1s0-27.57,0-27.57c0-.83-.7-1.53-1.53-1.53ZM22.47,121.1c1.41,0,2.55,1.14,2.55,2.55,0,1.41-1.14,2.55-2.55,2.55h-5.09c-1.41,0-2.55-1.14-2.55-2.55s1.14-2.55,2.55-2.55h5.09Zm56.57-18.94c.48-1.32,1.95-2.01,3.27-1.53,1.32,.48,2.01,1.95,1.53,3.27h0l-7.08,19.44c-.38,1.04-1.36,1.68-2.4,1.68-.29,0-.58-.05-.87-.15-1.32-.48-2.01-1.95-1.53-3.27h0l7.08-19.44Zm-13.19,1.93c1-1,2.61-1,3.61,0,1,1,1,2.61,0,3.61h0l-4.5,4.49,4.5,4.49c1,1,1,2.61,0,3.61-.5,.5-1.15,.75-1.81,.75s-1.31-.25-1.81-.75h0l-6.3-6.3c-1-1-1-2.61,0-3.61h0l6.3-6.3Zm21.05,0c1-1,2.61-1,3.61,0h0l6.3,6.3c1,1,1,2.61,0,3.61h0l-6.3,6.3c-.5,.5-1.15,.75-1.81,.75s-1.31-.25-1.81-.75c-1-1-1-2.61,0-3.61h0l4.5-4.49-4.5-4.49c-1-1-1-2.61,0-3.61Zm-64.43,4.76c1.41,0,2.55,1.14,2.55,2.55,0,1.41-1.14,2.55-2.55,2.55h-5.09c-1.41,0-2.55-1.14-2.55-2.55s1.14-2.55,2.55-2.55h5.09Zm0-12.25c1.41,0,2.55,1.14,2.55,2.55,0,1.41-1.14,2.55-2.55,2.55h-5.09c-1.41,0-2.55-1.14-2.55-2.55s1.14-2.55,2.55-2.55h5.09Zm0-12.25c1.41,0,2.55,1.14,2.55,2.55,0,1.41-1.14,2.55-2.55,2.55h-5.09c-1.41,0-2.55-1.14-2.55-2.55s1.14-2.55,2.55-2.55h5.09Zm0-12.25c1.41,0,2.55,1.14,2.55,2.55,0,1.41-1.14,2.55-2.55,2.55h-5.09c-1.41,0-2.55-1.14-2.55-2.55s1.14-2.55,2.55-2.55h5.09Zm134.8-5.74c.33-.07,.67-.07,1,0,.16,.03,.32,.08,.48,.14,.15,.06,.3,.14,.44,.23,.14,.1,.27,.2,.39,.32,.12,.12,.22,.25,.32,.39,.09,.14,.17,.29,.23,.44,.06,.16,.12,.32,.15,.48,.03,.16,.05,.33,.05,.5,0,.17-.02,.33-.05,.5-.03,.16-.08,.32-.15,.48-.06,.15-.14,.3-.23,.44-.09,.14-.2,.27-.32,.39-.12,.12-.25,.22-.39,.32-.14,.09-.29,.17-.44,.23-.16,.06-.32,.11-.48,.14-.16,.03-.33,.05-.5,.05s-.33-.02-.5-.05c-.16-.03-.32-.08-.48-.14-.15-.06-.3-.14-.44-.23-.14-.1-.27-.2-.39-.32-.12-.12-.22-.25-.32-.39-.09-.14-.17-.29-.23-.44-.06-.15-.11-.31-.15-.48-.03-.17-.05-.33-.05-.5s.02-.33,.05-.5c.03-.16,.08-.32,.15-.48,.06-.15,.14-.3,.23-.44,.1-.14,.2-.27,.32-.39,.12-.12,.25-.22,.39-.32,.14-.09,.29-.17,.44-.23,.15-.06,.31-.11,.48-.14Zm-53.75-.05c1.41,0,2.55,1.14,2.55,2.55,0,1.41-1.14,2.55-2.55,2.55h-9.7c-1.41,0-2.55-1.14-2.55-2.55s1.14-2.55,2.55-2.55h9.7Zm42.96,0c1.41,0,2.55,1.14,2.55,2.55s-1.14,2.55-2.55,2.55h-33.49c-1.41,0-2.55-1.14-2.55-2.55s1.14-2.55,2.55-2.55h33.49Zm-62.58,0c1.41,0,2.55,1.14,2.55,2.55s-1.14,2.55-2.55,2.55h-5.09c-1.41,0-2.55-1.14-2.55-2.55s1.14-2.55,2.55-2.55h5.09Zm-17.79,0c1.41,0,2.55,1.14,2.55,2.55s-1.14,2.55-2.55,2.55h-5.09c-1.41,0-2.55-1.14-2.55-2.55s1.14-2.55,2.55-2.55h5.09Zm-43.63-6.46c1.41,0,2.55,1.14,2.55,2.55s-1.07,2.48-2.42,2.55h-.13s-5.09,0-5.09,0c-1.41,0-2.55-1.14-2.55-2.55s1.07-2.48,2.42-2.55h.13s5.09,0,5.09,0Zm109.72-5.79c1.41,0,2.55,1.14,2.55,2.55s-1.14,2.55-2.55,2.55h-9.7c-1.41,0-2.55-1.14-2.55-2.55s1.14-2.55,2.55-2.55h9.7Zm25.57,0c1.41,0,2.55,1.14,2.55,2.55s-1.14,2.55-2.55,2.55h-15.79c-1.41,0-2.55-1.14-2.55-2.55s1.14-2.55,2.55-2.55h15.79Zm-46.25,0c1.41,0,2.55,1.14,2.55,2.55s-1.14,2.55-2.55,2.55h-32.25c-1.41,0-2.55-1.14-2.55-2.55s1.14-2.55,2.55-2.55h32.25Zm-45.41,0c1.41,0,2.55,1.14,2.55,2.55s-1.14,2.55-2.55,2.55h-5.09c-1.41,0-2.55-1.14-2.55-2.55s1.14-2.55,2.55-2.55h5.09Zm-43.63-6.46c1.41,0,2.55,1.14,2.55,2.55,0,1.41-1.14,2.55-2.55,2.55h-5.09c-1.41,0-2.55-1.14-2.55-2.55s1.14-2.55,2.55-2.55h5.09ZM128.04,5.11H12.57c-1.92,0-3.69,.74-5.01,1.95-2.11,1.94-2.49,3.49-2.5,8.62v.48c0,2.51,.08,5.84,.08,10.38v.46s130.34,0,130.34,0V12.54c0-4.1-3.33-7.43-7.43-7.43ZM17.38,13.5c.67,0,1.33,.27,1.81,.75,.12,.12,.22,.25,.32,.39,.09,.14,.17,.29,.23,.44,.06,.15,.11,.32,.14,.48,.03,.17,.05,.33,.05,.5,0,.67-.27,1.33-.75,1.8-.12,.12-.25,.22-.39,.32-.14,.09-.29,.17-.44,.23-.15,.06-.31,.12-.48,.15-.17,.03-.33,.05-.5,.05-.67,0-1.33-.27-1.8-.75-.48-.47-.75-1.13-.75-1.8,0-.17,.02-.33,.05-.5,.03-.16,.08-.32,.15-.48,.06-.15,.14-.3,.23-.44,.1-.14,.2-.27,.32-.39,.47-.48,1.13-.75,1.8-.75Zm8.65,0c.67,0,1.33,.27,1.81,.75,.47,.47,.75,1.13,.75,1.8s-.28,1.33-.75,1.8c-.48,.48-1.13,.75-1.81,.75s-1.33-.27-1.8-.75c-.48-.47-.75-1.13-.75-1.8s.27-1.33,.75-1.8c.48-.48,1.13-.75,1.8-.75Zm8.16,.05c.33-.06,.67-.06,1,0,.16,.03,.32,.09,.48,.15,.15,.06,.3,.14,.44,.23,.14,.1,.27,.2,.39,.32,.12,.12,.22,.25,.32,.39,.09,.14,.17,.29,.23,.44,.06,.15,.11,.32,.15,.48,.03,.17,.05,.33,.05,.5,0,.67-.27,1.33-.75,1.8-.12,.12-.25,.22-.39,.32s-.29,.17-.44,.23c-.16,.06-.32,.12-.48,.15-.16,.03-.33,.05-.5,.05s-.34-.02-.5-.05c-.16-.03-.32-.08-.48-.15-.16-.06-.3-.14-.44-.23-.14-.09-.27-.2-.39-.32-.47-.47-.75-1.13-.75-1.8,0-.17,.02-.33,.05-.5,.03-.16,.08-.32,.15-.48,.06-.15,.14-.3,.23-.44,.09-.14,.2-.27,.32-.39,.12-.12,.25-.22,.39-.32,.14-.09,.29-.17,.44-.23,.15-.06,.31-.11,.48-.15Zm72-.05c1.41,0,2.55,1.14,2.55,2.55s-1.14,2.55-2.55,2.55H45.31c-1.41,0-2.55-1.14-2.55-2.55s1.14-2.55,2.55-2.55h60.87Zm19.41,0c1.41,0,2.55,1.14,2.55,2.55s-1.14,2.55-2.55,2.55h-10.44c-1.41,0-2.55-1.14-2.55-2.55s1.14-2.55,2.55-2.55h10.44Z"/>
    </g>
  </g>
</svg>