<?xml version="1.0" encoding="UTF-8"?>
<svg id="Layer_2" data-name="Layer 2" xmlns="http://www.w3.org/2000/svg" xmlns:xlink="http://www.w3.org/1999/xlink" viewBox="0 0 117.59 130.89">
  <defs>
    <style>
      .cls-1 {
        fill: url(#linear-gradient);
      }
    </style>
    <linearGradient id="linear-gradient" x1="-694.26" y1="-78.17" x2="-694.26" y2="-78.75" gradientTransform="translate(139155.83 -17430.96) scale(200.35 -223)" gradientUnits="userSpaceOnUse">
      <stop offset="0" stop-color="#ef4044"/>
      <stop offset="1" stop-color="#000"/>
    </linearGradient>
  </defs>
  <g id="Layer_1-2" data-name="Layer 1">
    <g id="Customer-Support-Copy">
      <path id="path-mxzsg0yuio-22" d="M58.8,0c20.93,0,38,16.86,38.34,37.71v.63s0,16.11,0,16.11c0,4.17-3.34,7.57-7.49,7.67h-.18s-4.65,0-4.65,0l-.54,3.26c-.9,5.4-3.53,10.59-7.33,14.56l-.25,.26,4.36,8.72,12.15,4.05c14.13,4.71,24.38,19.58,24.38,35.36,0,1.37-1.08,2.49-2.43,2.55h-.12s-112.48,0-112.48,0c-1.41,0-2.56-1.14-2.56-2.56,0-15.62,10.05-30.36,23.96-35.22l.42-.14,12.15-4.05,4.36-8.72c-.39-.39-.76-.8-1.13-1.21-1.64-1.89-3.01-3.97-4.09-6.22l-.2-.42h-2.25c-4.17,0-7.57-3.34-7.67-7.49v-.18s0-3,0-3c-2.92-1.04-5.03-3.79-5.11-7.04v-.19s0-16.11,0-16.11C20.45,17.15,37.6,0,58.8,0Zm-22.04,94.23l-10.76,3.59c-11.23,3.74-19.6,15.06-20.75,27.58l-.03,.38H54.19l-3.14-5.05c-2.55-3.41-4.91-7.01-7-10.69h0s0-.01,0-.01h0c-2.86-5.05-5.3-10.34-7.28-15.8Zm44.07,0c-1.96,5.41-4.37,10.66-7.2,15.65h0s0,0,0,0l-.04,.07c-1.97,3.47-4.17,6.86-6.54,10.08l-.51,.69-3.14,5.05h48.98c-1-12.54-9.27-23.94-20.44-27.84l-.34-.12-10.76-3.59Zm-22.27,5.27l-9.12,9.64c1.76,2.96,3.69,5.84,5.76,8.61l.06,.09h0l.06,.09,3.47,5.57c.44-.71,.83-1.33,1.16-1.87l.2-.31c1.87-3.01,2.1-3.38,2.19-3.5h0s0-.02,.01-.03h0s.01-.03,.02-.04c1.9-2.53,3.69-5.18,5.33-7.9l.45-.74-9.61-9.61Zm14.44-15.27l-10.93,11.55,8.68,8.68c2.09-4,3.91-8.16,5.42-12.42l.3-.85-3.48-6.96Zm-28.84,.87l-3.04,6.09c1.47,4.27,3.25,8.44,5.31,12.47l.41,.8,8.11-8.57-10.79-10.79Zm9.31,2.08l4.99,4.99,4.52-4.78c-1.38,.23-2.78,.34-4.18,.34-1.79,0-3.57-.19-5.33-.56h0Zm-.8-56.47c-5.14,.29-9.97,2.82-13.13,6.91l-.17,.22-3.44,4.59c.32,7.92,1.75,20.23,3.02,24.64l.05,.17h7.46c1.01-2.86,3.72-5.03,7.04-5.11h.19s5.11,0,5.11,0c4.23,0,7.67,3.44,7.67,7.67s-3.33,7.57-7.49,7.67h-.18s-5.11,0-5.11,0c-3.27,0-6.07-2.06-7.17-4.95l-.06-.17h-5.21c2.96,4.95,7.53,8.41,12.53,9.66,3.29,.82,6.76,.82,10.05,0,8-2,14.06-9.34,15.41-17.46,.47-2.85,.66-3.87,.89-5.45,0,0,0,0,0,0,.69-4.64,1.19-9.66,1.46-14.68l.05-.94-3.76-.54c-9.41-1.34-18.31-5.67-25.19-12.22Zm6.12,36.53h-5.11c-1.41,0-2.56,1.15-2.56,2.56s1.08,2.49,2.43,2.55h.12s5.11,0,5.11,0c1.41,0,2.56-1.14,2.56-2.56s-1.15-2.56-2.56-2.56Zm-26.02-5.11h-2.1v2.56c0,1.37,1.08,2.49,2.43,2.55h.12s.46,0,.46,0c-.11-.46-.21-.92-.3-1.39l-.08-.46-.54-3.26Zm59.26-21.22h-5.19c0,.15,0,.29-.01,.44-.16,4.92-.55,9.92-1.13,14.65l-.13,1.01h3.9c1.37,0,2.49-1.08,2.55-2.43v-.12s0-13.55,0-13.55Zm-61.28,0h-5.19v13.55c0,1.37,1.08,2.49,2.43,2.55h.12s3.9,0,3.9,0c-.59-4.59-1-9.45-1.2-14.24l-.04-1.03s0-.02,0-.03c0-.27-.02-.54-.03-.8ZM61.09,15.34h-4.58c-10.74,0-19.54,8.23-20.61,18.64,4.34-5.28,10.92-8.41,17.78-8.41,.68,0,1.33,.27,1.81,.75,6.11,6.11,14.14,10.17,22.68,11.49l.42,.06,3.2,.46s0-.02,0-.03c.01-.64,.02-1.34,.02-2.14,0-11.44-9.26-20.81-20.72-20.81Zm-2.29-10.23c-17.37,0-31.56,13.27-33.09,30.16l-.04,.51h5.02c.18-13.98,11.45-25.33,25.4-25.56h.42s4.58,0,4.58,0c14.01,0,25.41,11.22,25.82,25.14v.42h5.03c-1.31-17.14-15.67-30.68-33.14-30.68Z"/>
      <path id="path-mxzsg0yuio-22-2" data-name="path-mxzsg0yuio-22" class="cls-1" d="M58.8,0c20.93,0,38,16.86,38.34,37.71v.63s0,16.11,0,16.11c0,4.17-3.34,7.57-7.49,7.67h-.18s-4.65,0-4.65,0l-.54,3.26c-.9,5.4-3.53,10.59-7.33,14.56l-.25,.26,4.36,8.72,12.15,4.05c14.13,4.71,24.38,19.58,24.38,35.36,0,1.37-1.08,2.49-2.43,2.55h-.12s-112.48,0-112.48,0c-1.41,0-2.56-1.14-2.56-2.56,0-15.62,10.05-30.36,23.96-35.22l.42-.14,12.15-4.05,4.36-8.72c-.39-.39-.76-.8-1.13-1.21-1.64-1.89-3.01-3.97-4.09-6.22l-.2-.42h-2.25c-4.17,0-7.57-3.34-7.67-7.49v-.18s0-3,0-3c-2.92-1.04-5.03-3.79-5.11-7.04v-.19s0-16.11,0-16.11C20.45,17.15,37.6,0,58.8,0Zm-22.04,94.23l-10.76,3.59c-11.23,3.74-19.6,15.06-20.75,27.58l-.03,.38H54.19l-3.14-5.05c-2.55-3.41-4.91-7.01-7-10.69h0s0-.01,0-.01h0c-2.86-5.05-5.3-10.34-7.28-15.8Zm44.07,0c-1.96,5.41-4.37,10.66-7.2,15.65h0s0,0,0,0l-.04,.07c-1.97,3.47-4.17,6.86-6.54,10.08l-.51,.69-3.14,5.05h48.98c-1-12.54-9.27-23.94-20.44-27.84l-.34-.12-10.76-3.59Zm-22.27,5.27l-9.12,9.64c1.76,2.96,3.69,5.84,5.76,8.61l.06,.09h0l.06,.09,3.47,5.57c.44-.71,.83-1.33,1.16-1.87l.2-.31c1.87-3.01,2.1-3.38,2.19-3.5h0s0-.02,.01-.03h0s.01-.03,.02-.04c1.9-2.53,3.69-5.18,5.33-7.9l.45-.74-9.61-9.61Zm14.44-15.27l-10.93,11.55,8.68,8.68c2.09-4,3.91-8.16,5.42-12.42l.3-.85-3.48-6.96Zm-28.84,.87l-3.04,6.09c1.47,4.27,3.25,8.44,5.31,12.47l.41,.8,8.11-8.57-10.79-10.79Zm9.31,2.08l4.99,4.99,4.52-4.78c-1.38,.23-2.78,.34-4.18,.34-1.79,0-3.57-.19-5.33-.56h0Zm-.8-56.47c-5.14,.29-9.97,2.82-13.13,6.91l-.17,.22-3.44,4.59c.32,7.92,1.75,20.23,3.02,24.64l.05,.17h7.46c1.01-2.86,3.72-5.03,7.04-5.11h.19s5.11,0,5.11,0c4.23,0,7.67,3.44,7.67,7.67s-3.33,7.57-7.49,7.67h-.18s-5.11,0-5.11,0c-3.27,0-6.07-2.06-7.17-4.95l-.06-.17h-5.21c2.96,4.95,7.53,8.41,12.53,9.66,3.29,.82,6.76,.82,10.05,0,8-2,14.06-9.34,15.41-17.46,.47-2.85,.66-3.87,.89-5.45,0,0,0,0,0,0,.69-4.64,1.19-9.66,1.46-14.68l.05-.94-3.76-.54c-9.41-1.34-18.31-5.67-25.19-12.22Zm6.12,36.53h-5.11c-1.41,0-2.56,1.15-2.56,2.56s1.08,2.49,2.43,2.55h.12s5.11,0,5.11,0c1.41,0,2.56-1.14,2.56-2.56s-1.15-2.56-2.56-2.56Zm-26.02-5.11h-2.1v2.56c0,1.37,1.08,2.49,2.43,2.55h.12s.46,0,.46,0c-.11-.46-.21-.92-.3-1.39l-.08-.46-.54-3.26Zm59.26-21.22h-5.19c0,.15,0,.29-.01,.44-.16,4.92-.55,9.92-1.13,14.65l-.13,1.01h3.9c1.37,0,2.49-1.08,2.55-2.43v-.12s0-13.55,0-13.55Zm-61.28,0h-5.19v13.55c0,1.37,1.08,2.49,2.43,2.55h.12s3.9,0,3.9,0c-.59-4.59-1-9.45-1.2-14.24l-.04-1.03s0-.02,0-.03c0-.27-.02-.54-.03-.8ZM61.09,15.34h-4.58c-10.74,0-19.54,8.23-20.61,18.64,4.34-5.28,10.92-8.41,17.78-8.41,.68,0,1.33,.27,1.81,.75,6.11,6.11,14.14,10.17,22.68,11.49l.42,.06,3.2,.46s0-.02,0-.03c.01-.64,.02-1.34,.02-2.14,0-11.44-9.26-20.81-20.72-20.81Zm-2.29-10.23c-17.37,0-31.56,13.27-33.09,30.16l-.04,.51h5.02c.18-13.98,11.45-25.33,25.4-25.56h.42s4.58,0,4.58,0c14.01,0,25.41,11.22,25.82,25.14v.42h5.03c-1.31-17.14-15.67-30.68-33.14-30.68Z"/>
    </g>
  </g>
</svg>