<?xml version="1.0" encoding="UTF-8"?>
<svg id="Layer_2" data-name="Layer 2" xmlns="http://www.w3.org/2000/svg" xmlns:xlink="http://www.w3.org/1999/xlink" viewBox="0 0 130.89 124.61">
  <defs>
    <style>
      .cls-1 {
        fill: url(#linear-gradient);
      }

      .cls-2 {
        fill: #ef4044;
      }
    </style>
    <linearGradient id="linear-gradient" x1="-273.11" y1="108.98" x2="-273.11" y2="108.4" gradientTransform="translate(60969.89 23138.67) scale(223 -212.31)" gradientUnits="userSpaceOnUse">
      <stop offset="0" stop-color="#ef4044"/>
      <stop offset="1" stop-color="#1c1d1d"/>
    </linearGradient>
  </defs>
  <g id="Layer_1-2" data-name="Layer 1">
    <g id="Combined-Shape">
      <path id="path-mxzsg0yuio-11" class="cls-2" d="M100.78,0c16.6,0,30.11,13.53,30.11,30.14s-13.51,30.14-30.11,30.14c-.41,0-.83,0-1.24-.03l-.4-.02v47.73c0,9.1-7.29,16.49-16.36,16.65h-.28s-.05,0-.05,0c-.3,0-.51-.03-.93-.06h-.15s0,.06,0,.06H15.9v-.05C7.12,124.17,.17,117.01,0,108.24v-.27s0-9.44,0-9.44c0-1.14,.94-1.97,2.06-2.02h.11s15,0,15,0l.5-74.39c0-1.13,.89-2.15,2.01-2.21h.11s52.63,0,52.63,0C76.6,8.51,87.74,0,100.78,0Zm-35.04,100.76H4.24v7.2c.03,6.79,5.49,12.3,12.25,12.42h.21s54.68,0,54.68,0c-.23-.27-.51-.44-.73-.66-3.07-3.05-4.83-7.18-4.91-11.51v-.28s0-7.17,0-7.17Zm5.52-76.61H21.91l-.49,72.37h46.66c.5,.01,.97,.22,1.33,.57,.35,.35,.56,.83,.57,1.33v.12s0,9.39,0,9.39c.03,6.81,5.5,12.32,12.28,12.44h.21s.04,0,.04,0c6.78-.01,12.28-5.46,12.39-12.21v-.21s0-48.26,0-48.26c-7.88-1.58-14.78-6.26-19.17-12.98l-.19-.3h-22.33c-1.17,0-2.12-.95-2.12-2.12s.89-2.06,2.01-2.12h.11s20.03,0,20.03,0c-1.69-3.82-2.56-7.96-2.56-12.14,.01-1.98,.21-3.95,.58-5.89Zm-31.66,50.57c3.74,0,6.79,2.95,6.79,6.57s-3.05,6.57-6.79,6.57-6.79-2.95-6.79-6.57,3.04-6.57,6.79-6.57Zm0,4.24c-1.4,0-2.55,1.05-2.55,2.33s1.14,2.33,2.55,2.33,2.55-1.05,2.55-2.33-1.14-2.33-2.55-2.33Zm41.88,.32c1.17,0,2.12,.95,2.12,2.12s-.95,2.12-2.12,2.12h-28.27c-1.17,0-2.12-.95-2.12-2.12s.95-2.12,2.12-2.12h28.27Zm-41.88-23c3.74,0,6.79,2.95,6.79,6.57s-3.05,6.57-6.79,6.57-6.79-2.95-6.79-6.57,3.04-6.57,6.79-6.57Zm0,4.24c-1.4,0-2.55,1.04-2.55,2.33s1.14,2.33,2.55,2.33,2.55-1.05,2.55-2.33-1.14-2.33-2.55-2.33Zm41.88,.2c1.17,0,2.12,.95,2.12,2.12s-.95,2.12-2.12,2.12h-28.27c-1.17,0-2.12-.95-2.12-2.12s.95-2.12,2.12-2.12h28.27ZM100.78,4.3c-14.29,0-25.87,11.58-25.87,25.87,0,14.29,11.58,25.87,25.87,25.87,14.28-.02,25.85-11.59,25.87-25.87,0-14.29-11.58-25.87-25.87-25.87ZM39.59,37.86c3.74,0,6.79,2.95,6.79,6.57s-3.05,6.57-6.79,6.57-6.79-2.95-6.79-6.57,3.04-6.57,6.79-6.57ZM100.46,10.37c1.13,0,2.06,.89,2.12,2.01v.11s0,2.04,0,2.04c4.12,.91,7.05,4.55,7.06,8.77,0,1.17-.95,2.12-2.12,2.12s-2.12-.95-2.12-2.12c0-2.58-2.07-4.68-4.64-4.73-.1,.01-.19,.02-.29,.02h-.09s-.09,0-.09,0c-2.54,.2-4.46,2.37-4.36,4.91,.1,2.54,2.19,4.55,4.74,4.55,4.58,0,8.43,3.45,8.93,8.01,.49,4.49-2.44,8.64-6.81,9.69l-.19,.04v2.23c0,1.17-.95,2.12-2.12,2.12s-2.06-.89-2.12-2.01v-.11s0-2.32,0-2.32c-3.92-1.06-6.65-4.61-6.66-8.67,0-1.17,.95-2.12,2.12-2.12s2.12,.95,2.12,2.12c0,2.62,2.12,4.74,4.74,4.74s4.74-2.12,4.74-4.74-2.12-4.74-4.74-4.74c-4.51,0-8.31-3.34-8.9-7.81-.58-4.4,2.15-8.56,6.39-9.79l.19-.05v-2.13c0-1.17,.95-2.12,2.12-2.12Zm-60.87,31.73c-1.4,0-2.55,1.05-2.55,2.33s1.14,2.33,2.55,2.33h0c1.4,0,2.55-1.05,2.55-2.33s-1.14-2.33-2.55-2.33Z"/>
      <path id="path-mxzsg0yuio-11-2" data-name="path-mxzsg0yuio-11" class="cls-1" d="M100.78,0c16.6,0,30.11,13.53,30.11,30.14s-13.51,30.14-30.11,30.14c-.41,0-.83,0-1.24-.03l-.4-.02v47.73c0,9.1-7.29,16.49-16.36,16.65h-.28s-.05,0-.05,0c-.3,0-.51-.03-.93-.06h-.15s0,.06,0,.06H15.9v-.05C7.12,124.17,.17,117.01,0,108.24v-.27s0-9.44,0-9.44c0-1.14,.94-1.97,2.06-2.02h.11s15,0,15,0l.5-74.39c0-1.13,.89-2.15,2.01-2.21h.11s52.63,0,52.63,0C76.6,8.51,87.74,0,100.78,0Zm-35.04,100.76H4.24v7.2c.03,6.79,5.49,12.3,12.25,12.42h.21s54.68,0,54.68,0c-.23-.27-.51-.44-.73-.66-3.07-3.05-4.83-7.18-4.91-11.51v-.28s0-7.17,0-7.17Zm5.52-76.61H21.91l-.49,72.37h46.66c.5,.01,.97,.22,1.33,.57,.35,.35,.56,.83,.57,1.33v.12s0,9.39,0,9.39c.03,6.81,5.5,12.32,12.28,12.44h.21s.04,0,.04,0c6.78-.01,12.28-5.46,12.39-12.21v-.21s0-48.26,0-48.26c-7.88-1.58-14.78-6.26-19.17-12.98l-.19-.3h-22.33c-1.17,0-2.12-.95-2.12-2.12s.89-2.06,2.01-2.12h.11s20.03,0,20.03,0c-1.69-3.82-2.56-7.96-2.56-12.14,.01-1.98,.21-3.95,.58-5.89Zm-31.66,50.57c3.74,0,6.79,2.95,6.79,6.57s-3.05,6.57-6.79,6.57-6.79-2.95-6.79-6.57,3.04-6.57,6.79-6.57Zm0,4.24c-1.4,0-2.55,1.05-2.55,2.33s1.14,2.33,2.55,2.33,2.55-1.05,2.55-2.33-1.14-2.33-2.55-2.33Zm41.88,.32c1.17,0,2.12,.95,2.12,2.12s-.95,2.12-2.12,2.12h-28.27c-1.17,0-2.12-.95-2.12-2.12s.95-2.12,2.12-2.12h28.27Zm-41.88-23c3.74,0,6.79,2.95,6.79,6.57s-3.05,6.57-6.79,6.57-6.79-2.95-6.79-6.57,3.04-6.57,6.79-6.57Zm0,4.24c-1.4,0-2.55,1.04-2.55,2.33s1.14,2.33,2.55,2.33,2.55-1.05,2.55-2.33-1.14-2.33-2.55-2.33Zm41.88,.2c1.17,0,2.12,.95,2.12,2.12s-.95,2.12-2.12,2.12h-28.27c-1.17,0-2.12-.95-2.12-2.12s.95-2.12,2.12-2.12h28.27ZM100.78,4.3c-14.29,0-25.87,11.58-25.87,25.87,0,14.29,11.58,25.87,25.87,25.87,14.28-.02,25.85-11.59,25.87-25.87,0-14.29-11.58-25.87-25.87-25.87ZM39.59,37.86c3.74,0,6.79,2.95,6.79,6.57s-3.05,6.57-6.79,6.57-6.79-2.95-6.79-6.57,3.04-6.57,6.79-6.57ZM100.46,10.37c1.13,0,2.06,.89,2.12,2.01v.11s0,2.04,0,2.04c4.12,.91,7.05,4.55,7.06,8.77,0,1.17-.95,2.12-2.12,2.12s-2.12-.95-2.12-2.12c0-2.58-2.07-4.68-4.64-4.73-.1,.01-.19,.02-.29,.02h-.09s-.09,0-.09,0c-2.54,.2-4.46,2.37-4.36,4.91,.1,2.54,2.19,4.55,4.74,4.55,4.58,0,8.43,3.45,8.93,8.01,.49,4.49-2.44,8.64-6.81,9.69l-.19,.04v2.23c0,1.17-.95,2.12-2.12,2.12s-2.06-.89-2.12-2.01v-.11s0-2.32,0-2.32c-3.92-1.06-6.65-4.61-6.66-8.67,0-1.17,.95-2.12,2.12-2.12s2.12,.95,2.12,2.12c0,2.62,2.12,4.74,4.74,4.74s4.74-2.12,4.74-4.74-2.12-4.74-4.74-4.74c-4.51,0-8.31-3.34-8.9-7.81-.58-4.4,2.15-8.56,6.39-9.79l.19-.05v-2.13c0-1.17,.95-2.12,2.12-2.12Zm-60.87,31.73c-1.4,0-2.55,1.05-2.55,2.33s1.14,2.33,2.55,2.33h0c1.4,0,2.55-1.05,2.55-2.33s-1.14-2.33-2.55-2.33Z"/>
    </g>
  </g>
</svg>