<?xml version="1.0" encoding="UTF-8"?>
<svg width="223px" height="223px" viewBox="0 0 223 223" version="1.1" xmlns="http://www.w3.org/2000/svg" xmlns:xlink="http://www.w3.org/1999/xlink">
    <title>Enterprise Solutions</title>
    <defs>
        <linearGradient x1="50%" y1="0%" x2="50%" y2="100%" id="linearGradient-1">
            <stop stop-color="#FF3B3F" offset="0%"></stop>
            <stop stop-color="#000000" offset="100%"></stop>
        </linearGradient>
        <path d="M759.629032,807 C761.615476,807 763.225806,808.610331 763.225806,810.596774 L763.225806,821.387097 L774.016129,821.387097 C776.002573,821.387097 777.612903,822.997427 777.612903,824.983871 L777.612903,950.870968 L781.209677,950.870968 C783.196121,950.870968 784.806452,952.481298 784.806452,954.467742 L784.806452,1022.80645 L792,1022.80645 L792,1030 L569,1030 L569,1022.80645 L576.193548,1022.80645 L576.193548,889.725806 C576.193548,887.739363 577.803879,886.129032 579.790323,886.129032 L658.919355,886.129032 C660.905798,886.129032 662.516129,887.739363 662.516129,889.725806 L662.516129,958.064516 L669.709677,958.064516 L669.709677,889.725806 C669.709677,887.739363 671.320008,886.129032 673.306452,886.129032 L698.483871,886.129032 L698.483871,824.983871 C698.483871,822.997427 700.094202,821.387097 702.080645,821.387097 L712.870968,821.387097 L712.870968,810.596774 C712.870968,808.610331 714.481298,807 716.467742,807 Z M655.322581,893.322581 L583.387097,893.322581 L583.387097,1022.80645 L622.951613,1022.80645 L622.951613,961.66129 C622.951613,959.674847 624.561944,958.064516 626.548387,958.064516 L655.322581,958.064516 L655.322581,893.322581 Z M687.693548,1015.6129 L630.145161,1015.6129 L630.145161,1022.80645 L687.693548,1022.80645 L687.693548,1015.6129 Z M723.66129,994.032258 L694.887097,994.032258 L694.887097,1022.80645 L723.66129,1022.80645 L723.66129,994.032258 Z M777.612903,958.064516 L730.854839,958.064516 L730.854839,1022.80645 L777.612903,1022.80645 L777.612903,958.064516 Z M770.419355,1001.22581 L770.419355,1008.41935 L738.048387,1008.41935 L738.048387,1001.22581 L770.419355,1001.22581 Z M612.16129,986.83871 C614.147734,986.83871 615.758065,988.44904 615.758065,990.435484 L615.758065,1004.82258 C615.758065,1006.80902 614.147734,1008.41935 612.16129,1008.41935 L597.774194,1008.41935 C595.78775,1008.41935 594.177419,1006.80902 594.177419,1004.82258 L594.177419,990.435484 C594.177419,988.44904 595.78775,986.83871 597.774194,986.83871 Z M687.693548,965.258065 L630.145161,965.258065 L630.145161,1008.41935 L687.693548,1008.41935 L687.693548,965.258065 Z M676.903226,972.451613 C678.889669,972.451613 680.5,974.061944 680.5,976.048387 L680.5,997.629032 C680.5,999.615476 678.889669,1001.22581 676.903226,1001.22581 L640.935484,1001.22581 C638.94904,1001.22581 637.33871,999.615476 637.33871,997.629032 L637.33871,976.048387 C637.33871,974.061944 638.94904,972.451613 640.935484,972.451613 Z M608.564516,994.032258 L601.370968,994.032258 L601.370968,1001.22581 L608.564516,1001.22581 L608.564516,994.032258 Z M770.419355,986.83871 L770.419355,994.032258 L738.048387,994.032258 L738.048387,986.83871 L770.419355,986.83871 Z M655.322581,979.645161 L644.532258,979.645161 L644.532258,994.032258 L655.322581,994.032258 L655.322581,979.645161 Z M673.306452,979.645161 L662.516129,979.645161 L662.516129,994.032258 L673.306452,994.032258 L673.306452,979.645161 Z M723.66129,979.645161 L694.887097,979.645161 L694.887097,986.83871 L723.66129,986.83871 L723.66129,979.645161 Z M770.419355,972.451613 L770.419355,979.645161 L738.048387,979.645161 L738.048387,972.451613 L770.419355,972.451613 Z M612.16129,958.064516 C614.147734,958.064516 615.758065,959.674847 615.758065,961.66129 L615.758065,976.048387 C615.758065,978.034831 614.147734,979.645161 612.16129,979.645161 L597.774194,979.645161 C595.78775,979.645161 594.177419,978.034831 594.177419,976.048387 L594.177419,961.66129 C594.177419,959.674847 595.78775,958.064516 597.774194,958.064516 Z M741.645161,943.677419 L712.870968,943.677419 L712.870968,972.451613 L723.66129,972.451613 L723.66129,954.467742 C723.66129,952.481298 725.271621,950.870968 727.258065,950.870968 L741.645161,950.870968 L741.645161,943.677419 Z M705.677419,943.677419 L676.903226,943.677419 L676.903226,958.064516 L691.290323,958.064516 C693.276766,958.064516 694.887097,959.674847 694.887097,961.66129 L694.887097,972.451613 L705.677419,972.451613 L705.677419,943.677419 Z M608.564516,965.258065 L601.370968,965.258065 L601.370968,972.451613 L608.564516,972.451613 L608.564516,965.258065 Z M756.032258,842.967742 L748.83871,842.967742 L748.83871,950.870968 L756.032258,950.870968 L756.032258,842.967742 Z M770.419355,842.967742 L763.225806,842.967742 L763.225806,950.870968 L770.419355,950.870968 L770.419355,842.967742 Z M640.935484,929.290323 C642.921927,929.290323 644.532258,930.900653 644.532258,932.887097 L644.532258,947.274194 C644.532258,949.260637 642.921927,950.870968 640.935484,950.870968 L626.548387,950.870968 C624.561944,950.870968 622.951613,949.260637 622.951613,947.274194 L622.951613,932.887097 C622.951613,930.900653 624.561944,929.290323 626.548387,929.290323 Z M612.16129,929.290323 C614.147734,929.290323 615.758065,930.900653 615.758065,932.887097 L615.758065,947.274194 C615.758065,949.260637 614.147734,950.870968 612.16129,950.870968 L597.774194,950.870968 C595.78775,950.870968 594.177419,949.260637 594.177419,947.274194 L594.177419,932.887097 C594.177419,930.900653 595.78775,929.290323 597.774194,929.290323 Z M608.564516,936.483871 L601.370968,936.483871 L601.370968,943.677419 L608.564516,943.677419 L608.564516,936.483871 Z M637.33871,936.483871 L630.145161,936.483871 L630.145161,943.677419 L637.33871,943.677419 L637.33871,936.483871 Z M741.645161,929.290323 L676.903226,929.290323 L676.903226,936.483871 L741.645161,936.483871 L741.645161,929.290323 Z M741.645161,893.322581 L712.870968,893.322581 L712.870968,922.096774 L741.645161,922.096774 L741.645161,893.322581 Z M705.677419,893.322581 L676.903226,893.322581 L676.903226,922.096774 L705.677419,922.096774 L705.677419,893.322581 Z M612.16129,900.516129 C614.147734,900.516129 615.758065,902.12646 615.758065,904.112903 L615.758065,918.5 C615.758065,920.486444 614.147734,922.096774 612.16129,922.096774 L597.774194,922.096774 C595.78775,922.096774 594.177419,920.486444 594.177419,918.5 L594.177419,904.112903 C594.177419,902.12646 595.78775,900.516129 597.774194,900.516129 Z M640.935484,900.516129 C642.921927,900.516129 644.532258,902.12646 644.532258,904.112903 L644.532258,918.5 C644.532258,920.486444 642.921927,922.096774 640.935484,922.096774 L626.548387,922.096774 C624.561944,922.096774 622.951613,920.486444 622.951613,918.5 L622.951613,904.112903 C622.951613,902.12646 624.561944,900.516129 626.548387,900.516129 Z M608.564516,907.709677 L601.370968,907.709677 L601.370968,914.903226 L608.564516,914.903226 L608.564516,907.709677 Z M637.33871,907.709677 L630.145161,907.709677 L630.145161,914.903226 L637.33871,914.903226 L637.33871,907.709677 Z M727.258065,842.967742 L720.064516,842.967742 L720.064516,886.129032 L727.258065,886.129032 L727.258065,842.967742 Z M741.645161,842.967742 L734.451613,842.967742 L734.451613,886.129032 L741.645161,886.129032 L741.645161,842.967742 Z M712.870968,842.967742 L705.677419,842.967742 L705.677419,886.129032 L712.870968,886.129032 L712.870968,842.967742 Z M680.5,807 C686.459331,807 691.290323,811.830992 691.290323,817.790323 C691.290323,823.749653 686.459331,828.580645 680.5,828.580645 C678.897685,828.574442 677.317567,828.205543 675.878145,827.501613 L654.243548,849.13621 C654.947478,850.575632 655.316377,852.155749 655.322581,853.758065 C655.32258,859.717395 650.491589,864.548387 644.532258,864.548387 C638.572928,864.548387 633.741936,859.717395 633.741935,853.758065 C633.748139,852.155749 634.117038,850.575632 634.820968,849.13621 L623.976694,838.291935 C621.064573,839.735663 617.645104,839.735663 614.732984,838.291935 L600.291935,852.732984 C600.995865,854.172406 601.364764,855.752523 601.370968,857.354839 C601.370968,863.314169 596.539976,868.145161 590.580645,868.145161 C584.621315,868.145161 579.790323,863.314169 579.790323,857.354839 C579.790323,851.395508 584.621315,846.564516 590.580645,846.564516 C592.182961,846.57072 593.763078,846.939619 595.2025,847.643548 L609.643548,833.2025 C608.939619,831.763078 608.57072,830.182961 608.564516,828.580645 C608.564516,822.621315 613.395508,817.790323 619.354839,817.790323 C625.314169,817.790323 630.145161,822.621315 630.145161,828.580645 C630.138958,830.182961 629.770059,831.763078 629.066129,833.2025 L639.910403,844.046774 C642.822524,842.603047 646.241993,842.603047 649.154113,844.046774 L670.78871,822.412177 C670.08478,820.972755 669.715881,819.392638 669.709677,817.790323 C669.709677,811.830992 674.540669,807 680.5,807 Z M590.580645,853.758065 C588.594202,853.758065 586.983871,855.368395 586.983871,857.354839 C586.983871,859.341282 588.594202,860.951613 590.580645,860.951613 C592.567089,860.951613 594.177419,859.341282 594.177419,857.354839 C594.177419,855.368395 592.567089,853.758065 590.580645,853.758065 Z M644.532258,850.16129 C642.545815,850.16129 640.935484,851.771621 640.935484,853.758065 C640.935484,855.744508 642.545815,857.354839 644.532258,857.354839 C646.518702,857.354839 648.129032,855.744508 648.129032,853.758065 C648.129032,851.771621 646.518702,850.16129 644.532258,850.16129 Z M756.032258,814.193548 L720.064516,814.193548 L720.064516,824.983871 C720.064516,826.970315 718.454185,828.580645 716.467742,828.580645 L705.677419,828.580645 L705.677419,835.774194 L770.419355,835.774194 L770.419355,828.580645 L759.629032,828.580645 C757.642589,828.580645 756.032258,826.970315 756.032258,824.983871 L756.032258,814.193548 Z M619.354839,824.983871 C617.368395,824.983871 615.758065,826.594202 615.758065,828.580645 C615.758065,830.567089 617.368395,832.177419 619.354839,832.177419 C621.341282,832.177419 622.951613,830.567089 622.951613,828.580645 C622.951613,826.594202 621.341282,824.983871 619.354839,824.983871 Z M680.5,814.193548 C678.513556,814.193548 676.903226,815.803879 676.903226,817.790323 C676.903226,819.776766 678.513556,821.387097 680.5,821.387097 C682.486444,821.387097 684.096774,819.776766 684.096774,817.790323 C684.096774,815.803879 682.486444,814.193548 680.5,814.193548 Z" id="path-2"></path>
    </defs>
    <g id="Site-Icons" stroke="none" stroke-width="1" fill="none" fill-rule="evenodd">
        <g id="Icons-to-Still-Be-Converted---11/7/22" transform="translate(-569.000000, -807.000000)" fill-rule="nonzero">
            <g id="Enterprise-Solutions">
                <use fill="#000000" xlink:href="#path-2"></use>
                <use fill="url(#linearGradient-1)" xlink:href="#path-2"></use>
            </g>
        </g>
    </g>
</svg>