<?xml version="1.0" encoding="UTF-8"?>
<svg id="Layer_2" data-name="Layer 2" xmlns="http://www.w3.org/2000/svg" xmlns:xlink="http://www.w3.org/1999/xlink" viewBox="0 0 150.88 152.15">
  <defs>
    <style>
      .cls-1 {
        fill: url(#linear-gradient);
      }
    </style>
    <linearGradient id="linear-gradient" x1="-445.18" y1="332.1" x2="-445.18" y2="331.42" gradientTransform="translate(98525.94 74057.76) scale(221.15 -223)" gradientUnits="userSpaceOnUse">
      <stop offset="0" stop-color="#ef4044"/>
      <stop offset="1" stop-color="#1c1d1d"/>
    </linearGradient>
  </defs>
  <g id="Layer_1-2" data-name="Layer 1">
    <path id="Experience" class="cls-1" d="M125.89,0c7.73,0,13.99,6.27,14,14V125.63s8.82,0,8.82,0c1.2,0,2.17,.97,2.17,2.17v10.37c0,7.71-6.26,13.97-13.97,13.98H37.61s-.1,0-.15,0h.14c-7.72,0-13.98-6.25-14-13.98V29.51s-21.44,0-21.44,0c-1.2,0-2.17-.97-2.17-2.17V13.98C.09,7.11,5.1,1.45,11.66,.35c.34-.22,.74-.35,1.18-.35H125.89Zm20.64,129.98H51.61v8.19c0,3.59-1.38,7.04-3.86,9.63h89.16c5.31,0,9.62-4.31,9.63-9.63v-8.19ZM27.99,13.98v13.36c0,.13-.01,.26-.03,.39v110.45c.08,5.27,4.38,9.51,9.65,9.51s9.57-4.23,9.65-9.51v-10.37c0-1.2,.97-2.17,2.17-2.17h86.11V14c0-5.33-4.32-9.64-9.65-9.65H23.99c2.44,2.48,3.96,5.88,4,9.63Zm55.89,17.83l3.47,2.7c.18,.14,.4,.21,.63,.2h.1s4.35-.61,4.35-.61c2.41-.34,4.74,1,5.65,3.26l1.65,4.06c.1,.24,.29,.43,.53,.53l4.06,1.65c2.25,.91,3.6,3.24,3.26,5.65l-.6,4.35c-.03,.26,.04,.51,.19,.72l2.7,3.48c1.5,1.92,1.5,4.61,0,6.52l-2.7,3.47c-.16,.21-.22,.46-.19,.72l.6,4.35c.34,2.41-1.01,4.74-3.26,5.65l-4.07,1.66c-.24,.1-.43,.29-.53,.53l-1.46,3.61v.03s8.89,20.82,8.89,20.82c.33,.78,.18,1.69-.39,2.32-.57,.63-1.46,.87-2.27,.61l-6.51-2.08-3.18,6.05c-.38,.72-1.12,1.16-1.93,1.16h-.09c-.84-.03-1.58-.55-1.91-1.32l-8.77-20.68h0l-.17,.05c-.35,.09-.72,.15-1.08,.16h-.22c-.45,0-.89-.05-1.32-.16h0l-.15-.04h0l-8.79,20.67c-.33,.77-1.07,1.29-1.91,1.32h-.09c-.81,0-1.55-.45-1.93-1.16l-3.18-6.05-6.51,2.08c-.81,.26-1.7,.02-2.27-.61-.57-.63-.73-1.54-.39-2.32l8.9-20.85-1.46-3.6c-.1-.25-.29-.44-.53-.54l-4.06-1.65c-2.26-.91-3.6-3.24-3.26-5.65l.6-4.35c.04-.26-.03-.52-.19-.72l-2.7-3.48c-1.5-1.92-1.5-4.6,0-6.52l2.69-3.48c.16-.2,.23-.46,.2-.72l-.6-4.35c-.34-2.41,1-4.74,3.26-5.65l4.06-1.65c.24-.1,.43-.29,.53-.53l1.65-4.06c.82-2.04,2.8-3.33,4.95-3.31h.17c.17,.01,.35,.03,.53,.05l4.35,.6h.1s.1,0,.1,0c.19-.01,.38-.08,.53-.2l3.46-2.7c1.92-1.49,4.6-1.49,6.52,0Zm-10.6,55.6h-.11s-4.35,.61-4.35,.61c-.18,.03-.35,.04-.53,.05h-.17c-.64,.01-1.26-.1-1.85-.31h-.03s-6.3,14.73-6.3,14.73l3.72-1.19c1.01-.32,2.1,.12,2.59,1.06l1.9,3.61,7.29-17.15-1.36-1.06-.19-.15c-.18-.13-.39-.2-.61-.2Zm14.68-.01h-.1c-.19,.01-.38,.08-.53,.2l-1.55,1.2,7.28,17.16,1.89-3.61c.49-.93,1.58-1.38,2.59-1.06l3.71,1.19-6.31-14.75h0l-.11,.04c-.49,.17-1.01,.26-1.55,.28h-.18c-.24,0-.48-.02-.72-.05l-4.35-.6h-.1Zm-7.31-52.33h-.1c-.19,0-.38,.08-.54,.2l-3.48,2.7c-.91,.7-2.01,1.08-3.14,1.11h-.21c-.21,0-.43-.02-.64-.05l-4.35-.6h-.09s-.09,0-.09,0c-.37,.02-.69,.25-.84,.6l-1.65,4.06c-.54,1.33-1.6,2.38-2.93,2.93l-4.06,1.65c-.41,.17-.65,.59-.59,1.02l.6,4.35c.19,1.42-.19,2.86-1.07,3.99l-2.67,3.47c-.27,.35-.27,.83,0,1.18l2.7,3.48c.88,1.13,1.26,2.57,1.07,3.99l-.6,4.35c-.06,.44,.18,.86,.59,1.02l4.06,1.65c1.33,.54,2.38,1.6,2.93,2.93l1.65,4.07v.03s.07,.09,.09,.14h0s.05,.07,.05,.07c.19,.24,.48,.37,.79,.36h.09s4.35-.61,4.35-.61c.24-.04,.48-.06,.72-.06,1.18,0,2.33,.39,3.26,1.12l2.48,1.92c.3,.14,.56,.34,.77,.6l.23,.18c.35,.27,.83,.27,1.18,0l.47-.37c.08-.07,.17-.14,.26-.2l2.74-2.13c.96-.75,2.15-1.13,3.35-1.12h.21c.14,.02,.28,.03,.43,.05l4.35,.6c.06,0,.12,.01,.17,.01h.09c.2-.03,.38-.11,.53-.25l.05-.05c.06-.15,.14-.29,.24-.42l.94-2.31,.66-1.64c.54-1.33,1.6-2.39,2.93-2.93l4.06-1.65c.41-.17,.65-.59,.59-1.02l-.6-4.35c-.19-1.42,.19-2.85,1.06-3.98l2.7-3.48c.27-.35,.27-.83,0-1.18l-2.7-3.48c-.87-1.13-1.26-2.56-1.07-3.97l.6-4.35c.06-.44-.18-.86-.59-1.02l-4.06-1.65c-1.33-.54-2.39-1.6-2.93-2.93l-1.65-4.06c-.14-.35-.47-.58-.84-.6h-.09s-.09,0-.09,0h0l-4.35,.6c-.14,.02-.28,.03-.43,.04h-.21c-1.2,.03-2.39-.36-3.35-1.11l-3.48-2.7c-.16-.12-.35-.19-.54-.2Zm-.04,12.08c.8,0,1.54,.42,1.95,1.11l3.36,6.77,7.49,1.09c.82,.12,1.5,.69,1.76,1.48s.04,1.65-.55,2.23l-5.43,5.28,1.28,7.46c.14,.81-.2,1.64-.86,2.12-.67,.49-1.56,.55-2.29,.17l-6.7-3.52-6.7,3.52c-.31,.16-.65,.25-1,.25-.64,0-1.25-.28-1.66-.77-.41-.49-.59-1.14-.48-1.77l1.28-7.46-5.42-5.28c-.58-.58-.79-1.44-.54-2.22s.93-1.35,1.74-1.48l7.49-1.09,3.35-6.79c.41-.69,1.15-1.11,1.95-1.11Zm0,6.97l-1.91,3.86c-.32,.64-.93,1.09-1.64,1.19l-4.26,.62,3.08,3.01c.51,.5,.74,1.22,.62,1.92l-.73,4.25,3.81-2.01c.31-.16,.66-.25,1.01-.25,.35,0,.7,.09,1.01,.25l3.81,2.01-.73-4.25c-.12-.7,.11-1.42,.62-1.92l3.09-3.01-4.26-.62c-.71-.1-1.32-.55-1.64-1.19l-1.91-3.86ZM14,4.47c-5.27,0-9.57,4.23-9.65,9.51v11.18H23.65V13.98c-.08-5.27-4.38-9.51-9.65-9.51Z"/>
  </g>
</svg>