<?xml version="1.0" encoding="UTF-8"?>
<svg id="Layer_2" data-name="Layer 2" xmlns="http://www.w3.org/2000/svg" xmlns:xlink="http://www.w3.org/1999/xlink" viewBox="0 0 152.15 152.19">
  <defs>
    <style>
      .cls-1 {
        fill: url(#linear-gradient);
      }
    </style>
    <linearGradient id="linear-gradient" x1="-180.58" y1="-769" x2="-180.58" y2="-769.69" gradientTransform="translate(40344.42 -171533.09) scale(223 -223.06)" gradientUnits="userSpaceOnUse">
      <stop offset="0" stop-color="#ef4044"/>
      <stop offset="1" stop-color="#1c1d1d"/>
    </linearGradient>
  </defs>
  <g id="Layer_1-2" data-name="Layer 1">
    <g id="FinTech">
      <path id="path-l9_hjd4q6y-27" data-name="path-l9 hjd4q6y-27" d="M79.67,.12c3.55,.67,6.08,3.74,5.91,7.3-.13,2.68-1.43,4.72-3.79,5.97-.72,.39-.98,.78-.96,1.58,.06,2.03,.04,4.06,.01,6.09-.02,1.85-.9,2.72-2.75,2.74-2.18,.02-4.35,0-6.64,0v4.76c2.1,0,4.21,0,6.32,0,2.24,0,3.06,.81,3.07,3.02,.01,2.12,0,4.23,0,6.42h14.25c0-3.15,.04-6.3-.05-9.44,0-.34-.68-.72-1.1-.97-2.66-1.56-4.09-4.68-3.43-7.6,.69-3.1,3.23-5.37,6.3-5.66,3.1-.29,6.03,1.48,7.25,4.37,1.41,3.36,.13,7.14-3.16,8.91-.84,.46-1.07,.93-1.06,1.82,.06,2.72,.03,5.45,.04,8.17,0,.09,.05,.19,.13,.49,3.92-.3,7.61,.49,10.56,3.4,2.97,2.93,3.84,6.59,3.53,10.73,.45,.04,.83,.11,1.2,.12,2.28,.01,4.56-.08,6.83,.04,1.33,.07,2.07-.3,2.77-1.52,1.59-2.76,4.97-3.89,8.01-2.94,2.94,.91,5,3.74,4.99,6.84-.02,3.16-2.16,5.96-5.21,6.81-3.03,.85-6.3-.3-7.82-3.06-.68-1.22-1.44-1.47-2.67-1.44-2.52,.08-5.05,.03-7.58,.04-.1,0-.19,.04-.39,.08v18.84h4.65v-5.82h0c0-2.96,.63-3.6,3.53-3.6h6.68c3.55,0,4.03,.43,4.05,3.94v5.56h0c1.6,0,3.11,.03,4.62-.03,.29-.01,.68-.34,.84-.62,1.54-2.86,3.91-4.37,7.15-4.03,3.22,.33,5.28,2.26,6.21,5.37,.02,.08,.13,.14,.2,.21v2.97c-.1,.16-.23,.31-.29,.49-1.02,3.02-3.11,4.84-6.27,5.11-3.11,.26-5.39-1.19-6.95-3.91-.22-.39-.87-.74-1.34-.76-1.93-.08-3.86-.03-5.79-.04-2.34,0-3.13-.79-3.14-3.1,0-2.11,0-4.22,0-6.29h-4.76c0,2.2,0,4.28,0,6.35-.01,2.22-.82,3.02-3.06,3.04-2.11,0-4.22,0-6.35,0v14.27c2.92,0,5.74-.04,8.55,.02,.91,.02,1.37-.25,1.82-1.07,2.13-3.86,7.04-4.89,10.45-2.26,2.36,1.82,3.35,4.7,2.58,7.53-.76,2.8-3.14,4.87-6.01,5.24-2.81,.36-5.59-1.1-7.08-3.68-.22-.39-.6-.97-.91-.98-3.14-.07-6.29-.04-9.56-.04,.36,4.23-.54,7.88-3.49,10.82-2.94,2.93-6.63,3.71-10.72,3.41,0,3.07,.03,5.93-.02,8.8-.02,.85,.26,1.27,1.03,1.68,2.67,1.41,4.12,4.35,3.68,7.19-.51,3.31-3.25,5.87-6.53,6.11-3.31,.24-6.42-1.9-7.36-5.07-.96-3.23,.41-6.53,3.38-8.26,.41-.24,1-.67,1.02-1.03,.08-3.1,.05-6.2,.05-9.28h-18.93v4.64c2.14,0,4.21,0,6.28,0,2.35,0,3.14,.79,3.15,3.09,0,2.48,0,4.95,0,7.43,0,3.16-.58,3.75-3.68,3.75h-5.82c0,1.43,.05,2.66-.02,3.88-.05,.89,.19,1.37,1.04,1.83,3.56,1.92,4.74,6.24,2.78,9.71-1.06,1.88-2.79,2.84-4.7,3.6h-2.97c-2.55-.96-4.61-2.44-5.37-5.24-.87-3.2,.46-6.47,3.46-8.07,.85-.45,1.07-.95,1.04-1.83-.06-1.93-.03-3.86-.01-5.8,.02-1.95,.87-2.82,2.8-2.84,2.17-.02,4.34,0,6.61,0v-4.76c-2.15,0-4.27,0-6.38,0-2.22-.01-3.02-.82-3.03-3.06,0-2.08,0-4.15,0-6.34h-14.26c0,3.1-.04,6.2,.05,9.3,.01,.38,.69,.82,1.15,1.1,2.99,1.79,4.3,5.39,3.08,8.62-1.22,3.24-4.66,5.2-7.96,4.53-3.5-.71-5.96-3.71-5.82-7.22,.1-2.68,1.39-4.74,3.75-5.99,.79-.42,1.02-.87,1-1.7-.04-2.86-.02-5.72-.02-8.77-4.11,.3-7.79-.5-10.74-3.43-2.96-2.94-3.8-6.6-3.49-10.79-3.27,0-6.42-.03-9.57,.04-.31,0-.67,.61-.89,1-1.71,2.97-5.03,4.34-8.26,3.39-3.17-.94-5.3-4.03-5.07-7.36,.23-3.28,2.8-6.03,6.11-6.53,2.85-.44,5.77,1,7.19,3.68,.41,.77,.83,1.05,1.69,1.03,2.86-.05,5.72-.02,8.68-.02v-18.95h-4.66c0,2.11,0,4.22,0,6.33,0,2.32-.8,3.1-3.13,3.11-2.77,0-5.55,.02-8.32,0-1.93-.02-2.79-.89-2.81-2.83-.02-2.17,0-4.34,0-6.67-1.64,0-3.16-.08-4.67,.06-.4,.04-.82,.7-1.1,1.16-1.81,3-5.39,4.29-8.62,3.06-3.24-1.23-5.19-4.67-4.51-7.98,.72-3.5,3.72-5.95,7.23-5.8,2.68,.12,4.74,1.39,5.98,3.76,.42,.81,.89,1.06,1.71,.98,.39-.04,.79,0,1.19,0,8.21-.01,7.56-.72,7.54,7.47v1.94h0c.32,.04,.5,.09,.69,.09,.28,0,.57,0,.86,0h.87c.74,0,1.5,0,2.33,0,0-.87,0-1.73,0-2.58v-2.54c0-.42,0-.84,0-1.27,0-2.33,.79-3.11,3.12-3.12,2.07,0,4.14,0,6.3,0v-14.26c-3.12,0-6.17-.04-9.23,.05-.4,.01-.88,.63-1.14,1.08-1.68,2.83-4.89,4.2-8.01,3.36-3.08-.83-5.25-3.58-5.3-6.74-.05-3.23,2.08-6.11,5.18-6.98,3.12-.88,6.45,.4,8.01,3.27,.54,.99,1.12,1.25,2.18,1.22,2.72-.08,5.44-.02,8.4-.02-.27-4.08,.51-7.81,3.49-10.78,2.95-2.94,6.62-3.76,10.77-3.46,0-3.26,.04-6.36-.05-9.46,0-.35-.63-.77-1.05-1.01-3.09-1.79-4.43-5.41-3.18-8.7,1.2-3.18,4.58-5.13,7.83-4.53,3.55,.65,6.1,3.72,5.94,7.27-.12,2.68-1.4,4.74-3.77,5.98-.81,.42-.99,.9-.98,1.71,.04,2.86,.02,5.72,.02,8.65h18.91v-4.68c-2.12,0-4.23,0-6.34,0-2.24-.01-3.05-.81-3.06-3.03-.01-2.77-.02-5.55,0-8.32,.01-2.05,.85-2.89,2.88-2.91,2.13-.02,4.26,0,6.62,0,0-1.6,.07-3.16-.05-4.72-.03-.36-.65-.75-1.08-1-3.07-1.79-4.4-5.43-3.14-8.72,1.22-3.18,4.6-5.11,7.85-4.49Zm-5.95,142.58c-1.29,0-2.37,1.07-2.37,2.36,0,1.29,1.07,2.37,2.36,2.37,1.28,0,2.37-1.08,2.37-2.36,0-1.29-1.07-2.37-2.36-2.37Zm-19.09-14.27c-1.29,.04-2.34,1.14-2.31,2.43,.03,1.29,1.14,2.34,2.42,2.31,1.28-.04,2.34-1.14,2.31-2.43h0c-.04-1.29-1.14-2.34-2.43-2.31Zm42.88,0c-1.29-.02-2.38,1.04-2.4,2.33h0c-.02,1.29,1.04,2.38,2.33,2.4,1.28,.02,2.38-1.05,2.4-2.33,.02-1.29-1.04-2.38-2.33-2.4ZM50.47,42.82c-4.72,0-7.66,2.97-7.66,7.72,0,17.03,0,34.07,0,51.1,0,4.82,2.95,7.74,7.8,7.74,16.98,0,33.96,0,50.95,0,4.92,0,7.81-2.92,7.81-7.88,0-8.42,0-16.83,0-25.25s0-17.13,0-25.7c0-4.76-2.94-7.73-7.65-7.74-17.08,0-34.16,0-51.24,0Zm50.88,4.76c2.52,0,3.27,.74,3.27,3.27v50.52h0c0,2.52-.75,3.27-3.27,3.27H50.83c-2.52,0-3.27-.74-3.27-3.27V50.84h0c0-2.53,.74-3.27,3.27-3.27h50.52ZM21.43,95.13c-1.29-.01-2.37,1.05-2.39,2.34-.02,1.29,1.06,2.38,2.34,2.39,1.28,.02,2.37-1.06,2.39-2.34,.02-1.29-1.05-2.37-2.34-2.39Zm109.38,0c-1.28-.03-2.39,1.03-2.42,2.31-.03,1.28,1.03,2.39,2.31,2.42,1.28,.03,2.39-1.03,2.42-2.31,.03-1.28-1.03-2.39-2.31-2.42Zm-31.07-42.73H52.38v47.37h47.36V52.4Zm-21.15,11.81c.66,0,1.25-.01,1.84,0,1.72,.04,2.79,.98,2.77,2.41-.02,1.43-1.09,2.32-2.85,2.33-1.98,.02-3.96,0-5.94,0-1.98,0-3.1,.89-3.07,2.41,.02,1.51,1.12,2.33,3.14,2.34,1.24,0,2.47,0,3.71,0,3.96,.04,7.05,2.77,7.38,6.5,.33,3.81-2.3,7.05-6.27,7.72-.24,.04-.48,.06-.74,.08-.36,1.34-1.03,2.34-2.52,2.31-1.4-.03-2.1-.95-2.41-2.35-.58,0-1.16,0-1.75,0-1.85-.02-2.94-.93-2.91-2.42,.03-1.44,1.08-2.31,2.85-2.33,1.88-.02,3.76,0,5.64,0,2.25,0,3.39-.83,3.37-2.41-.03-1.58-1.14-2.34-3.44-2.34-1.14,0-2.27,0-3.41,0-3.95-.04-7.06-2.79-7.37-6.51-.32-3.82,2.31-7.06,6.27-7.72,.16-.03,.32-.04,.49-.06l.25-.02,.03-.13c.34-1.21,.97-2.12,2.33-2.18,1.56-.07,2.23,1.01,2.61,2.35Zm66.49,11.9c-1.28-.03-2.39,1.03-2.42,2.31-.03,1.28,1.03,2.39,2.31,2.42,1.28,.03,2.39-1.03,2.42-2.31,.03-1.28-1.03-2.39-2.31-2.42ZM7.2,71.36c-1.28-.03-2.39,1.02-2.42,2.31-.04,1.28,1.02,2.39,2.3,2.43,1.28,.04,2.39-1.02,2.43-2.31s-1.02-2.39-2.31-2.43Zm123.49-19.02c-1.29,.04-2.33,1.15-2.29,2.44,.04,1.29,1.16,2.34,2.43,2.29,1.28-.04,2.33-1.15,2.29-2.44-.04-1.29-1.16-2.33-2.43-2.29Zm-109.23,0c-1.28-.03-2.39,1.02-2.43,2.31-.04,1.28,1.02,2.39,2.31,2.43,1.28,.04,2.39-1.02,2.43-2.31s-1.02-2.39-2.31-2.43ZM97.47,19.05c-1.29,0-2.36,1.08-2.36,2.37,0,1.29,1.09,2.36,2.37,2.36,1.29,0,2.36-1.09,2.36-2.37,0-1.29-1.08-2.36-2.37-2.36Zm-42.77,0c-1.29,0-2.37,1.06-2.38,2.35,0,1.29,1.06,2.37,2.35,2.38,1.28,0,2.37-1.06,2.38-2.35s-1.06-2.37-2.35-2.38Zm23.77-14.27c-1.29,0-2.37,1.06-2.38,2.35,0,1.29,1.06,2.37,2.35,2.38,1.28,0,2.37-1.06,2.38-2.35s-1.06-2.37-2.35-2.38Z"/>
      <path id="path-l9_hjd4q6y-27-2" data-name="path-l9 hjd4q6y-27" class="cls-1" d="M79.67,.12c3.55,.67,6.08,3.74,5.91,7.3-.13,2.68-1.43,4.72-3.79,5.97-.72,.39-.98,.78-.96,1.58,.06,2.03,.04,4.06,.01,6.09-.02,1.85-.9,2.72-2.75,2.74-2.18,.02-4.35,0-6.64,0v4.76c2.1,0,4.21,0,6.32,0,2.24,0,3.06,.81,3.07,3.02,.01,2.12,0,4.23,0,6.42h14.25c0-3.15,.04-6.3-.05-9.44,0-.34-.68-.72-1.1-.97-2.66-1.56-4.09-4.68-3.43-7.6,.69-3.1,3.23-5.37,6.3-5.66,3.1-.29,6.03,1.48,7.25,4.37,1.41,3.36,.13,7.14-3.16,8.91-.84,.46-1.07,.93-1.06,1.82,.06,2.72,.03,5.45,.04,8.17,0,.09,.05,.19,.13,.49,3.92-.3,7.61,.49,10.56,3.4,2.97,2.93,3.84,6.59,3.53,10.73,.45,.04,.83,.11,1.2,.12,2.28,.01,4.56-.08,6.83,.04,1.33,.07,2.07-.3,2.77-1.52,1.59-2.76,4.97-3.89,8.01-2.94,2.94,.91,5,3.74,4.99,6.84-.02,3.16-2.16,5.96-5.21,6.81-3.03,.85-6.3-.3-7.82-3.06-.68-1.22-1.44-1.47-2.67-1.44-2.52,.08-5.05,.03-7.58,.04-.1,0-.19,.04-.39,.08v18.84h4.65v-5.82h0c0-2.96,.63-3.6,3.53-3.6h6.68c3.55,0,4.03,.43,4.05,3.94v5.56h0c1.6,0,3.11,.03,4.62-.03,.29-.01,.68-.34,.84-.62,1.54-2.86,3.91-4.37,7.15-4.03,3.22,.33,5.28,2.26,6.21,5.37,.02,.08,.13,.14,.2,.21v2.97c-.1,.16-.23,.31-.29,.49-1.02,3.02-3.11,4.84-6.27,5.11-3.11,.26-5.39-1.19-6.95-3.91-.22-.39-.87-.74-1.34-.76-1.93-.08-3.86-.03-5.79-.04-2.34,0-3.13-.79-3.14-3.1,0-2.11,0-4.22,0-6.29h-4.76c0,2.2,0,4.28,0,6.35-.01,2.22-.82,3.02-3.06,3.04-2.11,0-4.22,0-6.35,0v14.27c2.92,0,5.74-.04,8.55,.02,.91,.02,1.37-.25,1.82-1.07,2.13-3.86,7.04-4.89,10.45-2.26,2.36,1.82,3.35,4.7,2.58,7.53-.76,2.8-3.14,4.87-6.01,5.24-2.81,.36-5.59-1.1-7.08-3.68-.22-.39-.6-.97-.91-.98-3.14-.07-6.29-.04-9.56-.04,.36,4.23-.54,7.88-3.49,10.82-2.94,2.93-6.63,3.71-10.72,3.41,0,3.07,.03,5.93-.02,8.8-.02,.85,.26,1.27,1.03,1.68,2.67,1.41,4.12,4.35,3.68,7.19-.51,3.31-3.25,5.87-6.53,6.11-3.31,.24-6.42-1.9-7.36-5.07-.96-3.23,.41-6.53,3.38-8.26,.41-.24,1-.67,1.02-1.03,.08-3.1,.05-6.2,.05-9.28h-18.93v4.64c2.14,0,4.21,0,6.28,0,2.35,0,3.14,.79,3.15,3.09,0,2.48,0,4.95,0,7.43,0,3.16-.58,3.75-3.68,3.75h-5.82c0,1.43,.05,2.66-.02,3.88-.05,.89,.19,1.37,1.04,1.83,3.56,1.92,4.74,6.24,2.78,9.71-1.06,1.88-2.79,2.84-4.7,3.6h-2.97c-2.55-.96-4.61-2.44-5.37-5.24-.87-3.2,.46-6.47,3.46-8.07,.85-.45,1.07-.95,1.04-1.83-.06-1.93-.03-3.86-.01-5.8,.02-1.95,.87-2.82,2.8-2.84,2.17-.02,4.34,0,6.61,0v-4.76c-2.15,0-4.27,0-6.38,0-2.22-.01-3.02-.82-3.03-3.06,0-2.08,0-4.15,0-6.34h-14.26c0,3.1-.04,6.2,.05,9.3,.01,.38,.69,.82,1.15,1.1,2.99,1.79,4.3,5.39,3.08,8.62-1.22,3.24-4.66,5.2-7.96,4.53-3.5-.71-5.96-3.71-5.82-7.22,.1-2.68,1.39-4.74,3.75-5.99,.79-.42,1.02-.87,1-1.7-.04-2.86-.02-5.72-.02-8.77-4.11,.3-7.79-.5-10.74-3.43-2.96-2.94-3.8-6.6-3.49-10.79-3.27,0-6.42-.03-9.57,.04-.31,0-.67,.61-.89,1-1.71,2.97-5.03,4.34-8.26,3.39-3.17-.94-5.3-4.03-5.07-7.36,.23-3.28,2.8-6.03,6.11-6.53,2.85-.44,5.77,1,7.19,3.68,.41,.77,.83,1.05,1.69,1.03,2.86-.05,5.72-.02,8.68-.02v-18.95h-4.66c0,2.11,0,4.22,0,6.33,0,2.32-.8,3.1-3.13,3.11-2.77,0-5.55,.02-8.32,0-1.93-.02-2.79-.89-2.81-2.83-.02-2.17,0-4.34,0-6.67-1.64,0-3.16-.08-4.67,.06-.4,.04-.82,.7-1.1,1.16-1.81,3-5.39,4.29-8.62,3.06-3.24-1.23-5.19-4.67-4.51-7.98,.72-3.5,3.72-5.95,7.23-5.8,2.68,.12,4.74,1.39,5.98,3.76,.42,.81,.89,1.06,1.71,.98,.39-.04,.79,0,1.19,0,8.21-.01,7.56-.72,7.54,7.47v1.94h0c.32,.04,.5,.09,.69,.09,.28,0,.57,0,.86,0h.87c.74,0,1.5,0,2.33,0,0-.87,0-1.73,0-2.58v-2.54c0-.42,0-.84,0-1.27,0-2.33,.79-3.11,3.12-3.12,2.07,0,4.14,0,6.3,0v-14.26c-3.12,0-6.17-.04-9.23,.05-.4,.01-.88,.63-1.14,1.08-1.68,2.83-4.89,4.2-8.01,3.36-3.08-.83-5.25-3.58-5.3-6.74-.05-3.23,2.08-6.11,5.18-6.98,3.12-.88,6.45,.4,8.01,3.27,.54,.99,1.12,1.25,2.18,1.22,2.72-.08,5.44-.02,8.4-.02-.27-4.08,.51-7.81,3.49-10.78,2.95-2.94,6.62-3.76,10.77-3.46,0-3.26,.04-6.36-.05-9.46,0-.35-.63-.77-1.05-1.01-3.09-1.79-4.43-5.41-3.18-8.7,1.2-3.18,4.58-5.13,7.83-4.53,3.55,.65,6.1,3.72,5.94,7.27-.12,2.68-1.4,4.74-3.77,5.98-.81,.42-.99,.9-.98,1.71,.04,2.86,.02,5.72,.02,8.65h18.91v-4.68c-2.12,0-4.23,0-6.34,0-2.24-.01-3.05-.81-3.06-3.03-.01-2.77-.02-5.55,0-8.32,.01-2.05,.85-2.89,2.88-2.91,2.13-.02,4.26,0,6.62,0,0-1.6,.07-3.16-.05-4.72-.03-.36-.65-.75-1.08-1-3.07-1.79-4.4-5.43-3.14-8.72,1.22-3.18,4.6-5.11,7.85-4.49Zm-5.95,142.58c-1.29,0-2.37,1.07-2.37,2.36,0,1.29,1.07,2.37,2.36,2.37,1.28,0,2.37-1.08,2.37-2.36,0-1.29-1.07-2.37-2.36-2.37Zm-19.09-14.27c-1.29,.04-2.34,1.14-2.31,2.43,.03,1.29,1.14,2.34,2.42,2.31,1.28-.04,2.34-1.14,2.31-2.43h0c-.04-1.29-1.14-2.34-2.43-2.31Zm42.88,0c-1.29-.02-2.38,1.04-2.4,2.33h0c-.02,1.29,1.04,2.38,2.33,2.4,1.28,.02,2.38-1.05,2.4-2.33,.02-1.29-1.04-2.38-2.33-2.4ZM50.47,42.82c-4.72,0-7.66,2.97-7.66,7.72,0,17.03,0,34.07,0,51.1,0,4.82,2.95,7.74,7.8,7.74,16.98,0,33.96,0,50.95,0,4.92,0,7.81-2.92,7.81-7.88,0-8.42,0-16.83,0-25.25s0-17.13,0-25.7c0-4.76-2.94-7.73-7.65-7.74-17.08,0-34.16,0-51.24,0Zm50.88,4.76c2.52,0,3.27,.74,3.27,3.27v50.52h0c0,2.52-.75,3.27-3.27,3.27H50.83c-2.52,0-3.27-.74-3.27-3.27V50.84h0c0-2.53,.74-3.27,3.27-3.27h50.52ZM21.43,95.13c-1.29-.01-2.37,1.05-2.39,2.34-.02,1.29,1.06,2.38,2.34,2.39,1.28,.02,2.37-1.06,2.39-2.34,.02-1.29-1.05-2.37-2.34-2.39Zm109.38,0c-1.28-.03-2.39,1.03-2.42,2.31-.03,1.28,1.03,2.39,2.31,2.42,1.28,.03,2.39-1.03,2.42-2.31,.03-1.28-1.03-2.39-2.31-2.42Zm-31.07-42.73H52.38v47.37h47.36V52.4Zm-21.15,11.81c.66,0,1.25-.01,1.84,0,1.72,.04,2.79,.98,2.77,2.41-.02,1.43-1.09,2.32-2.85,2.33-1.98,.02-3.96,0-5.94,0-1.98,0-3.1,.89-3.07,2.41,.02,1.51,1.12,2.33,3.14,2.34,1.24,0,2.47,0,3.71,0,3.96,.04,7.05,2.77,7.38,6.5,.33,3.81-2.3,7.05-6.27,7.72-.24,.04-.48,.06-.74,.08-.36,1.34-1.03,2.34-2.52,2.31-1.4-.03-2.1-.95-2.41-2.35-.58,0-1.16,0-1.75,0-1.85-.02-2.94-.93-2.91-2.42,.03-1.44,1.08-2.31,2.85-2.33,1.88-.02,3.76,0,5.64,0,2.25,0,3.39-.83,3.37-2.41-.03-1.58-1.14-2.34-3.44-2.34-1.14,0-2.27,0-3.41,0-3.95-.04-7.06-2.79-7.37-6.51-.32-3.82,2.31-7.06,6.27-7.72,.16-.03,.32-.04,.49-.06l.25-.02,.03-.13c.34-1.21,.97-2.12,2.33-2.18,1.56-.07,2.23,1.01,2.61,2.35Zm66.49,11.9c-1.28-.03-2.39,1.03-2.42,2.31-.03,1.28,1.03,2.39,2.31,2.42,1.28,.03,2.39-1.03,2.42-2.31,.03-1.28-1.03-2.39-2.31-2.42ZM7.2,71.36c-1.28-.03-2.39,1.02-2.42,2.31-.04,1.28,1.02,2.39,2.3,2.43,1.28,.04,2.39-1.02,2.43-2.31s-1.02-2.39-2.31-2.43Zm123.49-19.02c-1.29,.04-2.33,1.15-2.29,2.44,.04,1.29,1.16,2.34,2.43,2.29,1.28-.04,2.33-1.15,2.29-2.44-.04-1.29-1.16-2.33-2.43-2.29Zm-109.23,0c-1.28-.03-2.39,1.02-2.43,2.31-.04,1.28,1.02,2.39,2.31,2.43,1.28,.04,2.39-1.02,2.43-2.31s-1.02-2.39-2.31-2.43ZM97.47,19.05c-1.29,0-2.36,1.08-2.36,2.37,0,1.29,1.09,2.36,2.37,2.36,1.29,0,2.36-1.09,2.36-2.37,0-1.29-1.08-2.36-2.37-2.36Zm-42.77,0c-1.29,0-2.37,1.06-2.38,2.35,0,1.29,1.06,2.37,2.35,2.38,1.28,0,2.37-1.06,2.38-2.35s-1.06-2.37-2.35-2.38Zm23.77-14.27c-1.29,0-2.37,1.06-2.38,2.35,0,1.29,1.06,2.37,2.35,2.38,1.28,0,2.37-1.06,2.38-2.35s-1.06-2.37-2.35-2.38Z"/>
    </g>
  </g>
</svg>