<?xml version="1.0" encoding="UTF-8"?>
<svg id="Layer_2" data-name="Layer 2" xmlns="http://www.w3.org/2000/svg" xmlns:xlink="http://www.w3.org/1999/xlink" viewBox="0 0 152.15 124.3">
  <defs>
    <style>
      .cls-1 {
        fill: url(#linear-gradient);
      }
    </style>
    <linearGradient id="linear-gradient" x1="-490.97" y1="-879.27" x2="-490.97" y2="-879.95" gradientTransform="translate(109562.72 -160190.24) scale(223 -182.19)" gradientUnits="userSpaceOnUse">
      <stop offset="0" stop-color="#ef4044"/>
      <stop offset="1" stop-color="#1c1d1d"/>
    </linearGradient>
  </defs>
  <g id="Layer_1-2" data-name="Layer 1">
    <g id="HigherEd">
      <path id="path-l9_hjd4q6y-29" data-name="path-l9 hjd4q6y-29" d="M85.08,1.95c20.13,8.64,40.26,17.3,60.42,25.87,3.52,1.5,5.68,3.96,6.64,7.58v3.27c-1.08,4.22-4,6.51-7.92,8.09-7.02,2.82-13.92,5.94-20.9,8.87-1,.42-1.28,.95-1.27,1.98,.05,4.81-.1,9.61,.05,14.41,.22,7.28-3.06,12.74-8.57,17.07-6.62,5.19-14.31,7.99-22.48,9.48-14.73,2.67-29.19,1.87-43.13-3.98-5.21-2.18-9.9-5.18-13.57-9.6-2.86-3.45-4.33-7.39-4.34-11.87,0-5.2-.03-10.4,.03-15.61,.01-1.01-.32-1.48-1.23-1.86-3.39-1.39-6.74-2.86-10.11-4.29-.3-.13-.63-.21-1.14-.38v1.59h0c0,9.81,.02,19.62-.02,29.43,0,1.08,.22,1.73,1.28,2.31,3.89,2.13,4.63,6.53,1.88,10.91,1.94,1.92,2.26,4.32,2.41,6.77l.03,.48c0,.16,.02,.32,.03,.48l.03,.48c.03,.55,.07,1.11,.14,1.65,.51,4.43,.84,8.87,1.23,13.31,.33,3.83-1.57,5.89-5.42,5.9-2.72,0-5.45,.02-8.17,0-3.3-.04-5.26-2.33-4.94-5.63,.57-6.01,1.01-12.04,1.7-18.04,.18-1.6,1.1-3.11,1.6-4.68,.15-.46,.25-1.13,.04-1.5-2.29-3.97-1.17-8.13,2.82-10.41,.4-.23,.8-.86,.8-1.31,.05-10.95,.05-21.9,0-32.84,0-.46-.51-1.12-.96-1.34-1.07-.51-2.16-.98-3.25-1.44l-1.64-.69c-.27-.11-.55-.23-.82-.35C2.35,44.35,.02,41.42,0,37.04c-.02-4.38,2.27-7.34,6.26-9.05C26.57,19.28,46.89,10.56,67.21,1.87c5.95-2.54,11.92-2.48,17.87,.07ZM14.31,97.81c-1.6,.58-1.99,1.92-2.12,3.42-.39,4.28-.78,8.56-1.16,12.84-.16,1.85-.29,3.7-.44,5.71h9.52c-.19-2.18-.35-4.09-.53-6-.4-4.38-.77-8.76-1.21-13.13-.22-2.26-2.11-3.54-4.06-2.83ZM117.33,58.26c-.63,.26-1.13,.45-1.62,.67l-4.29,1.83h0l-8.58,3.66c-5.72,2.44-11.43,4.89-17.12,7.38-6.51,2.86-12.88,2.84-19.38-.02-9.96-4.37-19.99-8.59-29.99-12.87-.51-.22-1.04-.38-1.72-.63,0,1.5,.07,2.79-.01,4.06-.34,5.18,1.86,9.19,5.64,12.5,4.84,4.24,10.58,6.71,16.69,8.4,9.18,2.55,18.53,2.95,27.97,2,1.86-.19,2.95,.53,3.07,1.97,.13,1.47-.8,2.37-2.62,2.56-9.94,1.03-19.78,.56-29.45-2.09-6.94-1.9-13.43-4.75-18.88-9.59-.63-.56-1.23-1.16-1.84-1.74-.15,.11-.31,.21-.46,.32,.92,1.66,1.67,3.44,2.8,4.94,3.14,4.21,7.54,6.78,12.26,8.84,6.65,2.89,13.65,4.32,20.86,4.79,10.97,.73,21.65-.49,31.82-4.86,4.73-2.03,9.06-4.69,12.23-8.89,1.15-1.52,2.09-3.16,2.44-5.43-.47,.43-.7,.61-.89,.82-2.77,2.9-6.08,5.04-9.62,6.86-1.47,.76-2.74,.48-3.38-.68-.66-1.19-.19-2.5,1.25-3.33,.73-.42,1.48-.8,2.21-1.21,8.56-4.78,11.9-11.08,10.61-20.26h0ZM15.29,87.92c-1.39,.02-2.55,1.19-2.53,2.56,.02,1.34,1.25,2.55,2.58,2.53,1.37-.02,2.5-1.19,2.49-2.59-.01-1.42-1.12-2.52-2.55-2.5Zm84.86-2.87h0c0,.92-.67,1.66-1.75,1.99-1.51,.46-3.03,.89-4.56,1.24-1.45,.33-2.63-.34-2.92-1.55-.31-1.29,.32-2.38,1.75-2.82,1.51-.46,3.03-.9,4.57-1.22,1.65-.34,2.88,.6,2.93,2.37ZM68.5,6.26C48.97,14.67,29.42,23.02,9.88,31.4c-1,.43-2.02,.83-2.95,1.39-3.19,1.93-3.27,6.54-.04,8.36,2.32,1.3,4.84,2.22,7.3,3.27,.32,.14,.76,.03,1.14-.03,5.85-1,11.7-2.01,17.55-3.03,10.04-1.75,20.08-3.49,30.11-5.26,.48-.08,1.18-.31,1.34-.66,1.27-2.88,3.73-4.17,6.55-4.85,5.13-1.24,10.16-1.15,14.65,2.03,3.38,2.39,3.3,6.36-.03,8.84-2.74,2.04-5.94,2.64-9.25,2.64-3.56,0-7.06-.5-9.91-2.88-.84-.7-1.56-.8-2.54-.63-9.99,1.76-19.98,3.49-29.97,5.23-3.69,.64-7.38,1.29-11.07,1.93-.02,.1-.04,.21-.06,.3,.44,.21,.88,.43,1.32,.62,14.77,6.33,29.56,12.62,44.3,19,5.22,2.26,10.3,2.24,15.51-.02,11.74-5.11,23.53-10.11,35.3-15.15,8.23-3.52,16.45-7.06,24.68-10.57,1.76-.75,3.19-1.8,3.59-3.82,.56-2.78-.63-4.74-3.72-6.07-20.04-8.6-40.09-17.17-60.11-25.8-5.07-2.18-10.03-2.17-15.09,.02Zm.17,30.75c2.13,3.43,12.76,3.37,14.76-.01-2.05-3.41-12.78-3.38-14.76,.01Z"/>
      <path id="path-l9_hjd4q6y-29-2" data-name="path-l9 hjd4q6y-29" class="cls-1" d="M85.08,1.95c20.13,8.64,40.26,17.3,60.42,25.87,3.52,1.5,5.68,3.96,6.64,7.58v3.27c-1.08,4.22-4,6.51-7.92,8.09-7.02,2.82-13.92,5.94-20.9,8.87-1,.42-1.28,.95-1.27,1.98,.05,4.81-.1,9.61,.05,14.41,.22,7.28-3.06,12.74-8.57,17.07-6.62,5.19-14.31,7.99-22.48,9.48-14.73,2.67-29.19,1.87-43.13-3.98-5.21-2.18-9.9-5.18-13.57-9.6-2.86-3.45-4.33-7.39-4.34-11.87,0-5.2-.03-10.4,.03-15.61,.01-1.01-.32-1.48-1.23-1.86-3.39-1.39-6.74-2.86-10.11-4.29-.3-.13-.63-.21-1.14-.38v1.59h0c0,9.81,.02,19.62-.02,29.43,0,1.08,.22,1.73,1.28,2.31,3.89,2.13,4.63,6.53,1.88,10.91,1.94,1.92,2.26,4.32,2.41,6.77l.03,.48c0,.16,.02,.32,.03,.48l.03,.48c.03,.55,.07,1.11,.14,1.65,.51,4.43,.84,8.87,1.23,13.31,.33,3.83-1.57,5.89-5.42,5.9-2.72,0-5.45,.02-8.17,0-3.3-.04-5.26-2.33-4.94-5.63,.57-6.01,1.01-12.04,1.7-18.04,.18-1.6,1.1-3.11,1.6-4.68,.15-.46,.25-1.13,.04-1.5-2.29-3.97-1.17-8.13,2.82-10.41,.4-.23,.8-.86,.8-1.31,.05-10.95,.05-21.9,0-32.84,0-.46-.51-1.12-.96-1.34-1.07-.51-2.16-.98-3.25-1.44l-1.64-.69c-.27-.11-.55-.23-.82-.35C2.35,44.35,.02,41.42,0,37.04c-.02-4.38,2.27-7.34,6.26-9.05C26.57,19.28,46.89,10.56,67.21,1.87c5.95-2.54,11.92-2.48,17.87,.07ZM14.31,97.81c-1.6,.58-1.99,1.92-2.12,3.42-.39,4.28-.78,8.56-1.16,12.84-.16,1.85-.29,3.7-.44,5.71h9.52c-.19-2.18-.35-4.09-.53-6-.4-4.38-.77-8.76-1.21-13.13-.22-2.26-2.11-3.54-4.06-2.83ZM117.33,58.26c-.63,.26-1.13,.45-1.62,.67l-4.29,1.83h0l-8.58,3.66c-5.72,2.44-11.43,4.89-17.12,7.38-6.51,2.86-12.88,2.84-19.38-.02-9.96-4.37-19.99-8.59-29.99-12.87-.51-.22-1.04-.38-1.72-.63,0,1.5,.07,2.79-.01,4.06-.34,5.18,1.86,9.19,5.64,12.5,4.84,4.24,10.58,6.71,16.69,8.4,9.18,2.55,18.53,2.95,27.97,2,1.86-.19,2.95,.53,3.07,1.97,.13,1.47-.8,2.37-2.62,2.56-9.94,1.03-19.78,.56-29.45-2.09-6.94-1.9-13.43-4.75-18.88-9.59-.63-.56-1.23-1.16-1.84-1.74-.15,.11-.31,.21-.46,.32,.92,1.66,1.67,3.44,2.8,4.94,3.14,4.21,7.54,6.78,12.26,8.84,6.65,2.89,13.65,4.32,20.86,4.79,10.97,.73,21.65-.49,31.82-4.86,4.73-2.03,9.06-4.69,12.23-8.89,1.15-1.52,2.09-3.16,2.44-5.43-.47,.43-.7,.61-.89,.82-2.77,2.9-6.08,5.04-9.62,6.86-1.47,.76-2.74,.48-3.38-.68-.66-1.19-.19-2.5,1.25-3.33,.73-.42,1.48-.8,2.21-1.21,8.56-4.78,11.9-11.08,10.61-20.26h0ZM15.29,87.92c-1.39,.02-2.55,1.19-2.53,2.56,.02,1.34,1.25,2.55,2.58,2.53,1.37-.02,2.5-1.19,2.49-2.59-.01-1.42-1.12-2.52-2.55-2.5Zm84.86-2.87h0c0,.92-.67,1.66-1.75,1.99-1.51,.46-3.03,.89-4.56,1.24-1.45,.33-2.63-.34-2.92-1.55-.31-1.29,.32-2.38,1.75-2.82,1.51-.46,3.03-.9,4.57-1.22,1.65-.34,2.88,.6,2.93,2.37ZM68.5,6.26C48.97,14.67,29.42,23.02,9.88,31.4c-1,.43-2.02,.83-2.95,1.39-3.19,1.93-3.27,6.54-.04,8.36,2.32,1.3,4.84,2.22,7.3,3.27,.32,.14,.76,.03,1.14-.03,5.85-1,11.7-2.01,17.55-3.03,10.04-1.75,20.08-3.49,30.11-5.26,.48-.08,1.18-.31,1.34-.66,1.27-2.88,3.73-4.17,6.55-4.85,5.13-1.24,10.16-1.15,14.65,2.03,3.38,2.39,3.3,6.36-.03,8.84-2.74,2.04-5.94,2.64-9.25,2.64-3.56,0-7.06-.5-9.91-2.88-.84-.7-1.56-.8-2.54-.63-9.99,1.76-19.98,3.49-29.97,5.23-3.69,.64-7.38,1.29-11.07,1.93-.02,.1-.04,.21-.06,.3,.44,.21,.88,.43,1.32,.62,14.77,6.33,29.56,12.62,44.3,19,5.22,2.26,10.3,2.24,15.51-.02,11.74-5.11,23.53-10.11,35.3-15.15,8.23-3.52,16.45-7.06,24.68-10.57,1.76-.75,3.19-1.8,3.59-3.82,.56-2.78-.63-4.74-3.72-6.07-20.04-8.6-40.09-17.17-60.11-25.8-5.07-2.18-10.03-2.17-15.09,.02Zm.17,30.75c2.13,3.43,12.76,3.37,14.76-.01-2.05-3.41-12.78-3.38-14.76,.01Z"/>
    </g>
  </g>
</svg>