<?xml version="1.0" encoding="UTF-8"?>
<svg id="Layer_2" data-name="Layer 2" xmlns="http://www.w3.org/2000/svg" xmlns:xlink="http://www.w3.org/1999/xlink" viewBox="0 0 119.18 152.15">
  <defs>
    <style>
      .cls-1 {
        fill: url(#linear-gradient);
      }
    </style>
    <linearGradient id="linear-gradient" x1="-605.2" y1="353.03" x2="-605.2" y2="352.34" gradientTransform="translate(105777.71 78724.81) scale(174.68 -223)" gradientUnits="userSpaceOnUse">
      <stop offset="0" stop-color="#ef4044"/>
      <stop offset="1" stop-color="#1c1d1d"/>
    </linearGradient>
  </defs>
  <g id="Layer_1-2" data-name="Layer 1">
    <path id="Combined-Shape" class="cls-1" d="M83.68,0c4.19,0,7.61,3.41,7.61,7.61h0v5.07c0,4.19-3.41,7.61-7.61,7.61h-2.61c-.81,17.34-9.87,33.09-24.62,42.48h0l-.99,.62,.98,.62c8.9,5.68,15.97,14.02,20.18,23.64,3.04-.93,6.26-1.44,9.6-1.44,18.18,0,32.96,14.79,32.96,32.96s-14.79,32.96-32.96,32.96c-15.56,0-28.6-10.84-32.04-25.36H7.61c-4.19,0-7.61-3.41-7.61-7.61H0v-5.07c0-4.19,3.41-7.61,7.61-7.61h2.61c.81-17.34,9.87-33.08,24.63-42.47h0l1-.64-1-.64c-14.75-9.39-23.82-25.13-24.63-42.47h-2.61c-4.19,0-7.61-3.41-7.61-7.61H0V7.61C0,3.41,3.41,0,7.61,0H83.68Zm2.54,91.29c-15.38,0-27.89,12.51-27.89,27.89s12.51,27.89,27.89,27.89,27.89-12.51,27.89-27.89-12.51-27.89-27.89-27.89Zm7.61,7.61c1.4,0,2.54,1.13,2.54,2.54h0v20.29h5.07c1.02,0,1.95,.62,2.34,1.56,.39,.95,.17,2.04-.55,2.76h0l-15.21,15.21c-.49,.49-1.14,.74-1.79,.74s-1.3-.25-1.79-.74h0l-15.21-15.21c-.73-.73-.94-1.82-.55-2.76,.39-.95,1.32-1.56,2.34-1.56h5.07v-20.29c0-1.4,1.14-2.54,2.54-2.54h15.21Zm-2.54,5.07h-10.14v20.29c0,1.4-1.14,2.54-2.54,2.54h-1.49l9.09,9.09,9.09-9.09h-1.49c-1.4,0-2.54-1.13-2.54-2.54h0v-20.29Zm-37.12,7.61H7.61c-1.4,0-2.54,1.14-2.54,2.54h0v5.07c0,1.4,1.14,2.54,2.54,2.54H53.38c-.07-.84-.13-1.68-.13-2.54,0-2.62,.34-5.16,.92-7.61h0Zm-5.79-71.91c-10.3-5.69-20.09-10.49-29.53-3.49,3.72,9.04,10.16,16.86,18.72,22.3h0l4.36,2.78c.73,.47,1.17,1.27,1.17,2.14s-.44,1.67-1.17,2.14h0l-4.36,2.78c-13.28,8.45-21.47,22.59-22.28,38.19H55.8c3.11-7.44,8.89-13.47,16.11-16.97-3.82-8.64-10.19-16.13-18.19-21.23h0l-4.36-2.76c-.74-.47-1.18-1.27-1.18-2.14s.44-1.68,1.18-2.14h0l4.36-2.76c4.71-3,8.76-6.72,12.09-10.96-5.08-1.04-10.32-3.92-15.8-6.96h0l-.65-.36c-.11-.06-.22-.12-.33-.18l-.65-.36Zm27.61-19.37H15.3c.2,3.74,.82,7.39,1.83,10.91,12.17-7.92,24.94-.85,35.35,4.94,6.03,3.35,11.75,6.53,16.58,6.71,4.09-6.73,6.51-14.44,6.93-22.56h0Zm7.69-15.21H7.61c-1.4,0-2.54,1.14-2.54,2.54h0v5.07c0,1.4,1.14,2.54,2.54,2.54H83.68c1.4,0,2.54-1.14,2.54-2.54h0V7.61c0-1.4-1.14-2.54-2.54-2.54h0Z"/>
  </g>
</svg>