<?xml version="1.0" encoding="UTF-8"?>
<svg id="Layer_2" data-name="Layer 2" xmlns="http://www.w3.org/2000/svg" viewBox="0 0 373.64 204.02">
  <defs>
    <style>
      .cls-1, .cls-2 {
        fill: #2d2d2d;
      }

      .cls-2, .cls-3 {
        stroke: #2d2d2d;
        stroke-miterlimit: 10;
      }

      .cls-3 {
        fill: none;
        stroke-width: 18px;
      }
    </style>
  </defs>
  <g id="Layer_1-2" data-name="Layer 1">
    <g>
      <g>
        <g>
          <polyline class="cls-3" points="9.17 89.55 9.17 36.35 70.76 9.8 132.24 36.35"/>
          <rect class="cls-2" x="118.19" y="28.54" width="17.31" height="33.86"/>
          <rect class="cls-2" x=".5" y="30.87" width="19.1" height="96.52"/>
          <rect class="cls-2" x="12.23" y="107.8" width="27.52" height="19.56"/>
        </g>
        <g>
          <path class="cls-1" d="M67.86,50.64c0,5.16-3.87,9.35-10,9.35s-9.78-4.08-9.67-9.35c0-5.37,3.87-9.35,9.89-9.35,6.02,0,9.78,3.98,9.78,9.35Zm-19.24,76.74v-60.08h18.7v60.08h-18.7Z"/>
          <path class="cls-1" d="M82.26,86.44c0-7.52-.21-13.76-.54-19.24h16.23l.86,8.28h.43c2.47-3.87,8.49-9.67,18.59-9.67,12.25,0,21.5,8.17,21.5,25.9v35.58h-18.7v-33.32c0-7.74-2.79-13.01-9.46-13.01-5.16,0-8.17,3.55-9.46,7.09-.43,1.18-.64,2.9-.64,4.62v34.61h-18.81v-40.84Z"/>
          <path class="cls-1" d="M154.17,111.05c3.44,2.04,10.53,4.51,16.01,4.51s8.06-1.93,8.06-4.94-1.93-4.62-8.81-6.99c-12.47-4.08-17.2-10.86-17.09-17.95,0-11.29,9.57-19.78,24.4-19.78,6.99,0,13.22,1.61,16.87,3.55l-3.22,12.9c-2.69-1.4-7.95-3.44-13.01-3.44-4.51,0-7.2,1.83-7.2,4.84s2.36,4.41,9.78,6.99c11.39,3.87,16.12,9.78,16.23,18.49,0,11.18-8.71,19.45-25.9,19.45-7.85,0-14.83-1.72-19.45-4.19l3.33-13.44Z"/>
          <path class="cls-1" d="M226.72,50.64c0,5.16-3.87,9.35-10,9.35s-9.78-4.08-9.67-9.35c0-5.37,3.87-9.35,9.89-9.35,5.91,0,9.67,3.98,9.78,9.35Zm-19.24,76.74v-60.08h18.7v60.08h-18.7Z"/>
          <path class="cls-1" d="M299.27,40.22V109.44c0,6.77,.21,13.97,.54,17.95h-16.55l-.75-8.81h-.21c-3.76,6.77-11.07,10.1-18.81,10.1-14.19,0-25.69-12.15-25.69-30.85-.21-20.1,12.47-31.92,26.76-31.92,7.42,0,13.11,2.69,15.8,6.77h.21V40.22h18.7Zm-18.7,52.56c0-1.07,0-2.36-.21-3.33-1.07-5.05-5.16-9.14-10.86-9.14-8.6,0-12.9,7.63-12.9,17.09,0,10.1,4.94,16.44,12.79,16.44,5.27,0,9.67-3.65,10.86-8.92,.32-1.29,.43-2.69,.43-4.19v-7.95h-.11Z"/>
          <path class="cls-1" d="M328.61,103.31c.54,7.74,8.17,11.39,16.98,11.39,6.34,0,11.5-.86,16.55-2.58l2.47,12.68c-6.23,2.58-13.76,3.76-21.71,3.76-20.31,0-32.03-11.82-32.03-30.52,0-15.26,9.57-32.14,30.31-32.14,19.45,0,26.87,15.15,26.87,29.99,0,3.22-.32,6.02-.64,7.42h-38.8Zm21.93-12.79c0-4.51-1.93-12.15-10.43-12.15-7.85,0-11.07,7.2-11.61,12.15h22.03Z"/>
        </g>
      </g>
      <g>
        <path class="cls-1" d="M4.87,173.82c0-3.76-.21-7.85-.43-11.39h4.41l.21,7.74h.21c1.83-4.73,6.66-8.6,12.9-8.6,.54,0,1.18,0,1.72,.11v3.87c-.54-.11-1.18-.11-1.93-.11-6.56,0-11.07,4.94-12.15,11.07-.21,1.18-.32,2.47-.32,3.76v22.89H4.87v-29.34Z"/>
        <path class="cls-1" d="M33.79,182.1c0,13.97,8.06,18.49,16.77,18.49,5.91,0,9.35-1.07,11.72-2.15l1.18,3.12c-2.04,.97-6.66,2.47-13.54,2.47-13.11,0-20.85-8.49-20.85-20.53,0-13.44,8.28-21.82,19.78-21.82,14.19,0,17.09,11.72,17.09,18.06,0,1.07,0,1.72-.11,2.47H33.79v-.11Zm27.19-3.12c.11-6.99-3.33-14.08-12.79-14.08s-13.44,7.63-14.19,14.08h26.98Z"/>
        <path class="cls-1" d="M101.5,203.16l-.64-5.48h-.21c-2.26,3.12-6.99,6.34-13.65,6.34-8.71,0-13.33-5.27-13.33-11.18,0-9.57,9.67-14.83,26.98-14.83v-1.18c0-4.94-1.07-11.93-11.29-11.93-3.76,0-7.63,.86-10.75,2.69l-1.61-2.79c3.65-2.15,8.6-3.22,12.79-3.22,11.93,0,15.37,7.2,15.37,15.15v16.87c0,3.12,.11,6.56,.64,9.57h-4.3Zm-1.07-21.82c-8.6-.21-21.93,.86-21.93,10.96,0,5.91,4.3,8.38,8.92,8.38,6.99,0,11.18-3.76,12.68-8.06,.32-.86,.43-1.83,.43-2.47v-8.81h-.11Z"/>
        <path class="cls-1" d="M119.88,143.4h4.73v59.76h-4.73v-59.76Z"/>
        <path class="cls-1" d="M161.8,182.1c0,13.97,8.06,18.49,16.77,18.49,5.91,0,9.35-1.07,11.72-2.15l1.18,3.12c-2.04,.97-6.66,2.47-13.54,2.47-13.11,0-20.85-8.49-20.85-20.53,0-13.44,8.28-21.82,19.78-21.82,14.19,0,17.09,11.72,17.09,18.06,0,1.07,0,1.72-.11,2.47h-32.03v-.11Zm27.19-3.12c.11-6.99-3.33-14.08-12.79-14.08s-13.44,7.63-14.19,14.08h26.98Z"/>
        <path class="cls-1" d="M203.39,198c2.36,1.29,5.91,2.58,9.89,2.58,6.88,0,10.53-3.33,10.53-7.63s-2.69-6.77-9.24-9.24c-7.2-2.79-11.72-6.23-11.72-11.29,0-6.02,5.59-10.86,14.19-10.86,4.3,0,7.74,1.18,10,2.47l-1.93,3.22c-1.72-1.07-4.51-2.26-8.71-2.26-5.8,0-8.81,3.22-8.81,6.77,0,3.98,2.79,5.8,9.03,8.28,6.99,2.69,11.93,6.02,11.93,12.25,0,7.31-6.45,11.72-15.58,11.72-4.3,0-8.49-1.07-11.39-2.69l1.83-3.33Z"/>
        <path class="cls-1" d="M246.71,150.93v11.5h12.58v3.22h-12.58v26.87c0,5.37,2.04,8.06,6.56,8.06,2.15,0,3.65-.21,4.84-.54l.54,3.01c-1.4,.54-3.33,.86-6.02,.86-3.33,0-6.13-.86-7.85-2.69-2.04-2.04-2.69-5.16-2.69-9.57v-25.9h-7.63v-3.22h7.63v-10.1l4.62-1.5Z"/>
        <path class="cls-1" d="M293.14,203.16l-.64-5.48h-.21c-2.26,3.12-6.99,6.34-13.65,6.34-8.71,0-13.33-5.27-13.33-11.18,0-9.57,9.67-14.83,26.98-14.83v-1.18c0-4.94-1.07-11.93-11.29-11.93-3.76,0-7.63,.86-10.75,2.69l-1.4-2.9c3.65-2.15,8.6-3.22,12.79-3.22,11.93,0,15.37,7.2,15.37,15.15v16.87c0,3.12,.11,6.56,.64,9.57h-4.51v.11Zm-1.07-21.82c-8.6-.21-21.93,.86-21.93,10.96,0,5.91,4.3,8.38,8.92,8.38,6.99,0,11.18-3.76,12.68-8.06,.32-.86,.43-1.83,.43-2.47v-8.81h-.11Z"/>
        <path class="cls-1" d="M317.97,150.93v11.5h12.58v3.22h-12.58v26.87c0,5.37,2.04,8.06,6.56,8.06,2.15,0,3.65-.21,4.84-.54l.54,3.01c-1.4,.54-3.33,.86-6.02,.86-3.33,0-6.13-.86-7.85-2.69-2.04-2.04-2.69-5.16-2.69-9.57v-25.9h-7.63v-3.22h7.63v-10.1l4.62-1.5Z"/>
        <path class="cls-1" d="M341.51,182.1c0,13.97,8.06,18.49,16.77,18.49,5.91,0,9.35-1.07,11.72-2.15l1.18,3.12c-2.04,.97-6.66,2.47-13.54,2.47-13.11,0-20.85-8.49-20.85-20.53,0-13.44,8.28-21.82,19.78-21.82,14.19,0,17.09,11.72,17.09,18.06,0,1.07,0,1.72-.11,2.47h-32.03v-.11Zm27.19-3.12c.11-6.99-3.33-14.08-12.79-14.08s-13.44,7.63-14.19,14.08h26.98Z"/>
      </g>
    </g>
  </g>
</svg>