<?xml version="1.0" encoding="UTF-8"?>
<svg id="Layer_2" data-name="Layer 2" xmlns="http://www.w3.org/2000/svg" viewBox="0 0 125.04 125.04">
  <defs>
    <style>
      .cls-1 {
        fill: #4d4d4e;
      }
    </style>
  </defs>
  <g id="Layer_1-2" data-name="Layer 1">
    <g id="Javascript-Logo">
      <path id="Shape" class="cls-1" d="M117.05,0H7.99C3.57,0,0,3.57,0,7.99V117.05c0,4.4,3.57,7.99,7.99,7.99H117.05c4.4,0,7.99-3.57,7.99-7.99V7.97c-.01-4.4-3.59-7.97-7.99-7.97ZM56.77,70.47c0,3.47-.33,6.44-.99,8.88-.66,2.44-1.66,4.4-2.99,5.94-1.34,1.51-3,2.63-4.99,3.33-1.99,.71-4.31,1.06-6.95,1.06-2.33,0-4.42-.37-6.31-1.09-3.69-1.39-6.58-4.35-7.85-8.08-.75-2.08-1.11-4.27-1.07-6.48v-1.56h7.49c0,6.97,2.58,10.47,7.75,10.47,1.33,0,2.49-.15,3.54-.47,1.04-.33,1.91-.91,2.63-1.79,.72-.87,1.26-2.08,1.63-3.66,.37-1.57,.56-3.61,.56-6.14V31.85h7.58l-.02,38.62Zm41.81,11.33c-.79,1.59-1.91,3-3.28,4.13-1.54,1.23-3.31,2.18-5.19,2.76-2.04,.65-4.32,.98-6.85,.98-11.19,0-17.09-4.41-17.7-13.26h7.36c.03,4.99,3.46,7.5,10.26,7.5,1.51,0,2.86-.16,4.02-.5,1.16-.33,2.13-.79,2.9-1.37,1.5-1.08,2.39-2.82,2.38-4.67,.03-.81-.13-1.62-.45-2.36-.3-.61-.9-1.13-1.77-1.59-1.16-.57-2.38-1.02-3.63-1.35-2.01-.58-4.04-1.14-6.08-1.66-2.43-.61-4.54-1.21-6.3-1.82-1.56-.49-3.03-1.22-4.35-2.19-1.11-.83-1.98-1.92-2.53-3.18-.55-1.27-.81-2.86-.81-4.78,0-1.69,.36-3.26,1.07-4.72,.72-1.44,1.73-2.7,3.09-3.77,1.33-1.06,2.95-1.89,4.83-2.49,2.05-.63,4.19-.93,6.33-.91,10.82,0,16.32,3.84,16.49,11.54h-7.24c-.26-3.84-3.16-5.77-8.7-5.77-1.23,0-2.36,.13-3.42,.37-1.06,.24-1.96,.59-2.74,1.06-.78,.45-1.37,1.02-1.82,1.7-.43,.7-.66,1.51-.64,2.34,0,.8,.1,1.47,.3,1.98,.2,.52,.68,1,1.44,1.44,.76,.44,1.89,.88,3.38,1.32,1.49,.43,3.53,.97,6.11,1.59,2.49,.61,4.67,1.22,6.51,1.87,1.83,.65,3.35,1.43,4.59,2.35,1.22,.91,2.12,2.04,2.71,3.35,.58,1.32,.88,2.97,.88,4.95,.02,1.87-.37,3.59-1.14,5.17h0Z"/>
    </g>
  </g>
</svg>