<?xml version="1.0" encoding="utf-8"?>
<!-- Generator: Adobe Illustrator 27.0.0, SVG Export Plug-In . SVG Version: 6.00 Build 0)  -->
<svg version="1.1" id="Layer_1" xmlns="http://www.w3.org/2000/svg" xmlns:xlink="http://www.w3.org/1999/xlink" x="0px" y="0px"
	 viewBox="0 0 250 63.8" style="enable-background:new 0 0 250 63.8;" xml:space="preserve">
<style type="text/css">
	.st0{fill:#2D2D2D;}
</style>
<g id="Layer_2_00000142883309172027052380000000039381489724157071_">
	<g id="Layer_2-2">
		<polygon class="st0" points="11.2,6.6 30.5,29.5 49.7,6.6 60.9,6.6 60.9,61.2 47.7,61.2 47.7,27.1 31.3,45.8 29.7,45.8 13.2,27.1 
			13.2,61.2 0,61.2 0,6.6 		"/>
		<path class="st0" d="M196.4,62.3c-4.2,1-8.6,1.5-12.9,1.5c-4.6,0.1-9.1-0.7-13.4-2.3c-3.9-1.4-7.5-3.6-10.5-6.5
			c-3-2.8-5.3-6.2-6.9-10c-1.7-4.1-2.5-8.5-2.5-13c-0.1-4.5,0.8-9,2.5-13.2c1.6-3.8,4-7.2,7-10c3-2.8,6.6-5,10.4-6.4
			C174.2,0.8,178.6,0,183,0c4.5,0,9.1,0.7,13.3,2.2c3.7,1.2,7.1,3.2,10,5.9l-9.2,10.5c-1.6-1.8-3.5-3.1-5.6-4.1
			c-2.5-1.1-5.2-1.6-8-1.6c-2.4,0-4.8,0.5-7.1,1.4c-2.1,0.9-4.1,2.3-5.6,3.9c-1.6,1.7-2.9,3.8-3.7,6c-0.9,2.4-1.3,5-1.3,7.6
			c0,2.6,0.4,5.2,1.2,7.7c0.7,2.2,2,4.3,3.6,6c1.6,1.7,3.6,3.1,5.8,3.9c2.5,1,5.2,1.5,7.9,1.4c1.6,0,3.2-0.1,4.8-0.4
			c1.5-0.2,2.9-0.7,4.3-1.2v-11h-11.5V26.4h25v32.1C203.5,60.2,200,61.4,196.4,62.3z"/>
		<polygon class="st0" points="206.7,63.8 206.7,1.7 248.4,1.7 248.4,14.3 221.2,14.3 221.2,26.1 246.9,26.1 246.9,38.1 221.2,38.1 
			221.2,51 250,51 250,63.8 		"/>
		<path class="st0" d="M116.9,63.6H102V2h29.3c13.3,0,23.5,9,23.5,22c-0.1,7.8-4.3,15-11,19l15.8,20.5h-18l-13.1-17.3h-11.5V63.6z
			 M116.9,14.6v19h13.3c5.7,0,9.2-4.2,9.2-9.5c0-5.7-3.7-9.5-9.2-9.5L116.9,14.6z"/>
		<rect x="75.6" y="13.3" class="st0" width="27.4" height="13.1"/>
		<rect x="75.6" y="39" class="st0" width="27.4" height="12.7"/>
		<rect x="98.4" y="26.5" class="st0" width="4.6" height="13.3"/>
	</g>
</g>
</svg>
