<?xml version="1.0" encoding="UTF-8"?>
<svg id="Layer_2" data-name="Layer 2" xmlns="http://www.w3.org/2000/svg" xmlns:xlink="http://www.w3.org/1999/xlink" viewBox="0 0 118.13 152.15">
  <defs>
    <style>
      .cls-1 {
        fill: url(#linear-gradient);
      }
    </style>
    <linearGradient id="linear-gradient" x1="160.97" y1="-94.29" x2="160.97" y2="-94.96" gradientTransform="translate(-27810.87 -21026.22) scale(173.14 -223)" gradientUnits="userSpaceOnUse">
      <stop offset="0" stop-color="#ef4044"/>
      <stop offset="1" stop-color="#1c1d1d"/>
    </linearGradient>
  </defs>
  <g id="Layer_1-2" data-name="Layer 1">
    <path id="Mobile-Development" class="cls-1" d="M89.67,53.51c1.12,0,2.09,.77,2.33,1.85l.02,.13,.97,5.87c1.23,.37,2.42,.84,3.57,1.4l.49,.24,4.59-3.68c.91-.73,2.2-.67,3.06,.09l.1,.1,6.82,6.8c.78,.78,.92,2.01,.32,2.93l-.08,.11-3.42,4.85c.6,1.14,1.12,2.32,1.54,3.53l.17,.52,5.85,.67c1.17,.11,2.05,1.07,2.11,2.22v.13s0,9.63,0,9.63c0,1.1-.79,2.07-1.87,2.31l-.13,.02-5.85,1c-.37,1.21-.84,2.39-1.4,3.56l-.24,.5,3.66,4.61c.73,.89,.69,2.18-.07,3.04l-.1,.1-6.78,6.82c-.8,.78-2.01,.92-2.95,.34l-.12-.08-4.85-3.45c-1.12,.58-2.3,1.09-3.5,1.51l-.52,.17-.67,5.87c-.14,1.17-1.09,2.05-2.25,2.11h-.13s-2.78,0-2.78,0v23.34c0,5.14-4.14,9.35-9.27,9.46h-.21s-68.66,0-68.66,0C4.33,152.15,.12,148.01,0,142.9v-.21s0-15.71,0-15.71c0-1.26,1-2.31,2.25-2.37h.13s80.47,0,80.47,0v-5.25h-2.09c-1.12,0-2.09-.77-2.33-1.87l-.02-.13-.97-5.87c-1.23-.37-2.4-.84-3.55-1.38l-.49-.24-4.61,3.66c-.91,.73-2.2,.69-3.06-.07l-.1-.1-6.8-6.8c-.8-.8-.92-2.01-.34-2.95l.08-.12,3.42-4.83c-.59-1.14-1.13-2.34-1.56-3.58l-.16-.47-5.85-.67c-1.15-.14-2.05-1.07-2.11-2.22v-.13s0-9.63,0-9.63c0-1.12,.79-2.07,1.87-2.33l.13-.03,5.85-.97c.37-1.23,.84-2.42,1.4-3.57l.24-.49-3.66-4.61c-.73-.91-.69-2.2,.07-3.06l.1-.1,6.8-6.8c.78-.8,1.99-.92,2.93-.34l.12,.08,4.87,3.45c1.12-.58,2.28-1.09,3.49-1.51l.52-.17,.64-5.87c.14-1.17,1.09-2.05,2.25-2.11h.13s9.63,0,9.63,0Zm-6.82,75.84H4.76v13.34c0,2.54,2.03,4.62,4.55,4.7h.16s68.66,0,68.66,0c2.56,0,4.64-2.03,4.73-4.55v-.16s0-13.34,0-13.34Zm-28.28,7.54c1.31,0,2.38,1.06,2.38,2.38s-.99,2.31-2.25,2.37h-.13s-21.55,0-21.55,0c-1.31,0-2.38-1.06-2.38-2.38s.99-2.31,2.25-2.37h.13s21.55,0,21.55,0ZM78.13,0c5.22,0,9.48,4.26,9.48,9.46v1.08c0,.18,0,.35,0,.53v1.03c0,.17,0,.34,0,.51v.99c0,.16,0,.32,0,.48v.94c0,.16,0,.31,0,.46v1.34c0,.15,0,.29,0,.43v1.26c0,.14,0,.27,0,.41v1.18c0,.13,0,.25,0,.38v1.1c0,.12,0,.24,0,.35v1.26s0,.3,0,.3h0v1.43s0,.27,0,.27h0v1.28s0,.24,0,.24h0v1.14c0,.14,0,.28,0,.42v1.52s0,.17,0,.17h0v1.36c0,.09,0,.18,0,.26v1.46s0,.08,0,.08h0v1.51s0,.1,0,.15c0,1.31-1.06,2.38-2.38,2.38s-2.31-.99-2.37-2.25v-.13s0-12.23,0-12.23H4.75V115.62c0,1.31-1.06,2.38-2.38,2.38S.07,117,0,115.75v-.13s0-106.15,0-106.15C0,4.16,4.37,.11,9.26,0h.2s68.66,0,68.66,0Zm9.55,58.27h-5.52l-.59,5.35c-.12,.97-.81,1.78-1.76,2.02-2.04,.52-3.97,1.33-5.71,2.4-.77,.47-1.74,.46-2.49-.01l-.12-.08-4.45-3.16-3.87,3.88,3.35,4.21c.62,.78,.67,1.85,.17,2.71-1.07,1.76-1.85,3.68-2.33,5.71-.2,.88-.9,1.57-1.79,1.78l-.13,.03-5.37,.9v5.47l5.33,.62c.97,.09,1.78,.81,2.02,1.76,.52,2.04,1.36,3.97,2.42,5.71,.47,.84,.42,1.84-.02,2.55l-.08,.12-3.14,4.4,3.87,3.88,4.21-3.33c.76-.62,1.83-.69,2.69-.19,1.78,1.05,3.71,1.83,5.71,2.33,.88,.2,1.57,.9,1.76,1.77l.02,.13,.9,5.4h5.52l.59-5.35c.12-.97,.83-1.81,1.81-2.04,2.02-.5,3.92-1.31,5.66-2.38,.77-.47,1.74-.48,2.49-.01l.12,.08,4.47,3.19,3.85-3.9-3.3-4.18c-.62-.76-.69-1.83-.19-2.66,1.05-1.83,1.83-3.76,2.31-5.75,.23-.91,.91-1.57,1.79-1.78l.13-.03,5.37-.9v-5.49l-5.33-.59c-1-.12-1.81-.83-2.04-1.78-.5-1.97-1.31-3.9-2.4-5.68-.48-.85-.41-1.83,.02-2.53l.07-.11,3.14-4.42-3.87-3.9-4.18,3.35c-.76,.62-1.83,.69-2.69,.19-1.78-1.07-3.71-1.85-5.73-2.33-.88-.2-1.55-.9-1.76-1.79l-.03-.13-.9-5.37Zm-2.45,15.52c6.94,0,12.6,5.66,12.6,12.62s-5.74,12.62-12.6,12.62-12.62-5.59-12.62-12.62,5.66-12.62,12.62-12.62Zm0,4.75c-4.35,0-7.87,3.54-7.87,7.87,0,3.52,2.31,6.51,5.49,7.51h0v-9.08c0-1.31,1.05-2.38,2.38-2.38s2.38,1.07,2.38,2.38h0v9.06c3.16-1,5.47-3.97,5.47-7.49,0-4.33-3.52-7.87-7.85-7.87ZM47.63,29.75c.48-1.22,1.86-1.82,3.09-1.33,1.22,.48,1.82,1.87,1.33,3.09h0l-13.95,35.11c-.49,1.23-1.87,1.82-3.09,1.33-1.22-.48-1.82-1.87-1.33-3.09h0l13.95-35.11Zm10.84,6.72c.93-.92,2.44-.92,3.36,.02h0l9.94,10.03c.92,.93,.92,2.42,0,3.35h0l-9.94,10.03c-.93,.94-2.44,.93-3.36,.02-.93-.92-.94-2.43-.02-3.36h0l8.28-8.36-8.28-8.36c-.92-.93-.92-2.44,.02-3.36Zm-32.7,.02c.92-.94,2.43-.94,3.36-.02,.93,.92,.94,2.43,.02,3.36h0l-8.28,8.36,8.28,8.36c.92,.93,.92,2.44-.02,3.36-.93,.92-2.44,.92-3.36-.02h0l-9.93-10.03c-.92-.93-.92-2.42,0-3.35h0l9.93-10.03ZM78.12,4.75H9.47c-2.53,0-4.62,2.03-4.71,4.55v.16s0,8.37,0,8.37H82.84V9.47c0-2.66-2.21-4.71-4.72-4.71Zm-22.24,4.16c1.31,0,2.38,1.06,2.38,2.38s-.99,2.31-2.25,2.37h-.13s-12.08,0-12.08,0c-1.31,0-2.38-1.06-2.38-2.38s.99-2.31,2.25-2.37h.13s12.08,0,12.08,0Z"/>
  </g>
</svg>