<?xml version="1.0" encoding="UTF-8"?>
<svg id="Layer_2" data-name="Layer 2" xmlns="http://www.w3.org/2000/svg" xmlns:xlink="http://www.w3.org/1999/xlink" viewBox="0 0 174.93 152.15">
  <defs>
    <style>
      .cls-1 {
        fill: url(#linear-gradient);
      }
    </style>
    <linearGradient id="linear-gradient" x1="206.52" y1="347.13" x2="206.52" y2="346.45" gradientTransform="translate(-52862.01 77410.62) scale(256.39 -223)" gradientUnits="userSpaceOnUse">
      <stop offset="0" stop-color="#ef4044"/>
      <stop offset="1" stop-color="#1c1d1d"/>
    </linearGradient>
  </defs>
  <g id="Layer_1-2" data-name="Layer 1">
    <path id="Performance" class="cls-1" d="M87.46,0c26.31,0,51.05,10.25,69.65,28.85,0,0,0,0,0,0,.89,.89,1,2.3,.26,3.32h0l-5.35,7.36c14.78,16.16,22.89,37.02,22.89,58.98,0,1.42-1.15,2.56-2.56,2.56h-21.4c-1.42,0-2.56-1.15-2.56-2.56,0-8.23-1.61-16.21-4.79-23.72-1.99-4.69-4.55-9.11-7.64-13.16h0l-7.97,10.97c-.5,.69-1.28,1.06-2.07,1.06-.52,0-1.05-.16-1.5-.49-1.14-.83-1.4-2.43-.57-3.58h0l19.86-27.32-39.38,28.62c1.87,3.02,2.94,6.58,2.94,10.38,0,5.82-2.52,11.06-6.53,14.69h1.9c.66,0,1.32,.04,1.96,.12h0l12.22-16.81c.83-1.14,2.43-1.4,3.58-.57,1.14,.83,1.4,2.43,.57,3.58h0l-11.15,15.34c5.44,2.66,9.19,8.25,9.19,14.71h0v15.19c0,1.42-1.15,2.56-2.56,2.56H58.47c-1.42,0-2.56-1.15-2.56-2.56h0v-15.19c0-9.03,7.34-16.37,16.37-16.37h1.9c-4.01-3.63-6.53-8.87-6.53-14.69,0-10.93,8.89-19.82,19.82-19.82,5.28,0,10.08,2.08,13.64,5.46h0l23.25-16.89c-10.56-8.04-23.53-12.43-36.88-12.43-8.23,0-16.21,1.61-23.72,4.79-7.26,3.07-13.77,7.46-19.37,13.06-11.51,11.51-17.85,26.81-17.85,43.09,0,1.42-1.15,2.56-2.56,2.56H2.56c-1.42,0-2.56-1.15-2.56-2.56,0-23.28,9.04-45.18,25.47-61.68,.05-.06,.1-.11,.15-.16,4.1-4.1,8.61-7.8,13.42-10.99,1.18-.78,2.77-.46,3.55,.71,.78,1.18,.46,2.77-.71,3.55-3.81,2.54-7.43,5.41-10.79,8.57h0l11.52,11.51c5.64-5.23,12.07-9.39,19.15-12.38,7.36-3.12,15.14-4.84,23.15-5.14h0V16.21c-11.52,.35-22.59,3.03-32.95,7.99-1.28,.61-2.81,.07-3.42-1.2-.61-1.28-.07-2.81,1.2-3.42,11.82-5.66,24.52-8.54,37.73-8.54,21.97,0,42.84,8.11,58.99,22.89h0l4.88-3.54C133.96,14.08,111.4,5.12,87.46,5.12c-1.42,0-2.56-1.15-2.56-2.56s1.15-2.56,2.56-2.56Zm15.19,101.07h-30.37c-6.2,0-11.24,5.04-11.24,11.24h0v12.62h9.37v-4.34c0-1.42,1.15-2.56,2.56-2.56s2.56,1.15,2.56,2.56h0v4.34h23.87v-4.34c0-1.42,1.15-2.56,2.56-2.56s2.56,1.15,2.56,2.56h0v4.34h9.37v-12.62c0-6.2-5.04-11.24-11.24-11.24h0Zm62.81,16.66c1.42,0,2.56,1.15,2.56,2.56s-1.15,2.56-2.56,2.56h-7.59c-1.42,0-2.56-1.15-2.56-2.56s1.15-2.56,2.56-2.56h7.59Zm-148.4,0c1.42,0,2.56,1.15,2.56,2.56s-1.15,2.56-2.56,2.56h-7.59c-1.42,0-2.56-1.15-2.56-2.56s1.15-2.56,2.56-2.56h7.59Zm155.31-11.04c1.42,0,2.56,1.15,2.56,2.56s-1.15,2.56-2.56,2.56h-21.4c-1.42,0-2.56-1.15-2.56-2.56s1.15-2.56,2.56-2.56h21.4Zm-148.4,0c1.42,0,2.56,1.15,2.56,2.56s-1.15,2.56-2.56,2.56H2.56c-1.42,0-2.56-1.15-2.56-2.56s1.15-2.56,2.56-2.56H23.96Zm3.51-64.55C13.63,56.84,5.78,75.77,5.16,95.94H21.45c.6-15.83,6.75-30.68,17.53-42.3h0l-11.51-11.51Zm60,24.42c-8.1,0-14.69,6.59-14.69,14.69s6.59,14.69,14.69,14.69,14.69-6.59,14.69-14.69-6.59-14.69-14.69-14.69Zm61.49-22.79l-9.84,13.54c3.77,4.72,6.87,9.92,9.23,15.48,3.12,7.36,4.84,15.14,5.15,23.15h16.28c-.59-19.38-7.91-37.72-20.81-52.18h0Zm-58.92-27.55v16.28c14.07,.55,27.64,5.59,38.63,14.37h0l13.55-9.85c-14.46-12.89-32.79-20.21-52.18-20.8h0Zm26.43,119.77h-38.07c-1.42,0-2.56,1.15-2.56,2.56s1.15,2.56,2.56,2.56h35.51v5.92H61.04v-5.92h5.39c1.42,0,2.56-1.15,2.56-2.56s-1.15-2.56-2.56-2.56h-7.95c-1.42,0-2.56,1.15-2.56,2.56v11.04c0,1.42,1.15,2.56,2.56,2.56h57.98c1.42,0,2.56-1.15,2.56-2.56v-11.04c0-1.42-1.15-2.56-2.56-2.56Z"/>
  </g>
</svg>