<?xml version="1.0" encoding="UTF-8"?>
<svg id="Layer_2" data-name="Layer 2" xmlns="http://www.w3.org/2000/svg" xmlns:xlink="http://www.w3.org/1999/xlink" viewBox="0 0 152.15 78.51">
  <defs>
    <style>
      .cls-1 {
        fill: url(#linear-gradient);
      }
    </style>
    <linearGradient id="linear-gradient" x1="205.39" y1="-329.29" x2="205.39" y2="-329.97" gradientTransform="translate(-45726.06 -37892.92) scale(223 -115.07)" gradientUnits="userSpaceOnUse">
      <stop offset="0" stop-color="#ef4044"/>
      <stop offset="1" stop-color="#1c1d1d"/>
    </linearGradient>
  </defs>
  <g id="Layer_1-2" data-name="Layer 1">
    <path id="PHP" class="cls-1" d="M76.07,0c42.01,0,76.07,17.58,76.07,39.26s-34.06,39.26-76.07,39.26S0,60.94,0,39.26,34.06,0,76.07,0Zm-26.93,20.52H29.89l-8.33,41.67h9.89l2.08-10.8h9.37c8.85,.51,18.73-6.69,18.73-19.03,0-7.2-4.16-11.32-12.49-11.83h0Zm69.73,0h-19.25l-8.33,41.67h9.89l2.08-10.8h9.37c8.85,.51,18.73-6.69,18.73-19.03,0-7.2-4.16-11.32-12.49-11.83h0Zm-40.96-10.8h-9.89l-8.33,41.67h9.89l4.68-23.15h7.81c3.64,0,3.64,1.54,3.12,4.12h0l-3.64,19.03h10.41l3.64-21.09c1.04-5.14-2.08-9.26-10.41-9.77h-9.37l2.08-10.8ZM44.98,28.24c3.64,0,6.24,1.54,6.24,4.63-.48,8.16-4.14,10.05-8.43,10.68h0l-.31,.04c-.21,.03-.42,.05-.63,.08h-6.24l2.6-15.43h6.76Zm69.73,0c3.64,0,6.24,1.54,6.24,4.63-.48,8.16-4.14,10.05-8.43,10.68h0l-.31,.04c-.21,.03-.42,.05-.63,.08h-6.25l2.6-15.43h6.77Z"/>
  </g>
</svg>