<?xml version="1.0" encoding="UTF-8"?>
<svg id="Layer_2" data-name="Layer 2" xmlns="http://www.w3.org/2000/svg" viewBox="0 0 134.77 69.55">
  <defs>
    <style>
      .cls-1 {
        fill: #4d4d4e;
      }
    </style>
  </defs>
  <g id="Layer_1-2" data-name="Layer 1">
    <path id="PHP-Logo" class="cls-1" d="M67.39,0c37.22,0,67.39,15.57,67.39,34.77s-30.17,34.77-67.39,34.77S0,53.98,0,34.77,30.17,0,67.39,0Zm-23.85,18.18H26.48l-7.38,36.91h8.76l1.84-9.57h8.3c7.84,.46,16.59-5.92,16.59-16.86,0-6.38-3.69-10.03-11.06-10.48h0Zm61.77,0h-17.05l-7.37,36.91h8.76l1.84-9.57h8.3c7.84,.46,16.59-5.92,16.59-16.86,0-6.38-3.69-10.03-11.06-10.48h0Zm-36.28-9.57h-8.76l-7.37,36.91h8.76l4.15-20.51h6.91c3.23,0,3.23,1.37,2.77,3.65h0l-3.23,16.86h9.22l3.23-18.68c.92-4.56-1.84-8.2-9.22-8.66h-8.3l1.84-9.57Zm-29.17,16.4c3.23,0,5.53,1.37,5.53,4.1-.46,7.75-4.15,9.11-8.3,9.57h-5.53l2.3-13.67h5.99Zm61.77,0c3.23,0,5.53,1.37,5.53,4.1-.46,7.75-4.15,9.11-8.3,9.57h-5.53l2.3-13.67h5.99Z"/>
  </g>
</svg>