<?xml version="1.0" encoding="UTF-8"?>
<svg id="Layer_2" data-name="Layer 2" xmlns="http://www.w3.org/2000/svg" viewBox="0 0 125.55 124.9">
  <defs>
    <style>
      .cls-1 {
        fill: #4d4d4e;
      }
    </style>
  </defs>
  <g id="Layer_1-2" data-name="Layer 1">
    <g id="Python-Logo">
      <path id="Shape" class="cls-1" d="M62.32,0c-31.87,0-29.88,13.82-29.88,13.82l.04,14.32h30.42v4.3H20.4S0,30.13,0,62.29s17.8,31.02,17.8,31.02h10.62v-14.92s-.57-17.8,17.52-17.8h30.17s16.95,.27,16.95-16.38V16.66S95.63,0,62.32,0h0Zm-16.77,9.63c3.03,0,5.47,2.45,5.47,5.47s-2.45,5.47-5.47,5.47-5.47-2.45-5.47-5.47,2.45-5.47,5.47-5.47h0Z"/>
      <path id="Shape-2" data-name="Shape" class="cls-1" d="M63.23,124.9c31.87,0,29.88-13.82,29.88-13.82l-.04-14.32h-30.42v-4.3h42.5s20.4,2.31,20.4-29.85-17.8-31.02-17.8-31.02h-10.62v14.92s.57,17.8-17.52,17.8h-30.17s-16.95-.27-16.95,16.38v27.54s-2.57,16.66,30.74,16.66h0Zm16.77-9.63c-3.03,0-5.47-2.45-5.47-5.47s2.45-5.47,5.47-5.47,5.47,2.45,5.47,5.47-2.45,5.47-5.47,5.47h0Z"/>
    </g>
  </g>
</svg>