<?xml version="1.0" encoding="UTF-8"?>
<svg id="Layer_2" data-name="Layer 2" xmlns="http://www.w3.org/2000/svg" xmlns:xlink="http://www.w3.org/1999/xlink" viewBox="0 0 137.17 136.45">
  <defs>
    <style>
      .cls-1 {
        fill: url(#linear-gradient);
      }
    </style>
    <linearGradient id="linear-gradient" x1="-473.4" y1="-382.04" x2="-473.4" y2="-382.72" gradientTransform="translate(95244.04 -76407.17) scale(201.05 -200)" gradientUnits="userSpaceOnUse">
      <stop offset="0" stop-color="#ef4044"/>
      <stop offset="1" stop-color="#1c1d1d"/>
    </linearGradient>
  </defs>
  <g id="Layer_1-2" data-name="Layer 1">
    <path id="Python" class="cls-1" d="M117.72,34.51s19.45-1.25,19.45,33.89-22.28,32.61-22.28,32.61h-46.43v4.7h33.23l.04,15.64s2.17,15.1-32.65,15.1-33.68-17.49-33.58-18.18v-.02s0-30.09,0-30.09c0-17.47,17.07-17.89,18.43-17.9h.06s.02,0,.02,0h32.96c18.38,0,19.13-16.82,19.14-19.18v-.18c0-.06,0-.09,0-.09v-16.3h11.61Zm-30.32,79.46c-3.31,0-5.98,2.67-5.98,5.98s2.67,5.98,5.98,5.98,5.98-2.67,5.98-5.98-2.67-5.98-5.98-5.98ZM68.09,0c35.66,0,33.68,17.49,33.58,18.18v.02s0,30.09,0,30.09c0,17.47-17.07,17.89-18.43,17.9h-.06s-.02,0-.02,0H50.19c-19.76,0-19.14,19.45-19.14,19.45h0v16.3h-11.61S0,103.19,0,68.05,22.28,35.44,22.28,35.44h46.43v-4.7H35.48l-.04-15.64S33.27,0,68.09,0Zm-18.32,10.52c-3.31,0-5.98,2.67-5.98,5.98s2.67,5.98,5.98,5.98,5.98-2.67,5.98-5.98-2.67-5.98-5.98-5.98Z"/>
  </g>
</svg>