<?xml version="1.0" encoding="UTF-8"?>
<svg id="Layer_2" data-name="Layer 2" xmlns="http://www.w3.org/2000/svg" xmlns:xlink="http://www.w3.org/1999/xlink" viewBox="0 0 153.39 136.69">
  <defs>
    <style>
      .cls-1 {
        fill: url(#linear-gradient);
      }
    </style>
    <linearGradient id="linear-gradient" x1="-338.49" y1="744.74" x2="-338.49" y2="744.05" gradientTransform="translate(76178.94 149201.32) scale(224.83 -200.34)" gradientUnits="userSpaceOnUse">
      <stop offset="0" stop-color="#ef4044"/>
      <stop offset="1" stop-color="#1c1d1d"/>
    </linearGradient>
  </defs>
  <g id="Layer_1-2" data-name="Layer 1">
    <path id="React-native-Copy" class="cls-1" d="M107.87,0V.03s.31,0,.31,0c2.35,.04,4.52,.56,6.4,1.6l.27,.15c8.82,5.07,10.82,20.9,6.32,40.8,19.51,5.98,32.24,15.61,32.24,25.78s-12.66,19.77-32.05,25.75c4.53,19.84,2.56,35.63-6.22,40.7-2.06,1.19-4.44,1.75-7.07,1.75-8.6,0-19.85-6.07-31.24-16.64-11.38,10.64-22.64,16.77-31.24,16.77-2.63,0-5-.56-7.03-1.75-8.82-5.07-10.82-20.9-6.32-40.8C12.73,88.16,0,78.53,0,68.36s12.66-19.74,32.11-25.75C27.58,22.78,29.55,6.98,38.33,1.91c2.06-1.19,4.44-1.75,7.07-1.75h0v-.03c8.6,0,19.85,6.07,31.24,16.64C88.01,6.13,99.27,0,107.87,0h0ZM38.93,96.02c-.69,3.16-1.25,6.26-1.59,9.2-1.44,11.95,.41,21.24,4.66,23.68,.94,.53,2.13,.81,3.53,.84,6.5,0,16.07-5.19,26.26-14.67-4.41-4.6-8.79-9.86-13.01-15.64-7.03-.75-13.73-1.91-19.85-3.41Zm75.6-.06c-6.13,1.53-12.82,2.69-19.89,3.44-4.16,5.79-8.54,11.01-12.91,15.61,10.19,9.42,19.79,14.58,26.26,14.58,1.44,0,2.66-.25,3.6-.81,4.22-2.47,6.03-11.76,4.56-23.71-.34-2.91-.91-5.94-1.63-9.1Zm-29.17,4.16c-2.85,.16-5.75,.22-8.69,.22s-5.78-.09-8.6-.22c2.88,3.66,5.78,7.01,8.69,10.01,2.88-3,5.78-6.35,8.6-10.01Zm-8.66-56.72c-4.75,0-9.47,.22-14.13,.63-2.6,3.72-5.1,7.73-7.54,11.95-2.34,4.1-4.53,8.29-6.47,12.48,1.97,4.19,4.13,8.35,6.5,12.45,2.44,4.19,4.97,8.17,7.57,11.89,4.63,.38,9.35,.59,14.07,.59s9.47-.22,14.13-.63c2.6-3.72,5.1-7.73,7.54-11.95,2.34-4.1,4.5-8.29,6.47-12.48-1.97-4.19-4.13-8.35-6.5-12.45-2.44-4.19-4.97-8.17-7.57-11.89-4.63-.38-9.35-.59-14.07-.59Zm31.77,33.35c-1.28,2.5-2.63,5.04-4.06,7.54-1.44,2.53-2.97,5.01-4.5,7.41,4.47-.66,8.79-1.5,12.88-2.5-1.19-4.07-2.63-8.26-4.31-12.45Zm-63.56,.13c-1.63,4.16-3.06,8.32-4.22,12.36,4.1,1,8.38,1.81,12.82,2.47-1.53-2.38-3.03-4.82-4.5-7.32-1.47-2.5-2.81-5.01-4.1-7.51Zm-11.07-27.5c-3.03,.97-5.97,2-8.66,3.16-11.07,4.69-18.23,10.92-18.23,15.83s7.16,11.11,18.23,15.83c2.72,1.16,5.66,2.22,8.75,3.19,1.75-6.1,4.06-12.45,6.94-18.96-2.91-6.54-5.25-12.92-7.03-19.05Zm85.61-.03c-1.75,6.1-4.06,12.45-6.94,18.96,2.91,6.54,5.25,12.92,7.03,19.05,3.03-.97,5.97-2,8.66-3.16,11.07-4.69,18.23-10.92,18.26-15.83,0-4.91-7.16-11.11-18.23-15.83-2.75-1.16-5.69-2.22-8.79-3.19Zm-42.74,4.58c7.97,0,14.43,6.46,14.43,14.43s-6.46,14.43-14.43,14.43-14.43-6.46-14.43-14.43,6.46-14.43,14.43-14.43Zm-23.23-8.9c-4.47,.66-8.79,1.5-12.88,2.47,1.19,4.07,2.63,8.26,4.31,12.45,1.28-2.5,2.63-5.01,4.06-7.51,1.44-2.53,2.97-5.01,4.5-7.41Zm46.4,0c1.53,2.38,3.06,4.82,4.5,7.32,1.47,2.5,2.81,5.01,4.1,7.51,1.63-4.16,3.06-8.32,4.22-12.36-4.1-1-8.38-1.81-12.82-2.47ZM45.4,7.1v.03c-1.44,0-2.66,.25-3.6,.81-4.22,2.47-6.03,11.76-4.56,23.71,.38,2.91,.91,5.94,1.63,9.07,6.13-1.53,12.82-2.69,19.89-3.44,4.16-5.79,8.54-11.01,12.91-15.61-10.19-9.42-19.79-14.58-26.26-14.58h0Zm62.44-.13h-.2c-6.5,.12-15.96,5.3-26.04,14.67,4.41,4.6,8.79,9.85,13.01,15.64,7.03,.75,13.73,1.91,19.85,3.41,.69-3.16,1.25-6.26,1.59-9.2,1.44-11.95-.41-21.24-4.66-23.68-.97-.53-2.13-.81-3.56-.81h0v-.03Zm-31.24,19.62c-2.88,3-5.78,6.35-8.6,10.01,2.85-.16,5.75-.22,8.69-.22s5.78,.09,8.6,.22c-2.88-3.66-5.78-7.01-8.69-10.01ZM107.87,.03h-.03s0,6.95,0,6.95h.03s0-6.95,0-6.95Z"/>
  </g>
</svg>