<?xml version="1.0" encoding="UTF-8"?>
<svg id="Layer_2" data-name="Layer 2" xmlns="http://www.w3.org/2000/svg" viewBox="0 0 140.41 125.11">
  <defs>
    <style>
      .cls-1 {
        fill: #4d4d4e;
      }
    </style>
  </defs>
  <g id="Layer_1-2" data-name="Layer 1">
    <g id="React-Native-Logo">
      <path id="Shape" class="cls-1" d="M140.41,62.57c0-9.31-11.65-18.13-29.51-23.6,4.12-18.21,2.29-32.7-5.78-37.34-1.86-1.09-4.04-1.6-6.41-1.6V6.41c1.32,0,2.38,.26,3.26,.74,3.89,2.23,5.58,10.74,4.26,21.68-.31,2.69-.83,5.53-1.46,8.42-5.61-1.37-11.73-2.43-18.17-3.12-3.86-5.3-7.87-10.11-11.91-14.32,9.33-8.68,18.09-13.43,24.04-13.43V0c-7.87,0-18.17,5.61-28.59,15.35C59.73,5.67,49.43,.11,41.55,.11V6.5c5.92,0,14.71,4.73,24.04,13.34-4.01,4.21-8.01,8.99-11.82,14.29-6.47,.69-12.59,1.75-18.2,3.15-.66-2.86-1.14-5.64-1.49-8.3-1.35-10.94,.31-19.44,4.18-21.71,.86-.52,1.97-.74,3.29-.74V.14c-2.4,0-4.58,.52-6.47,1.6-8.04,4.64-9.84,19.1-5.7,37.26C11.59,44.5,0,53.29,0,62.57s11.65,18.13,29.51,23.6c-4.12,18.21-2.29,32.7,5.78,37.34,1.86,1.09,4.04,1.6,6.44,1.6,7.87,0,18.17-5.61,28.59-15.35,10.42,9.68,20.72,15.23,28.59,15.23,2.4,0,4.58-.52,6.47-1.6,8.04-4.64,9.84-19.1,5.7-37.26,17.74-5.47,29.33-14.29,29.33-23.57h0Zm-37.26-19.1c-1.06,3.69-2.38,7.5-3.86,11.31-1.17-2.29-2.4-4.58-3.75-6.87-1.32-2.29-2.72-4.52-4.12-6.7,4.06,.6,7.98,1.35,11.73,2.26Zm-13.11,30.5c-2.23,3.87-4.52,7.53-6.9,10.94-4.26,.37-8.59,.57-12.94,.57s-8.64-.2-12.88-.54c-2.38-3.41-4.69-7.04-6.93-10.88-2.18-3.75-4.15-7.56-5.95-11.4,1.77-3.84,3.78-7.67,5.92-11.43,2.23-3.87,4.52-7.53,6.9-10.94,4.26-.37,8.59-.57,12.94-.57s8.64,.2,12.88,.54c2.38,3.41,4.69,7.04,6.93,10.88,2.18,3.75,4.15,7.56,5.95,11.4-1.8,3.84-3.78,7.67-5.92,11.43Zm9.24-3.72c1.55,3.84,2.86,7.67,3.95,11.4-3.75,.92-7.7,1.69-11.79,2.29,1.4-2.21,2.8-4.47,4.12-6.79,1.32-2.29,2.55-4.61,3.72-6.9Zm-29.02,30.56c-2.66-2.75-5.32-5.81-7.96-9.16,2.58,.11,5.21,.2,7.87,.2s5.35-.06,7.96-.2c-2.58,3.35-5.24,6.41-7.87,9.16Zm-21.29-16.87c-4.06-.6-7.98-1.35-11.73-2.26,1.06-3.69,2.38-7.5,3.86-11.31,1.17,2.29,2.4,4.58,3.75,6.87,1.35,2.29,2.72,4.52,4.12,6.7Zm21.15-59.59c2.66,2.75,5.32,5.81,7.96,9.16-2.58-.11-5.21-.2-7.87-.2s-5.35,.06-7.96,.2c2.58-3.35,5.24-6.41,7.87-9.16Zm-21.18,16.87c-1.4,2.21-2.8,4.47-4.12,6.79-1.32,2.29-2.55,4.58-3.72,6.87-1.55-3.84-2.86-7.67-3.95-11.4,3.75-.89,7.7-1.66,11.79-2.26Zm-25.9,35.85c-10.13-4.32-16.68-9.99-16.68-14.49s6.55-10.19,16.68-14.49c2.46-1.06,5.15-2,7.93-2.89,1.63,5.61,3.78,11.45,6.44,17.44-2.63,5.96-4.75,11.77-6.35,17.35-2.83-.89-5.52-1.86-8.01-2.92Zm15.4,40.92c-3.89-2.23-5.58-10.74-4.26-21.68,.31-2.69,.83-5.53,1.46-8.42,5.61,1.37,11.73,2.43,18.17,3.12,3.86,5.3,7.87,10.11,11.91,14.32-9.33,8.68-18.09,13.43-24.04,13.43-1.29-.03-2.38-.29-3.23-.77h0Zm67.88-21.82c1.35,10.94-.31,19.44-4.18,21.71-.86,.52-1.97,.74-3.29,.74-5.92,0-14.71-4.73-24.04-13.34,4.01-4.21,8.01-8.99,11.82-14.29,6.47-.69,12.59-1.75,18.2-3.15,.66,2.89,1.17,5.67,1.49,8.33h0Zm11.02-19.1c-2.46,1.06-5.15,2-7.93,2.89-1.63-5.61-3.78-11.45-6.44-17.44,2.63-5.96,4.75-11.77,6.35-17.35,2.83,.89,5.52,1.86,8.04,2.92,10.13,4.32,16.68,9.99,16.68,14.49-.03,4.5-6.58,10.19-16.71,14.49h0Z"/>
      <circle id="Oval" class="cls-1" cx="70.2" cy="62.56" r="13.21"/>
    </g>
  </g>
</svg>