<?xml version="1.0" encoding="utf-8"?>
<!-- Generator: Adobe Illustrator 27.0.0, SVG Export Plug-In . SVG Version: 6.00 Build 0)  -->
<svg version="1.1" id="Layer_1" xmlns="http://www.w3.org/2000/svg" xmlns:xlink="http://www.w3.org/1999/xlink" x="0px" y="0px"
	 viewBox="0 0 250 51.8" style="enable-background:new 0 0 250 51.8;" xml:space="preserve">
<style type="text/css">
	.st0{fill:#2D2D2D;}
</style>
<g id="Layer_2_00000077312248561604322820000012254699354722553768_">
	<g id="Layer_2-2">
		<path class="st0" d="M0,26.8h3.8V3.3H0V0h13c1.9-0.1,3.7,0.1,5.5,0.6c3.1,1.1,5.2,3.7,5.2,7.8c0,4.3-2.4,7.4-6.2,8.4V17
			c0.5,0.3,1,0.8,1.3,1.4l4.3,7.4c0.5,0.8,1,1,2.1,1h0.9v3.3h-2.5c-2.5,0-3.1-0.5-4.2-2.3l-4.6-8.3c-0.8-1.3-1.3-1.7-3.1-1.7H8v8.8
			h3.7v3.3H0V26.8z M14.1,14.4c3.3,0,5.4-2.1,5.4-5.7c0-2.3-0.9-4-2.8-4.7c-1.2-0.4-2.4-0.6-3.7-0.6H8v11L14.1,14.4z"/>
		<path class="st0" d="M26.1,26.9h3.4V11.7h-3.6V8.5h7.7v18.4H37v3.2H26.1V26.9z M29.4,0h4.4v4.2h-4.4V0z"/>
		<path class="st0" d="M36.7,23.1h3.6v1.4c0,1.8,2.6,2.7,4.9,2.7s4.3-1,4.3-2.8c0-2.2-2.4-2.9-5.4-3.9c-3.2-1.2-6.7-2.6-6.7-6.5
			c0-4.3,4.2-6,8-6c3,0,7.5,1.2,7.5,4.4V15h-3.7v-1.4c0-1.3-1.7-2.2-3.8-2.2s-3.8,0.9-3.8,2.6c0,2.1,2.4,2.9,5,3.8
			c3.3,1.1,7.1,2.5,7.1,6.5s-3.8,6.3-8.7,6.3c-3.9,0-8.4-1.8-8.4-5.1L36.7,23.1z"/>
		<path class="st0" d="M53.4,26.9h3.4V3.2h-3.6V0h7.7v16.8h3.2l4.3-5.1h-2.8V8.5h9.8v3.2h-2.9l-5.3,6.2V18c0,0,0.7,0.3,1.6,1.8
			l3.7,6.2c0.4,0.7,0.8,0.9,1.9,0.9h1.4v3.2h-3.2c-2,0-2.6-0.3-3.5-2l-4.3-7.3c-0.5-0.8-1.1-0.9-2-0.9h-1.7v7h2.9v3.2H53.4V26.9z"/>
		<path class="st0" d="M74.3,26.8h2.9L86.8,0h4.8l9.6,26.8h2.9v3.3H93.6v-3.3h3.2l-2.3-6.7H83.8l-2.3,6.7h3.2v3.3H74.3V26.8z
			 M93.4,16.7L89.7,6.2c-0.3-0.7-0.4-1.5-0.5-2.3h-0.1c-0.1,0.8-0.3,1.5-0.5,2.3l-3.7,10.4H93.4z"/>
		<path class="st0" d="M103,26.9h3.4V12.6c0.1-0.5-0.3-0.9-0.7-0.9c-0.1,0-0.2,0-0.2,0h-2.6V8.5h4.9c1.9,0,2.7,0.8,2.7,2.4V12
			c0,0.4,0,0.8-0.1,1.2h0.1c1.5-3.3,4.8-5.3,8.4-5.2c5,0,7.2,2.8,7.2,8.3v10.6h3.4v3.2h-7.5V17.2c0-3-0.6-5.4-4-5.4
			c-4.3,0-7.2,4-7.2,8.3v6.8h3.4v3.2h-11V26.9z"/>
		<path class="st0" d="M141,16.8h1.4V16c0-3.4-2-4.6-4.6-4.6c-2.2,0.1-4.4,0.8-6.2,2.1l-1.7-2.9c2.4-1.7,5.2-2.6,8.1-2.5
			c5.5,0,8.4,2.9,8.4,8.3V26c-0.1,0.5,0.3,0.9,0.7,0.9c0.1,0,0.1,0,0.2,0h2.2v3.2h-4.3c-1.9,0-2.7-0.9-2.7-2.3v-0.3
			c0-0.5,0.1-0.9,0.2-1.4h-0.1c-1.3,2.8-4.1,4.6-7.1,4.6c-3.6,0-7.2-2.1-7.2-6.5C128.4,17.3,137.4,16.8,141,16.8z M136.4,27.4
			c3.7,0,5.9-3.8,5.9-7v-0.9h-1.1c-2,0-8.7,0.1-8.7,4.2c0,2,1.6,3.7,3.6,3.7C136.3,27.4,136.3,27.4,136.4,27.4z"/>
		<path class="st0" d="M150.6,3.2H147V0h7.7v23.7c0,1.8,0.4,3.1,2.3,3.1c0.7,0,1.1,0,1.1,0v3.4c0,0-0.9,0.1-1.8,0.1
			c-3.1,0-5.7-1.2-5.7-6.3V3.2z"/>
		<path class="st0" d="M161.6,35.6c1.8-0.1,3.4-1.3,4-3l0.9-2.1l-7.5-18.7h-2.7V8.5h9.8v3.2h-2.9l4.9,12.8c0.2,0.6,0.3,1.2,0.4,1.9
			h0.1c0.1-0.6,0.3-1.3,0.5-1.9l4.8-12.8H171V8.5h9.6v3.2h-2.7l-8.5,21.8c-1.4,3.7-4.3,5.5-7.6,5.5c-1.6,0-3.3-0.5-4.6-1.4l1.4-3.1
			C159.4,35.2,160.5,35.6,161.6,35.6z"/>
		<path class="st0" d="M181.9,11.7h-3.6V8.5h3.7V2.6h4v5.9h5.2v3.2H186v10.1c0,4.4,3,5,4.6,5c0.3,0,0.7,0,1,0v3.5
			c-0.5,0.1-1,0.1-1.5,0.1c-2.7,0-8.2-0.9-8.2-8L181.9,11.7z"/>
		<path class="st0" d="M191.6,26.9h3.4V11.7h-3.6V8.5h7.7v18.4h3.4v3.2h-10.9V26.9z M194.9,0h4.4v4.2h-4.4V0z"/>
		<path class="st0" d="M213.4,8c3.2,0,8.4,1.2,8.4,4.9v2.6h-3.7v-1.5c0-1.7-2.7-2.5-4.6-2.5c-4.3,0-7.3,3.1-7.3,7.7
			c-0.2,4,2.9,7.5,6.9,7.7c0.2,0,0.5,0,0.7,0c2.6-0.1,5-1.1,6.9-2.8l1.6,3c-2.4,2.1-5.5,3.3-8.6,3.3c-6.2,0-11.6-4.3-11.6-11.2
			c-0.1-6.1,4.7-11.2,10.9-11.3C213,8,213.2,8,213.4,8z"/>
		<path class="st0" d="M222.1,23.1h3.6v1.4c0,1.8,2.6,2.7,4.9,2.7s4.4-1,4.4-2.8c0-2.2-2.4-2.9-5.4-3.9c-3.2-1.2-6.7-2.6-6.7-6.6
			c0-4.3,4.2-6,8-6c3,0,7.4,1.2,7.4,4.4V15h-3.6v-1.4c0-1.3-1.7-2.2-3.8-2.2s-3.8,0.9-3.8,2.6c0,2.1,2.4,2.9,5,3.8
			c3.3,1.1,7.1,2.5,7.1,6.5s-3.8,6.4-8.6,6.4c-3.9,0-8.4-1.8-8.4-5.1L222.1,23.1z"/>
		<path class="st0" d="M89.4,48.2c-2.1,0-3.4-1.4-3.4-3.8s1.3-3.7,3.4-3.7c1.5-0.1,2.8,1,3,2.5l-0.1,0.1h-0.7l-0.1-0.1
			c-0.1-1-1-1.8-2.1-1.7c-1.5,0-2.4,1.1-2.4,2.9s0.9,3,2.4,3c1.1,0.1,2.1-0.8,2.1-1.9c0,0,0,0,0,0l0.1-0.1h0.7c0.1,0,0.1,0,0.1,0.1
			c0,0,0,0,0,0C92.3,47.2,91,48.3,89.4,48.2C89.4,48.2,89.4,48.2,89.4,48.2z"/>
		<path class="st0" d="M96.4,48l-0.1,0.1h-0.8L95.4,48v-2.4L93.1,41l0.1-0.1H94c0.1,0,0.1,0,0.2,0.1l1.8,3.7l1.8-3.7
			c0-0.1,0.1-0.1,0.2-0.1h0.8l0.1,0.1l-2.4,4.6L96.4,48z"/>
		<path class="st0" d="M103,48.1h-2.7l-0.1-0.1v-3.6V41l0.1-0.1h2.7c1.5,0,2.5,0.6,2.5,1.7c0.1,0.8-0.5,1.5-1.4,1.6
			c0.9,0.1,1.6,0.8,1.6,1.7C105.7,47.5,104.5,48.1,103,48.1z M101.1,43.9h1.9c0.9,0,1.5-0.3,1.5-1.1s-0.6-1.2-1.5-1.2h-1.8
			L101.1,43.9z M101.2,47.3h1.8c1,0,1.7-0.4,1.7-1.4s-0.8-1.3-1.7-1.3h-1.9L101.2,47.3z"/>
		<path class="st0" d="M107.5,48.1l-0.1-0.1v-3.6V41l0.1-0.1h4.3L112,41v0.5c0,0.1,0,0.1-0.1,0.1l0,0h-3.4v2.2h3.2l0.1,0.1v0.5
			l-0.1,0.1h-3.2v2.7h3.5l0.1,0.1V48l-0.1,0.1L107.5,48.1z"/>
		<path class="st0" d="M117.3,46.8l-1.1-1.7h-1.5V48l-0.1,0.1h-0.8l-0.1-0.1v-3.6V41l0.1-0.1h2.5c1.6,0,2.6,0.7,2.6,2.1
			c0,1-0.7,1.9-1.7,2.1l1.9,2.9v0.1h-0.9c-0.1,0-0.1,0-0.2-0.1L117.3,46.8z M116.4,41.6h-1.7v2.8h1.8c1,0,1.6-0.4,1.6-1.4
			S117.4,41.6,116.4,41.6z"/>
		<path class="st0" d="M123.2,48.2c-1.8,0-2.9-0.9-3-2.5l0.1-0.1h0.8l0.1,0.1c0.1,1.1,0.6,1.7,2,1.7c1.1,0,1.8-0.4,1.8-1.3
			c0-2-4.7-0.5-4.7-3.3c0-1.3,1-2.1,2.6-2.1s2.7,0.7,2.8,2.2l-0.1,0.1H125l-0.1-0.1c-0.1-0.9-0.7-1.4-1.8-1.4c-1,0-1.7,0.4-1.7,1.2
			c0,1.8,4.7,0.4,4.7,3.2C126.1,47.5,124.9,48.2,123.2,48.2z"/>
		<path class="st0" d="M127.8,48.1l-0.1-0.1v-3.6V41l0.1-0.1h4.3c0.1,0,0.1,0,0.1,0.1v0.5c0,0.1-0.1,0.1-0.1,0.1h-3.4v2.2h3.2
			L132,44v0.5l-0.1,0.1h-3.2v2.7h3.5l0.1,0.1V48l-0.1,0.1L127.8,48.1z"/>
		<path class="st0" d="M136.9,48.2c-2.1,0-3.4-1.4-3.4-3.8s1.3-3.7,3.4-3.7c1.5-0.1,2.8,1,3,2.5l-0.1,0.1h-0.7l-0.1-0.1
			c-0.1-1-1-1.8-2.1-1.7c-1.5,0-2.4,1.1-2.4,2.9s0.9,3,2.4,3c1.1,0.1,2.1-0.8,2.1-1.9c0,0,0,0,0,0l0.1-0.1h0.7l0.1,0.1
			C139.9,47.1,138.5,48.3,136.9,48.2C136.9,48.2,136.9,48.2,136.9,48.2z"/>
		<path class="st0" d="M144.1,48.2c-1.8,0-2.7-1-2.7-2.9v-2.2V41l0.1-0.1h0.8l0.1,0.1v2.1v2.3c0,1.2,0.5,2,1.7,2s1.8-0.8,1.8-2v-2.2
			V41l0.1-0.1h0.7l0.1,0.1v2.1v2.2C146.8,47.2,145.9,48.2,144.1,48.2z"/>
		<path class="st0" d="M152.2,46.8l-1.1-1.7h-1.5V48l-0.1,0.1h-0.8l-0.1-0.1v-3.6V41l0.1-0.1h2.5c1.6,0,2.6,0.7,2.6,2.1
			c0,1-0.7,1.9-1.7,2.1L154,48l-0.1,0.1h-0.9c-0.1,0-0.1,0-0.2-0.1L152.2,46.8z M151.3,41.6h-1.7v2.8h1.8c1,0,1.6-0.4,1.6-1.4
			S152.3,41.6,151.3,41.6z"/>
		<polygon class="st0" points="155.8,48.1 155.7,48 155.7,44.4 155.7,41 155.8,40.9 156.5,40.9 156.7,41 156.6,44.4 156.7,48 
			156.5,48.1 		"/>
		<polygon class="st0" points="160.2,48.1 160.1,48 160.2,44.5 160.1,41.7 158.2,41.7 158.1,41.5 158.1,41 158.2,40.9 163.1,40.9 
			163.2,41 163.2,41.5 163.1,41.7 161.1,41.7 161.1,44.5 161.1,48 161,48.1 		"/>
		<path class="st0" d="M167.6,48l-0.1,0.1h-0.8l-0.1-0.1v-2.4l-2.3-4.6l0.1-0.1h0.9c0.1,0,0.1,0,0.2,0.1l1.8,3.7L169,41
			c0-0.1,0.1-0.1,0.2-0.1h0.8L170,41l-2.4,4.6L167.6,48z"/>
		<polygon class="st0" points="170.6,48.1 170.5,48 170.5,47.1 170.6,47 171.4,47 171.5,47.1 171.5,48 171.4,48.1 		"/>
		<path class="st0" d="M178.3,48.2c-1.8,0-2.9-0.9-3-2.5l0.1-0.1h0.8c0.1,0,0.1,0.1,0.1,0.1c0.1,1.1,0.6,1.7,2,1.7
			c1.1,0,1.8-0.4,1.8-1.3c0-2-4.7-0.5-4.7-3.3c0-1.3,1.1-2.1,2.6-2.1s2.7,0.7,2.9,2.2l-0.1,0.1h-0.8l-0.1-0.1
			c-0.1-0.9-0.7-1.4-1.9-1.4c-1,0-1.7,0.4-1.7,1.2c0,1.8,4.7,0.4,4.7,3.2C181.1,47.5,180,48.2,178.3,48.2z"/>
		<path class="st0" d="M182.9,48.1c-0.1,0-0.1-0.1-0.1-0.1l0.1-3.5l0-3.4c0-0.1,0-0.1,0.1-0.1l0,0h0.8l0.1,0.1l-0.1,3.4l0.1,3.5
			l-0.1,0.1L182.9,48.1z"/>
		<path class="st0" d="M186.7,45.3V48l-0.1,0.1h-0.7l-0.1-0.1l0.1-3.4l0-3.6l0.1-0.1h1.1l0.1,0.1l2.3,5.9l2.2-5.9l0.2-0.1h1l0.1,0.1
			v3.6V48l-0.1,0.1h-0.8l-0.1-0.1v-2.7v-2.2v-0.9l-2.2,5.8c0,0.1-0.1,0.1-0.2,0.1h-0.5c-0.1,0-0.1,0-0.2-0.1l-2.3-5.9v1L186.7,45.3z
			"/>
		<path class="st0" d="M197.3,45.3h-1.5V48l-0.1,0.1H195l-0.1-0.1v-3.6V41l0.1-0.1h2.3c1.6,0,2.6,0.7,2.6,2.2S198.9,45.3,197.3,45.3
			z M195.8,44.5L195.8,44.5l1.6,0.1c0.9,0,1.6-0.4,1.6-1.5s-0.6-1.5-1.6-1.5h-1.5L195.8,44.5z"/>
		<polygon class="st0" points="201.6,48.1 201.5,48 201.5,44.3 201.5,41 201.6,40.9 202.4,40.9 202.5,41 202.4,44.3 202.5,47.3 
			205.6,47.3 205.7,47.4 205.7,48 205.6,48.1 		"/>
		<polygon class="st0" points="207.3,48.1 207.2,48 207.2,44.4 207.2,41 207.3,40.9 208.1,40.9 208.2,41 208.1,44.4 208.2,48 
			208.1,48.1 		"/>
		<path class="st0" d="M210.3,48.1l-0.1-0.1v-3.5V41l0.1-0.1h4.2l0.1,0.1v0.5c0,0.1,0,0.1-0.1,0.1l0,0h-3.3l-0.1,2.5h3.2
			c0.1,0,0.1,0,0.1,0.1v0.5c0,0.1-0.1,0.1-0.1,0.1h-3.2l0.1,3l-0.1,0.1L210.3,48.1z"/>
		<path class="st0" d="M216.3,48.1c-0.1,0-0.1-0.1-0.1-0.1l0.1-3.5l-0.1-3.4c0-0.1,0-0.1,0.1-0.1l0,0h0.8l0.1,0.1l-0.1,3.4l0.1,3.5
			l-0.1,0.1L216.3,48.1z"/>
		<path class="st0" d="M219.3,48.1l-0.1-0.1l0.1-3.6l-0.1-3.4l0.1-0.1h4.3c0.1,0,0.1,0,0.1,0.1v0.5c0,0.1-0.1,0.1-0.1,0.1h-3.4
			l-0.1,2.2h3.2l0.1,0.1v0.5l-0.1,0.1h-3.2l0.1,2.7h3.5l0.1,0.1V48l-0.1,0.1L219.3,48.1z"/>
		<path class="st0" d="M225.4,48.1l-0.1-0.1l0.1-3.6l-0.1-3.4l0.1-0.1h2.3c1.9-0.1,3.5,1.2,3.6,3.1c0,0.2,0,0.3,0,0.5
			c0.1,1.9-1.3,3.5-3.1,3.6c-0.2,0-0.3,0-0.5,0L225.4,48.1z M226.3,47.3h1.5c1.4,0,2.6-1.1,2.6-2.5c0-0.1,0-0.2,0-0.3
			c0.2-1.4-0.8-2.7-2.2-2.8c-0.1,0-0.3,0-0.4,0h-1.4c0,0,0,2.1,0,2.7S226.3,47.3,226.3,47.3L226.3,47.3z"/>
		<polygon class="st0" points="232.5,48.1 232.4,48 232.4,47.1 232.5,47 233.3,47 233.4,47.1 233.4,48 233.3,48.1 		"/>
		<path class="st0" d="M82.2,35.3l-7.7,16.3c-0.1,0.1-0.2,0.2-0.3,0.2h-2.5c-0.2,0-0.3-0.1-0.2-0.3l7.7-16.3
			c0.1-0.1,0.2-0.2,0.3-0.2H82C82.2,35,82.3,35.2,82.2,35.3z"/>
		<polygon class="st0" points="245.4,11.4 245.3,11.4 245.4,10 245.3,8.8 244.6,8.8 244.5,8.8 244.5,8.6 244.6,8.5 246.5,8.5 
			246.6,8.6 246.6,8.8 246.5,8.8 245.7,8.8 245.7,10 245.8,11.4 245.7,11.4 		"/>
		<polygon class="st0" points="247.5,10.3 247.5,11.4 247.5,11.4 247.2,11.4 247.1,11.4 247.2,10 247.1,8.6 247.2,8.5 247.6,8.5 
			247.7,8.6 248.6,10.9 249.5,8.6 249.6,8.5 250,8.5 250,8.6 250,10 250,11.4 250,11.4 249.6,11.4 249.6,11.4 249.6,10.3 249.6,9.4 
			249.6,9 248.7,11.4 248.7,11.4 248.5,11.4 248.4,11.4 247.5,9 247.5,9.4 		"/>
	</g>
</g>
</svg>
