<?xml version="1.0" encoding="UTF-8"?>
<svg id="Layer_2" data-name="Layer 2" xmlns="http://www.w3.org/2000/svg" xmlns:xlink="http://www.w3.org/1999/xlink" viewBox="0 0 108.79 130.89">
  <defs>
    <style>
      .cls-1 {
        fill: url(#linear-gradient);
      }
    </style>
    <linearGradient id="linear-gradient" x1="-459.31" y1="-77.58" x2="-459.31" y2="-78.17" gradientTransform="translate(85189.26 -17300.49) scale(185.35 -223)" gradientUnits="userSpaceOnUse">
      <stop offset="0" stop-color="#ef4044"/>
      <stop offset="1" stop-color="#000"/>
    </linearGradient>
  </defs>
  <g id="Layer_1-2" data-name="Layer 1">
    <g id="Scalability-Copy">
      <path id="path-mxzsg0yuio-20" d="M106.67,68.98c1.13,0,2.06,.89,2.12,2.01v.11s0,57.67,0,57.67c0,1.13-.89,2.06-2.01,2.12h-.11s-17.25,0-17.25,0c-1.13,0-2.06-.89-2.12-2.01v-.11s0-57.67,0-57.67c0-1.13,.89-2.06,2.01-2.12h.11s17.25,0,17.25,0Zm-57.63,17.29c1.13,0,2.06,.89,2.12,2.01v.11s0,40.38,0,40.38c0,1.13-.89,2.06-2.01,2.12h-.11s-17.25,0-17.25,0c-1.13,0-2.06-.89-2.12-2.01v-.11s0-40.38,0-40.38c0-1.13,.89-2.06,2.01-2.12h.11s17.25,0,17.25,0Zm-29.67,23.09c1.13,0,2.06,.89,2.12,2.01v.11s0,17.29,0,17.29c0,1.13-.89,2.06-2.01,2.12h-.11s-17.25,0-17.25,0c-1.13,0-2.06-.89-2.12-2.01v-.11s0-17.29,0-17.29c0-1.13,.89-2.06,2.01-2.12h.11s17.25,0,17.25,0Zm58.51-11.54c1.13,0,2.06,.89,2.12,2.01v.11s0,28,0,28c0,1.13-.89,2.06-2.01,2.12h-.11s-17.31,0-17.31,0c-1.13,0-2.06-.89-2.12-2.01v-.11s0-28,0-28c0-1.13,.89-2.06,2.01-2.12h.11s17.31,0,17.31,0Zm-30.96-7.3h-13.07v36.14h13.07v-36.14Zm-29.67,23.09H4.18v13.05h13.07v-13.05Zm87.36-40.38h-13.07v53.43h13.01l.06-53.43Zm-28.85,28.84h-13.07v23.76h13.07v-23.76Zm22.31-59.52c3.9,0,7.06,3.16,7.06,7.06s-3.16,7.06-7.06,7.06c-1.08,0-2.13-.27-3.09-.75l-.2-.11-19.23,18.95c.51,.99,.78,2.09,.79,3.21,0,3.9-3.16,7.06-7.06,7.06s-6.97-3.07-7.06-6.89v-.18s0-.54,0-.54l-16.38-6.54c-2.25,2.85-6.29,3.5-9.31,1.52l-.16-.1-19.03,14.82c.29,.79,.45,1.62,.45,2.46,0,1.87-.74,3.67-2.07,5-1.28,1.28-2.99,2.01-4.79,2.07h-.21v.07c-3.04,0-5.73-1.95-6.69-4.83-.96-2.88,.03-6.05,2.45-7.88,2.37-1.79,5.6-1.89,8.09-.29l.16,.11,19-14.88c-.3-.78-.46-1.62-.47-2.46,0-3.9,3.16-7.06,7.06-7.06s6.97,3.07,7.06,6.89v.18s0,.52,0,.52l16.38,6.56c2.06-2.59,5.65-3.35,8.58-1.85l.16,.09,19.27-19.06c-.5-.97-.77-2.04-.79-3.14,0-3.9,3.16-7.06,7.06-7.06ZM10.71,86.71h-.14c-.7,.04-1.36,.33-1.86,.82-.53,.53-.83,1.25-.83,2,0,1.56,1.27,2.83,2.83,2.83s2.83-1.27,2.83-2.83-1.2-2.76-2.7-2.82h-.12Zm58.52-11.53c-1.56,0-2.83,1.27-2.83,2.83s1.27,2.83,2.83,2.83,2.83-1.27,2.83-2.83-1.27-2.83-2.83-2.83Zm-28.85-11.54c-1.56,0-2.83,1.27-2.83,2.83s1.27,2.83,2.83,2.83,2.83-1.27,2.83-2.83-1.27-2.83-2.83-2.83ZM61.46,0c16,0,28.96,12.97,28.96,28.96s-12.97,28.96-28.96,28.96c-15.99-.02-28.94-12.98-28.96-28.96C32.5,12.97,45.46,0,61.46,0Zm0,4.24c-13.65,.02-24.71,11.08-24.73,24.73,0,13.66,11.07,24.73,24.73,24.73s24.73-11.07,24.73-24.73S75.12,4.24,61.46,4.24Zm36.61,42.5c-1.56,0-2.83,1.27-2.83,2.83s1.27,2.83,2.83,2.83,2.83-1.27,2.83-2.83-1.27-2.83-2.83-2.83ZM61.46,9.55c1.17,0,2.12,.95,2.12,2.12v2.06c4.05,.98,6.91,4.6,6.91,8.77,0,1.17-.95,2.12-2.12,2.12s-2.12-.95-2.12-2.12c0-2.65-2.14-4.79-4.79-4.79s-4.79,2.14-4.79,4.79,2.14,4.79,4.79,4.79h.17c.58,0,1.17,.07,1.74,.2,4.12,.89,7.08,4.5,7.13,8.72,.05,4.21-2.82,7.9-6.92,8.89v1.14c0,1.17-.95,2.12-2.12,2.12s-2.12-.95-2.12-2.12v-1.14c-4.05-.98-6.91-4.6-6.91-8.77,0-1.17,.95-2.12,2.12-2.12,.56,0,1.1,.23,1.5,.62,.4,.4,.62,.94,.62,1.5,0,2.65,2.14,4.8,4.79,4.8,2.65,0,4.79-2.16,4.79-4.8,0-2.65-2.14-4.79-4.79-4.79-.64,0-1.28-.07-1.91-.21-4.1-.9-7.05-4.51-7.1-8.71s2.8-7.88,6.89-8.88v-2.06c0-1.17,.95-2.12,2.12-2.12Z"/>
      <path id="path-mxzsg0yuio-20-2" data-name="path-mxzsg0yuio-20" class="cls-1" d="M106.67,68.98c1.13,0,2.06,.89,2.12,2.01v.11s0,57.67,0,57.67c0,1.13-.89,2.06-2.01,2.12h-.11s-17.25,0-17.25,0c-1.13,0-2.06-.89-2.12-2.01v-.11s0-57.67,0-57.67c0-1.13,.89-2.06,2.01-2.12h.11s17.25,0,17.25,0Zm-57.63,17.29c1.13,0,2.06,.89,2.12,2.01v.11s0,40.38,0,40.38c0,1.13-.89,2.06-2.01,2.12h-.11s-17.25,0-17.25,0c-1.13,0-2.06-.89-2.12-2.01v-.11s0-40.38,0-40.38c0-1.13,.89-2.06,2.01-2.12h.11s17.25,0,17.25,0Zm-29.67,23.09c1.13,0,2.06,.89,2.12,2.01v.11s0,17.29,0,17.29c0,1.13-.89,2.06-2.01,2.12h-.11s-17.25,0-17.25,0c-1.13,0-2.06-.89-2.12-2.01v-.11s0-17.29,0-17.29c0-1.13,.89-2.06,2.01-2.12h.11s17.25,0,17.25,0Zm58.51-11.54c1.13,0,2.06,.89,2.12,2.01v.11s0,28,0,28c0,1.13-.89,2.06-2.01,2.12h-.11s-17.31,0-17.31,0c-1.13,0-2.06-.89-2.12-2.01v-.11s0-28,0-28c0-1.13,.89-2.06,2.01-2.12h.11s17.31,0,17.31,0Zm-30.96-7.3h-13.07v36.14h13.07v-36.14Zm-29.67,23.09H4.18v13.05h13.07v-13.05Zm87.36-40.38h-13.07v53.43h13.01l.06-53.43Zm-28.85,28.84h-13.07v23.76h13.07v-23.76Zm22.31-59.52c3.9,0,7.06,3.16,7.06,7.06s-3.16,7.06-7.06,7.06c-1.08,0-2.13-.27-3.09-.75l-.2-.11-19.23,18.95c.51,.99,.78,2.09,.79,3.21,0,3.9-3.16,7.06-7.06,7.06s-6.97-3.07-7.06-6.89v-.18s0-.54,0-.54l-16.38-6.54c-2.25,2.85-6.29,3.5-9.31,1.52l-.16-.1-19.03,14.82c.29,.79,.45,1.62,.45,2.46,0,1.87-.74,3.67-2.07,5-1.28,1.28-2.99,2.01-4.79,2.07h-.21v.07c-3.04,0-5.73-1.95-6.69-4.83-.96-2.88,.03-6.05,2.45-7.88,2.37-1.79,5.6-1.89,8.09-.29l.16,.11,19-14.88c-.3-.78-.46-1.62-.47-2.46,0-3.9,3.16-7.06,7.06-7.06s6.97,3.07,7.06,6.89v.18s0,.52,0,.52l16.38,6.56c2.06-2.59,5.65-3.35,8.58-1.85l.16,.09,19.27-19.06c-.5-.97-.77-2.04-.79-3.14,0-3.9,3.16-7.06,7.06-7.06ZM10.71,86.71h-.14c-.7,.04-1.36,.33-1.86,.82-.53,.53-.83,1.25-.83,2,0,1.56,1.27,2.83,2.83,2.83s2.83-1.27,2.83-2.83-1.2-2.76-2.7-2.82h-.12Zm58.52-11.53c-1.56,0-2.83,1.27-2.83,2.83s1.27,2.83,2.83,2.83,2.83-1.27,2.83-2.83-1.27-2.83-2.83-2.83Zm-28.85-11.54c-1.56,0-2.83,1.27-2.83,2.83s1.27,2.83,2.83,2.83,2.83-1.27,2.83-2.83-1.27-2.83-2.83-2.83ZM61.46,0c16,0,28.96,12.97,28.96,28.96s-12.97,28.96-28.96,28.96c-15.99-.02-28.94-12.98-28.96-28.96C32.5,12.97,45.46,0,61.46,0Zm0,4.24c-13.65,.02-24.71,11.08-24.73,24.73,0,13.66,11.07,24.73,24.73,24.73s24.73-11.07,24.73-24.73S75.12,4.24,61.46,4.24Zm36.61,42.5c-1.56,0-2.83,1.27-2.83,2.83s1.27,2.83,2.83,2.83,2.83-1.27,2.83-2.83-1.27-2.83-2.83-2.83ZM61.46,9.55c1.17,0,2.12,.95,2.12,2.12v2.06c4.05,.98,6.91,4.6,6.91,8.77,0,1.17-.95,2.12-2.12,2.12s-2.12-.95-2.12-2.12c0-2.65-2.14-4.79-4.79-4.79s-4.79,2.14-4.79,4.79,2.14,4.79,4.79,4.79h.17c.58,0,1.17,.07,1.74,.2,4.12,.89,7.08,4.5,7.13,8.72,.05,4.21-2.82,7.9-6.92,8.89v1.14c0,1.17-.95,2.12-2.12,2.12s-2.12-.95-2.12-2.12v-1.14c-4.05-.98-6.91-4.6-6.91-8.77,0-1.17,.95-2.12,2.12-2.12,.56,0,1.1,.23,1.5,.62,.4,.4,.62,.94,.62,1.5,0,2.65,2.14,4.8,4.79,4.8,2.65,0,4.79-2.16,4.79-4.8,0-2.65-2.14-4.79-4.79-4.79-.64,0-1.28-.07-1.91-.21-4.1-.9-7.05-4.51-7.1-8.71s2.8-7.88,6.89-8.88v-2.06c0-1.17,.95-2.12,2.12-2.12Z"/>
    </g>
  </g>
</svg>