<?xml version="1.0" encoding="UTF-8"?>
<svg id="Layer_2" data-name="Layer 2" xmlns="http://www.w3.org/2000/svg" xmlns:xlink="http://www.w3.org/1999/xlink" viewBox="0 0 132.54 136.6">
  <defs>
    <style>
      .cls-1 {
        fill: url(#linear-gradient);
      }

      .cls-2 {
        fill: #4d4d4e;
      }
    </style>
    <linearGradient id="linear-gradient" x1="-12.6" y1="-94.11" x2="-12.6" y2="-94.79" gradientTransform="translate(2513.4 -18842.6) scale(194.27 -200.22)" gradientUnits="userSpaceOnUse">
      <stop offset="0" stop-color="#ef4044"/>
      <stop offset="1" stop-color="#1c1d1d"/>
    </linearGradient>
  </defs>
  <g id="Layer_1-2" data-name="Layer 1">
    <g id="Shape">
      <path id="path-l9_hjd4q6y-19" data-name="path-l9 hjd4q6y-19" class="cls-2" d="M132.47,30.9c.05,.18,.07,.37,.07,.56v29.32c0,.77-.41,1.47-1.07,1.85l-24.58,14.17v28.08c0,.76-.41,1.47-1.07,1.85l-51.31,29.57c-.12,.07-.25,.11-.37,.16-.05,.02-.09,.05-.14,.06-.36,.09-.74,.09-1.09,0-.06-.02-.11-.05-.17-.07-.12-.04-.24-.08-.35-.14L1.07,106.75c-.66-.38-1.07-1.09-1.07-1.85V16.93c0-.19,.03-.38,.07-.56,.02-.06,.05-.12,.07-.18,.04-.11,.08-.23,.14-.33,.04-.07,.1-.13,.15-.19,.06-.09,.12-.17,.19-.25,.06-.06,.14-.11,.21-.16,.08-.06,.15-.13,.23-.18h0L26.72,.29c.66-.38,1.47-.38,2.14,0l25.65,14.79h0c.09,.05,.16,.12,.23,.18,.07,.05,.15,.1,.21,.16,.07,.08,.13,.17,.19,.25,.05,.06,.11,.12,.14,.19,.06,.11,.1,.22,.14,.33,.02,.06,.06,.12,.07,.18,.05,.18,.07,.37,.07,.56v54.94l21.38-12.32V31.46c0-.19,.03-.38,.07-.56,.02-.06,.05-.12,.07-.18,.04-.11,.08-.23,.14-.33,.04-.07,.1-.13,.14-.19,.06-.09,.12-.17,.19-.25,.06-.06,.14-.11,.21-.16,.08-.06,.15-.13,.23-.18h0l25.66-14.79c.66-.38,1.47-.38,2.14,0l25.65,14.79c.09,.05,.16,.12,.24,.18,.07,.05,.14,.1,.21,.16,.07,.08,.13,.17,.19,.25,.05,.06,.11,.12,.14,.19,.06,.1,.1,.22,.14,.33,.02,.06,.06,.12,.07,.18h0Zm-4.2,28.64v-24.38l-8.98,5.17-12.4,7.15v24.38l21.38-12.32h0Zm-25.65,44.11v-24.4l-12.2,6.97-34.84,19.9v24.63l47.03-27.11ZM4.28,20.63V103.65l47.03,27.11v-24.62l-24.57-13.92h0s-.01-.01-.01-.01c-.08-.05-.15-.12-.23-.18-.07-.05-.14-.1-.2-.16h0c-.07-.07-.12-.16-.18-.23-.05-.07-.12-.13-.16-.21h0c-.05-.09-.08-.18-.11-.28-.03-.08-.08-.15-.1-.24h0c-.03-.1-.03-.21-.04-.32-.01-.08-.03-.16-.03-.24V32.95l-12.4-7.15-8.98-5.17h0ZM27.79,4.61L6.42,16.93l21.37,12.32,21.37-12.32L27.79,4.61h0Zm11.12,76.87l12.4-7.15V20.63l-8.98,5.17-12.4,7.15v53.7l8.98-5.18ZM104.75,19.14l-21.37,12.32,21.37,12.32,21.37-12.32-21.37-12.31Zm-2.14,28.34l-12.4-7.15-8.98-5.17v24.38l12.4,7.15,8.98,5.18v-24.38Zm-49.18,54.95l31.35-17.92,15.67-8.95-21.35-12.31-24.59,14.17-22.41,12.92,21.34,12.09Z"/>
      <path id="path-l9_hjd4q6y-19-2" data-name="path-l9 hjd4q6y-19" class="cls-1" d="M132.47,30.9c.05,.18,.07,.37,.07,.56v29.32c0,.77-.41,1.47-1.07,1.85l-24.58,14.17v28.08c0,.76-.41,1.47-1.07,1.85l-51.31,29.57c-.12,.07-.25,.11-.37,.16-.05,.02-.09,.05-.14,.06-.36,.09-.74,.09-1.09,0-.06-.02-.11-.05-.17-.07-.12-.04-.24-.08-.35-.14L1.07,106.75c-.66-.38-1.07-1.09-1.07-1.85V16.93c0-.19,.03-.38,.07-.56,.02-.06,.05-.12,.07-.18,.04-.11,.08-.23,.14-.33,.04-.07,.1-.13,.15-.19,.06-.09,.12-.17,.19-.25,.06-.06,.14-.11,.21-.16,.08-.06,.15-.13,.23-.18h0L26.72,.29c.66-.38,1.47-.38,2.14,0l25.65,14.79h0c.09,.05,.16,.12,.23,.18,.07,.05,.15,.1,.21,.16,.07,.08,.13,.17,.19,.25,.05,.06,.11,.12,.14,.19,.06,.11,.1,.22,.14,.33,.02,.06,.06,.12,.07,.18,.05,.18,.07,.37,.07,.56v54.94l21.38-12.32V31.46c0-.19,.03-.38,.07-.56,.02-.06,.05-.12,.07-.18,.04-.11,.08-.23,.14-.33,.04-.07,.1-.13,.14-.19,.06-.09,.12-.17,.19-.25,.06-.06,.14-.11,.21-.16,.08-.06,.15-.13,.23-.18h0l25.66-14.79c.66-.38,1.47-.38,2.14,0l25.65,14.79c.09,.05,.16,.12,.24,.18,.07,.05,.14,.1,.21,.16,.07,.08,.13,.17,.19,.25,.05,.06,.11,.12,.14,.19,.06,.1,.1,.22,.14,.33,.02,.06,.06,.12,.07,.18h0Zm-4.2,28.64v-24.38l-8.98,5.17-12.4,7.15v24.38l21.38-12.32h0Zm-25.65,44.11v-24.4l-12.2,6.97-34.84,19.9v24.63l47.03-27.11ZM4.28,20.63V103.65l47.03,27.11v-24.62l-24.57-13.92h0s-.01-.01-.01-.01c-.08-.05-.15-.12-.23-.18-.07-.05-.14-.1-.2-.16h0c-.07-.07-.12-.16-.18-.23-.05-.07-.12-.13-.16-.21h0c-.05-.09-.08-.18-.11-.28-.03-.08-.08-.15-.1-.24h0c-.03-.1-.03-.21-.04-.32-.01-.08-.03-.16-.03-.24V32.95l-12.4-7.15-8.98-5.17h0ZM27.79,4.61L6.42,16.93l21.37,12.32,21.37-12.32L27.79,4.61h0Zm11.12,76.87l12.4-7.15V20.63l-8.98,5.17-12.4,7.15v53.7l8.98-5.18ZM104.75,19.14l-21.37,12.32,21.37,12.32,21.37-12.32-21.37-12.31Zm-2.14,28.34l-12.4-7.15-8.98-5.17v24.38l12.4,7.15,8.98,5.18v-24.38Zm-49.18,54.95l31.35-17.92,15.67-8.95-21.35-12.31-24.59,14.17-22.41,12.92,21.34,12.09Z"/>
    </g>
  </g>
</svg>