<?xml version="1.0" encoding="UTF-8"?>
<svg id="Layer_2" data-name="Layer 2" xmlns="http://www.w3.org/2000/svg" viewBox="0 0 327.41 81.16">
  <defs>
    <style>
      .cls-1, .cls-2 {
        fill: #2d2d2d;
      }

      .cls-2 {
        font-family: STHeitiTC-Medium, 'Heiti TC';
        font-size: 80.92px;
        font-weight: 500;
        isolation: isolate;
      }
    </style>
  </defs>
  <g id="Layer_3" data-name="Layer 3">
    <g>
      <g>
        <path class="cls-1" d="M15.96,8.08c-6.79,2.24-11.56,6.5-14.31,12.72-5.35,12.07,3.25,27.75,16.19,29.48l2.82,.43V27.59l2.89-3.32c3.04-3.47,10.48-7.73,13.51-7.73,2.24,0,2.1-.72-.65-3.47-4.91-4.7-14.31-7.01-20.45-4.99h0Z"/>
        <path class="cls-1" d="M35.47,19.86c-5.71,1.81-12.36,7.37-10.77,8.96,.36,.36,4.55,2.89,9.32,5.64,9.54,5.49,10.62,6.72,11.92,14.02,.72,3.76,.36,7.3-1.16,12.43-.36,1.16-.14,1.23,2.02,.79,6.07-1.3,11.35-5.56,14.24-11.35,3.97-7.88,2.82-17.49-2.89-23.99-5.49-6.21-14.96-8.96-22.69-6.5h0Z"/>
        <path class="cls-1" d="M35.47,45.95c-2.38,1.45-6.58,3.83-9.25,5.28-4.62,2.53-5.13,2.67-8.6,2.02-4.84-.87-9.68-3.4-12.86-6.65-1.37-1.45-2.75-2.6-3.04-2.6s-.87,1.81-1.3,4.12c-2.02,9.47,3.47,20.23,12.07,23.85,14.16,5.85,29.12-2.67,30.93-17.7,.51-4.12-1.01-10.55-2.53-10.77-.58-.07-3.04,1.01-5.42,2.46h0Z"/>
      </g>
      <text class="cls-2" transform="translate(74.22 69.59)"><tspan x="0" y="0">Simian</tspan></text>
    </g>
  </g>
</svg>