<?xml version="1.0" encoding="UTF-8"?>
<svg id="Layer_2" data-name="Layer 2" xmlns="http://www.w3.org/2000/svg" xmlns:xlink="http://www.w3.org/1999/xlink" viewBox="0 0 152.15 152.15">
  <defs>
    <style>
      .cls-1 {
        fill: url(#linear-gradient);
      }
    </style>
    <linearGradient id="linear-gradient" x1="-241.98" y1="132.86" x2="-241.98" y2="132.18" gradientTransform="translate(54037.79 29629.07) scale(223 -223.01)" gradientUnits="userSpaceOnUse">
      <stop offset="0" stop-color="#ef4044"/>
      <stop offset="1" stop-color="#1c1d1d"/>
    </linearGradient>
  </defs>
  <g id="Layer_1-2" data-name="Layer 1">
    <path id="Symfony" class="cls-1" d="M76.07,0C34.06,0,0,34.06,0,76.07s34.06,76.08,76.07,76.08,76.08-34.06,76.08-76.08S118.09,0,76.07,0Zm41.03,44.03c-3.52,.12-5.95-1.98-6.06-5.18-.04-1.17,.26-2.2,1.07-3.4,.79-1.54,.95-1.71,.93-2.38-.07-2.01-3.11-2.09-3.95-2.05-11.42,.38-14.43,15.79-16.87,28.32l-1.2,6.61c6.58,.96,11.24-.22,13.85-1.91,3.67-2.38-1.03-4.83-.43-7.53,.6-2.76,3.11-4.09,5.1-4.15,2.79-.07,4.78,2.83,4.72,5.77-.1,4.86-6.54,11.53-19.44,11.26-1.57-.04-3.02-.15-4.36-.31l-2.43,13.42c-2.18,10.17-5.07,24.06-15.42,36.18-8.89,10.57-17.92,12.21-21.96,12.35-7.56,.25-12.57-3.78-12.75-9.16-.17-5.21,4.43-8.05,7.46-8.15,4.04-.13,6.83,2.79,6.93,6.16,.1,2.85-1.38,3.74-2.37,4.28-.66,.53-1.65,1.07-1.61,2.24,.02,.5,.56,1.66,2.24,1.61,3.19-.11,5.32-1.69,6.8-2.75,7.37-6.14,10.2-16.83,13.91-36.3l.78-4.72c1.27-6.33,2.67-13.39,4.81-20.43-5.19-3.91-8.3-8.75-15.29-10.65-4.78-1.3-7.7-.2-9.75,2.4-2.43,3.07-1.62,7.07,.72,9.42l3.88,4.29c4.76,5.49,7.35,9.77,6.38,15.52-1.55,9.18-12.49,16.22-25.42,12.24-11.04-3.4-13.1-11.22-11.77-15.52,1.17-3.79,4.18-4.51,7.12-3.6,3.15,.98,4.39,4.81,3.49,7.75-.1,.31-.26,.84-.59,1.55-.37,.81-1.04,1.52-1.33,2.47-.71,2.31,2.46,3.95,4.66,4.63,4.94,1.52,9.75-1.06,10.98-5.06,1.14-3.67-1.19-6.23-2.15-7.22l-4.68-5.01c-2.14-2.38-6.85-9.02-4.55-16.48,.88-2.88,2.75-5.93,5.45-7.95,5.71-4.26,11.92-4.95,17.83-3.25,7.65,2.2,11.33,7.26,16.09,11.17,2.67-7.83,6.36-15.48,11.92-21.95,5.02-5.89,11.77-10.15,19.5-10.42,7.72-.26,13.56,3.25,13.75,8.79,.08,2.36-1.27,6.94-5.98,7.1Z"/>
  </g>
</svg>