<?xml version="1.0" encoding="UTF-8"?>
<svg id="Layer_2" data-name="Layer 2" xmlns="http://www.w3.org/2000/svg" viewBox="0 0 715.21 171.36">
  <defs>
    <style>
      .cls-1 {
        fill: #2d2d2d;
      }
    </style>
  </defs>
  <g id="Thanks.io">
    <g>
      <path class="cls-1" d="M93.12,171.35c-11.72,0-23.44,0-35.15,0-8.45,0-14.85-3.5-19.12-10.88-11.91-20.59-23.88-41.16-35.8-61.75-4.06-7.02-4.05-14.07,.01-21.08C14.98,57.06,26.94,36.49,38.86,15.9c4.27-7.37,10.67-10.86,19.13-10.86,23.54,.01,47.08,.02,70.62,0,8.73-.01,15.15,3.68,19.52,11.28,11.66,20.26,23.4,40.47,35.19,60.65,4.42,7.56,4.41,14.91-.01,22.47-11.8,20.18-23.54,40.39-35.19,60.65-4.38,7.6-10.81,11.29-19.53,11.26-11.82-.04-23.65,0-35.47,0Zm25.03-81.4c-12.43-12.56-17.81-28.84-24.46-44.47-.36,.94-.44,1.76-.44,2.57,0,12,.01,23.99-.03,35.99,0,1.75,.2,3.06,1.9,4.2,2.15,1.45,2.19,4.17,.53,6.03-1.58,1.77-4.49,1.86-6.17,.18-1.64-1.64-1.38-4.28,.19-6.2,.94-1.15,1.83-2.75,1.85-4.16,.14-12,.09-23.99,.07-35.99,0-.86-.14-1.71-.22-2.57-6.84,15.63-12.27,31.81-24.74,44.47,.6,.78,1.22,1.59,1.84,2.4,5.14,6.81,10.88,13.24,13.61,21.59,.19,.58,1.41,1.15,2.16,1.17,5.43,.1,10.87,.11,16.31-.01,.79-.02,1.89-.72,2.29-1.42,2.33-4.05,4.25-8.34,6.77-12.26,2.57-4.01,5.66-7.7,8.54-11.55Zm-67.63,44.42c4.63-.04,6.35-3.72,4.26-7.35-6.92-12.02-13.86-24.03-20.92-35.97-1.22-2.07-1.26-3.59-.02-5.67,7.06-11.94,13.99-23.96,20.92-35.97,1.71-2.96,1.23-5.45-1.15-6.79-2.23-1.25-4.76-.47-6.32,2.19-7.89,13.51-15.79,27.01-23.49,40.63-.77,1.37-.89,3.89-.14,5.21,7.78,13.81,15.77,27.51,23.82,41.16,.75,1.27,2.38,2.03,3.03,2.56ZM136.29,42.05c-4.68,0-6.45,3.64-4.36,7.27,6.81,11.84,13.62,23.69,20.59,35.44,1.44,2.43,1.6,4.23,.09,6.76-7.06,11.82-13.9,23.76-20.78,35.69-1.59,2.75-1.04,5.2,1.24,6.54,2.22,1.3,4.77,.55,6.33-2.11,7.89-13.51,15.8-27.01,23.48-40.64,.81-1.43,.87-4.08,.07-5.49-7.73-13.72-15.67-27.32-23.68-40.88-.75-1.28-2.36-2.06-2.99-2.59Zm-43.84,74.8c-3.66,0-7.32-.1-10.97,.03-2.76,.1-3.58,1.52-2.74,4.13,.16,.51,.24,1.13,.1,1.63-.85,2.88-.13,4.31,2.73,4.36,7.21,.13,14.42,.13,21.62,0,2.89-.05,3.69-1.51,2.83-4.31-.15-.5-.13-1.13,.03-1.63,.87-2.79,.04-4.12-2.95-4.2-3.55-.1-7.1-.02-10.66-.02Z"/>
      <path class="cls-1" d="M278.55,86.82c4.15-6.88,7.96-13.7,12.27-20.19,4.59-6.92,10.62-12.26,18.76-14.94,11.97-3.94,22.15-.01,27.99,11.16,5.68,10.86,7.63,22.69,8.2,34.73,.77,16.21-1.01,32.29-3.22,48.31-.52,3.74-4.07,6.44-7.57,5.99-3.99-.51-6.58-3.5-6.19-7.6,.89-9.45,2.07-18.86,2.87-28.31,1.14-13.39,.63-26.69-3.53-39.61-.83-2.56-1.87-5.09-3.12-7.48-2.45-4.68-5.63-5.85-10.67-4.14-4.28,1.45-7.91,3.95-10.51,7.6-13.66,19.26-22.91,40.15-23.49,64.19-.06,2.4-.41,4.8-.28,7.18,.14,2.66,.34,5.41,1.11,7.94,1.62,5.33-.34,9.13-5.76,10.37-7.29,1.66-9.08,.3-9.26-7.2-.65-26.9-1.71-53.81-1.78-80.71-.05-21.58,1.12-43.16,1.76-64.73,.03-1.04,.13-2.09,.29-3.11,.58-3.78,3.63-6.48,7.02-6.26,3.81,.24,6.79,3.33,6.66,7.32-.25,7.5-.89,15-1.04,22.5-.37,18.05-.55,36.09-.79,54.14-.01,.93,.18,1.86,.28,2.85Z"/>
      <path class="cls-1" d="M536.42,134.11c.51,6.03,1.04,11.41,1.37,16.81,.11,1.74-.16,3.55-.51,5.27-.78,3.74-3.92,5.95-7.55,5.5-3.58-.44-6.56-3.51-6.13-7.1,1.07-8.89-1.35-17.41-2.44-26.06-.39-3.04-1.58-5.98-2.33-8.98-.33-1.3-.93-2.74-.67-3.96,1.72-8.2-.86-16.14-1.33-24.2-1.23-20.82-2.73-41.62-3.93-62.44-.3-5.2,.02-10.43,.21-15.65,.14-3.9,2.17-6.4,5.41-7.12,4.63-1.04,8.65,2.46,8.44,7.51-1.14,27.09,1.46,53.99,4.13,80.88,.03,.28,.21,.55,.52,1.32,.92-1.01,1.61-1.83,2.36-2.59,11.44-11.6,22.85-23.22,34.35-34.75,2.38-2.39,5.66-2.65,8.36-1.13,2.83,1.59,3.95,4.15,3.18,7.14-.44,1.69-1.57,3.46-2.88,4.63-15.14,13.54-28.69,28.59-42.05,43.83-1.85,2.11-1.73,3.2,.61,4.51,11.58,6.47,23.12,13,34.69,19.47,5.37,3.01,10.77,5.95,16.17,8.92,3,1.65,4.39,5.46,3.15,8.63-1.32,3.35-5.07,5.35-8.43,4.04-3.19-1.25-6.22-2.94-9.22-4.61-11.66-6.49-23.29-13.05-35.44-19.87Z"/>
      <path class="cls-1" d="M407.74,124.43c-3.38,5.51-6.14,10.67-9.53,15.39-4.06,5.65-8.29,11.27-13.11,16.27-5.72,5.94-12.96,7.8-21,4.96-8.37-2.96-12.53-9.39-13.96-17.75-1.49-8.63,.2-17.05,2.47-25.33,5.6-20.44,14.2-39.41,28.35-55.5,2.54-2.88,5.4-5.56,8.47-7.87,5.53-4.16,12.36-3.41,16.27,2.31,2.45,3.58,4.26,7.96,5.1,12.23,5.45,27.71,10.58,55.48,15.76,83.24,.75,4.02-1.68,7.32-5.61,7.99-3.96,.68-7.34-1.76-8.05-6.01-1.51-8.94-2.93-17.9-4.4-26.85-.13-.81-.38-1.61-.75-3.1Zm-11.59-57.39c-2.54,2.64-4.51,4.49-6.25,6.54-13.43,15.82-20.98,34.41-25.27,54.42-.98,4.59-1,9.54-.54,14.24,.59,5.98,6.1,7.89,10.85,4.14,1.31-1.03,2.51-2.21,3.64-3.43,7.99-8.7,13.51-19.03,19.07-29.28,3.87-7.15,5.45-14.79,3.15-22.94-.9-3.19-1.13-6.57-1.77-9.84-.85-4.35-1.8-8.68-2.88-13.84Z"/>
      <path class="cls-1" d="M444.47,91.48c3.79-7.35,7.41-15.06,11.67-22.4,2.59-4.47,5.79-8.74,9.37-12.46,8.28-8.6,19.7-7.96,27.24,1.33,7.75,9.54,12.04,20.73,14.24,32.66,3.32,18,2.47,36.16,1.17,54.28-.3,4.17-3.62,6.82-7.4,6.46-3.91-.37-6.33-3.33-6.25-7.55,.22-12.1,.76-24.2,.54-36.29-.21-11.79-2.81-23.18-8.5-33.66-1.48-2.73-3.43-5.22-5.32-7.7-1.35-1.77-3.15-2.07-4.82-.39-1.98,1.99-4.05,3.96-5.68,6.23-9.32,13.04-14.54,27.83-18.17,43.25-1.53,6.49-2.84,13.04-4.12,19.58-.4,2.02-.53,4.14-.47,6.2,.15,5.41-1.59,7.96-5.86,8.2-5.34,.3-10.26-3.61-10.35-8.29-.47-25.53-.95-51.05-1.36-76.58-.08-4.9-.01-9.82,.31-14.7,.37-5.62,4.6-8.38,9.46-6.47,2.92,1.15,4.32,3.67,4.31,7.24-.04,13.77-.02,27.54-.02,41.06Z"/>
      <path class="cls-1" d="M212.5,75.73c-2.83,1.3-5.35,2.51-7.91,3.62-3.91,1.7-7.92,.31-9.57-3.24-1.65-3.55-.05-7.4,3.86-9.24,3.78-1.78,7.55-3.58,11.37-5.27,1.56-.69,2.02-1.58,2-3.35-.2-14.51-.28-29.02-.31-43.53-.01-4.4,3.1-7.46,7.18-7.35,3.9,.11,6.57,3.14,6.6,7.59,.09,11.59,.15,23.17,.22,34.76,0,1.12,0,2.24,0,4,3.09-1.64,5.79-2.93,8.34-4.47,5.01-3.02,9.94-6.16,14.88-9.28,3.71-2.34,7.86-1.89,10.08,1.13,2.36,3.21,1.7,7.59-2.16,10-9.12,5.68-18.39,11.11-27.72,16.43-2.3,1.31-3.15,2.64-3.04,5.32,1.14,28.14,2.13,56.29,3.17,84.44,.02,.52,.02,1.04,0,1.57-.12,4.2-2.86,7.08-6.76,7.1-3.9,.02-6.85-2.76-7.03-6.87-.67-15.63-1.31-31.27-1.89-46.9-.42-11.36-.73-22.73-1.09-34.09-.02-.69-.12-1.37-.21-2.37Z"/>
      <path class="cls-1" d="M608.61,157.34c-2.94-.77-7.02-1.63-10.95-2.95-2.92-.98-4.45-4.38-3.9-7.44,.52-2.88,3.05-5.24,6.03-5.53,.82-.08,1.73-.13,2.49,.13,10.9,3.73,20.76-.27,30.52-4.25,6.27-2.55,10.38-7.58,13.32-13.56,1.59-3.24,1.36-4.34-2.16-5.26-6.05-1.59-12.19-2.87-18.36-3.93-5.6-.96-11.05-2.1-16.01-5.06-13.33-7.97-17.15-20.3-9.75-33.94,8.73-16.08,22.31-25.76,40.67-27.87,4.45-.51,9.14,.43,13.63,1.22,3.67,.65,5.72,4.58,4.9,8.23-.77,3.44-4.49,6.03-8.17,5.09-5.58-1.43-10.91-1.02-16.33,.73-10.56,3.42-18.03,10.31-22.81,20.12-3.07,6.3-1.91,10.56,4.28,13.91,3.48,1.88,7.58,2.72,11.5,3.67,5.88,1.42,11.85,2.48,17.76,3.79,1.62,.36,3.21,.94,4.73,1.62,10.25,4.55,13.41,12.44,8.95,22.73-3.91,9.01-10.14,15.98-19.01,20.44-9.47,4.76-19.63,6.96-31.32,8.11Z"/>
      <path class="cls-1" d="M681.54,144.07c.63-4.36,.98-7.79,1.65-11.14,.74-3.67,1.82-7.26,2.67-10.91,1.5-6.42,5.49-10.94,11.05-14.09,10.48-5.93,18.14,1.95,18.28,9.78,.25,13.16-2.01,25.97-10.36,36.89-2.13,2.79-4.68,5.11-8.32,5.66-4.8,.72-9.27-1.27-11.48-5.82-1.69-3.48-2.52-7.39-3.5-10.38Zm27.29-22.12c.08-.83,.48-1.8,.18-2.46-1.04-2.27-1.84-5.17-3.69-6.39-1.29-.85-4.4,.17-6.23,1.18-4.6,2.54-6.8,6.85-7.46,11.99-.3,2.36-.25,4.91-1.18,7.01-2.34,5.32-2.71,10.62-.71,15.98,2.14,5.75,6.06,6.24,9.92,1.42,.52-.65,.97-1.35,1.44-2.04,5.48-8.06,6.75-17.33,7.73-26.69Z"/>
      <path class="cls-1" d="M672.28,132.39c0-7.08,0-14.17,0-21.25,0-2.2,.6-4.1,3.17-4.14,2.77-.04,3.35,1.91,3.33,4.26-.09,14.06-.18,28.12-.2,42.18,0,2.32-.74,4.07-3.23,4-2.42-.07-3.22-1.78-3.2-4.12,.07-6.98,.03-13.96,.03-20.94,.03,0,.07,0,.1,0Z"/>
      <path class="cls-1" d="M678.06,92.17c-3.21-.27-4.47-1.49-4.46-3.66,0-1.94,1.23-3.1,3.18-3.05,2.18,.06,3.69,1.42,3.42,3.53-.16,1.27-1.57,2.38-2.13,3.17Z"/>
      <path class="cls-1" d="M670.87,156.08c-1.24,.75-2.45,2.06-3.73,2.13-2.13,.12-3.71-1.52-3.18-3.61,.3-1.18,2.19-2.79,3.27-2.72,1.29,.08,2.48,1.74,3.72,2.72-.03,.49-.06,.99-.08,1.48Z"/>
    </g>
  </g>
</svg>