<?xml version="1.0" encoding="UTF-8"?>
<svg id="Layer_2" data-name="Layer 2" xmlns="http://www.w3.org/2000/svg" xmlns:xlink="http://www.w3.org/1999/xlink" viewBox="0 0 152.1 152.15">
  <defs>
    <style>
      .cls-1 {
        fill: url(#linear-gradient);
      }
    </style>
    <linearGradient id="linear-gradient" x1="-248.94" y1="347.16" x2="-248.94" y2="346.48" gradientTransform="translate(55575.4 77416.69) scale(222.94 -223)" gradientUnits="userSpaceOnUse">
      <stop offset="0" stop-color="#ef4044"/>
      <stop offset="1" stop-color="#1c1d1d"/>
    </linearGradient>
  </defs>
  <g id="Layer_1-2" data-name="Layer 1">
    <path id="Transparency" class="cls-1" d="M83.77,9.53c24.01,16.76,29.95,49.36,13.88,73.54l-.49,.73,18.19,20.46h1.77c1.94,0,3.65,.7,5.12,2.1l.18,.18,26.27,26.02c4.55,4.55,4.55,11.62,0,16.17-4.49,4.49-11.44,4.55-15.99,.18l-.18-.18-26.27-26.28c-1.46-1.22-2.22-3.14-2.27-5.08v-.22s0-2.02,0-2.02l-17.68-19.96c-18.44,14.65-44.21,15.41-63.41,2.02C-1.37,80.27-7.18,46.92,9.49,22.92,26.16-1.08,59.51-7.39,83.77,9.53Zm33.35,99.79h-2.02l-6.06,6.06v2.02c0,.7,.22,1.19,.65,1.66l.1,.11,26.27,26.27c1.26,1.01,2.78,1.77,4.55,1.77,1.51,0,3.28-.76,4.55-1.77,2.48-2.48,2.53-6.42,.14-8.95l-.14-.14-26.27-26.27c-.51-.5-1.01-.76-1.77-.76Zm-99.03-7.58v25.26c0,4.23,3.18,7.47,7.38,7.58h.2s88.42,0,88.42,0v5.05H25.66c-7,0-12.51-5.44-12.63-12.4v-.23s0-25.26,0-25.26h5.05Zm83.37,20.21v5.05H23.13v-5.05H101.45Zm-10.11-10.11v5.05H23.13v-5.05H91.35Zm2.53-23.75c-.93,1.17-2.3,2.55-3.49,3.75l-.3,.3,16.42,18.44,4.04-3.79-16.67-18.69ZM126.71,13.32c7,0,12.51,5.44,12.63,12.4v.23s0,83.37,0,83.37h-5.05V25.95c0-4.23-3.18-7.47-7.38-7.58h-.2s-27.79,0-27.79,0v-5.05h27.79ZM53.45,5.74C26.92,5.74,5.45,27.22,5.45,53.74s21.47,48,48,48,48-21.47,48-48S79.98,5.74,53.45,5.74Zm0,5.05c23.75,0,42.95,19.2,42.95,42.95s-19.2,42.95-42.95,42.95S10.5,77.49,10.5,53.74,29.7,10.8,53.45,10.8Zm75.79,78.32v5.05h-15.16v-5.05h15.16ZM53.45,15.85c-20.97,0-37.9,16.93-37.9,37.9s16.93,37.9,37.9,37.9,37.9-16.93,37.9-37.9S74.42,15.85,53.45,15.85Zm75.79,60.63v5.05h-17.68v-5.05h17.68Zm-58.11-2.53v5.05H35.77v-5.05h35.37Zm58.11-10.11v5.05h-17.68v-5.05h17.68Zm-46.44-12.12l.46,.5,1.52,1.52-1.26,1.77c-.76,1.01-1.77,1.77-2.53,2.53-16.26,14.76-41.43,13.91-56.39-2.04l-.45-.49-.25-.25-1.26-1.52,1.01-1.77c.76-1.01,1.77-1.77,2.53-2.53,16.26-14.76,41.43-13.91,56.64,2.28Zm-32.64-7.59c-7.83,.76-15.16,4.04-21.22,9.6,5.81,5.56,13.39,8.84,21.22,9.6-3.28-1.01-5.56-3.54-6.57-6.57-1.51-5.3,1.26-10.86,6.57-12.63Zm6.57,0c3.28,1.01,5.56,3.54,6.57,6.57,1.52,5.31-1.26,10.86-6.57,12.63,7.83-.76,15.16-4.04,21.22-9.6-5.81-5.56-13.39-8.84-21.22-9.6Zm-3.28,4.55c-2.78,0-5.05,2.27-5.05,5.05s2.27,5.05,5.05,5.05,5.05-2.27,5.05-5.05-2.27-5.05-5.05-5.05Zm75.79,2.53v5.05h-17.68v-5.05h17.68Zm0-12.63v5.05h-17.68v-5.05h17.68Zm-58.11-10.11v5.05H35.77v-5.05h35.37Zm58.11-2.53v5.05h-22.74v-5.05h22.74Z"/>
  </g>
</svg>