<?xml version="1.0" encoding="UTF-8"?>
<svg id="Layer_2" data-name="Layer 2" xmlns="http://www.w3.org/2000/svg" xmlns:xlink="http://www.w3.org/1999/xlink" viewBox="0 0 152.15 96.28">
  <defs>
    <style>
      .cls-1 {
        fill: url(#linear-gradient);
      }
    </style>
    <linearGradient id="linear-gradient" x1="118.88" y1="-824.4" x2="118.88" y2="-825.08" gradientTransform="translate(-26433.16 -116335.38) scale(223 -141.12)" gradientUnits="userSpaceOnUse">
      <stop offset="0" stop-color="#ef4044"/>
      <stop offset="1" stop-color="#1c1d1d"/>
    </linearGradient>
  </defs>
  <g id="Layer_1-2" data-name="Layer 1">
    <g id="TruckingLogistics">
      <path id="path-l9_hjd4q6y-31" data-name="path-l9 hjd4q6y-31" d="M60.82,0h44.96c3.79,0,5.67,1.87,5.69,5.64,0,1.43,0,2.86,0,4.44,.62,.03,1.15,.08,1.67,.08,5.1,0,10.21,.11,15.3-.02,6.41-.16,12,4.26,10.89,12.96-.1,.79-.94,1.48-1.64,2.52,1.13,4.53,2.35,9.47,3.62,14.4,.1,.38,.54,.86,.91,.95,5.32,1.37,8.55,4.72,9.72,10.08h0c.03,.13,.13,.26,.21,.39h0v27.94c-.71,1.35-1.87,1.75-3.33,1.7-2.22-.07-4.43-.02-6.76-.02-.24,4.97-2.08,9.05-5.94,12.07-2.88,2.25-6.18,3.28-9.83,3.16-6.25-.21-13.93-4.88-14.59-15.11H58.16c-.23,5.05-2.19,9.21-6.3,12.23-2.9,2.13-6.18,3.07-9.77,2.87-5.87-.33-13.55-4.64-14.28-15.21h-1.55c-3.57,0-7.13,.02-10.7,0-3.44-.02-5.42-2.02-5.45-5.47,0-.38,0-.76,0-1.15v-1.16c0-.78,0-1.58,0-2.43-2.24,0-4.3,0-6.37,0-.59,0-1.19,.02-1.78-.06-1.19-.17-1.86-.94-1.96-2.1-.11-1.23,.51-2.1,1.72-2.44,.47-.13,.98-.15,1.47-.15,7.08,0,14.17,0,21.25,0,.35,0,.69,0,1.04,.05,1.31,.21,2.18,1.22,2.12,2.45-.06,1.23-.98,2.19-2.33,2.22-2.87,.06-5.74,.02-8.62,.03h-1.68v5.3c.36,.05,.73,.14,1.11,.14,3.87,.01,7.73-.02,11.59,.03,.84,0,1.17-.33,1.5-1.06,2.73-5.84,7.35-9.09,13.79-9.1,6.49-.01,11.18,3.23,13.9,9.15,.35,.75,.74,1.01,1.55,1.01,15.7-.02,31.41-.02,47.11-.02,.33,0,.67-.05,1.17-.1h0v-16.66c0-.39-.02-.79,.01-1.19,.12-1.39,1.1-2.39,2.35-2.41,1.33-.02,2.37,1,2.38,2.5,.03,5.35,.02,10.7,.02,16.05,0,.35-.06,.71,.02,1.04,.08,.27,.31,.68,.5,.7,.26,.03,.58-.23,.82-.43,.13-.11,.14-.36,.23-.54,2.77-5.82,7.38-9.08,13.81-9.1,6.5-.02,11.17,3.24,13.91,9.14,.35,.75,.72,1.04,1.54,1.01,1.63-.06,3.26-.02,4.99-.02h0v-10.54c-.83,0-1.7,.02-2.56,0-4.36-.12-7.4-3.2-7.46-7.58-.02-1.54-.03-3.07,0-4.61,.03-1.85,.88-2.7,2.76-2.72,2.23-.03,4.45,0,6.88,0-.36-1.58-1.14-2.81-2.35-3.53-1.37-.81-2.95-1.73-4.45-1.75-9.31-.16-18.62-.08-27.94-.08-.19,0-.37,.06-.7,.11,0,.87,.03,1.7,0,2.52-.07,1.43-1.01,2.38-2.31,2.41-1.28,.02-2.28-.92-2.42-2.33-.04-.44-.02-.89-.02-1.34h0V4.86H14.88V46.84c0,.5,.02,.99-.03,1.48-.13,1.33-.93,2.08-2.22,2.17-1.24,.08-2.07-.61-2.39-1.8-.14-.51-.12-1.08-.12-1.62,0-13.77,0-27.55,0-41.32,0-3.85,1.91-5.76,5.75-5.76,29.97,0,59.94,0,89.92,0H60.82ZM126.98,70.87c-5.68-.07-10.45,4.66-10.43,10.35,.02,5.63,4.69,10.3,10.33,10.31,5.64,0,10.31-4.63,10.35-10.28,.04-5.63-4.58-10.3-10.25-10.37Zm-83.82,0c-5.61-.12-10.38,4.51-10.47,10.14-.1,5.65,4.48,10.39,10.11,10.51h0c5.71,.11,10.44-4.47,10.54-10.23,.1-5.61-4.48-10.31-10.18-10.43Zm-.11,5.43h.17c2.67,.1,4.71,2.23,4.69,4.93-.02,2.72-2.24,4.93-4.93,4.9-2.67-.03-4.92-2.32-4.89-4.98,.03-2.71,2.24-4.87,4.97-4.85h0Zm83.83,0c2.74,0,4.93,2.17,4.93,4.88s-2.24,4.94-4.91,4.95c-2.68,0-4.91-2.23-4.92-4.93,0-2.72,2.17-4.9,4.91-4.9Zm-64.2-10.02c.42-.3,1.15-.2,1.73-.2,11.14,0,22.28,0,33.43,0,.29,0,.59-.01,.89,0,1.59,.11,2.63,1.12,2.57,2.49-.06,1.33-1.05,2.24-2.62,2.25-5.89,.02-11.79,.01-17.68,.01s-11.29,.01-16.94-.02c-.67,0-1.55-.02-1.95-.42-.56-.56-1.12-1.53-1.02-2.23,.1-.7,.91-1.41,1.58-1.89Zm84.6-10.58h-5.18c-.41,4.72,.42,5.55,5.18,5.19h0v-5.19Zm-109.83,.2c1.12,0,2.19,.27,2.56,1.37,.23,.7,.22,1.83-.2,2.31-.52,.6-1.57,1.02-2.41,1.04-4.95,.09-9.9,.04-14.85,.04s-9.7,0-14.55,0h0c-1.87,0-2.95-.9-2.94-2.38,.02-1.45,1.14-2.37,2.99-2.37,9.8,0,19.6,0,29.4,0ZM79.33,23.72c1.14-1.06,2.47-1.11,3.45-.17,1,.96,1,2.41-.13,3.56-3.69,3.74-7.42,7.44-11.13,11.15-3.68,3.68-7.35,7.36-11.04,11.03-1.68,1.68-2.75,1.68-4.41,.02-3.93-3.92-7.84-7.85-11.77-11.76-.83-.82-1.38-1.69-.96-2.9,.61-1.74,2.64-2.12,4.09-.69,3.15,3.09,6.25,6.22,9.36,9.35,.44,.45,.78,1.02,1.29,1.68,6.65-6.66,12.95-12.96,19.25-19.27,.66-.66,1.31-1.35,2-1.99h0Zm51.86,1.37c-6.04,.07-12.08,.03-18.12,.04-.48,0-.96,.04-1.48,.07h0v15.42h24.85c-.08-.46-.13-.85-.23-1.22-1.06-4.27-2.15-8.53-3.16-12.81-.25-1.09-.68-1.5-1.87-1.49Zm-2-10.16c-5.54-.04-11.08-.01-16.62,0-.33,0-.66,.09-1.02,.14h0v5.16h22.97c.19-3-2.08-5.27-5.33-5.29Z"/>
      <path id="path-l9_hjd4q6y-31-2" data-name="path-l9 hjd4q6y-31" class="cls-1" d="M60.82,0h44.96c3.79,0,5.67,1.87,5.69,5.64,0,1.43,0,2.86,0,4.44,.62,.03,1.15,.08,1.67,.08,5.1,0,10.21,.11,15.3-.02,6.41-.16,12,4.26,10.89,12.96-.1,.79-.94,1.48-1.64,2.52,1.13,4.53,2.35,9.47,3.62,14.4,.1,.38,.54,.86,.91,.95,5.32,1.37,8.55,4.72,9.72,10.08h0c.03,.13,.13,.26,.21,.39h0v27.94c-.71,1.35-1.87,1.75-3.33,1.7-2.22-.07-4.43-.02-6.76-.02-.24,4.97-2.08,9.05-5.94,12.07-2.88,2.25-6.18,3.28-9.83,3.16-6.25-.21-13.93-4.88-14.59-15.11H58.16c-.23,5.05-2.19,9.21-6.3,12.23-2.9,2.13-6.18,3.07-9.77,2.87-5.87-.33-13.55-4.64-14.28-15.21h-1.55c-3.57,0-7.13,.02-10.7,0-3.44-.02-5.42-2.02-5.45-5.47,0-.38,0-.76,0-1.15v-1.16c0-.78,0-1.58,0-2.43-2.24,0-4.3,0-6.37,0-.59,0-1.19,.02-1.78-.06-1.19-.17-1.86-.94-1.96-2.1-.11-1.23,.51-2.1,1.72-2.44,.47-.13,.98-.15,1.47-.15,7.08,0,14.17,0,21.25,0,.35,0,.69,0,1.04,.05,1.31,.21,2.18,1.22,2.12,2.45-.06,1.23-.98,2.19-2.33,2.22-2.87,.06-5.74,.02-8.62,.03h-1.68v5.3c.36,.05,.73,.14,1.11,.14,3.87,.01,7.73-.02,11.59,.03,.84,0,1.17-.33,1.5-1.06,2.73-5.84,7.35-9.09,13.79-9.1,6.49-.01,11.18,3.23,13.9,9.15,.35,.75,.74,1.01,1.55,1.01,15.7-.02,31.41-.02,47.11-.02,.33,0,.67-.05,1.17-.1h0v-16.66c0-.39-.02-.79,.01-1.19,.12-1.39,1.1-2.39,2.35-2.41,1.33-.02,2.37,1,2.38,2.5,.03,5.35,.02,10.7,.02,16.05,0,.35-.06,.71,.02,1.04,.08,.27,.31,.68,.5,.7,.26,.03,.58-.23,.82-.43,.13-.11,.14-.36,.23-.54,2.77-5.82,7.38-9.08,13.81-9.1,6.5-.02,11.17,3.24,13.91,9.14,.35,.75,.72,1.04,1.54,1.01,1.63-.06,3.26-.02,4.99-.02h0v-10.54c-.83,0-1.7,.02-2.56,0-4.36-.12-7.4-3.2-7.46-7.58-.02-1.54-.03-3.07,0-4.61,.03-1.85,.88-2.7,2.76-2.72,2.23-.03,4.45,0,6.88,0-.36-1.58-1.14-2.81-2.35-3.53-1.37-.81-2.95-1.73-4.45-1.75-9.31-.16-18.62-.08-27.94-.08-.19,0-.37,.06-.7,.11,0,.87,.03,1.7,0,2.52-.07,1.43-1.01,2.38-2.31,2.41-1.28,.02-2.28-.92-2.42-2.33-.04-.44-.02-.89-.02-1.34h0V4.86H14.88V46.84c0,.5,.02,.99-.03,1.48-.13,1.33-.93,2.08-2.22,2.17-1.24,.08-2.07-.61-2.39-1.8-.14-.51-.12-1.08-.12-1.62,0-13.77,0-27.55,0-41.32,0-3.85,1.91-5.76,5.75-5.76,29.97,0,59.94,0,89.92,0H60.82ZM126.98,70.87c-5.68-.07-10.45,4.66-10.43,10.35,.02,5.63,4.69,10.3,10.33,10.31,5.64,0,10.31-4.63,10.35-10.28,.04-5.63-4.58-10.3-10.25-10.37Zm-83.82,0c-5.61-.12-10.38,4.51-10.47,10.14-.1,5.65,4.48,10.39,10.11,10.51h0c5.71,.11,10.44-4.47,10.54-10.23,.1-5.61-4.48-10.31-10.18-10.43Zm-.11,5.43h.17c2.67,.1,4.71,2.23,4.69,4.93-.02,2.72-2.24,4.93-4.93,4.9-2.67-.03-4.92-2.32-4.89-4.98,.03-2.71,2.24-4.87,4.97-4.85h0Zm83.83,0c2.74,0,4.93,2.17,4.93,4.88s-2.24,4.94-4.91,4.95c-2.68,0-4.91-2.23-4.92-4.93,0-2.72,2.17-4.9,4.91-4.9Zm-64.2-10.02c.42-.3,1.15-.2,1.73-.2,11.14,0,22.28,0,33.43,0,.29,0,.59-.01,.89,0,1.59,.11,2.63,1.12,2.57,2.49-.06,1.33-1.05,2.24-2.62,2.25-5.89,.02-11.79,.01-17.68,.01s-11.29,.01-16.94-.02c-.67,0-1.55-.02-1.95-.42-.56-.56-1.12-1.53-1.02-2.23,.1-.7,.91-1.41,1.58-1.89Zm84.6-10.58h-5.18c-.41,4.72,.42,5.55,5.18,5.19h0v-5.19Zm-109.83,.2c1.12,0,2.19,.27,2.56,1.37,.23,.7,.22,1.83-.2,2.31-.52,.6-1.57,1.02-2.41,1.04-4.95,.09-9.9,.04-14.85,.04s-9.7,0-14.55,0h0c-1.87,0-2.95-.9-2.94-2.38,.02-1.45,1.14-2.37,2.99-2.37,9.8,0,19.6,0,29.4,0ZM79.33,23.72c1.14-1.06,2.47-1.11,3.45-.17,1,.96,1,2.41-.13,3.56-3.69,3.74-7.42,7.44-11.13,11.15-3.68,3.68-7.35,7.36-11.04,11.03-1.68,1.68-2.75,1.68-4.41,.02-3.93-3.92-7.84-7.85-11.77-11.76-.83-.82-1.38-1.69-.96-2.9,.61-1.74,2.64-2.12,4.09-.69,3.15,3.09,6.25,6.22,9.36,9.35,.44,.45,.78,1.02,1.29,1.68,6.65-6.66,12.95-12.96,19.25-19.27,.66-.66,1.31-1.35,2-1.99h0Zm51.86,1.37c-6.04,.07-12.08,.03-18.12,.04-.48,0-.96,.04-1.48,.07h0v15.42h24.85c-.08-.46-.13-.85-.23-1.22-1.06-4.27-2.15-8.53-3.16-12.81-.25-1.09-.68-1.5-1.87-1.49Zm-2-10.16c-5.54-.04-11.08-.01-16.62,0-.33,0-.66,.09-1.02,.14h0v5.16h22.97c.19-3-2.08-5.27-5.33-5.29Z"/>
    </g>
  </g>
</svg>