<?xml version="1.0" encoding="UTF-8"?>
<svg id="Layer_2" data-name="Layer 2" xmlns="http://www.w3.org/2000/svg" xmlns:xlink="http://www.w3.org/1999/xlink" viewBox="0 0 121.53 152.15">
  <defs>
    <style>
      .cls-1 {
        fill: url(#linear-gradient);
      }
    </style>
    <linearGradient id="linear-gradient" x1="-443.7" y1="122.9" x2="-443.7" y2="122.22" gradientTransform="translate(79095.62 27406.92) scale(178.13 -223)" gradientUnits="userSpaceOnUse">
      <stop offset="0" stop-color="#ef4044"/>
      <stop offset="1" stop-color="#1c1d1d"/>
    </linearGradient>
  </defs>
  <g id="Layer_1-2" data-name="Layer 1">
    <path id="Zend" class="cls-1" d="M43.37,122c8.31,0,15.08,6.76,15.08,15.08h0l-.07,1.54-3.87-.02h-21.97c.76,5.39,5.38,9.44,10.84,9.44,4.1,0,7.79-2.25,9.69-5.87h4.48c-2.15,5.97-7.85,9.97-14.18,9.97-8.31,0-15.07-6.76-15.07-15.07s6.76-15.08,15.07-15.08Zm78.16-10.21v39.43h-13.38c-6.84,0-12.65-4.99-13.81-11.89-.05-.39-.17-1.4-.17-2.41,0-.7,.06-1.57,.17-2.48,1.17-6.92,6.61-11.6,13.56-11.71h.25s9.69,0,9.69,0v-.54s0-.06,0-.06h0v-2.36s0-.11,0-.11h0v-2.26s0-.1,0-.1h0v-2.23s0-.05,0-.05h0v-.4s0,0,0,0l3.69-2.83Zm-93.26,11.13s-4.37,5.71-8.86,11.58l-.83,1.08c-4.4,5.75-8.66,11.32-8.8,11.5h15.24l3.27,4.14h0s-26.9,0-26.9,0c0,0,4.39-5.72,8.9-11.6l.55-.72c4.51-5.88,8.97-11.7,9.11-11.88H4.67l-3.22-4.09H28.27Zm47.18,0c10.68,0,15.47,6.57,15.47,13.07h0v15.22h-4.22v-15.01c0-5.68-4.43-9.07-11.85-9.07h-7.54v24.07h-4.23v-28.3h12.37Zm41.88,4.04h-.11s-.03,0-.03,0h-.2c-.67,0-2.25,0-3.87,.01h-.46c-1.7,0-3.36,.01-3.99,.01h-.15s-.04,0-.05,0h-.07c-4.92,0-8.88,3.1-9.88,7.75-.11,.81-.17,1.59-.17,2.17,0,0,.01,.13,.03,.34l.02,.22c.05,.64,.12,1.6,.12,1.6,1.06,4.43,5.05,7.8,9.33,7.91h.21s9.27,0,9.27,0v-20.03Zm-73.96-.86c-4.96,0-9.4,3.48-10.61,8.3h21.23c-1.22-4.82-5.65-8.3-10.62-8.3ZM74.65,16.23L0,114.57V33.12c0-9.2,7.39-16.74,16.56-16.89h.28s57.81,0,57.81,0ZM121.53,0V81.38c0,9.19-7.38,16.74-16.56,16.89h-.28s-57.81,0-57.81,0L121.53,0Z"/>
  </g>
</svg>