<?xml version="1.0" encoding="UTF-8"?>
<svg width="224px" height="224px" viewBox="0 0 224 224" version="1.1" xmlns="http://www.w3.org/2000/svg" xmlns:xlink="http://www.w3.org/1999/xlink">
    <title>fade test</title>
    <defs>
        <linearGradient x1="50%" y1="0%" x2="50%" y2="100%" id="linearGradient-1">
            <stop stop-color="#FF3B3F" offset="0%"></stop>
            <stop stop-color="#1D1D1D" offset="100%"></stop>
        </linearGradient>
        <path d="M165.556458,71.0003026 C171.71701,71.0003026 176.711905,75.9951977 176.711905,82.1557496 L176.711905,85.874232 L222.873377,85.874232 L269.673964,132.674818 L269.673964,189.991737 L262.236999,189.991737 L262.236999,137.932985 L217.615211,137.932985 L217.615211,93.3111966 L176.711905,93.3111966 L176.711905,186.273255 C176.711905,192.433807 171.71701,197.428702 165.556458,197.428702 L106.060741,197.428702 L106.060741,286.672278 L262.236999,286.672278 L262.236999,242.05049 L269.673964,242.05049 L269.673964,294.109243 L98.6237763,294.109243 L98.6237763,197.428702 L83.749847,197.428702 C77.5892951,197.428702 72.5944,192.433807 72.5944,186.273255 L72.5944,82.1557496 C72.5944,75.9951977 77.5892951,71.0003026 83.749847,71.0003026 L165.556458,71.0003026 Z M158.119494,204.865667 C178.647404,204.887455 195.282529,221.522579 195.304317,242.05049 C195.304317,262.587479 178.656483,279.235313 158.119494,279.235313 C137.582504,279.235313 120.93467,262.587479 120.93467,242.05049 C120.93467,221.513501 137.582504,204.865667 158.119494,204.865667 Z M292.326203,189.650392 C296.683799,194.006173 296.683799,201.070927 292.326203,205.426707 L228.58546,269.172896 C228.273166,269.483375 227.910033,269.733937 227.510586,269.917319 L208.017604,278.893968 C206.605017,279.542161 204.936421,279.242576 203.837943,278.142283 C202.737651,277.043805 202.438065,275.375209 203.086258,273.962621 L212.062907,254.46964 C212.246289,254.070194 212.498667,253.70706 212.807329,253.394766 L276.553519,189.650392 C280.967401,185.436233 287.91232,185.436233 292.326203,189.650392 Z M158.119494,212.302631 C141.689539,212.302631 128.371635,225.620536 128.371635,242.05049 C128.371635,258.480444 141.689539,271.798349 158.119494,271.798349 C174.54037,271.780192 187.849196,258.471366 187.867352,242.05049 C187.867352,225.620536 174.549448,212.302631 158.119494,212.302631 Z M266.066237,210.652192 L218.537569,258.184491 L214.049244,267.92735 L223.792104,263.439026 L271.324403,215.910358 L266.066237,210.652192 Z M161.837976,219.739596 L161.837976,223.830289 C168.312638,225.050417 172.993423,229.329939 172.993423,234.613525 L165.556458,234.613525 C165.556458,233.095629 162.660472,230.895043 158.119494,230.895043 C153.578515,230.895043 150.682529,233.095629 150.682529,234.613525 C150.682529,236.131421 153.578515,238.332008 158.119494,238.332008 C166.460659,238.332008 172.993423,243.228857 172.993423,249.487455 C172.993423,254.778303 168.312638,259.059642 161.837976,260.27069 L161.837976,264.361384 L154.401011,264.361384 L154.401011,260.27069 C147.926349,259.050563 143.245564,254.771041 143.245564,249.487455 L150.682529,249.487455 C150.682529,251.005351 153.578515,253.205937 158.119494,253.205937 C162.660472,253.205937 165.556458,251.005351 165.556458,249.487455 C165.556458,247.969558 162.660472,245.768972 158.119494,245.768972 C149.778328,245.768972 143.245564,240.872123 143.245564,234.613525 C143.245564,229.322677 147.926349,225.041338 154.401011,223.830289 L154.401011,219.739596 L161.837976,219.739596 Z M273.938961,202.775836 L271.335297,205.3795 L276.593464,210.63585 L279.197127,208.034002 L273.938961,202.775836 Z M281.826211,194.892218 L279.193496,197.521301 L284.451663,202.779467 L287.080746,200.150384 C288.531462,198.697852 288.531462,196.34475 287.080746,194.892218 C285.610057,193.486893 283.295084,193.486893 281.826211,194.892218 Z M199.022799,193.71022 L199.022799,201.147184 L191.585835,201.147184 L191.585835,193.71022 L199.022799,193.71022 Z M251.081552,193.71022 L251.081552,201.147184 L206.459764,201.147184 L206.459764,193.71022 L251.081552,193.71022 Z M165.556458,78.4372673 L83.749847,78.4372673 C81.6963295,78.4372673 80.0313647,80.1022322 80.0313647,82.1557496 L80.0313647,186.273255 C80.0313647,188.326772 81.6963295,189.991737 83.749847,189.991737 L165.556458,189.991737 C167.609976,189.991737 169.274941,188.326772 169.274941,186.273255 L169.274941,82.1557496 C169.274941,80.1022322 167.609976,78.4372673 165.556458,78.4372673 Z M199.022799,178.83629 L199.022799,186.273255 L191.585835,186.273255 L191.585835,178.83629 L199.022799,178.83629 Z M251.081552,178.83629 L251.081552,186.273255 L206.459764,186.273255 L206.459764,178.83629 L251.081552,178.83629 Z M102.342259,163.962361 C106.449294,163.962361 109.779223,167.292291 109.779223,171.399326 L109.779223,178.83629 C109.779223,182.943325 106.449294,186.273255 102.342259,186.273255 L94.905294,186.273255 C90.7982591,186.273255 87.4683293,182.943325 87.4683293,178.83629 L87.4683293,171.399326 C87.4683293,167.292291 90.7982591,163.962361 94.905294,163.962361 Z M128.371635,163.962361 C132.47867,163.962361 135.8086,167.292291 135.8086,171.399326 L135.8086,178.83629 C135.8086,182.943325 132.47867,186.273255 128.371635,186.273255 L120.93467,186.273255 C116.827635,186.273255 113.497706,182.943325 113.497706,178.83629 L113.497706,171.399326 C113.497706,167.292291 116.827635,163.962361 120.93467,163.962361 Z M154.401011,163.962361 C158.508046,163.962361 161.837976,167.292291 161.837976,171.399326 L161.837976,178.83629 C161.837976,182.943325 158.508046,186.273255 154.401011,186.273255 L146.964047,186.273255 C142.857012,186.273255 139.527082,182.943325 139.527082,178.83629 L139.527082,171.399326 C139.527082,167.292291 142.857012,163.962361 146.964047,163.962361 Z M102.342259,171.399326 L94.905294,171.399326 L94.905294,178.83629 L102.342259,178.83629 L102.342259,171.399326 Z M154.401011,171.399326 L146.964047,171.399326 L146.964047,178.83629 L154.401011,178.83629 L154.401011,171.399326 Z M128.371635,171.399326 L120.93467,171.399326 L120.93467,178.83629 L128.371635,178.83629 L128.371635,171.399326 Z M199.022799,163.962361 L199.022799,171.399326 L191.585835,171.399326 L191.585835,163.962361 L199.022799,163.962361 Z M251.081552,163.962361 L251.081552,171.399326 L206.459764,171.399326 L206.459764,163.962361 L251.081552,163.962361 Z M128.371635,137.932985 C132.47867,137.932985 135.8086,141.262914 135.8086,145.369949 L135.8086,152.806914 C135.8086,156.913949 132.47867,160.243879 128.371635,160.243879 L120.93467,160.243879 C116.827635,160.243879 113.497706,156.913949 113.497706,152.806914 L113.497706,145.369949 C113.497706,141.262914 116.827635,137.932985 120.93467,137.932985 Z M154.401011,137.932985 C158.508046,137.932985 161.837976,141.262914 161.837976,145.369949 L161.837976,152.806914 C161.837976,156.913949 158.508046,160.243879 154.401011,160.243879 L146.964047,160.243879 C142.857012,160.243879 139.527082,156.913949 139.527082,152.806914 L139.527082,145.369949 C139.527082,141.262914 142.857012,137.932985 146.964047,137.932985 Z M102.342259,137.932985 C106.449294,137.932985 109.779223,141.262914 109.779223,145.369949 L109.779223,152.806914 C109.779223,156.913949 106.449294,160.243879 102.342259,160.243879 L94.905294,160.243879 C90.7982591,160.243879 87.4683293,156.913949 87.4683293,152.806914 L87.4683293,145.369949 C87.4683293,141.262914 90.7982591,137.932985 94.905294,137.932985 Z M199.022799,149.088432 L199.022799,156.525396 L191.585835,156.525396 L191.585835,149.088432 L199.022799,149.088432 Z M251.081552,149.088432 L251.081552,156.525396 L206.459764,156.525396 L206.459764,149.088432 L251.081552,149.088432 Z M102.342259,145.369949 L94.905294,145.369949 L94.905294,152.806914 L102.342259,152.806914 L102.342259,145.369949 Z M128.371635,145.369949 L120.93467,145.369949 L120.93467,152.806914 L128.371635,152.806914 L128.371635,145.369949 Z M154.401011,145.369949 L146.964047,145.369949 L146.964047,152.806914 L154.401011,152.806914 L154.401011,145.369949 Z M102.342259,111.903608 C106.449294,111.903608 109.779223,115.233538 109.779223,119.340573 L109.779223,126.777538 C109.779223,130.884573 106.449294,134.214502 102.342259,134.214502 L94.905294,134.214502 C90.7982591,134.214502 87.4683293,130.884573 87.4683293,126.777538 L87.4683293,119.340573 C87.4683293,115.233538 90.7982591,111.903608 94.905294,111.903608 Z M128.371635,111.903608 C132.47867,111.903608 135.8086,115.233538 135.8086,119.340573 L135.8086,126.777538 C135.8086,130.884573 132.47867,134.214502 128.371635,134.214502 L120.93467,134.214502 C116.827635,134.214502 113.497706,130.884573 113.497706,126.777538 L113.497706,119.340573 C113.497706,115.233538 116.827635,111.903608 120.93467,111.903608 Z M154.401011,111.903608 C158.508046,111.903608 161.837976,115.233538 161.837976,119.340573 L161.837976,126.777538 C161.837976,130.884573 158.508046,134.214502 154.401011,134.214502 L146.964047,134.214502 C142.857012,134.214502 139.527082,130.884573 139.527082,126.777538 L139.527082,119.340573 C139.527082,115.233538 142.857012,111.903608 146.964047,111.903608 Z M225.052176,98.569363 L225.052176,130.49602 L256.978833,130.49602 L225.052176,98.569363 Z M102.342259,119.340573 L94.905294,119.340573 L94.905294,126.777538 L102.342259,126.777538 L102.342259,119.340573 Z M128.371635,119.340573 L120.93467,119.340573 L120.93467,126.777538 L128.371635,126.777538 L128.371635,119.340573 Z M154.401011,119.340573 L146.964047,119.340573 L146.964047,126.777538 L154.401011,126.777538 L154.401011,119.340573 Z M165.556458,82.1557496 L165.556458,108.185126 L83.749847,108.185126 L83.749847,82.1557496 L165.556458,82.1557496 Z M158.119494,89.5927143 L91.1868117,89.5927143 L91.1868117,100.748161 L158.119494,100.748161 L158.119494,89.5927143 Z" id="path-2"></path>
    </defs>
    <g id="Site-Icons" stroke="none" stroke-width="1" fill="none" fill-rule="evenodd">
        <g id="Icons-to-Still-Be-Converted---11/7/22" transform="translate(-72.000000, -71.000000)" fill-rule="nonzero">
            <g id="fade-test">
                <use fill="#000000" xlink:href="#path-2"></use>
                <use fill="url(#linearGradient-1)" xlink:href="#path-2"></use>
            </g>
        </g>
    </g>
</svg>