<?xml version="1.0" encoding="UTF-8"?>
<svg id="Layer_2" data-name="Layer 2" xmlns="http://www.w3.org/2000/svg" xmlns:xlink="http://www.w3.org/1999/xlink" viewBox="0 0 153.36 153.36">
  <defs>
    <style>
      .cls-1 {
        fill: url(#linear-gradient);
      }

      .cls-1, .cls-2 {
        fill-rule: evenodd;
      }

      .cls-2 {
        fill: #1c1d1d;
      }
    </style>
    <linearGradient id="linear-gradient" x1="-123.23" y1="579.78" x2="-123.23" y2="579.09" gradientTransform="translate(27557.95 129290.45) scale(223 -223)" gradientUnits="userSpaceOnUse">
      <stop offset="0" stop-color="#ef4044"/>
      <stop offset="1" stop-color="#1c1d1d"/>
    </linearGradient>
  </defs>
  <g id="Layer_1-2" data-name="Layer 1">
    <g id="Custom-Software-Development">
      <path id="path-t0aag1p1-v-8" class="cls-2" d="M132.91,0c7.05,0,12.77,5.73,12.78,12.78h0V63.9c0,7.05-5.73,12.77-12.78,12.78h-17.89v5.98c1.47-.7,3.1-.98,4.71-.82,2.75,.3,5.2,1.86,6.63,4.23,2.31-1.7,5.3-2.17,8.02-1.27,2.72,.9,4.84,3.06,5.69,5.8,1.59-.88,3.41-1.25,5.22-1.08,4.66,.58,8.14,4.57,8.07,9.27h0v26.43c0,4.34-.82,8.64-2.44,12.67-3.62,9.34-12.61,15.49-22.63,15.48h-13.39c-7.13-.01-13.95-2.93-18.88-8.08-1.93-2.01-3.79-3.95-4.86-5.04-4.33-4.28-6.79-10.11-6.81-16.2h0v-19.25c0-7.05,5.73-12.77,12.78-12.78h0v-15.34H56.23v15.34c7.05,0,12.77,5.73,12.78,12.78h0v19.25c-.03,6.1-2.48,11.93-6.83,16.22-1.06,1.08-2.91,3.01-4.84,5.02-4.94,5.15-11.76,8.06-18.89,8.08h-13.39c-9.95,.03-18.9-6.04-22.56-15.29C.86,133.98,0,129.61,0,125.2H0v-26.43c-.07-4.7,3.41-8.69,8.07-9.27,1.81-.18,3.63,.2,5.22,1.08,.85-2.74,2.97-4.9,5.69-5.79,2.72-.9,5.71-.43,8.02,1.27,1.43-2.37,3.88-3.93,6.63-4.23,1.62-.16,3.25,.13,4.72,.82h0v-5.98H20.45c-7.05,0-12.77-5.73-12.78-12.78h0V12.78C7.68,5.73,13.4,0,20.45,0h112.46Zm-26.84,58.79c-2.12,0-3.83,1.72-3.83,3.83h0v57.51c0,1.41-1.14,2.56-2.56,2.56s-2.56-1.14-2.56-2.56h0v-23c-4.23,0-7.67,3.43-7.67,7.67h0v19.25c.03,4.75,1.95,9.29,5.34,12.61,1.09,1.11,2.97,3.05,4.91,5.1,3.97,4.14,9.46,6.48,15.19,6.5h13.39c7.85,.02,14.92-4.77,17.81-12.07,1.41-3.48,2.14-7.21,2.14-10.97h0v-26.43c.09-2.07-1.4-3.87-3.44-4.19-1.08-.11-2.16,.24-2.97,.97-.81,.73-1.26,1.77-1.26,2.86,0,1.41-1.14,2.56-2.56,2.56s-2.56-1.14-2.56-2.56h0v-4.76c.09-2.07-1.4-3.87-3.44-4.19-1.08-.11-2.16,.24-2.97,.98-.81,.73-1.26,1.77-1.26,2.86,0,1.41-1.14,2.56-2.56,2.56s-2.56-1.14-2.56-2.56h0v-2.2c.09-2.07-1.39-3.88-3.44-4.2-1.08-.11-2.16,.24-2.97,.98-.81,.73-1.26,1.77-1.26,2.86,0,1.41-1.14,2.56-2.56,2.56s-2.56-1.14-2.56-2.56h0v-28.12c0-2.12-1.72-3.83-3.83-3.83Zm-58.79,0c-2.12,0-3.83,1.72-3.83,3.83h0v28.12c0,1.41-1.14,2.56-2.56,2.56s-2.56-1.14-2.56-2.56c0-1.08-.45-2.12-1.26-2.84-.81-.73-1.89-1.09-2.97-.98-2.04,.32-3.52,2.12-3.44,4.18h0v2.2c0,1.41-1.14,2.56-2.56,2.56s-2.56-1.14-2.56-2.56c0-1.08-.46-2.11-1.26-2.84-.81-.73-1.89-1.09-2.97-.98-2.04,.32-3.52,2.12-3.44,4.18h0v4.75c0,1.41-1.14,2.56-2.56,2.56s-2.56-1.14-2.56-2.56c0-2.12-1.72-3.83-3.83-3.83-.13,0-.26,.02-.39,.02-2.04,.32-3.52,2.12-3.44,4.18h0v26.43c0,3.69,.69,7.34,2.06,10.77,2.85,7.4,9.96,12.28,17.89,12.27h13.39c5.74-.01,11.22-2.36,15.19-6.49,1.94-2.03,3.82-3.99,4.9-5.08,3.39-3.33,5.32-7.87,5.35-12.63h0v-19.25c0-4.23-3.43-7.67-7.67-7.67h0v23c0,1.41-1.14,2.56-2.56,2.56s-2.56-1.14-2.56-2.56h0V62.62c0-2.12-1.72-3.83-3.83-3.83ZM132.91,5.11H20.45c-4.23,0-7.67,3.43-7.67,7.67h0V63.9c0,4.23,3.43,7.67,7.67,7.67h17.89v-5.11h-2.56c-1.41,0-2.56-1.14-2.56-2.56s1.14-2.56,2.56-2.56h2.68c.61-4.4,4.37-7.68,8.82-7.68s8.21,3.28,8.82,7.68h41.15c.61-4.4,4.37-7.68,8.82-7.68s8.21,3.28,8.82,7.68h2.69c1.41,0,2.56,1.14,2.56,2.56s-1.14,2.56-2.56,2.56h-2.56v5.11h17.89c4.23,0,7.67-3.43,7.67-7.67h0V12.78c0-4.23-3.43-7.67-7.67-7.67h0Zm-35.78,61.34H56.23v5.11h40.89v-5.11Zm35.77-5.25c1.42,0,2.58,1.08,2.58,2.41s-1.15,2.41-2.58,2.41h-5.16c-1.42,0-2.58-1.08-2.58-2.41s1.15-2.41,2.58-2.41h5.16Zm-107.28,0c1.42,0,2.58,1.08,2.58,2.41s-1.15,2.41-2.58,2.41h-5.16c-1.42,0-2.58-1.08-2.58-2.41s1.15-2.41,2.58-2.41h5.16Zm4.87-13.07c1.39,0,2.52,1.08,2.52,2.41s-1.13,2.41-2.52,2.41h-10.09c-1.39,0-2.52-1.08-2.52-2.41s1.13-2.41,2.52-2.41h10.09Zm33.64,0c1.42,0,2.58,1.08,2.58,2.41s-1.15,2.41-2.58,2.41h-5.16c-1.42,0-2.58-1.08-2.58-2.41s1.15-2.41,2.58-2.41h5.16Zm30.26,0c1.42,0,2.58,1.08,2.58,2.41s-1.15,2.41-2.58,2.41h-5.16c-1.42,0-2.58-1.08-2.58-2.41s1.15-2.41,2.58-2.41h5.16Zm38.54,0c1.41,0,2.55,1.08,2.55,2.41s-1.14,2.41-2.55,2.41h-12.77c-1.41,0-2.55-1.08-2.55-2.41s1.14-2.41,2.55-2.41h12.77Zm-53.67,0c1.42,0,2.58,1.08,2.58,2.41s-1.15,2.41-2.58,2.41h-5.16c-1.42,0-2.58-1.08-2.58-2.41s1.15-2.41,2.58-2.41h5.16Zm-53.64-12.38c1.42,0,2.58,1.08,2.58,2.41s-1.15,2.41-2.58,2.41h-5.16c-1.42,0-2.58-1.08-2.58-2.41s1.15-2.41,2.58-2.41h5.16Zm15.13,0c1.42,0,2.58,1.08,2.58,2.41s-1.15,2.41-2.58,2.41h-5.16c-1.42,0-2.58-1.08-2.58-2.41s1.15-2.41,2.58-2.41h5.16Zm15.82,0c1.42,0,2.58,1.08,2.58,2.41s-1.15,2.41-2.58,2.41h-5.16c-1.42,0-2.58-1.08-2.58-2.41s1.15-2.41,2.58-2.41h5.16Zm15.13,0c1.42,0,2.58,1.08,2.58,2.41s-1.15,2.41-2.58,2.41h-5.16c-1.42,0-2.58-1.08-2.58-2.41s1.15-2.41,2.58-2.41h5.16Zm15.13,0c1.42,0,2.58,1.08,2.58,2.41s-1.15,2.41-2.58,2.41h-5.16c-1.42,0-2.58-1.08-2.58-2.41s1.15-2.41,2.58-2.41h5.16Zm15.82,0c1.42,0,2.58,1.08,2.58,2.41s-1.15,2.41-2.58,2.41h-5.16c-1.42,0-2.58-1.08-2.58-2.41s1.15-2.41,2.58-2.41h5.16Zm15.13,0c1.42,0,2.58,1.08,2.58,2.41s-1.15,2.41-2.58,2.41h-5.16c-1.42,0-2.58-1.08-2.58-2.41s1.15-2.41,2.58-2.41h5.16Zm15.13-13.07c1.42,0,2.58,1.14,2.58,2.55h0v12.77c0,1.41-1.15,2.55-2.58,2.55s-2.58-1.14-2.58-2.55h0v-10.22h-12.89c-1.42,0-2.58-1.14-2.58-2.55s1.15-2.55,2.58-2.55h15.47Zm-86.65,0c1.42,0,2.58,1.08,2.58,2.41s-1.15,2.41-2.58,2.41h-5.16c-1.42,0-2.58-1.08-2.58-2.41s1.15-2.41,2.58-2.41h5.16Zm15.13,0c1.42,0,2.58,1.08,2.58,2.41s-1.15,2.41-2.58,2.41h-5.16c-1.42,0-2.58-1.08-2.58-2.41s1.15-2.41,2.58-2.41h5.16Zm15.13,0c1.42,0,2.58,1.08,2.58,2.41s-1.15,2.41-2.58,2.41h-5.16c-1.42,0-2.58-1.08-2.58-2.41s1.15-2.41,2.58-2.41h5.16Zm15.82,0c1.42,0,2.58,1.08,2.58,2.41s-1.15,2.41-2.58,2.41h-5.16c-1.42,0-2.58-1.08-2.58-2.41s1.15-2.41,2.58-2.41h5.16Zm15.13,0c1.42,0,2.58,1.08,2.58,2.41s-1.15,2.41-2.58,2.41h-5.16c-1.42,0-2.58-1.08-2.58-2.41s1.15-2.41,2.58-2.41h5.16Zm-76.96,0c1.39,0,2.52,1.08,2.52,2.41s-1.13,2.41-2.52,2.41h-10.09c-1.39,0-2.52-1.08-2.52-2.41s1.13-2.41,2.52-2.41h10.09Zm-4.87-12.38c1.42,0,2.58,1.08,2.58,2.41s-1.15,2.41-2.58,2.41h-5.16c-1.42,0-2.58-1.08-2.58-2.41s1.15-2.41,2.58-2.41h5.16Zm15.13,0c1.42,0,2.58,1.08,2.58,2.41s-1.15,2.41-2.58,2.41h-5.16c-1.42,0-2.58-1.08-2.58-2.41s1.15-2.41,2.58-2.41h5.16Zm15.82,0c1.42,0,2.58,1.08,2.58,2.41s-1.15,2.41-2.58,2.41h-5.16c-1.42,0-2.58-1.08-2.58-2.41s1.15-2.41,2.58-2.41h5.16Zm15.13,0c1.42,0,2.58,1.08,2.58,2.41s-1.15,2.41-2.58,2.41h-5.16c-1.42,0-2.58-1.08-2.58-2.41s1.15-2.41,2.58-2.41h5.16Zm15.13,0c1.42,0,2.58,1.08,2.58,2.41s-1.15,2.41-2.58,2.41h-5.16c-1.42,0-2.58-1.08-2.58-2.41s1.15-2.41,2.58-2.41h5.16Zm15.82,0c1.42,0,2.58,1.08,2.58,2.41s-1.15,2.41-2.58,2.41h-5.16c-1.42,0-2.58-1.08-2.58-2.41s1.15-2.41,2.58-2.41h5.16Zm15.13,0c1.42,0,2.58,1.08,2.58,2.41s-1.15,2.41-2.58,2.41h-5.16c-1.42,0-2.58-1.08-2.58-2.41s1.15-2.41,2.58-2.41h5.16Zm15.13,0c1.42,0,2.58,1.08,2.58,2.41s-1.15,2.41-2.58,2.41h-5.16c-1.42,0-2.58-1.08-2.58-2.41s1.15-2.41,2.58-2.41h5.16Z"/>
      <path id="path-t0aag1p1-v-8-2" data-name="path-t0aag1p1-v-8" class="cls-1" d="M132.91,0c7.05,0,12.77,5.73,12.78,12.78h0V63.9c0,7.05-5.73,12.77-12.78,12.78h-17.89v5.98c1.47-.7,3.1-.98,4.71-.82,2.75,.3,5.2,1.86,6.63,4.23,2.31-1.7,5.3-2.17,8.02-1.27,2.72,.9,4.84,3.06,5.69,5.8,1.59-.88,3.41-1.25,5.22-1.08,4.66,.58,8.14,4.57,8.07,9.27h0v26.43c0,4.34-.82,8.64-2.44,12.67-3.62,9.34-12.61,15.49-22.63,15.48h-13.39c-7.13-.01-13.95-2.93-18.88-8.08-1.93-2.01-3.79-3.95-4.86-5.04-4.33-4.28-6.79-10.11-6.81-16.2h0v-19.25c0-7.05,5.73-12.77,12.78-12.78h0v-15.34H56.23v15.34c7.05,0,12.77,5.73,12.78,12.78h0v19.25c-.03,6.1-2.48,11.93-6.83,16.22-1.06,1.08-2.91,3.01-4.84,5.02-4.94,5.15-11.76,8.06-18.89,8.08h-13.39c-9.95,.03-18.9-6.04-22.56-15.29C.86,133.98,0,129.61,0,125.2H0v-26.43c-.07-4.7,3.41-8.69,8.07-9.27,1.81-.18,3.63,.2,5.22,1.08,.85-2.74,2.97-4.9,5.69-5.79,2.72-.9,5.71-.43,8.02,1.27,1.43-2.37,3.88-3.93,6.63-4.23,1.62-.16,3.25,.13,4.72,.82h0v-5.98H20.45c-7.05,0-12.77-5.73-12.78-12.78h0V12.78C7.68,5.73,13.4,0,20.45,0h112.46Zm-26.84,58.79c-2.12,0-3.83,1.72-3.83,3.83h0v57.51c0,1.41-1.14,2.56-2.56,2.56s-2.56-1.14-2.56-2.56h0v-23c-4.23,0-7.67,3.43-7.67,7.67h0v19.25c.03,4.75,1.95,9.29,5.34,12.61,1.09,1.11,2.97,3.05,4.91,5.1,3.97,4.14,9.46,6.48,15.19,6.5h13.39c7.85,.02,14.92-4.77,17.81-12.07,1.41-3.48,2.14-7.21,2.14-10.97h0v-26.43c.09-2.07-1.4-3.87-3.44-4.19-1.08-.11-2.16,.24-2.97,.97-.81,.73-1.26,1.77-1.26,2.86,0,1.41-1.14,2.56-2.56,2.56s-2.56-1.14-2.56-2.56h0v-4.76c.09-2.07-1.4-3.87-3.44-4.19-1.08-.11-2.16,.24-2.97,.98-.81,.73-1.26,1.77-1.26,2.86,0,1.41-1.14,2.56-2.56,2.56s-2.56-1.14-2.56-2.56h0v-2.2c.09-2.07-1.39-3.88-3.44-4.2-1.08-.11-2.16,.24-2.97,.98-.81,.73-1.26,1.77-1.26,2.86,0,1.41-1.14,2.56-2.56,2.56s-2.56-1.14-2.56-2.56h0v-28.12c0-2.12-1.72-3.83-3.83-3.83Zm-58.79,0c-2.12,0-3.83,1.72-3.83,3.83h0v28.12c0,1.41-1.14,2.56-2.56,2.56s-2.56-1.14-2.56-2.56c0-1.08-.45-2.12-1.26-2.84-.81-.73-1.89-1.09-2.97-.98-2.04,.32-3.52,2.12-3.44,4.18h0v2.2c0,1.41-1.14,2.56-2.56,2.56s-2.56-1.14-2.56-2.56c0-1.08-.46-2.11-1.26-2.84-.81-.73-1.89-1.09-2.97-.98-2.04,.32-3.52,2.12-3.44,4.18h0v4.75c0,1.41-1.14,2.56-2.56,2.56s-2.56-1.14-2.56-2.56c0-2.12-1.72-3.83-3.83-3.83-.13,0-.26,.02-.39,.02-2.04,.32-3.52,2.12-3.44,4.18h0v26.43c0,3.69,.69,7.34,2.06,10.77,2.85,7.4,9.96,12.28,17.89,12.27h13.39c5.74-.01,11.22-2.36,15.19-6.49,1.94-2.03,3.82-3.99,4.9-5.08,3.39-3.33,5.32-7.87,5.35-12.63h0v-19.25c0-4.23-3.43-7.67-7.67-7.67h0v23c0,1.41-1.14,2.56-2.56,2.56s-2.56-1.14-2.56-2.56h0V62.62c0-2.12-1.72-3.83-3.83-3.83ZM132.91,5.11H20.45c-4.23,0-7.67,3.43-7.67,7.67h0V63.9c0,4.23,3.43,7.67,7.67,7.67h17.89v-5.11h-2.56c-1.41,0-2.56-1.14-2.56-2.56s1.14-2.56,2.56-2.56h2.68c.61-4.4,4.37-7.68,8.82-7.68s8.21,3.28,8.82,7.68h41.15c.61-4.4,4.37-7.68,8.82-7.68s8.21,3.28,8.82,7.68h2.69c1.41,0,2.56,1.14,2.56,2.56s-1.14,2.56-2.56,2.56h-2.56v5.11h17.89c4.23,0,7.67-3.43,7.67-7.67h0V12.78c0-4.23-3.43-7.67-7.67-7.67h0Zm-35.78,61.34H56.23v5.11h40.89v-5.11Zm35.77-5.25c1.42,0,2.58,1.08,2.58,2.41s-1.15,2.41-2.58,2.41h-5.16c-1.42,0-2.58-1.08-2.58-2.41s1.15-2.41,2.58-2.41h5.16Zm-107.28,0c1.42,0,2.58,1.08,2.58,2.41s-1.15,2.41-2.58,2.41h-5.16c-1.42,0-2.58-1.08-2.58-2.41s1.15-2.41,2.58-2.41h5.16Zm4.87-13.07c1.39,0,2.52,1.08,2.52,2.41s-1.13,2.41-2.52,2.41h-10.09c-1.39,0-2.52-1.08-2.52-2.41s1.13-2.41,2.52-2.41h10.09Zm33.64,0c1.42,0,2.58,1.08,2.58,2.41s-1.15,2.41-2.58,2.41h-5.16c-1.42,0-2.58-1.08-2.58-2.41s1.15-2.41,2.58-2.41h5.16Zm30.26,0c1.42,0,2.58,1.08,2.58,2.41s-1.15,2.41-2.58,2.41h-5.16c-1.42,0-2.58-1.08-2.58-2.41s1.15-2.41,2.58-2.41h5.16Zm38.54,0c1.41,0,2.55,1.08,2.55,2.41s-1.14,2.41-2.55,2.41h-12.77c-1.41,0-2.55-1.08-2.55-2.41s1.14-2.41,2.55-2.41h12.77Zm-53.67,0c1.42,0,2.58,1.08,2.58,2.41s-1.15,2.41-2.58,2.41h-5.16c-1.42,0-2.58-1.08-2.58-2.41s1.15-2.41,2.58-2.41h5.16Zm-53.64-12.38c1.42,0,2.58,1.08,2.58,2.41s-1.15,2.41-2.58,2.41h-5.16c-1.42,0-2.58-1.08-2.58-2.41s1.15-2.41,2.58-2.41h5.16Zm15.13,0c1.42,0,2.58,1.08,2.58,2.41s-1.15,2.41-2.58,2.41h-5.16c-1.42,0-2.58-1.08-2.58-2.41s1.15-2.41,2.58-2.41h5.16Zm15.82,0c1.42,0,2.58,1.08,2.58,2.41s-1.15,2.41-2.58,2.41h-5.16c-1.42,0-2.58-1.08-2.58-2.41s1.15-2.41,2.58-2.41h5.16Zm15.13,0c1.42,0,2.58,1.08,2.58,2.41s-1.15,2.41-2.58,2.41h-5.16c-1.42,0-2.58-1.08-2.58-2.41s1.15-2.41,2.58-2.41h5.16Zm15.13,0c1.42,0,2.58,1.08,2.58,2.41s-1.15,2.41-2.58,2.41h-5.16c-1.42,0-2.58-1.08-2.58-2.41s1.15-2.41,2.58-2.41h5.16Zm15.82,0c1.42,0,2.58,1.08,2.58,2.41s-1.15,2.41-2.58,2.41h-5.16c-1.42,0-2.58-1.08-2.58-2.41s1.15-2.41,2.58-2.41h5.16Zm15.13,0c1.42,0,2.58,1.08,2.58,2.41s-1.15,2.41-2.58,2.41h-5.16c-1.42,0-2.58-1.08-2.58-2.41s1.15-2.41,2.58-2.41h5.16Zm15.13-13.07c1.42,0,2.58,1.14,2.58,2.55h0v12.77c0,1.41-1.15,2.55-2.58,2.55s-2.58-1.14-2.58-2.55h0v-10.22h-12.89c-1.42,0-2.58-1.14-2.58-2.55s1.15-2.55,2.58-2.55h15.47Zm-86.65,0c1.42,0,2.58,1.08,2.58,2.41s-1.15,2.41-2.58,2.41h-5.16c-1.42,0-2.58-1.08-2.58-2.41s1.15-2.41,2.58-2.41h5.16Zm15.13,0c1.42,0,2.58,1.08,2.58,2.41s-1.15,2.41-2.58,2.41h-5.16c-1.42,0-2.58-1.08-2.58-2.41s1.15-2.41,2.58-2.41h5.16Zm15.13,0c1.42,0,2.58,1.08,2.58,2.41s-1.15,2.41-2.58,2.41h-5.16c-1.42,0-2.58-1.08-2.58-2.41s1.15-2.41,2.58-2.41h5.16Zm15.82,0c1.42,0,2.58,1.08,2.58,2.41s-1.15,2.41-2.58,2.41h-5.16c-1.42,0-2.58-1.08-2.58-2.41s1.15-2.41,2.58-2.41h5.16Zm15.13,0c1.42,0,2.58,1.08,2.58,2.41s-1.15,2.41-2.58,2.41h-5.16c-1.42,0-2.58-1.08-2.58-2.41s1.15-2.41,2.58-2.41h5.16Zm-76.96,0c1.39,0,2.52,1.08,2.52,2.41s-1.13,2.41-2.52,2.41h-10.09c-1.39,0-2.52-1.08-2.52-2.41s1.13-2.41,2.52-2.41h10.09Zm-4.87-12.38c1.42,0,2.58,1.08,2.58,2.41s-1.15,2.41-2.58,2.41h-5.16c-1.42,0-2.58-1.08-2.58-2.41s1.15-2.41,2.58-2.41h5.16Zm15.13,0c1.42,0,2.58,1.08,2.58,2.41s-1.15,2.41-2.58,2.41h-5.16c-1.42,0-2.58-1.08-2.58-2.41s1.15-2.41,2.58-2.41h5.16Zm15.82,0c1.42,0,2.58,1.08,2.58,2.41s-1.15,2.41-2.58,2.41h-5.16c-1.42,0-2.58-1.08-2.58-2.41s1.15-2.41,2.58-2.41h5.16Zm15.13,0c1.42,0,2.58,1.08,2.58,2.41s-1.15,2.41-2.58,2.41h-5.16c-1.42,0-2.58-1.08-2.58-2.41s1.15-2.41,2.58-2.41h5.16Zm15.13,0c1.42,0,2.58,1.08,2.58,2.41s-1.15,2.41-2.58,2.41h-5.16c-1.42,0-2.58-1.08-2.58-2.41s1.15-2.41,2.58-2.41h5.16Zm15.82,0c1.42,0,2.58,1.08,2.58,2.41s-1.15,2.41-2.58,2.41h-5.16c-1.42,0-2.58-1.08-2.58-2.41s1.15-2.41,2.58-2.41h5.16Zm15.13,0c1.42,0,2.58,1.08,2.58,2.41s-1.15,2.41-2.58,2.41h-5.16c-1.42,0-2.58-1.08-2.58-2.41s1.15-2.41,2.58-2.41h5.16Zm15.13,0c1.42,0,2.58,1.08,2.58,2.41s-1.15,2.41-2.58,2.41h-5.16c-1.42,0-2.58-1.08-2.58-2.41s1.15-2.41,2.58-2.41h5.16Z"/>
    </g>
  </g>
</svg>