<?xml version="1.0" encoding="UTF-8"?>
<svg id="Layer_2" data-name="Layer 2" xmlns="http://www.w3.org/2000/svg" viewBox="0 0 263.77 86.2">
  <defs>
    <style>
      .cls-1 {
        fill: #2d2d2d;
      }
    </style>
  </defs>
  <g id="Layer_1-2" data-name="Layer 1">
    <g>
      <path class="cls-1" d="M19.13,48.52c-1.29,.24-2.26,.42-3.34,.61,.39-1.34,1.42-1.63,2.42-2.13,1.24-.61,2.34-1.45,3.42-2.29,.24-.18,.21-.76,.29-1.16-.39,0-.84-.08-1.18,.05-1.74,.61-3.45,1.26-5.19,1.87-.45,.16-.92,.16-1.5-.03,.26-.11,.55-.21,.79-.34,.39-.24,.76-.47,1.16-.74-.26-.34-.55-.68-.84-1.05,1.58-1.4,3.53-2.13,5.74-2.4,.34-.05,.76-.84,.84-1.34s-.11-1.34-.45-1.53c-.58-.32-1.37-.29-2.08-.26-.87,.03-1.74,.18-2.71,.29,.21-1.21,1.16-1.58,1.95-1.74,2.24-.39,3.4-2.03,4.5-3.71,.32-.47,.5-1.37,.24-1.74-.24-.37-1.16-.5-1.71-.39-1.9,.32-3.77,.84-5.66,1.18-.42,.08-.92-.21-1.37-.34,.18-.5,.34-1.03,.53-1.53,.03-.08,.13-.13,.21-.16,2.79-1.32,4.95-3.77,8.03-4.61,.39-.11,.74-.53,1.08-.79-.32-.32-.63-.66-.95-.97-.92-.9-1.74-.71-2.76,0-1.08,.74-2.37,1.16-3.55,1.74-.13-.16-.26-.29-.39-.45,.24-.5,.47-1,.74-1.47,.87-1.58,2.21-2.53,3.98-2.95,1.53-.37,2.9-1.11,3.42-2.76,.13-.42,.13-1-.11-1.34-.13-.21-.82-.18-1.18-.11-.55,.13-1.03,.5-1.58,.61-.34,.05-.82-.16-1.08-.39-.11-.13,.08-.71,.29-.95,.39-.42,.92-.74,1.4-1.11-1.13-1.18-.58-1.84,2.21-3.16-.26-.76-.82-1.58-.66-2.21,.16-.66,1-1.16,1.5-1.66-.47-.42-.82-.71-1.13-1,.29-.32,.63-.58,.87-.92,.47-.74,.9-1.5,1.47-2.48,.08,.45,.13,.76,.21,1.11,.18,.84,.32,1.53,1.24,2.11,1.21,.74-.16,.95-.71,1.45,.97,1.82,2,3.66,3.08,5.66-.66,.05-1.08,.08-1.79,.16,.39,.32,.58,.47,.79,.61,.53,.32,1.13,.53,1.58,.92,.32,.26,.39,.79,.61,1.18-.42,.16-.84,.37-1.29,.45-.29,.05-.63-.16-.9-.08-.45,.13-1.11,.32-1.26,.66-.16,.37-.03,1.13,.26,1.4,.71,.63,1.55,1.13,2.4,1.55,1.24,.63,2.55,1.13,3.79,1.79,.53,.29,.97,.76,1.45,1.16-.05,.16-.13,.34-.18,.5-2.11-.24-4.24-.47-6.35-.71-.03,.13-.05,.26-.05,.39,.97,.74,1.9,1.97,2.95,2.11,1.9,.26,2.69,1.76,4,2.66,.97,.66,1.24,1.84,1.08,3.21-2.08-.53-4.29,.08-6.16-1.42-1.13-.9-1.82-.42-1.84,1.05-.05,2.26,1.58,3.24,3.21,4.27,.79,.5,1.53,1.13,2.32,1.69-.08,.21-.16,.42-.24,.61-1.69-.13-3.37-.26-5.5-.39,.63,1,.97,1.92,1.61,2.42,1.37,1.11,2.79,2.32,4.71,2.4,.39,.03,.76,.16,1.13,.29,.92,.34,1.08,.82,.29,1.5-.34,.29-.66,.58-.95,.92-.63,.79-1.29,.71-2.08,.26-.68-.39-1.37-.82-2.11-1.05-.47-.16-1.4-.18-1.53,.05-.26,.5-.42,1.32-.18,1.82,.84,1.79,2.34,2.76,4.32,3.03,.32,.05,.63-.05,.92,.05,.42,.16,1.03,.37,1.13,.68,.11,.32-.21,.9-.5,1.21-.58,.63-.9,1.29,.11,1.61,3.03,1,3.63,3.48,4.13,6.48-.68-.16-1.32-.13-1.66-.42-2.29-1.87-4.87-2.63-7.79-2.55-.68,.03-1.37-.47-2.11-.76-.08,.08-.24,.18-.21,.29,.05,4.48,0,8.93,.21,13.4,.11,1.97,1,3.63,3.03,4.58,1.55,.74,2.98,1.76,4.48,2.63,.45,.26,.92,.45,1.4,.66-.16,.21-.34,.42-.5,.66H17.02c-.05-.08-.13-.16-.18-.24,.53-.32,1.03-.79,1.58-.92,1.21-.29,2.05-.9,2.5-2.08,.45-1.24,1.32-2.08,2.61-2.4,1.16-.29,1.74-1.03,1.79-2.13,.13-2.5,.21-4.98,.29-7.48,.03-1.4,.03-2.82-.05-4.21-.03-.68-.16-1.42-.45-2.03-.63-1.4-1.84-1.45-2.69-.24-.66,.92-1.66,1.26-2.55,1.82-1.69,1.05-3.58,1.4-5.32,2.26-.26,.13-.37,.5-.63,.66-.55,.34-1.16,.63-1.92,.74,.58-2.74,1.58-5.11,3.66-6.98,1.18-1.05,2.21-2.29,3.21-3.53,.21-.24,.13-.87,.26-1.61Z"/>
      <path class="cls-1" d="M23.1,10.74c-1.05,.97-2.42,1.5-2.16,3.19,.03,.21-.42,.5-.66,.74-.55,.61-.87,1.29-.32,2,.58,.71,1.32,1.18,2.29,.71,.5-.24,1-.45,1.53-.68,.08,.13,.16,.29,.26,.42-.37,.21-.74,.58-1.11,.61-1.61,.08-3.24,.03-4.9,.03-.08,.21-.18,.39-.16,.53,.29,1.82-.42,3.27-1.45,4.69-1.21,1.66-.76,2.48,1.32,2.76,.42,1.03-.05,1.63-.95,2.08-.63,.32-1.37,.53-1.84,1-.58,.58-1.16,1.34-1.29,2.13-.24,1.26,.5,1.82,1.79,1.69,.74-.08,1.47-.21,2.29-.32,.08,.45,.16,.87,.26,1.4,.92,.05,1.87,.08,2.79,.13,.05,.11,.11,.21,.16,.32-.55,.32-1.11,.68-1.66,.95-.9,.45-1.87,.74-2.71,1.26s-1.21,1.37-.71,2.58c1.24-.11,2.53-.29,3.82-.32,.45,0,1.18,.29,1.26,.61,.18,.74-.47,.74-1.05,.9-1.26,.37-2.5,.95-3.71,1.47-.34,.16-.63,.5-.97,.63-.97,.39-1.24,1.03-.82,2.03-.24,.13-.55,.18-.68,.37-.24,.37-.58,.87-.47,1.21,.11,.32,.74,.74,1.05,.68,1.32-.21,2.63-.58,3.95-.92,.45-.11,.9-.29,1.45-.18-.39,.18-.82,.34-1.18,.53-1.08,.55-2.11,1.16-3.19,1.66-.55,.24-1.21,.29-1.84,.39-1.76,.32-3.03-.39-4.21-1.71-1.84-2.05-3.9-3.9-5.82-5.92-.39-.42-.71-1.11-.71-1.69-.05-8.22-.05-16.4,0-24.62,0-.61,.34-1.34,.76-1.79,2.74-2.79,5.53-5.53,8.29-8.27,.29-.29,.71-.66,1.05-.66,4.19-.05,8.4-.03,12.93-.03-.45,.5-.63,.92-.9,.97-1.42,.32-1.32,1.29-1.11,2.34,.05,.34,.13,.84-.05,1.03-1,.95-1.13,1.95-.63,3.08Z"/>
      <path class="cls-1" d="M29.45,63.16h6.35v-5.9c1.05,.66,1.84,1.29,2.76,1.66,.66,.26,1.63,.39,2.16,.08,.37-.24,.45-1.32,.34-1.97-.42-2.58-1.5-4.77-3.87-5.63,.13-1,.63-2.13,.26-2.69-.42-.63-1.58-.95-2.45-1.05-2.05-.26-3.87-1.71-3.87-3.61,.9,.45,1.71,.79,2.48,1.24,1.45,.84,2.34,.74,3.42-.53,.18-.18,.42-.34,.55-.55,.34-.61,1.05-1.37,.9-1.82-.21-.61-1.03-1.21-1.71-1.37-1.61-.34-3.11-.82-4.42-1.84-.42-.34-.82-.74-1.08-1.37,.79,.11,1.61,.32,2.4,.24,.74-.05,1.42-.42,2.13-.66-.29-.74-.45-1.53-.87-2.16-.34-.5-1-.79-1.87-1.42,1.95,0,3.58,.13,5.19-.03,1.97-.21,3.37,.5,4.71,1.92,1.79,1.92,3.82,3.63,5.66,5.5,.39,.42,.74,1.11,.74,1.69,.05,8.35,.05,16.67,0,25.01,0,.5-.21,1.13-.55,1.5-2.34,2.37-4.74,4.71-7.06,7.11-.97,1-2.11,.55-3.21,.55-.13,0-.24-.32-.37-.47-.68-.66-1.29-1.55-2.11-1.95-4.08-1.92-7.24-4.42-6.61-9.58,.05-.55,0-1.13,0-1.9Z"/>
      <path class="cls-1" d="M254.71,38.7c-1.95,.61-3.77,1.45-5.66,1.74-6.82,1-12.4-3.48-12.8-10.35-.13-2.4,.11-4.95,.74-7.27,1.4-5.11,6-8.5,11.3-8.69,2.05-.08,4.11,0,6.19,0,0-2.98,.05-6.21-.03-9.43-.03-1.24-.87-1.87-2.08-1.92-.74-.05-1.24-.24-.92-1.11,2.98-.47,5.92-.95,8.93-1.42V2.76c0,10.4-.03,20.8-.03,31.2v.26c.05,3.03,.34,3.34,3.34,3.9,.03,.34,.05,.71,.08,1.13-.24,.05-.39,.11-.55,.13-2.42,.34-4.84,.66-7.27,1.08-.87,.16-1.26-.03-1.18-.95,0-.32-.05-.63-.05-.82Zm-.11-11.35c0-2.55,.03-5.08-.03-7.64,0-.47-.29-1.13-.66-1.4-3.79-2.79-9.43-1.05-10.93,3.37-.95,2.79-1.08,5.66-.55,8.56,.97,5.21,5.61,7.93,10.69,6.32,1.03-.32,1.58-.76,1.53-2-.13-2.37-.05-4.79-.05-7.21Z"/>
      <path class="cls-1" d="M151.18,40.05h-12.8c.5-.5,.74-.97,1.11-1.11,1.87-.61,2.58-1.18,2.61-3.13,.11-5.45,.08-10.87,.03-16.33,0-1.5-.66-2.05-2.19-2.29-.34-.05-.68-.13-1.11-.18-.03-.37-.05-.74-.11-1.16,.21-.05,.37-.16,.53-.16,2.61-.05,5.16-.21,7.58-1.29,.63-.29,1.03-.11,1,.66,0,.34,.03,.68,.05,1.26,.5-.26,.84-.45,1.21-.66,2.45-1.42,5.11-1.84,7.87-1.53,4.27,.47,6.82,3.34,6.98,7.98,.11,3.63,.03,7.29,.08,10.93,0,1.05,.08,2.11,.21,3.13,.21,1.76,.68,2.24,2.34,2.71,.39,.11,.68,.53,1.03,.82-.08,.11-.16,.18-.24,.29h-12.9c.53-.53,.79-1.03,1.16-1.11,1.55-.32,2.45-1.24,2.48-2.79,.05-4.63,.26-9.29,0-13.9-.18-3.16-2-4.48-5.19-4.61h-.39c-4.19,.18-4.53,.53-4.53,4.66v11.59c0,.84,.11,1.66,.18,2.5,.11,1.47,.92,2.29,2.34,2.58,.39,.08,.68,.53,1.03,.82-.16,.11-.26,.21-.37,.32Z"/>
      <path class="cls-1" d="M69.79,31.83h1.13c.05,.08,.13,.13,.16,.21,.97,4.13,3.87,5.85,8.79,5.19,2.37-.32,4.5-1.05,5.21-3.69,.74-2.69,.18-5.08-2.08-6.85-1.84-1.42-3.79-2.66-5.69-4-1-.71-2.03-1.4-2.98-2.16-3.48-2.79-4.63-6.42-3.45-10.53,1.03-3.55,4.16-6.11,8.48-6.35,3.29-.18,6.64,.16,9.95,.26,.68,.03,1.08,.26,1.05,1.13-.08,1.84,.03,3.69-.03,5.53,0,.32-.37,.63-.55,.95-.26-.26-.68-.53-.71-.82-.26-2.24-1.58-3.55-3.69-3.84-1.79-.24-3.66-.29-5.48-.13-1.84,.16-3.34,1.11-3.87,3.05-.55,2.08-.37,4.05,1.32,5.56,1,.9,2.16,1.66,3.27,2.42,2.05,1.42,4.16,2.76,6.21,4.21,4.34,3.11,4.87,8.14,3.32,12.32-1.37,3.71-4.56,5.19-8.16,5.79-3.77,.66-7.5,.26-11.19-.71-.76-.21-1.05-.53-1.03-1.34,.05-2.03,0-4.08,0-6.21Z"/>
      <path class="cls-1" d="M49.36,25.17c-4.66,0-9.11,0-13.59-.03-.32,0-.61-.37-.9-.58,.05-.13,.11-.24,.18-.37,.21-.03,.45-.03,.61-.11,.47-.24,1.11-.45,1.29-.84,.16-.34-.08-1.18-.39-1.37-1.66-.9-1.71-2.34-1.47-4.19h-5.98v-.5c.29-.03,.55-.08,.84-.08,.47,0,.97,.11,1.42,0,1.55-.37,1.87-1.47,.84-2.71-.29-.34-.58-.66-.87-.97,.03-.34,.24-.84,.08-1.16-.76-1.55-1.61-3.05-2.45-4.63,1.03-1.5,.95-1.74-.63-2.76-.34-.21-.45-.82-.79-1.5h3.95c2.45,0,4.92-.05,7.37,.03,.61,.03,1.34,.34,1.79,.76,2.71,2.69,5.35,5.45,7.98,8.22,.32,.32,.68,.79,.71,1.18,0,3.79,0,7.61,0,11.61Z"/>
      <path class="cls-1" d="M212.79,26.99c-.03,4.29-1.24,8.11-4.61,11.01-4.58,3.92-15.22,4-19.04-2.82-3.5-6.24-1.61-15.61,3.98-19.27,4.19-2.76,13.82-3.05,17.62,3.05,1.53,2.48,2.11,5.16,2.05,8.03Zm-6.06,.55c.11-.03,.24-.05,.34-.08-.53-2.24-.84-4.56-1.61-6.71-.84-2.34-2.63-3.77-5.29-3.79-2.74-.03-4.53,1.37-5.48,3.77-1.79,4.53-1.74,9.08,.24,13.56,.97,2.19,2.74,3.42,5.16,3.45,2.5,.03,4.21-1.21,5.32-3.42,1.05-2.13,1.32-4.42,1.32-6.77Z"/>
      <path class="cls-1" d="M12.1,56.82c-.32,.82-.61,1.61-.92,2.37-.32,.82-.63,1.82,.32,2.21,.68,.29,2.08,.21,2.37-.24,1.16-1.71,2.98-1.61,4.71-2.13v4.16c1.69,0,3.27,.05,4.82-.03,.92-.03,1.29,.29,1.24,1.18-.11,1.53-.16,3.05-.24,4.58-.05,.84-.42,1.34-1.29,1.58-1.45,.39-2.32,1.4-2.98,2.74-.34,.68-1.18,1.13-1.84,1.63-.71,.53-1.47,1-2.24,1.45-.47,.29-.95,.66-1.47,.76-2.53,.47-4.48-.34-6.14-2.42-1.53-1.9-3.42-3.53-5.13-5.29-.29-.29-.63-.71-.63-1.08-.05-3.82-.03-7.61-.03-11.53,3.19,.05,6.27,.05,9.45,.05Z"/>
      <path class="cls-1" d="M127.19,37.94c-2.48,2.24-5.24,2.9-8.29,2.34-3.13-.58-4.98-2.48-5.42-5.45-.5-3.34,.74-6.24,3.61-7.5,2.76-1.21,5.66-2.08,8.53-3,1-.32,1.37-.74,1.34-1.82-.08-2.63-.95-4.16-2.98-4.87-2.34-.82-4.95-.11-6.42,1.74-.24,.32-.45,.63-.74,1.03-.37-.21-.74-.39-1.24-.68,.84-2.76,2.71-4.42,5.37-5.29,2.08-.68,4.24-.66,6.37-.18,3.27,.76,5.21,2.92,5.32,6.32,.13,4.21,.03,8.43,.03,12.64,0,.47-.03,.97,.03,1.45,.18,2,1.21,2.58,3,1.71,.82,.47,.82,.97,.18,1.66-1.18,1.32-2.53,2.29-4.37,2.4-1.9,.08-3.4-.55-4.32-2.48Zm-.26-11.14c-2.29,1.03-4.4,1.76-6.24,2.9-1.61,1-1.74,2.87-1.4,4.61,.26,1.32,1.16,2.32,2.48,2.37,1.45,.05,2.92-.26,4.34-.55,.32-.05,.76-.58,.76-.9,.08-2.63,.05-5.29,.05-8.43Z"/>
      <path class="cls-1" d="M179.64,14.69h5.77v3.08h-5.53c-.05,.47-.13,.82-.13,1.13,0,5.21,.03,10.45,.03,15.67v.53c.13,2.87,.74,3.53,3.61,3.74,.9,.08,1.05,.39,.82,1.21h-13.98c.39-.5,.58-.97,.92-1.08,2.19-.71,2.69-1.24,2.82-3.53,.08-1.37,.08-2.71,.08-4.08v-13.53h-3.08c-.45-1-.18-1.53,.71-1.82,.13-.03,.24-.11,.37-.16,1.4-.5,2.21-1.24,2.08-2.98-.13-1.55,.11-3.16,.34-4.71,.97-6.27,5.48-8.53,11.06-8.11,1.63,.13,3.27,.9,4.84,1.47,.87,.32,1.03,1,.37,1.76-.53,.66-.97,1.34-1.47,2.03-.84,1.16-.95,1.16-1.63-.08-.76-1.4-1.92-2.24-3.53-2.45-2.08-.26-3.84,.87-4.05,3-.26,2.92-.26,5.82-.39,8.9Z"/>
      <path class="cls-1" d="M96.51,17.9h-3.61c.37-.58,.5-1.08,.79-1.18,3.13-1.37,5.13-3.84,6.82-6.69,.26-.45,.79-.76,1.21-1.13,.13,.08,.26,.18,.42,.26v5.5h8.58v3.21h-3.45c-1.32,0-2.63,.05-3.95-.03-.92-.05-1.21,.32-1.18,1.21,.08,4.48,.13,8.95,.11,13.4,0,5.11,3.42,5.79,6.98,4.66,.34-.11,.66-.24,1.03-.37,.66,.55,.55,1.05-.03,1.61-2.48,2.37-7.9,3.03-10.85,1.21-1.82-1.13-2.74-2.87-2.79-4.95-.11-4.9-.05-9.82-.08-14.72,0-.61,0-1.21,0-2Z"/>
      <path class="cls-1" d="M215.42,40.05c-.21-.68-.13-1.05,.76-1.24,1.74-.32,2.53-1.18,2.55-3,.08-5.48,.05-10.95,.05-16.43,0-1.24-.74-1.92-1.92-2.13-.47-.08-.95-.16-1.42-.24v-1.16c3-.47,5.95-.92,8.98-1.4,.05,.61,.08,1.21,.13,1.97,.47-.29,.84-.55,1.24-.76,2.53-1.53,5.16-1.84,7.9-.58,1.32,.61,1.42,1.13,.76,2.37-.42,.82-.87,1.63-1.32,2.42-.61,1.05-1.05,1.08-1.87,.21-1.58-1.71-3.87-2.26-5.85-1.32-.37,.18-.79,.66-.79,1-.03,5.27-.05,10.53,.08,15.77,.08,2.5,.74,3,3.5,3.21,.92,.08,1.18,.37,.92,1.29-4.53,0-9.06,0-13.72,0Z"/>
      <path class="cls-1" d="M18.02,50.08c-.34,.13-.66,.37-1,.37-2.16,.03-4.29,.05-6.45,0-.45-.03-1-.26-1.34-.61-2.87-2.82-5.74-5.69-8.56-8.56-.37-.39-.63-1.05-.63-1.58C.01,30.75-.01,21.8,.04,12.85c0-.58,.29-1.29,.71-1.69C4.01,7.84,7.31,4.55,10.62,1.31c.34-.34,.97-.58,1.47-.58,9.35-.03,18.69-.03,28.04,0,.5,0,1.13,.24,1.47,.58,3.29,3.29,6.5,6.64,9.74,9.98,.29,.29,.58,.74,.58,1.11,.03,5.03,.03,10.08,.03,15.27-.55,.03-1,.08-1.47,.08-3.82,0-7.64,.05-11.45-.03-.76-.03-1.53-.45-2.29-.68,.03-.16,.08-.34,.11-.5h13.85v-4.48c0-2.84,.03-5.71-.03-8.56-.03-.58-.29-1.29-.68-1.71-2.92-3.08-5.9-6.14-8.9-9.16-.37-.37-1.05-.66-1.58-.66-8.95-.05-17.9-.05-26.86,0-.58,0-1.29,.32-1.69,.71C7.88,5.68,4.86,8.71,1.85,11.79c-.37,.39-.63,1.05-.63,1.58-.03,8.61-.05,17.19,0,25.8,0,.58,.32,1.29,.71,1.69,2.5,2.58,5.06,5.11,7.61,7.64,.29,.29,.68,.63,1.05,.68,2.42,.29,4.87,.47,7.29,.71,.05,.08,.08,.13,.13,.18Z"/>
      <path class="cls-1" d="M.01,53.97H13.86c-.26,1.05-.97,1.26-1.95,1.26-3.48-.05-6.92-.03-10.56-.03-.03,.47-.08,.9-.08,1.32,0,3.9-.03,7.82,.03,11.72,0,.58,.29,1.29,.68,1.71,2.5,2.61,5.03,5.16,7.61,7.66,.45,.42,1.18,.76,1.79,.76,9.74,.05,19.48,.05,29.23,0,.58,0,1.29-.26,1.71-.66,2.63-2.53,5.19-5.11,7.71-7.74,.39-.42,.68-1.13,.68-1.71,.05-8.69,.05-17.38,0-26.07,0-.53-.29-1.18-.66-1.58-2.58-2.55-5.21-5.08-7.87-7.56-.45-.42-1.21-.71-1.82-.74-2.82-.08-5.61-.05-8.43-.03-.84,0-1.37-.21-1.42-1.21,.34-.03,.68-.11,1-.08,1.58,.21,3.19,.47,4.77,.68,.84,.11,1.53,0,2.4-.42,.97-.47,2.84-.39,3.61,.26,3.19,2.74,6.14,5.74,9.14,8.72,.32,.32,.5,.92,.5,1.4,.03,9.08,.03,18.17,0,27.25,0,.53-.29,1.18-.66,1.58-2.76,2.82-5.53,5.63-8.37,8.37-.45,.42-1.21,.74-1.82,.74-10.06,.05-20.09,.05-30.15,0-.61,0-1.37-.32-1.82-.76-2.84-2.79-5.66-5.63-8.45-8.5-.32-.32-.66-.79-.66-1.21C-.01,64.14,.01,59.14,.01,53.97Z"/>
      <path class="cls-1" d="M90.38,54.19h8.19c-.34,.39-.5,.76-.74,.82-1.34,.32-1.69,1.32-1.69,2.48-.03,2.84-.05,5.71-.03,8.56,.03,1.66,.03,3.34,.18,5,.26,2.66,1.84,4.08,4.5,4.21,.61,.03,1.24,.03,1.84,0,2.55-.13,4.19-1.45,4.42-3.98,.26-2.66,.21-5.35,.26-8,.03-1.79,0-3.61,0-5.4,0-1.34-.16-2.58-1.82-2.9-.11-.03-.21-.16-.26-.26-.05-.05-.03-.16-.05-.39h7.66c-.42,.37-.63,.66-.92,.74-1.05,.29-1.5,.97-1.53,2.03s-.08,2.11-.11,3.16c-.05,3.24,.03,6.5-.13,9.74-.18,4.27-2.24,6.64-6.42,7.11-2.13,.24-4.37,.08-6.5-.32-2.74-.53-4.32-2.5-4.63-5.24-.24-2.08-.24-4.19-.26-6.29-.05-2.55-.03-5.08,0-7.64,0-1.24-.24-2.29-1.69-2.55-.32-.05-.63-.08-.95-.13,.24-.26,.45-.5,.66-.74Z"/>
      <path class="cls-1" d="M131.38,76.99h-8.11c-.05-.08-.08-.18-.13-.26,.26-.16,.53-.37,.82-.47,.84-.26,1.37-.79,1.37-1.71,.03-2.92,.21-5.87,0-8.79-.18-2.74-3.79-4.13-6.03-2.48-.24,.18-.39,.66-.39,1,0,3.24,.03,6.5,.05,9.74,0,1.16,.34,2.08,1.66,2.32,.18,.03,.34,.26,.74,.58h-8.4c.11-.26,.13-.47,.21-.5,1.97-.32,2.13-1.79,2.13-3.37v-8.29c0-1.18-.16-2.21-1.63-2.42-.18-.03-.34-.29-.5-.45,.24-.13,.45-.37,.68-.42,1.58-.26,3.16-.5,4.84-.74,.05,.21,.13,.58,.16,.63,1.92-.29,3.77-.82,5.63-.84,2.55-.03,4.34,1.66,4.53,4.21,.21,2.84,.18,5.69,.21,8.53,.03,1.47,.05,2.87,1.97,3.11,.05,.05,.08,.32,.18,.63Z"/>
      <path class="cls-1" d="M224.98,60.93c1.47,0,2.66,.03,3.82,0,1.18-.03,2.34-.11,3.53-.16,.08,.13,.13,.24,.21,.37-.29,.24-.55,.53-.9,.68-.74,.34-1,.9-.76,1.61,1.11,3.11,2.29,6.21,3.55,9.61,1.13-3.4,2.24-6.5,3.19-9.64,.13-.39-.47-1.05-.82-1.53-.18-.29-.53-.47-.79-.71,.05-.11,.11-.18,.16-.29h6.32c-.18,.37-.29,.82-.5,.87-1.18,.37-1.5,1.4-1.87,2.37-2.16,5.74-4.27,11.51-6.42,17.22-1.5,4-4.05,5.5-7.93,4.63-.76-.18-1.42-.76-2.13-1.13,.47-.79,.95-1.55,1.5-2.48,.53,.5,.79,.82,1.13,1.08,1.13,.92,3,.79,3.84-.53,.97-1.53,1.63-3.27,2.37-4.95,.11-.26-.03-.68-.16-1-1.76-4.53-3.5-9.06-5.35-13.56-.26-.63-1-1.08-1.47-1.66-.21-.24-.34-.53-.53-.82Z"/>
      <path class="cls-1" d="M172.5,68.22h-9.87c-.82,4.74,3.08,7.85,7.82,6.35,.53-.16,1.13-.08,1.71-.11-.37,.5-.63,1.18-1.13,1.5-2.79,1.74-5.77,1.87-8.64,.42-2.71-1.34-3.55-3.92-3.42-6.74,.05-1.55,.26-3.16,.79-4.61,1.26-3.5,4.63-5.19,8.27-4.4,3.34,.68,5.11,3.55,4.48,7.58Zm-3.77-1.95c.29-2.48-.82-3.92-2.87-3.98-2.16-.05-3.37,1.42-3.21,3.98h6.08Z"/>
      <path class="cls-1" d="M158.92,60.85c-.21,.39-.29,.84-.5,.9-1.26,.34-1.58,1.45-2.03,2.42-1.79,3.95-3.55,7.9-5.27,11.88-.34,.76-.76,1.42-1.58,1.21-.42-.11-.84-.74-1.05-1.24-1.63-3.98-3.19-7.98-4.79-11.95-.39-.97-.63-2.13-1.95-2.42-.11-.03-.13-.45-.21-.79h7.66c-.45,.45-.66,.79-.95,.9-.84,.32-1.11,.95-.84,1.66,.97,2.79,2.05,5.56,3.21,8.72,1.24-3.11,2.34-5.85,3.4-8.61,.32-.82,.05-1.45-.84-1.76-.29-.11-.53-.45-1.05-.92,2.45,.03,4.45,.03,6.79,.03Z"/>
      <path class="cls-1" d="M198.73,60.5v4.32c-.11,.08-.21,.16-.29,.24-.24-.26-.61-.47-.71-.79-.68-1.79-2.79-2.66-4.53-1.82-1.4,.66-1.47,2.55-.05,3.53,1.26,.87,2.63,1.58,3.92,2.42,1.4,.9,2.26,2.13,2.24,3.9-.05,2.48-1.18,4.24-3.63,4.58-2,.29-4.05-.03-6.11-.13-.29-.03-.74-.5-.79-.79-.16-1.16-.16-2.34-.24-3.53,.11-.08,.21-.16,.32-.26,.26,.29,.66,.53,.79,.84,.79,2.13,3.4,3.13,5.37,2.03,1.32-.74,1.47-2.53,.18-3.53-1.18-.9-2.48-1.63-3.74-2.45-1.32-.84-2.29-1.92-2.42-3.55-.21-2.92,1.34-4.79,4.32-5,1.74-.11,3.48,0,5.37,0Z"/>
      <path class="cls-1" d="M223.3,74.8c-.39,.63-.53,1.03-.79,1.26-1.61,1.45-5,1.69-6.79,.5-1.24-.84-1.69-2.11-1.69-3.53-.03-2.9,0-5.79-.03-8.69v-1.45c-.76-.05-1.4-.11-2.03-.16,1.84-1.9,3.66-3.74,5.66-5.79v3.77h5.48v2.03h-5.42v6.29c0,1.05-.03,2.11,0,3.16,.08,2.58,1.45,3.63,3.98,3.05,.39-.11,.82-.24,1.63-.45Z"/>
      <path class="cls-1" d="M183.09,76.96h-8.87c.42-.39,.63-.71,.9-.76,1.08-.29,1.47-1.08,1.5-2.08,.05-3.37,.03-6.77,.03-10.14,0-.95-.55-1.4-1.42-1.61-.26-.05-.45-.37-.68-.58,.26-.16,.5-.39,.79-.45,1.58-.24,3.19-.45,4.84-.66,.05,.26,.13,.63,.16,.74,1.53-.26,3-.66,4.53-.71,.66-.03,1.95,.82,1.9,1-.24,.97-.79,1.9-1.32,2.79-.03,.05-.63-.18-.97-.32-.74-.34-1.45-.9-2.21-1-1.47-.21-1.95,.32-1.95,1.82,0,2.84-.03,5.71,0,8.56,.03,1.95,.26,2.19,2.16,2.66,.29,.08,.53,.29,.79,.45-.03,.08-.11,.18-.16,.29Z"/>
      <path class="cls-1" d="M210.45,76.88h-8.64c.24-.32,.32-.53,.42-.55,1.87-.21,2.11-1.53,2.11-3.05-.03-2.98,0-5.95,0-8.93,0-1.11-.24-2-1.61-2.11-.24-.03-.45-.42-.74-.74,2.11-.34,3.98-.63,5.95-.95,.03,.26,.08,.55,.08,.82-.03,4.03-.05,8.06-.08,12.09,0,1.42,.26,2.63,2.03,2.84,.13,.03,.24,.29,.47,.58Z"/>
      <path class="cls-1" d="M132.98,61.4c.95-.11,1.92-.18,2.87-.34,.9-.13,1.76-.37,2.79-.58v2.82c0,3.5,.03,7,0,10.51,0,1.37,.42,2.29,1.9,2.5,.16,.03,.32,.21,.42,.55h-8.24c-.05-.08-.08-.13-.13-.21,.24-.13,.45-.37,.71-.42,1-.21,1.61-.82,1.61-1.79,.05-3.58,.11-7.19,0-10.77,0-.47-.82-.92-1.29-1.37-.24-.24-.55-.39-.84-.61,.08-.08,.13-.18,.21-.29Z"/>
      <path class="cls-1" d="M208.18,55.55c-.03,1.26-.92,2.05-2.24,2.03-1.29-.03-2.03-.79-2-2.08,.03-1.26,.92-2.11,2.24-2.05,1.24,.05,2.03,.9,2,2.11Z"/>
      <path class="cls-1" d="M138.85,55.5c0,1.24-.92,2.08-2.24,2.05-1.26-.03-2.11-.82-2.11-2.03s.95-2.11,2.21-2.08c1.24,.03,2.16,.92,2.13,2.05Z"/>
      <path class="cls-1" d="M29.48,61.66v-1.16h3.69v-3.87c.16-.08,.29-.16,.45-.24,.26,.34,.76,.66,.79,1,.08,1.4,.03,2.79,.03,4.27h-4.95Z"/>
      <path class="cls-1" d="M20.02,57.92c.37-.11,.68-.18,1.16-.29v2.84h3.4v1.21h-4.56c0-1.29,0-2.53,0-3.77Z"/>
      <path class="cls-1" d="M22.5,31.17c-.26,1.24-.95,1.4-3.53,.87,1.37-.34,2.42-.58,3.53-.87Z"/>
    </g>
  </g>
</svg>