<?xml version="1.0" encoding="UTF-8"?>
<svg id="Layer_2" data-name="Layer 2" xmlns="http://www.w3.org/2000/svg" viewBox="0 0 179.66 41.75">
  <defs>
    <style>
      .cls-1 {
        fill: #2d2d2d;
      }
    </style>
  </defs>
  <g id="Layer_1-2" data-name="Layer 1">
    <g id="Layer_1-3" data-name="Layer_1">
      <path class="cls-1" d="M153.47,34.84c-1.89,.81-3.51,1.69-5.2,2.09-3.17,.74-6.62-1.15-7.83-4.12s.07-6.55,3.04-8.3c4.86-2.9,11.61,0,11.68,6.21,.07,2.3-.07,4.59,.14,6.89,.2,2.43,1.35,3.38,4.12,3.51,0-4.32,.07-8.64-.07-12.96-.07-1.22-.68-2.43-1.28-3.51-3.92-6.82-13.57-7.9-19.17-2.3-6.14,6.14-3.71,16.27,4.59,18.63,1.69,.47,3.65,.47,5.4,.41,4.05-.2,5.4-2.23,4.59-6.55Z"/>
      <path class="cls-1" d="M77.98,37.14c-1.76-3.65-3.17-6.62-4.66-9.52-1.01-2.03-1.96-4.12-3.04-6.14-1.35-2.36-3.11-2.9-5.74-1.82,2.84,5.87,5.6,11.68,8.44,17.55,.27,.61,.61,1.22,.95,1.82,.14,.27,.34,.61,.54,.88,1.82,2.36,4.79,2.5,6.75,.2,.54-.61,.95-1.28,1.28-2.03,2.77-5.67,5.54-11.28,8.24-16.95,.27-.54,.34-1.22,.54-1.89-2.9-.54-4.19-.07-5.4,1.89-.54,.88-.95,1.82-1.35,2.77-2.09,4.19-4.12,8.37-6.55,13.23Z"/>
      <path class="cls-1" d="M179.6,22.48c-.61-.74-1.01-1.42-1.62-1.89-2.97-2.03-6.14-2.3-9.38-.68-3.11,1.49-4.66,4.05-4.79,7.36-.14,3.78-.07,7.56,0,11.34,0,.88,.14,1.76,.2,2.63,3.17-.54,4.19-1.62,4.32-4.46,.07-3.11-.07-6.21,.07-9.25,.07-2.63,1.82-4.12,4.46-4.12,.68,0,1.42,.07,2.03,.34,1.69,.61,3.11,.14,4.79-1.28h-.07Z"/>
      <path class="cls-1" d="M42.4,28.76c2.5-4.86,7.49-14.25,7.49-14.25,0,0,6.28,11.41,7.76,14.25h-15.26Zm16.61-7.02c-1.62-3.17-3.17-6.35-5-9.38-2.03-3.38-5.94-3.31-8.1,0-.27,.41-.41,.81-.61,1.22-3.38,6.48-6.82,12.96-10.2,19.44-1.42,2.7-2.77,5.4-4.19,8.17,4.05,.54,4.79,.2,6.48-2.84,.95-1.69,1.82-3.38,2.63-4.86h20.05c.88,1.69,1.76,3.31,2.63,4.93,1.69,3.11,2.3,3.38,6.48,2.77-3.44-6.68-6.75-13.03-10.13-19.44h-.07Z"/>
      <path class="cls-1" d="M109.58,34.91c.88,4.59-.41,6.35-5.06,6.55-1.69,.07-3.44,0-5.06-.47-5.6-1.69-8.3-6.28-7.56-12.56,.61-4.93,5.27-9.11,10.67-9.52,7.43-.54,13.17,4.52,13.37,11.95,.14,3.51,0,7.02,0,10.6-3.44-.54-4.46-1.55-4.59-4.32-.14-2.16,0-4.32-.07-6.55-.07-3.04-1.55-5.2-4.32-6.41-2.84-1.28-5.6-.95-8.03,.95-2.63,2.03-3.44,5.13-2.23,7.9,1.08,2.57,3.98,4.59,7.56,3.98,1.82-.34,3.51-1.35,5.27-2.03l.07-.07Z"/>
      <path class="cls-1" d="M153.47,34.84c.81,4.32-.54,6.35-4.59,6.55-1.82,.07-3.71,.14-5.4-.41-8.3-2.36-10.8-12.49-4.59-18.63,5.6-5.6,15.26-4.52,19.17,2.3,.61,1.08,1.22,2.3,1.28,3.51,.14,4.32,.07,8.64,.07,12.96-2.77-.14-3.92-1.08-4.12-3.51-.2-2.3-.07-4.59-.14-6.89-.07-6.21-6.82-9.18-11.68-6.21-2.9,1.76-4.19,5.33-3.04,8.3,1.22,2.97,4.66,4.93,7.83,4.12,1.69-.41,3.31-1.28,5.2-2.09Z"/>
      <path class="cls-1" d="M77.98,37.14c2.43-4.86,4.46-9.05,6.55-13.23,.47-.95,.81-1.89,1.35-2.77,1.15-2.43,3.24-2.5,5.54-1.89-.2,.61-6.14,13.17-8.91,18.84-.34,.74-.74,1.42-1.28,2.03-2.03,2.3-4.93,2.16-6.75-.2-.2-.27-.34-.61-.54-.88-.34-.61-.68-1.22-.95-1.82-2.84-5.87-5.6-11.68-8.44-17.55,2.63-1.08,4.39-.54,5.74,1.82,1.08,2.03,2.03,4.05,3.04,6.14,1.49,2.97,2.9,5.94,4.66,9.52Z"/>
      <path class="cls-1" d="M120.05,9.93c3.31,1.15,4.19,1.89,4.25,4.86,.07,1.15,.07,4.12,.07,3.98h6.35c-.47,3.58-1.69,4.52-6.28,4.79-.07,1.55-.34,8.71,0,10.13,.61,2.36,2.36,3.58,5.13,3.58q3.24-.07,5.13,2.09c-2.5,2.77-5.74,2.57-8.78,1.76s-5.06-3.04-5.67-6.28c-.14-.88-.14-1.82-.14-2.7,0-6.48-.07-22.15-.07-22.28v.07Z"/>
      <path class="cls-1" d="M179.6,22.48c-1.69,1.49-3.11,1.96-4.79,1.28-.61-.2-1.35-.34-2.03-.34-2.63-.07-4.39,1.49-4.46,4.12-.14,3.11,.07,6.21-.07,9.25-.07,2.84-1.15,3.85-4.32,4.46-.07-.88-.2-1.76-.2-2.63,0-3.78-.14-7.56,0-11.34,.14-3.38,1.69-5.87,4.79-7.36,3.31-1.62,6.41-1.28,9.38,.68,.61,.41,1.01,1.15,1.62,1.89h.07Z"/>
      <path class="cls-1" d="M22.35,15.73c0-3.65-2.7-6.55-6.14-6.48-3.58,.14-6.48,2.23-6.62,6.41-.14,3.65,2.77,6.21,6.62,6.35,3.31,.14,6.68-3.04,6.14-6.35v.07Z"/>
      <path class="cls-1" d="M9.66,24.44c.34,5.74,4.32,7.63,7.56,6.95,1.35-.27,2.7-1.22,3.71-2.16,1.08-1.01,1.69-2.43,1.08-4.39-4.12,2.16-8.17,1.96-12.36-.41Z"/>
      <path class="cls-1" d="M6.48,10.06C2.5,10.06,.07,12.36,0,16.07s2.63,6.08,6.82,6.14c-2.03-5.27-2.03-5.94-.41-12.15h.07Z"/>
      <path class="cls-1" d="M25.25,22.48c5.54-1.28,7.43-3.58,6.68-7.76-.54-3.24-2.9-4.93-6.55-4.52,2.09,3.98,1.69,7.97-.2,12.29h.07Z"/>
      <path class="cls-1" d="M22.35,15.73c.54,3.31-2.84,6.48-6.14,6.35-3.85-.14-6.75-2.7-6.62-6.35,.14-4.19,2.97-6.35,6.62-6.41,3.44-.14,6.08,2.84,6.14,6.48v-.07Z"/>
      <path class="cls-1" d="M22.35,6.69c-4.32-1.96-8.37-1.76-12.36,0C9.45,2.7,12.9-.07,16.14,0c3.85,.14,5.74,1.89,6.21,6.62v.07Z"/>
      <path class="cls-1" d="M9.66,24.44c4.19,2.3,8.24,2.5,12.36,.41,.68,1.96,.07,3.38-1.08,4.39-1.08,.95-2.36,1.89-3.71,2.16-3.24,.68-7.22-1.22-7.56-6.95Z"/>
      <path class="cls-1" d="M6.48,10.06c-1.69,6.21-1.62,6.89,.41,12.15C2.7,22.21,0,19.78,.07,16.07s2.43-6.01,6.48-6.01h-.07Z"/>
      <path class="cls-1" d="M25.25,22.48c1.89-4.32,2.3-8.3,.2-12.29,3.58-.41,6.01,1.28,6.55,4.52,.68,4.19-1.15,6.55-6.68,7.76h-.07Z"/>
    </g>
  </g>
</svg>