<?xml version="1.0" encoding="UTF-8"?>
<svg id="Layer_2" data-name="Layer 2" xmlns="http://www.w3.org/2000/svg" viewBox="0 0 217.59 76.54">
  <defs>
    <style>
      .cls-1 {
        fill: #fefefe;
      }

      .cls-2 {
        fill: #2d2d2d;
      }
    </style>
  </defs>
  <g id="Layer_1-2" data-name="Layer 1">
    <g>
      <path class="cls-2" d="M195.91,56.76c1.06,.71,2.25,.93,3.3,1.49,2.52,1.36,3.33,3.4,1.83,5.82-2.48,4.01-5.23,7.86-7.87,11.78-.38,.57-.94,.67-1.57,.67-9.32,0-18.64,0-27.96,.01-1.3,0-1.17-.46-.59-1.28,1.37-1.96,2.7-3.94,4.03-5.91,.58-.86,1.21-1.71,1.69-2.63,1.07-2.04,.45-3.47-1.74-4.12-1.39-.41-2.84-.52-4.28-.6-1.19-.07-2.01,.45-2.69,1.49-2.59,3.95-5.29,7.82-7.91,11.76-.58,.87-1.2,1.28-2.3,1.28-9.02-.04-18.04-.02-27.06-.04-.52,0-1.22,.25-1.52-.29-.31-.55,.3-.99,.59-1.42,9.87-14.57,19.75-29.13,29.6-43.72,.7-1.03,1.46-1.42,2.69-1.41,16.1,.03,32.19,0,48.29,.03,3.61,0,7.17,.45,10.53,1.84,3.96,1.64,5.46,4.71,4.15,8.78-1.64,5.11-5.09,8.79-9.55,11.62-3.18,2.02-6.67,3.34-10.26,4.42-.47,.14-.94,.29-1.41,.43Z"/>
      <path class="cls-2" d="M36.32,76.47c-5.33,0-10.67,.13-15.99-.04-5.17-.16-10.21-1.09-14.62-4.09C.14,68.57-1.48,62.72,1.4,56.68c3.2-6.71,8.49-11.47,14.64-15.33,9.26-5.82,19.31-9.63,30.18-11.19,2.02-.29,4.05-.51,6.1-.51,9.02,0,18.04,0,27.06,0,1.72,0,1.74,.05,1.22,1.66-1.2,3.68-2.42,7.36-3.58,11.06-.32,1.03-.88,1.38-1.94,1.38-5.28,.03-10.57-.24-15.84,.23-6.27,.56-11.87,2.85-16.83,6.71-.94,.74-1.74,1.63-2.37,2.67-1.68,2.77-.93,5.75,1.88,7.42,1.72,1.02,3.62,1.38,5.59,1.38,5.08,.01,10.17,.01,15.25,.03,.48,0,1.11-.22,1.38,.27,.28,.51-.3,.89-.56,1.27-2.72,3.86-5.48,7.69-8.16,11.58-.61,.89-1.3,1.22-2.35,1.21-5.58-.04-11.16-.02-16.74-.02,0,0,0-.02,0-.03Z"/>
      <path class="cls-2" d="M88.08,76.48c-9.31,0-18.63,0-27.94-.01-.56,0-1.33,.3-1.64-.31-.27-.52,.36-.97,.66-1.4,10.34-14.96,20.69-29.92,31.02-44.89,.5-.73,1.06-1.07,1.96-1.07,9.22,.02,18.43,.01,27.65,.02,.39,0,.89-.14,1.13,.21,.32,.48-.2,.81-.44,1.15-6.94,10-13.9,19.99-20.84,30-.35,.5-1.11,1.01-.78,1.64,.33,.62,1.19,.33,1.8,.3,8.41-.38,16.83-.06,25.25-.16,.48,0,1.11-.19,1.4,.28,.36,.58-.27,.99-.56,1.4-2.51,3.64-5.11,7.22-7.54,10.91-.95,1.45-2.01,1.99-3.77,1.97-9.11-.09-18.23-.04-27.35-.04Z"/>
      <path class="cls-2" d="M134.79,.07c21.73-.16,41.1,6.53,58,20.2,1.78,1.44,3.44,3.02,5.14,4.55,.45,.4,.96,.9,.56,1.53-.46,.71-1.09,.23-1.58-.03-2.31-1.18-4.58-2.41-6.89-3.59-11.01-5.6-22.45-10.04-34.56-12.64-10.75-2.32-21.55-2.28-32.39-.6-15.14,2.35-30.07,5.56-44.66,10.28-7.35,2.38-14.55,5.17-21.66,8.18-.28,.12-.54,.25-.82,.37-.38,.16-.79,.28-1.07-.15-.27-.41-.04-.77,.22-1.08,.58-.7,1.33-1.2,2.1-1.66,12.12-7.34,24.62-13.87,38.1-18.47C105.55,3.47,116.04,.98,126.87,.1c2.62-.21,5.28-.03,7.92-.03Z"/>
      <path class="cls-1" d="M175.05,48.2c-1.29,0-2.29,0-3.28,0-.65,0-1-.17-.52-.86,.95-1.39,1.89-2.79,2.85-4.19,.23-.34,.54-.61,.97-.61,2.38-.02,4.78-.26,7.15,.19,.93,.18,1.95,.43,2.13,1.56,.16,1.04-.67,1.63-1.41,2.1-2.49,1.6-5.28,1.94-7.88,1.8Z"/>
    </g>
  </g>
</svg>