<?xml version="1.0" encoding="UTF-8"?>
<svg id="Layer_2" data-name="Layer 2" xmlns="http://www.w3.org/2000/svg" xmlns:xlink="http://www.w3.org/1999/xlink" viewBox="0 0 130.89 158.37">
  <defs>
    <style>
      .cls-1 {
        fill: url(#linear-gradient);
      }

      .cls-2 {
        fill: #ef4044;
      }
    </style>
    <linearGradient id="linear-gradient" x1="-617.31" y1="269.15" x2="-617.31" y2="268.56" gradientTransform="translate(137725.48 72623.47) scale(223 -269.83)" gradientUnits="userSpaceOnUse">
      <stop offset="0" stop-color="#ef4044"/>
      <stop offset="1" stop-color="#1c1d1d"/>
    </linearGradient>
  </defs>
  <g id="Layer_1-2" data-name="Layer 1">
    <g id="Combined-Shape">
      <path id="path-mxzsg0yuio-6" class="cls-2" d="M65.44,0c26.93,0,48.83,21.91,48.83,48.83,0,21.82-14.21,39.94-33.42,46.35h0v26.23h.56c5.45,0,8.67,6.11,5.6,10.61h0l-15.97,23.4c-2.7,3.95-8.52,3.93-11.2,0h0l-15.97-23.4c-3.07-4.5,.16-10.61,5.6-10.61h.56v-13.8c0-1.46,1.18-2.64,2.64-2.64s2.64,1.18,2.64,2.64h0v16.44c0,1.46-1.18,2.64-2.64,2.64h-3.2c-1.21,0-1.92,1.35-1.24,2.35h0l15.97,23.4c.6,.88,1.89,.87,2.48,0h0l15.97-23.4c.68-1-.03-2.35-1.24-2.35h-3.2c-1.46,0-2.64-1.18-2.64-2.64h0v-30.81c0-1.18,.78-2.21,1.91-2.54,18.55-5.33,31.51-22.54,31.51-41.87,0-24.02-19.54-43.55-43.55-43.55S21.89,24.82,21.89,48.83s18.56,42.84,42.26,43.53c1.46,.04,2.6,1.26,2.56,2.72-.04,1.46-1.25,2.61-2.72,2.56-26.35-.77-47.38-22.35-47.38-48.81S38.52,0,65.44,0Zm57.99,65.99c1.46,0,2.64,1.18,2.64,2.64h0v41.2c4.3,1.21,6.22,6.32,3.66,10.07h0l-10.49,15.37c-2.62,3.84-8.29,3.83-10.9,0h0l-10.49-15.37c-2.55-3.74-.66-8.86,3.66-10.07h0v-16.11c0-1.46,1.18-2.64,2.64-2.64s2.64,1.18,2.64,2.64h0v18.51c0,1.46-1.18,2.64-2.64,2.64h-.85c-1.06,0-1.69,1.19-1.09,2.06h0l10.49,15.37c.53,.77,1.66,.77,2.18,0h0l10.49-15.37c.6-.88-.03-2.06-1.09-2.06h-.85c-1.46,0-2.64-1.18-2.64-2.64h0v-43.6c0-1.46,1.18-2.64,2.64-2.64Zm-115.99,0c1.46,0,2.64,1.18,2.64,2.64h0v43.6c0,1.46-1.18,2.64-2.64,2.64h-.85c-1.06,0-1.69,1.19-1.09,2.06h0l10.49,15.37c.53,.77,1.66,.77,2.18,0h0l10.49-15.37c.6-.88-.03-2.06-1.09-2.06h-.85c-1.46,0-2.64-1.18-2.64-2.64h0v-18.51c0-1.46,1.18-2.64,2.64-2.64s2.64,1.18,2.64,2.64h0v16.11c4.31,1.21,6.21,6.33,3.66,10.07h0l-10.49,15.37c-2.62,3.84-8.29,3.83-10.9,0h0L1.15,119.91c-2.56-3.75-.65-8.86,3.66-10.07h0v-41.2c0-1.46,1.18-2.64,2.64-2.64ZM65.44,13.86c20.9,0,37.24,18.31,34.72,39.21-.17,1.45-1.49,2.48-2.94,2.3-1.45-.17-2.48-1.49-2.3-2.94,2.15-17.79-11.78-33.3-29.48-33.3-16.37,0-29.7,13.32-29.7,29.7s13.32,29.7,29.7,29.7c9.72,0,18.84-4.77,24.4-12.77,.83-1.2,2.48-1.49,3.67-.66,1.2,.83,1.49,2.48,.66,3.67-6.54,9.41-17.29,15.03-28.74,15.03-19.28,0-34.97-15.69-34.97-34.97S46.16,13.86,65.44,13.86Zm0,11.55c1.46,0,2.64,1.18,2.64,2.64h0v3.53c3.4,.57,6.38,2.23,8.26,4.68,.89,1.16,.67,2.81-.49,3.7-1.16,.89-2.81,.67-3.7-.49-1.34-1.75-3.92-2.84-6.72-2.84-4.11,0-7.58,2.38-7.58,5.19,0,3.11,1.92,3.99,8.1,5.24,5.2,1.06,12.33,2.5,12.33,10.42,0,5.03-4.38,9.25-10.2,10.25h0v3.53c0,1.46-1.18,2.64-2.64,2.64s-2.64-1.18-2.64-2.64h0v-3.53c-3.41-.57-6.4-2.23-8.28-4.68-.89-1.16-.67-2.81,.49-3.7,1.16-.89,2.81-.67,3.7,.49,1.34,1.75,3.92,2.84,6.72,2.84,4.11,0,7.58-2.38,7.58-5.19,0-3.11-1.92-3.99-8.1-5.24-.57-.12-1.17-.24-1.77-.37l-.33-.07c-.06-.01-.11-.03-.17-.04l-.33-.08c-4.69-1.12-9.72-3.21-9.72-9.86,0-5.04,4.4-9.26,10.23-10.25h0v-3.53c0-1.46,1.18-2.64,2.64-2.64Z"/>
      <path id="path-mxzsg0yuio-6-2" data-name="path-mxzsg0yuio-6" class="cls-1" d="M65.44,0c26.93,0,48.83,21.91,48.83,48.83,0,21.82-14.21,39.94-33.42,46.35h0v26.23h.56c5.45,0,8.67,6.11,5.6,10.61h0l-15.97,23.4c-2.7,3.95-8.52,3.93-11.2,0h0l-15.97-23.4c-3.07-4.5,.16-10.61,5.6-10.61h.56v-13.8c0-1.46,1.18-2.64,2.64-2.64s2.64,1.18,2.64,2.64h0v16.44c0,1.46-1.18,2.64-2.64,2.64h-3.2c-1.21,0-1.92,1.35-1.24,2.35h0l15.97,23.4c.6,.88,1.89,.87,2.48,0h0l15.97-23.4c.68-1-.03-2.35-1.24-2.35h-3.2c-1.46,0-2.64-1.18-2.64-2.64h0v-30.81c0-1.18,.78-2.21,1.91-2.54,18.55-5.33,31.51-22.54,31.51-41.87,0-24.02-19.54-43.55-43.55-43.55S21.89,24.82,21.89,48.83s18.56,42.84,42.26,43.53c1.46,.04,2.6,1.26,2.56,2.72-.04,1.46-1.25,2.61-2.72,2.56-26.35-.77-47.38-22.35-47.38-48.81S38.52,0,65.44,0Zm57.99,65.99c1.46,0,2.64,1.18,2.64,2.64h0v41.2c4.3,1.21,6.22,6.32,3.66,10.07h0l-10.49,15.37c-2.62,3.84-8.29,3.83-10.9,0h0l-10.49-15.37c-2.55-3.74-.66-8.86,3.66-10.07h0v-16.11c0-1.46,1.18-2.64,2.64-2.64s2.64,1.18,2.64,2.64h0v18.51c0,1.46-1.18,2.64-2.64,2.64h-.85c-1.06,0-1.69,1.19-1.09,2.06h0l10.49,15.37c.53,.77,1.66,.77,2.18,0h0l10.49-15.37c.6-.88-.03-2.06-1.09-2.06h-.85c-1.46,0-2.64-1.18-2.64-2.64h0v-43.6c0-1.46,1.18-2.64,2.64-2.64Zm-115.99,0c1.46,0,2.64,1.18,2.64,2.64h0v43.6c0,1.46-1.18,2.64-2.64,2.64h-.85c-1.06,0-1.69,1.19-1.09,2.06h0l10.49,15.37c.53,.77,1.66,.77,2.18,0h0l10.49-15.37c.6-.88-.03-2.06-1.09-2.06h-.85c-1.46,0-2.64-1.18-2.64-2.64h0v-18.51c0-1.46,1.18-2.64,2.64-2.64s2.64,1.18,2.64,2.64h0v16.11c4.31,1.21,6.21,6.33,3.66,10.07h0l-10.49,15.37c-2.62,3.84-8.29,3.83-10.9,0h0L1.15,119.91c-2.56-3.75-.65-8.86,3.66-10.07h0v-41.2c0-1.46,1.18-2.64,2.64-2.64ZM65.44,13.86c20.9,0,37.24,18.31,34.72,39.21-.17,1.45-1.49,2.48-2.94,2.3-1.45-.17-2.48-1.49-2.3-2.94,2.15-17.79-11.78-33.3-29.48-33.3-16.37,0-29.7,13.32-29.7,29.7s13.32,29.7,29.7,29.7c9.72,0,18.84-4.77,24.4-12.77,.83-1.2,2.48-1.49,3.67-.66,1.2,.83,1.49,2.48,.66,3.67-6.54,9.41-17.29,15.03-28.74,15.03-19.28,0-34.97-15.69-34.97-34.97S46.16,13.86,65.44,13.86Zm0,11.55c1.46,0,2.64,1.18,2.64,2.64h0v3.53c3.4,.57,6.38,2.23,8.26,4.68,.89,1.16,.67,2.81-.49,3.7-1.16,.89-2.81,.67-3.7-.49-1.34-1.75-3.92-2.84-6.72-2.84-4.11,0-7.58,2.38-7.58,5.19,0,3.11,1.92,3.99,8.1,5.24,5.2,1.06,12.33,2.5,12.33,10.42,0,5.03-4.38,9.25-10.2,10.25h0v3.53c0,1.46-1.18,2.64-2.64,2.64s-2.64-1.18-2.64-2.64h0v-3.53c-3.41-.57-6.4-2.23-8.28-4.68-.89-1.16-.67-2.81,.49-3.7,1.16-.89,2.81-.67,3.7,.49,1.34,1.75,3.92,2.84,6.72,2.84,4.11,0,7.58-2.38,7.58-5.19,0-3.11-1.92-3.99-8.1-5.24-.57-.12-1.17-.24-1.77-.37l-.33-.07c-.06-.01-.11-.03-.17-.04l-.33-.08c-4.69-1.12-9.72-3.21-9.72-9.86,0-5.04,4.4-9.26,10.23-10.25h0v-3.53c0-1.46,1.18-2.64,2.64-2.64Z"/>
    </g>
  </g>
</svg>