<?xml version="1.0" encoding="UTF-8"?>
<svg id="Layer_2" data-name="Layer 2" xmlns="http://www.w3.org/2000/svg" xmlns:xlink="http://www.w3.org/1999/xlink" viewBox="0 0 148.38 148.38">
  <defs>
    <style>
      .cls-1 {
        fill: url(#linear-gradient);
      }

      .cls-2 {
        fill: #1c1d1d;
      }
    </style>
    <linearGradient id="linear-gradient" x1="-525.81" y1="65.88" x2="-525.81" y2="65.21" gradientTransform="translate(117330.32 14691.32) scale(223 -223)" gradientUnits="userSpaceOnUse">
      <stop offset="0" stop-color="#ef4044"/>
      <stop offset="1" stop-color="#1c1d1d"/>
    </linearGradient>
  </defs>
  <g id="Layer_1-2" data-name="Layer 1">
    <g id="Combined-Shape">
      <path id="path-y79m0wrag_-17" data-name="path-y79m0wrag -17" class="cls-2" d="M136.79,0c6.4,0,11.58,5.19,11.59,11.59V108.97c0,5.61-3.99,10.28-9.27,11.36v16.46c0,6.4-5.19,11.58-11.59,11.59h-46.37c-6.4,0-11.58-5.19-11.59-11.59V44.05c0-6.4,5.19-11.58,11.59-11.59h46.37c6.4,0,11.58,5.19,11.59,11.59V115.53c2.7-.95,4.64-3.53,4.64-6.56V11.59c0-3.84-3.11-6.96-6.96-6.96H30.14V0h106.65Zm-2.32,134.47h-60.28v2.32c0,3.84,3.11,6.96,6.96,6.96h46.37c3.84,0,6.96-3.11,6.96-6.96v-2.32Zm-20.87,2.32v4.64h-18.55v-4.64h18.55ZM16.23,0V4.64h-4.64c-3.84,0-6.96,3.11-6.96,6.96V97.37s60.28,0,60.28,0v4.64H4.64s0,6.96,0,6.96c0,3.84,3.11,6.96,6.96,6.96h53.32v4.64h-14.4s-1.16,4.64-1.16,4.64h15.56v4.64h-18.55c-1.28,0-2.32,1.04-2.32,2.32v2.32h20.87v4.64h-23.18c-1.28,0-2.32-1.04-2.32-2.32v-4.64c0-3.2,2.16-5.89,5.1-6.7l1.22-4.89H11.59c-6.4,0-11.58-5.19-11.59-11.59V11.59C0,5.19,5.19,0,11.59,0h4.64ZM86,48.69h-11.81s0,81.15,0,81.15h60.28V48.69h-11.81c-.57,3.17-2.39,6.96-6.74,6.96h-23.18c-4.34,0-6.16-3.78-6.74-6.96ZM13.91,106.65v4.64h-4.64v-4.64h4.64Zm18.55,0v4.64h-13.91v-4.64h13.91ZM127.52,37.1h-46.37c-3.84,0-6.96,3.11-6.96,6.96h13.91c1.28,0,2.32,1.04,2.32,2.32,0,.04,.13,4.64,2.32,4.64h23.18c2.19,0,2.32-4.6,2.32-4.64,0-1.28,1.04-2.32,2.32-2.32h13.91c0-3.84-3.11-6.96-6.96-6.96Zm-13.91,4.64v4.64h-18.55v-4.64h18.55Zm23.18-32.46v4.64h-4.64v-4.64h4.64Zm-9.27,0v4.64h-30.14v-4.64h30.14ZM25.51,0V4.64h-4.64V0h4.64Z"/>
      <path id="path-y79m0wrag_-17-2" data-name="path-y79m0wrag -17" class="cls-1" d="M136.79,0c6.4,0,11.58,5.19,11.59,11.59V108.97c0,5.61-3.99,10.28-9.27,11.36v16.46c0,6.4-5.19,11.58-11.59,11.59h-46.37c-6.4,0-11.58-5.19-11.59-11.59V44.05c0-6.4,5.19-11.58,11.59-11.59h46.37c6.4,0,11.58,5.19,11.59,11.59V115.53c2.7-.95,4.64-3.53,4.64-6.56V11.59c0-3.84-3.11-6.96-6.96-6.96H30.14V0h106.65Zm-2.32,134.47h-60.28v2.32c0,3.84,3.11,6.96,6.96,6.96h46.37c3.84,0,6.96-3.11,6.96-6.96v-2.32Zm-20.87,2.32v4.64h-18.55v-4.64h18.55ZM16.23,0V4.64h-4.64c-3.84,0-6.96,3.11-6.96,6.96V97.37s60.28,0,60.28,0v4.64H4.64s0,6.96,0,6.96c0,3.84,3.11,6.96,6.96,6.96h53.32v4.64h-14.4s-1.16,4.64-1.16,4.64h15.56v4.64h-18.55c-1.28,0-2.32,1.04-2.32,2.32v2.32h20.87v4.64h-23.18c-1.28,0-2.32-1.04-2.32-2.32v-4.64c0-3.2,2.16-5.89,5.1-6.7l1.22-4.89H11.59c-6.4,0-11.58-5.19-11.59-11.59V11.59C0,5.19,5.19,0,11.59,0h4.64ZM86,48.69h-11.81s0,81.15,0,81.15h60.28V48.69h-11.81c-.57,3.17-2.39,6.96-6.74,6.96h-23.18c-4.34,0-6.16-3.78-6.74-6.96ZM13.91,106.65v4.64h-4.64v-4.64h4.64Zm18.55,0v4.64h-13.91v-4.64h13.91ZM127.52,37.1h-46.37c-3.84,0-6.96,3.11-6.96,6.96h13.91c1.28,0,2.32,1.04,2.32,2.32,0,.04,.13,4.64,2.32,4.64h23.18c2.19,0,2.32-4.6,2.32-4.64,0-1.28,1.04-2.32,2.32-2.32h13.91c0-3.84-3.11-6.96-6.96-6.96Zm-13.91,4.64v4.64h-18.55v-4.64h18.55Zm23.18-32.46v4.64h-4.64v-4.64h4.64Zm-9.27,0v4.64h-30.14v-4.64h30.14ZM25.51,0V4.64h-4.64V0h4.64Z"/>
    </g>
  </g>
</svg>