<?xml version="1.0" encoding="UTF-8"?>
<svg width="223px" height="220px" viewBox="0 0 223 220" version="1.1" xmlns="http://www.w3.org/2000/svg" xmlns:xlink="http://www.w3.org/1999/xlink">
    <title>Customer Facing Software</title>
    <defs>
        <linearGradient x1="50%" y1="0%" x2="50%" y2="100%" id="linearGradient-1">
            <stop stop-color="#FF3B3F" offset="0%"></stop>
            <stop stop-color="#000000" offset="100%"></stop>
        </linearGradient>
    </defs>
    <g id="Site-Icons" stroke="none" stroke-width="1" fill="none" fill-rule="evenodd">
        <g id="Icons-to-Still-Be-Converted---11/7/22" transform="translate(-1274.000000, -873.000000)" fill="url(#linearGradient-1)" fill-rule="nonzero">
            <path d="M1465.56936,975.596744 C1469.19835,971.966055 1474.07103,970.111579 1479.27207,970.380393 C1483.85211,970.618582 1488.39302,972.520696 1491.73108,975.600146 C1498.39018,981.740333 1498.77128,990.680947 1492.68044,997.845349 L1457.09152,1039.71397 C1455.45481,1041.6416 1453.57141,1043.35146 1451.49576,1044.79421 C1451.44812,1044.82653 1451.40049,1044.85886 1451.35285,1044.88949 C1445.55804,1048.59163 1438.26944,1050.46822 1429.68781,1050.46822 L1376.87608,1050.46822 C1373.23859,1050.46822 1369.56366,1050.68089 1365.94999,1051.10113 L1359.97653,1051.77316 L1362.58641,1054.30478 C1363.41667,1055.11122 1363.90156,1056.22731 1363.92367,1057.38423 C1363.94579,1058.55816 1363.49153,1059.70658 1362.67318,1060.54704 L1332.70043,1091.29732 C1331.84124,1092.17862 1330.69964,1092.62267 1329.55803,1092.62267 C1328.47086,1092.62267 1327.382,1092.21945 1326.53302,1091.41131 L1275.3614,1042.68623 C1274.51583,1041.88149 1274.02754,1040.77221 1274.00097,1039.60338 C1273.9765,1038.43625 1274.41715,1037.30655 1275.22699,1036.46608 L1305.48217,1005.05739 C1306.30222,1004.20671 1307.44553,1003.71502 1308.62797,1003.70651 L1308.65689,1003.70651 C1309.7985,1003.70651 1310.90779,1004.15737 1311.72614,1004.9519 L1317.94969,1010.99171 C1320.33839,1007.64004 1324.1154,1003.04298 1329.29262,998.816822 C1342.02385,988.424952 1357.08423,985.240018 1372.84898,989.600588 C1378.89559,991.273019 1385.28077,992.121994 1391.82588,992.121994 L1426.5369,992.121994 C1431.58482,992.121994 1436.04577,994.115981 1439.0963,997.738163 C1439.72409,998.481655 1440.28384,999.282993 1440.77383,1000.13197 Z M1308.76068,1014.29914 L1284.60656,1039.3754 L1329.44404,1082.06917 L1353.33615,1057.55607 L1308.76068,1014.29914 Z M1485.78315,982.049979 C1482.21541,978.759561 1475.83873,977.735346 1471.75719,981.816894 L1443.19996,1010.07468 C1443.07746,1014.29744 1441.6211,1018.24798 1439.06737,1021.25258 C1435.99813,1024.86625 1431.49975,1026.85684 1426.39909,1026.85684 L1396.18305,1026.85684 C1393.76032,1026.85684 1391.79696,1024.89347 1391.79696,1022.47075 C1391.79696,1020.04802 1393.76032,1018.08295 1396.18305,1018.08295 L1426.39909,1018.08295 C1428.95282,1018.08295 1430.96552,1017.23908 1432.38105,1015.57346 C1433.68599,1014.03543 1434.43459,1011.81687 1434.43459,1009.48601 C1434.43459,1006.29597 1432.77066,1000.89588 1426.5369,1000.89588 L1391.82588,1000.89588 C1384.48964,1000.89588 1377.31843,999.939715 1370.50962,998.056317 C1357.4211,994.434134 1345.41975,996.977658 1334.84073,1005.61373 C1329.75198,1009.76844 1326.23869,1014.34678 1324.32807,1017.17953 L1351.82194,1043.86017 L1364.95299,1042.38679 C1368.88482,1041.92913 1372.90172,1041.69604 1376.87438,1041.69604 L1429.68781,1041.69604 C1436.53065,1041.69604 1442.20467,1040.29753 1446.55503,1037.54304 C1447.98247,1036.54264 1449.2772,1035.3619 1450.4069,1034.03315 L1485.99582,992.162827 C1490.10799,987.325878 1487.62741,983.751333 1485.78315,982.049979 Z M1377.22996,1018.03191 C1379.58974,1017.48067 1381.94952,1018.94214 1382.50246,1021.30191 L1382.54499,1021.48056 C1383.09793,1023.83863 1381.63477,1026.20011 1379.27499,1026.75305 C1378.93812,1026.83131 1378.60125,1026.86874 1378.26949,1026.86874 C1376.27891,1026.86874 1374.47717,1025.50426 1374.00249,1023.48305 L1373.96166,1023.30441 C1373.40702,1020.94463 1374.87189,1018.58485 1377.22996,1018.03191 Z M1303.65151,965.553652 L1346.39633,965.553652 C1348.72378,965.553652 1350.87769,964.798251 1352.63009,963.522236 C1354.38248,964.798251 1356.5364,965.553652 1358.86385,965.553652 L1401.61036,965.553652 C1403.93782,965.553652 1406.09173,964.798251 1407.84413,963.522236 C1409.59652,964.798251 1411.75043,965.553652 1414.07789,965.553652 L1456.8227,965.553652 C1462.67876,965.553652 1467.44255,960.78816 1467.44255,954.932099 L1467.44255,934.999037 C1467.44255,926.046513 1462.43206,918.269624 1454.9325,914.433071 C1458.56659,910.050384 1460.75453,904.42911 1460.75453,898.304236 C1460.75453,884.351433 1449.4031,873 1435.45029,873 C1421.49749,873 1410.14606,884.351433 1410.14606,898.304236 C1410.14606,904.42911 1412.334,910.052085 1415.96809,914.433071 C1412.72701,916.093593 1409.9521,918.4908 1407.84413,921.398414 C1405.73615,918.489099 1402.96124,916.091891 1399.71846,914.433071 C1403.35255,910.052085 1405.54049,904.42911 1405.54049,898.304236 C1405.54049,884.351433 1394.18906,873 1380.23626,873 C1366.28345,873 1354.93202,884.351433 1354.93202,898.304236 C1354.93202,904.42911 1357.12166,910.052085 1360.75575,914.434773 C1357.51297,916.093593 1354.73806,918.4908 1352.63009,921.400116 C1350.52211,918.4908 1347.7472,916.093593 1344.50442,914.433071 C1348.13851,910.052085 1350.32645,904.42911 1350.32645,898.305938 C1350.32645,884.351433 1338.97502,873 1325.02222,873 C1311.07112,873 1299.71968,884.351433 1299.71968,898.305938 C1299.71968,904.42911 1301.90762,910.052085 1305.54172,914.434773 C1298.04215,918.271326 1293.02996,926.049916 1293.02996,935.000738 L1293.02996,954.932099 C1293.02996,960.78816 1297.79545,965.553652 1303.65151,965.553652 Z M1435.45199,881.773882 C1444.56615,881.773882 1451.98235,889.188382 1451.98235,898.304236 C1451.98235,907.418389 1444.56615,914.834591 1435.45199,914.834591 C1426.33614,914.834591 1418.92164,907.420091 1418.92164,898.304236 C1418.91994,889.188382 1426.33614,881.773882 1435.45199,881.773882 Z M1424.05463,920.886306 C1427.48285,922.623389 1431.35343,923.608473 1435.45029,923.608473 C1439.54886,923.608473 1443.41944,922.623389 1446.84596,920.886306 C1453.66329,922.073852 1458.67037,927.948627 1458.67037,934.999037 L1458.67037,954.932099 C1458.67037,955.95121 1457.84181,956.77977 1456.8227,956.77977 L1414.07789,956.77977 C1413.06048,956.77977 1412.23192,955.95121 1412.23192,954.932099 L1412.23192,934.999037 C1412.23022,927.950328 1417.239,922.073852 1424.05463,920.886306 Z M1380.23796,881.773882 C1389.35211,881.773882 1396.76831,889.188382 1396.76831,898.304236 C1396.76831,907.418389 1389.35211,914.834591 1380.23796,914.834591 C1371.1221,914.834591 1363.7076,907.420091 1363.7076,898.304236 C1363.7076,889.188382 1371.1221,881.773882 1380.23796,881.773882 Z M1368.84229,920.886306 C1372.26882,922.623389 1376.1394,923.608473 1380.23796,923.608473 C1384.33652,923.608473 1388.2054,922.623389 1391.63363,920.886306 C1398.44925,922.073852 1403.45804,927.948627 1403.45804,934.999037 L1403.45804,954.932099 C1403.45804,955.95121 1402.62948,956.77977 1401.61036,956.77977 L1358.86555,956.77977 C1357.84644,956.77977 1357.01788,955.95121 1357.01788,954.932099 L1357.01788,934.999037 C1357.01788,927.950328 1362.02667,922.073852 1368.84229,920.886306 Z M1325.02392,881.773882 C1334.13807,881.773882 1341.55427,889.188382 1341.55427,898.304236 C1341.55427,907.418389 1334.13807,914.834591 1325.02392,914.834591 C1315.90977,914.834591 1308.49356,907.418389 1308.49356,898.304236 C1308.49356,889.188382 1315.90977,881.773882 1325.02392,881.773882 Z M1301.80384,934.999037 C1301.80384,927.950328 1306.81263,922.073852 1313.62825,920.886306 C1317.05648,922.623389 1320.92536,923.608473 1325.02392,923.608473 C1329.12248,923.608473 1332.99136,922.623389 1336.41959,920.886306 C1343.23691,922.073852 1348.244,927.948627 1348.244,934.999037 L1348.244,954.932099 C1348.244,955.95121 1347.41544,956.77977 1346.39633,956.77977 L1303.65151,956.77977 C1302.6324,956.77977 1301.80384,955.95121 1301.80384,954.932099 L1301.80384,934.999037 Z" id="Customer-Facing-Software"></path>
        </g>
    </g>
</svg>