<?xml version="1.0" encoding="UTF-8"?>
<svg width="224px" height="223px" viewBox="0 0 224 223" version="1.1" xmlns="http://www.w3.org/2000/svg" xmlns:xlink="http://www.w3.org/1999/xlink">
    <title>Combined Shape</title>
    <defs>
        <linearGradient x1="50%" y1="0%" x2="50%" y2="100%" id="linearGradient-1">
            <stop stop-color="#FF3B3F" offset="0%"></stop>
            <stop stop-color="#1D1D1D" offset="100%"></stop>
        </linearGradient>
        <path d="M853.891134,103.001475 L856.204134,109.574475 C856.771134,109.797475 857.338134,110.032475 857.895134,110.280475 L864.175134,107.267475 L882.999134,126.166475 L879.997134,132.465475 C880.245134,133.031475 880.478134,133.597475 880.701134,134.162475 L887.258134,136.487475 L887.258134,142.642475 L901.621134,142.642475 C911.522134,142.642475 919.576134,150.725475 919.576134,160.661475 L919.576134,239.944475 C919.576134,249.880475 911.522134,257.963475 901.621134,257.963475 L876.485134,257.963475 L876.485134,272.378475 L890.849134,272.378475 C894.810134,272.378475 898.031134,275.610475 898.031134,279.585475 L898.031134,286.793475 C898.031134,290.768475 894.810134,294.001475 890.849134,294.001475 L790.303134,294.001475 C786.342134,294.001475 783.121134,290.768475 783.121134,286.793475 L783.121134,279.585475 C783.121134,275.610475 786.342134,272.378475 790.303134,272.378475 L804.667134,272.378475 L804.667134,257.963475 L779.530134,257.963475 C769.630134,257.963475 761.576134,249.880475 761.576134,239.944475 L761.576134,160.661475 C761.576134,150.725475 769.630134,142.642475 779.530134,142.642475 L793.894134,142.642475 L793.894134,136.487475 L800.451134,134.170475 C800.670134,133.604475 800.907134,133.038475 801.155134,132.472475 L798.153134,126.173475 L816.976134,107.275475 L823.257134,110.287475 C823.817134,110.039475 824.381134,109.804475 824.948134,109.581475 L827.261134,103.001475 L853.891134,103.001475 Z M890.849134,279.585475 L790.303134,279.585475 L790.303134,286.793475 L890.852134,286.793475 L890.849134,279.585475 Z M869.303134,257.963475 L811.849134,257.963475 L811.849134,272.378475 L869.303134,272.378475 L869.303134,257.963475 Z M912.394134,229.133475 L768.758134,229.133475 L768.758134,239.944475 C768.758134,245.905475 773.591134,250.755475 779.530134,250.755475 L901.621134,250.755475 C907.561134,250.755475 912.394134,245.905475 912.394134,239.944475 L912.394134,229.133475 Z M826.076134,236.000975 C828.009134,236.000975 829.576134,237.567975 829.576134,239.500975 C829.576134,241.433975 828.009134,243.000975 826.076134,243.000975 C824.143134,243.000975 822.576134,241.433975 822.576134,239.500975 C822.576134,237.567975 824.143134,236.000975 826.076134,236.000975 Z M840.076134,236.000975 C842.009134,236.000975 843.576134,237.567975 843.576134,239.500975 C843.576134,241.433975 842.009134,243.000975 840.076134,243.000975 C838.143134,243.000975 836.576134,241.433975 836.576134,239.500975 C836.576134,237.567975 838.143134,236.000975 840.076134,236.000975 Z M855.076134,236.000975 C857.009134,236.000975 858.576134,237.567975 858.576134,239.500975 C858.576134,241.433975 857.009134,243.000975 855.076134,243.000975 C853.143134,243.000975 851.576134,241.433975 851.576134,239.500975 C851.576134,237.567975 853.143134,236.000975 855.076134,236.000975 Z M901.621134,149.850475 L779.530134,149.850475 C773.591134,149.850475 768.758134,154.700475 768.758134,160.661475 L768.758134,221.925475 L912.394134,221.925475 L912.394134,160.661475 C912.394134,154.700475 907.561134,149.850475 901.621134,149.850475 Z M843.950134,155.953175 L850.931134,157.702175 L836.502134,215.300175 L829.520134,213.551175 L843.950134,155.953175 Z M860.698034,165.000975 L889.576034,186.000975 L860.698034,207.000975 L856.576034,201.120975 L877.365034,186.000975 L856.576034,170.880975 L860.698034,165.000975 Z M819.454134,165.000675 L823.576134,170.881675 L802.787134,186.000675 L823.576134,201.120675 L819.454134,207.000675 L790.576134,186.000675 L819.454134,165.000675 Z M848.806134,110.208475 L832.346134,110.208475 L830.586134,115.225475 L828.941134,115.790475 C827.559134,116.266475 826.173134,116.843475 824.826134,117.509475 L823.261134,118.281475 L818.467134,115.981475 L806.825134,127.665475 L809.120134,132.472475 L808.351134,134.040475 C807.680134,135.413475 807.105134,136.800475 806.638134,138.170475 L806.078134,139.820475 L801.076134,141.590475 L801.076134,142.642475 L812.775134,142.642475 C816.007134,130.123475 827.433134,121.019475 840.576134,121.019475 C853.719134,121.019475 865.145134,130.123475 868.377134,142.642475 L880.076134,142.642475 L880.076134,141.590475 L875.077134,139.820475 L874.517134,138.170475 C874.050134,136.800475 873.476134,135.413475 872.804134,134.040475 L872.036134,132.472475 L874.331134,127.665475 L862.689134,115.981475 L857.895134,118.281475 L856.329134,117.509475 C854.983134,116.843475 853.597134,116.266475 852.214134,115.790475 L850.570134,115.225475 L848.806134,110.208475 Z M840.576134,128.227475 C831.362134,128.227475 823.282134,134.198475 820.287134,142.642475 L860.865134,142.642475 C857.870134,134.198475 849.790134,128.227475 840.576134,128.227475 Z M840.304134,78.1244752 C860.325134,78.1244752 879.553134,84.0834752 895.909134,95.3594752 C896.532134,95.7874752 897.250134,96.0004752 897.970134,96.0004752 C898.763134,96.0004752 899.553134,95.7404752 900.209134,95.2314752 C901.459134,94.2554752 901.910134,92.5814752 901.319134,91.1214752 L894.110134,73.2444752 L887.417134,75.8804752 L890.571134,83.7054752 C875.228134,75.3674752 858.054134,71.0004752 840.304134,71.0004752 C818.802134,71.0004752 798.150134,77.4054752 780.576134,89.5184752 L784.703134,95.3634752 C801.055134,84.0834752 820.283134,78.1244752 840.304134,78.1244752 M748.694034,121.257775 L730.817034,128.465775 L733.452034,135.158775 L741.275034,132.005775 C732.943034,147.348775 728.576034,164.521775 728.576034,182.272775 C728.576034,203.771775 734.980034,224.426775 747.091034,242.000775 L752.936034,237.873775 C741.659034,221.518775 735.700034,202.290775 735.700034,182.272775 C735.700034,162.254775 741.659034,143.026775 752.936034,126.667775 C753.837034,125.362775 753.780034,123.611775 752.804034,122.364775 C751.828034,121.120775 750.158034,120.666775 748.694034,121.257775 M938.874134,231.993775 C947.209134,216.654775 951.576134,199.480775 951.576134,181.729775 C951.576134,160.230775 945.172134,139.574775 933.061134,122.000775 L927.216134,126.127775 C938.493134,142.483775 944.452134,161.711775 944.452134,181.729775 C944.452134,201.747775 938.493134,220.975775 927.216134,237.334775 C926.315134,238.639775 926.372134,240.391775 927.348134,241.638775 C928.039134,242.517775 929.075134,243.000775 930.137134,243.000775 C930.578134,243.000775 931.027134,242.917775 931.455134,242.744775 L949.332134,235.536775 L946.696134,228.843775 L938.874134,231.993775 Z" id="path-2"></path>
    </defs>
    <g id="Site-Icons" stroke="none" stroke-width="1" fill="none" fill-rule="evenodd">
        <g id="Combined-Shape" transform="translate(-728.000000, -71.000000)">
            <use fill="#1D1D1D" xlink:href="#path-2"></use>
            <use fill="url(#linearGradient-1)" xlink:href="#path-2"></use>
        </g>
    </g>
</svg>