<?xml version="1.0" encoding="UTF-8"?>
<svg width="223px" height="229px" viewBox="0 0 223 229" version="1.1" xmlns="http://www.w3.org/2000/svg" xmlns:xlink="http://www.w3.org/1999/xlink">
    <title>Department Solution</title>
    <defs>
        <linearGradient x1="50%" y1="0%" x2="50%" y2="100%" id="linearGradient-1">
            <stop stop-color="#FF3B3F" offset="0%"></stop>
            <stop stop-color="#000000" offset="100%"></stop>
        </linearGradient>
    </defs>
    <g id="Site-Icons" stroke="none" stroke-width="1" fill="none" fill-rule="evenodd">
        <g id="Icons-to-Still-Be-Converted---11/7/22" transform="translate(-84.000000, -420.000000)" fill="url(#linearGradient-1)" fill-rule="nonzero">
            <path d="M189.732759,421.44181 C193.194605,419.519397 197.807272,419.519397 201.267241,421.44181 L247.405172,447.970745 C250.867019,449.893159 253.172414,453.737987 253.172414,457.967672 L253.172414,516.409802 L301.232759,544.091435 C304.694605,546.013849 307,549.858676 307,554.088362 L307,610.22322 C307,614.452906 304.694605,618.297733 301.232759,620.220147 L255.094828,646.749082 C251.634858,648.671496 247.022191,648.671496 243.560345,646.749082 L195.5,619.450431 L147.439655,646.749082 C143.979686,648.671496 139.367019,648.671496 135.905172,646.749082 L89.7672414,620.220147 C86.3072719,618.297733 84,614.452906 84,610.608078 L84,554.088362 C84,549.858676 86.3072719,546.013849 89.7672414,544.091435 L137.827586,516.792784 L137.827586,457.967672 C137.827586,453.737987 140.134858,449.893159 143.594828,447.970745 Z M152.439057,601.763849 L133.982759,620.220147 L133.982759,636.752155 L139.75,640.212125 C140.904574,640.981841 142.44213,640.981841 143.594828,640.212125 L172.431034,623.680117 L172.431034,610.608078 C172.431034,608.685664 171.278337,607.146232 169.740781,606.763251 L153.976613,602.148707 C153.591755,602.148707 152.823915,602.148707 152.439057,601.763849 Z M262.016643,596.766324 C255.094828,603.686263 243.560345,603.686263 236.640406,596.766324 L221.261096,601.763849 C219.72354,602.148707 218.568966,603.686263 218.568966,605.223818 L218.568966,623.680117 L247.405172,640.212125 C248.559747,640.981841 250.097302,640.981841 251.25,640.212125 L280.086207,623.680117 L280.086207,605.223818 C280.086207,603.686263 278.933509,602.148707 277.395954,601.763849 Z M130.907647,601.763849 C130.522789,601.763849 129.75495,602.148707 129.370092,602.148707 L113.605923,606.763251 C112.068367,607.53109 110.913793,609.068646 110.913793,610.608078 L110.913793,623.680117 L126.293103,632.522469 L126.293103,617.143159 L136.290031,607.146232 Z M253.172414,622.525542 L253.172414,630.215198 L245.482759,630.215198 L245.482759,622.525542 L253.172414,622.525542 Z M249.327586,523.329741 L201.267241,550.628393 C200.499402,551.013251 200.114544,551.013251 199.344828,551.396232 L199.344828,612.530492 L210.87931,619.065573 L210.87931,604.840837 C210.87931,599.841435 213.956298,595.611749 218.185984,594.074194 L231.258023,589.844508 L227.798053,584.462125 C226.643479,582.539711 225.875639,580.232439 225.875639,577.927044 L225.875639,553.318646 C225.875639,546.783565 230.873164,541.784163 237.410122,541.784163 L272.01357,541.784163 L272.01357,577.927044 C272.01357,580.232439 271.243854,582.539711 270.091157,584.462125 L266.62931,589.844508 L279.703226,594.074194 C284.700751,595.611749 287.775862,599.841435 287.775862,604.840837 L287.775862,619.065573 L297.387931,614.068048 C298.542505,613.298332 299.310345,612.145634 299.310345,610.608078 L299.310345,554.088362 C299.310345,552.550806 298.542505,551.396232 297.387931,550.628393 L249.327586,523.329741 Z M141.672414,523.329741 L93.612069,550.628393 C92.4593714,551.396232 91.6896552,552.550806 91.6896552,554.088362 L91.6896552,610.22322 C91.6896552,611.760776 92.4593714,612.913473 93.612069,613.68319 L103.224138,619.065573 L103.224138,610.608078 C103.224138,607.53109 104.76357,604.455979 107.068966,602.148707 L109.761096,567.930117 C111.298651,552.165948 123.60285,539.478768 139.367019,538.324194 C156.668743,537.171496 172.048053,550.243534 173.585609,567.930117 L176.275862,602.148707 C178.583134,604.071121 180.12069,607.146232 180.12069,610.608078 L180.12069,619.065573 L191.655172,612.530492 L191.655172,551.396232 C190.887333,551.013251 190.502475,551.013251 189.732759,550.628393 L141.672414,523.329741 Z M164.741379,610.99106 L164.741379,618.680715 L153.206897,618.680715 L153.206897,610.99106 L164.741379,610.99106 Z M253.172414,607.146232 L253.172414,614.835887 L245.482759,614.835887 L245.482759,607.146232 L253.172414,607.146232 Z M272.396552,607.146232 L272.396552,614.835887 L260.862069,614.835887 L260.862069,607.146232 L272.396552,607.146232 Z M141.672414,561.008301 C137.444605,561.008301 133.982759,564.470147 133.982759,568.697956 L133.982759,576.00463 C133.982759,576.772469 133.982759,577.157328 134.367617,577.927044 L137.827586,584.846983 L137.827586,591.38394 C137.827586,593.306354 137.444605,595.228768 136.674889,596.766324 L141.672414,601.763849 L146.671816,596.766324 C145.902099,594.84391 145.517241,593.306354 145.517241,591.38394 L145.517241,584.846983 L148.979088,577.542186 C149.362069,577.157328 149.362069,576.772469 149.362069,576.00463 L149.362069,568.697956 C149.362069,564.470147 145.902099,561.008301 141.672414,561.008301 Z M143.594828,546.398707 C130.137931,545.246009 118.603448,555.24106 117.450751,568.697956 L115.143479,598.688737 L127.447678,595.228768 C128.985233,594.459052 130.137931,592.921496 130.137931,591.38394 L130.137931,586.384538 L127.447678,581.002155 C126.677962,579.464599 126.293103,577.927044 126.293103,576.00463 L126.293103,568.697956 C126.293103,560.240462 133.214919,553.318646 141.672414,553.318646 C150.131785,553.318646 157.051724,560.240462 157.051724,568.697956 L157.051724,576.00463 C157.051724,577.542186 156.668743,579.464599 155.899027,581.002155 L153.206897,586.384538 L153.206897,591.38394 C153.206897,592.921496 154.361471,594.459052 155.899027,595.228768 L168.203226,598.688737 L165.895954,568.697956 C165.126237,556.780492 155.514168,547.168423 143.594828,546.398707 Z M249.327586,564.853129 L233.948276,567.930117 L233.948276,568.697956 L234.333134,568.697956 L234.333134,577.927044 C234.333134,578.694883 234.717992,579.464599 235.10285,580.232439 L241.25495,589.844508 C241.637931,590.614224 242.407647,590.999082 243.177363,591.766922 C247.790031,595.611749 254.326988,594.459052 257.786958,589.844508 L263.939057,580.232439 C264.323915,579.464599 264.706897,578.694883 264.706897,577.927044 L264.706897,567.930117 L249.327586,564.853129 Z M264.706897,549.473818 L237.793103,549.473818 C235.487708,549.473818 233.948276,551.013251 233.948276,553.318646 L233.948276,560.240462 L249.327586,557.163473 L264.706897,560.240462 L264.706897,549.473818 Z M208.189057,499.875918 L200.88426,507.180715 L206.266643,512.564975 C209.341755,516.024944 210.496329,520.637611 208.956897,524.867297 L202.806674,541.016324 L226.258621,527.559427 L226.258621,508.335289 C226.258621,506.797733 225.105923,505.258301 223.568367,504.87532 L208.189057,499.875918 Z M182.81282,499.875918 L167.433509,505.643159 C165.895954,506.028017 164.741379,507.565573 164.741379,509.103129 L164.741379,527.559427 L188.195203,541.016324 L182.043103,524.867297 C180.505548,520.637611 181.660122,515.640086 184.735233,512.564975 L190.117617,507.180715 L182.81282,499.875918 Z M195.5,512.564975 L190.117617,517.947358 C189.349777,519.100056 188.964919,520.637611 189.349777,522.177044 L195.5,538.709052 L201.652099,522.177044 C202.421816,520.637611 202.036958,519.100056 200.88426,517.947358 L195.5,512.564975 Z M197.422414,427.978768 C196.269716,427.209052 194.732161,427.209052 193.577586,427.978768 L147.439655,454.507703 C146.286958,455.275542 145.517241,456.430117 145.517241,457.967672 L145.517241,516.409802 L157.051724,522.944883 L157.051724,508.720147 C157.051724,503.720745 160.128712,499.49106 165.126237,497.953504 L177.045578,494.108676 L175.892881,492.955979 C173.585609,491.033565 172.431034,487.956577 172.431034,484.881466 L172.431034,457.197956 C172.431034,450.662875 177.430436,445.663473 183.965517,445.663473 L207.034483,445.663473 C213.57144,445.663473 218.568966,450.662875 218.568966,457.197956 L218.568966,485.266324 C218.568966,488.341435 217.416268,491.033565 215.108996,493.340837 L213.956298,494.493534 L225.875639,498.338362 C230.873164,499.875918 233.948276,504.105603 233.948276,509.103129 L233.948276,523.329741 L245.482759,516.792784 L245.482759,457.967672 C245.482759,456.430117 244.714919,455.275542 243.560345,454.507703 Z M222.413793,511.025542 L222.413793,518.715198 L214.724138,518.715198 L214.724138,511.025542 L222.413793,511.025542 Z M210.496329,473.731841 C209.341755,471.424569 206.266643,470.654853 203.959371,472.194285 L195.884858,477.19181 L187.810345,472.194285 C187.042505,471.809427 185.887931,471.424569 185.120092,471.424569 C182.427962,471.424569 180.12069,473.731841 180.12069,476.422094 L180.505548,476.422094 L180.505548,485.266324 C180.505548,486.419021 180.890406,487.188737 181.660122,487.956577 L187.042505,493.340837 L191.272191,497.568646 L195.5,501.798332 L200.499402,497.185664 L210.111471,487.573596 C210.87931,486.803879 211.264168,486.034163 211.264168,484.881466 L211.264168,476.422094 C211.264168,475.461513 210.996906,474.766891 210.686186,474.117681 Z M207.034483,453.353129 L183.965517,453.353129 C181.660122,453.353129 180.12069,454.892561 180.12069,457.197956 L180.12069,464.887611 C183.582536,463.350056 187.810345,463.734914 191.272191,465.657328 L195.5,467.964599 L199.729686,465.657328 C202.806674,463.350056 207.034483,463.350056 210.87931,464.887611 L210.87931,457.197956 C210.87931,454.892561 209.341755,453.353129 207.034483,453.353129 Z" id="Department-Solution"></path>
        </g>
    </g>
</svg>