<?xml version="1.0" encoding="UTF-8"?>
<svg id="Layer_2" data-name="Layer 2" xmlns="http://www.w3.org/2000/svg" xmlns:xlink="http://www.w3.org/1999/xlink" viewBox="0 0 152.61 152.15">
  <defs>
    <style>
      .cls-1 {
        fill: url(#linear-gradient);
      }
    </style>
    <linearGradient id="linear-gradient" x1="-242.79" y1="541.62" x2="-242.79" y2="540.94" gradientTransform="translate(54381.39 120781.18) scale(223.68 -223)" gradientUnits="userSpaceOnUse">
      <stop offset="0" stop-color="#ef4044"/>
      <stop offset="1" stop-color="#1c1d1d"/>
    </linearGradient>
  </defs>
  <g id="Layer_1-2" data-name="Layer 1">
    <path id="Flexibility" class="cls-1" d="M30.42,94.02h14.01c6.75-.13,13.14,2.36,17.98,7.02,4.86,4.69,7.54,10.96,7.54,17.67h0v28.97h12.73v-15.1c0-1.23,1-2.23,2.23-2.23s2.23,1,2.23,2.23h0v17.33c0,1.23-1,2.23-2.23,2.23h-17.19c-1.23,0-2.23-1-2.23-2.23h0v-31.2c0-5.49-2.19-10.63-6.17-14.46-3.98-3.84-9.24-5.89-14.81-5.77-.02,0-.03,0-.05,0h-11.8s0,14.75,0,14.75c0,.87-.51,1.67-1.3,2.03-.79,.36-1.73,.23-2.39-.34h0l-12.77-11.08c-.93-.81-1.03-2.21-.22-3.14,.81-.93,2.21-1.03,3.14-.22h0l9.08,7.88v-12.1c0-.59,.24-1.16,.65-1.58,.42-.42,.99-.65,1.58-.65h0ZM76.3,0c.64,0,1.24,.27,1.66,.75h0l24.78,27.82c.58,.66,.73,1.59,.37,2.39-.36,.8-1.16,1.32-2.03,1.32h-13.95v21.4c6.49-3.58,13.86-5.41,21.5-5.24h.05s11.27,0,11.27,0v-12.73c0-.87,.51-1.67,1.3-2.03,.79-.36,1.73-.23,2.39,.34h0l28.19,24.45c.49,.42,.77,1.04,.77,1.68s-.28,1.26-.77,1.68h0l-28.19,24.45c-.66,.57-1.59,.71-2.39,.34s-1.3-1.15-1.3-2.03h0v-14.76h-11.8s-.03,0-.05,0c-5.58-.12-10.83,1.93-14.81,5.77-3.98,3.84-6.17,8.98-6.17,14.46h0v28.3c0,.11,0,.22,0,.33h0v4.96c0,1.23-1,2.23-2.23,2.23h0c-1.24,0-2.23-1-2.23-2.23h0v-5.28c-.09-9.97-4.11-19.29-11.34-26.27-7.32-7.06-17-10.82-27.25-10.6h-.08s-.03,0-.04,0h-13.53c-1.23,0-2.23-1-2.23-2.23h0v-10.08L5.63,88.78l6.74,5.85c.93,.81,1.03,2.21,.22,3.14-.81,.93-2.21,1.03-3.14,.22h0L.77,90.47c-.49-.42-.77-1.04-.77-1.68s.28-1.26,.77-1.68H.77l28.19-24.45c.66-.57,1.59-.71,2.39-.34,.79,.36,1.3,1.15,1.3,2.03h0v12.73h11.28s.05,0,.05,0c7.65-.17,15.02,1.65,21.5,5.24h0v-31.3c0-1.23,1-2.23,2.23-2.23s2.23,1,2.23,2.23h0v20.34c2.07-4.05,4.84-7.78,8.25-11.07,1.42-1.37,2.92-2.62,4.48-3.76h0V30.05c0-1.23,1-2.23,2.23-2.23h11.21L76.3,5.58l-19.81,22.24h11.21c1.23,0,2.23,1,2.23,2.23h0v12.04c0,1.23-1,2.23-2.23,2.23s-2.23-1-2.23-2.23h0v-9.82h-13.95c-.88,0-1.67-.52-2.03-1.32-.36-.8-.21-1.74,.37-2.39h0L74.64,.75c.42-.48,1.03-.75,1.66-.75Zm48.11,40.59v10.08c0,1.23-1,2.23-2.23,2.23h-13.53s-.04,0-.06,0c0,0-.04,0-.04,0-10.28-.23-19.96,3.54-27.27,10.59-6.18,5.96-9.99,13.51-11.05,21.87,1.46,1.08,2.85,2.26,4.18,3.54,3.41,3.29,6.17,7.03,8.25,11.11h0v-9.92c0-6.71,2.68-12.99,7.54-17.67,4.83-4.66,11.23-7.15,17.98-7.02h14.01c.59,0,1.16,.23,1.58,.65,.42,.42,.65,.99,.65,1.58h0v12.1l22.56-19.57-22.56-19.57Z"/>
  </g>
</svg>