<?xml version="1.0" encoding="utf-8"?>
<!-- Generator: Adobe Illustrator 27.0.0, SVG Export Plug-In . SVG Version: 6.00 Build 0)  -->
<svg version="1.1" id="Layer_1" xmlns="http://www.w3.org/2000/svg" xmlns:xlink="http://www.w3.org/1999/xlink" x="0px" y="0px"
	 viewBox="0 0 100 58" style="enable-background:new 0 0 100 58;" xml:space="preserve">
<style type="text/css">
	.st0{fill:#2D2D2D;}
</style>
<g id="Website">
	<g id="DesignSample-Copy" transform="translate(-373.000000, -2939.000000)">
		<g id="Group-23-Copy" transform="translate(373.000000, 2939.000000)">
			<path id="Shape" class="st0" d="M20.4,31.9c-1.7,0.3-2.8,0.9-4,2.3c-2.5,2.7-2.6,6.8-0.1,9.6c3.4,3.8,9.6,3,11.8-1.6
				c1.4-2.8,0.7-6.4-1.6-8.5C24.8,32,22.7,31.4,20.4,31.9z M23.8,35.4c2.5,1.6,2.4,5.8-0.2,7.2c-1.2,0.6-3.3,0.5-4.3-0.2
				c-2.3-1.7-2.2-5.3,0.2-6.9C20.6,34.7,22.6,34.7,23.8,35.4z"/>
			<path id="Path" class="st0" d="M0,12v12h4.3v-5.9c0-5.3,0.1-6,0.7-7C5.7,9.8,7.3,9.3,9,9.7c0.9,0.3,1.3,0.6,1.8,1.7
				c0.5,1.2,0.6,2.2,0.6,7V24h3.9v-6.5c0-3.9-0.1-6.9-0.4-7.6c-1-3-4.7-5.1-7.7-4.3C6.5,5.9,5.5,6.3,5,6.6L4.3,7.1V0H0V12z"/>
			<path id="Shape_00000168100798117878141660000003336464355846160806_" class="st0" d="M0,44.1v9.5h2.8v-0.9c0-1,0.2-1.2,0.7-0.4
				c0.8,1.4,4,2,6.4,1.3c2.4-0.7,4.5-4.1,4.5-7c0-3.3-2.1-6.4-4.9-7.3c-0.8-0.2-1.6-0.4-2-0.4c-1,0-3.1,0.8-3.6,1.3
				c-0.3,0.3-0.6,0.5-0.7,0.5c-0.1,0-0.2-1.4-0.2-3v-3H0V44.1L0,44.1z M9.4,42.8c1.7,1.1,2.3,3.6,1.4,5.5c-2,4.1-7.7,2.6-7.7-2
				C3.1,43,6.5,41.1,9.4,42.8L9.4,42.8z"/>
			<path id="Path_00000061473680143848995370000010092140321942117813_" class="st0" d="M33.3,36.9v2.3h-0.8c-0.8,0-0.8,0-0.8,1.4
				s0,1.4,0.8,1.4h0.8v10.9h3.1V42h2.1v-2.8h-2.1v-4.6h-3.1V36.9z"/>
			<polygon id="Path_00000158030188071281532530000017796202519960967868_" class="st0" points="41.2,36.9 41.2,39.2 39.4,39.2 
				39.4,42 41.2,42 41.2,52.9 44.2,52.9 44.2,42 46.2,42 46.2,39.2 44.2,39.2 44.2,34.6 41.2,34.6 			"/>
			<path id="Shape_00000140701818870902644830000001907422205446389435_" class="st0" d="M24.9,5.9c-2.3,0.6-4.7,2.6-5.9,4.9
				c-0.9,1.7-0.9,6.4,0.1,8.4c0.9,1.8,2.5,3.5,4.2,4.2c2.6,1.2,6.9,0.5,8.5-1.3c0.9-1,1.2-0.8,1.2,0.5v1.1h3.6V6.3h-3.6v1.1
				c0,1.1-0.4,1.5-0.8,0.7C31.6,6.6,27.2,5.3,24.9,5.9L24.9,5.9z M28.8,9.9c2.4,0.6,3.8,2.5,3.8,5c0,3-1.7,5-4.6,5.3
				c-5.1,0.5-7.8-5.4-4.2-8.9c0.9-0.9,1.8-1.3,3.5-1.6C27.4,9.5,28.1,9.7,28.8,9.9L28.8,9.9z"/>
			<path id="Shape_00000143618320267757797730000002658679969096421307_" class="st0" d="M46.8,6c-0.7,0.2-1.7,0.8-2.4,1.4l-1.1,1
				V6.3h-3.9v23.5h4.3v-8l0.9,0.9c1.2,1.2,2.4,1.6,4.6,1.6c4.6,0,8.1-3.6,8.5-8.5c0.3-3.9-1.7-7.5-4.9-9.2C51.3,5.8,48.5,5.5,46.8,6
				L46.8,6z M50.6,10.1c0.3,0.1,1,0.7,1.7,1.4c1.6,1.8,1.9,3.7,0.9,5.8s-2.2,2.8-4.3,3c-1.4,0.1-1.9,0-2.8-0.7
				c-2.5-1.7-3.3-4.3-2-6.9C45.2,10.1,47.4,9.2,50.6,10.1L50.6,10.1z"/>
			<path id="Shape_00000108274311990040677820000004004148396174811578_" class="st0" d="M68,4.9c-0.2,0.1-0.7,0.2-1.2,0.3
				c-0.5,0.1-1.5,0.7-2.2,1.4l-1.3,1.2V5.4h-3.6v23.4h3.9v-3.9c0-3.5,0.3-4.7,0.8-3.4c0.3,0.9,3,1.8,5,1.8c4,0,7.1-2.6,8.2-6.8
				c0.9-3.6-0.2-7.3-2.9-9.6C72.9,5.4,69.6,4.4,68,4.9L68,4.9z M71.3,9.6c2.4,1.4,3.2,4.7,1.8,7.2c-1.4,2.5-4.5,3.3-7,1.9
				c-2.9-1.7-3.4-6.2-0.9-8.5C66.8,8.7,69.3,8.5,71.3,9.6L71.3,9.6z"/>
			<path id="Path_00000070121014082942717980000018187446682542748816_" class="st0" d="M68.7,38.8c-0.6,0.2-1.2,0.6-1.5,0.8
				c-0.5,0.4-0.5,0.4-0.5-0.1s-0.1-0.6-1.6-0.6h-1.6v14l1.7-0.1l1.6-0.1l0.1-4.8c0.1-4.8,0.1-4.8,0.8-5.5c0.5-0.5,1-0.7,1.7-0.7
				c2.6,0,3,0.9,3,6.8v4.4h3.1l0.1-4.6c0.1-5.2,0.3-5.7,2-6.4c0.8-0.3,1.1-0.3,1.9,0c1.6,0.6,1.9,1.4,1.9,6.6v4.5h3.2v-5
				c0-5.5-0.2-6.3-1.5-7.7c-1.1-1.2-2.1-1.6-4-1.6c-1.7,0-3.4,0.6-4.2,1.5c-0.3,0.4-0.4,0.3-1.3-0.4C71.9,38.4,70.5,38.2,68.7,38.8
				L68.7,38.8z"/>
			<path id="Path_00000093151841458787735160000011251299462747090587_" class="st0" d="M90.1,39.6c-2,0.6-3,2-3,4.1
				c0,2,1.3,3.2,3.9,4.1c1.1,0.4,2.2,1.2,2.2,1.7c0,0.6-1,1.4-1.7,1.4c-0.7,0-1.6-0.7-1.6-1.2c0-0.2-0.6-0.3-1.6-0.3
				c-1.5,0-1.6,0.1-1.6,0.5c0,1.4,1.3,3.1,2.7,3.7c1.6,0.7,4.2,0.3,5.5-0.9c1.4-1.3,1.9-3.9,0.9-5.4c-0.5-0.8-2.7-2.1-3.6-2.1
				c-0.7,0-2-1-2-1.5c0-1,1.8-1.6,2.4-0.7c0.2,0.3,0.7,0.4,1.9,0.4h1.5l-0.3-0.8C95,40.3,92.5,38.9,90.1,39.6L90.1,39.6z"/>
			<path id="Path_00000038390717724727677640000013585974397312783506_" class="st0" d="M79.5,7.4c0.3,0.9,1.7,4.4,3.1,7.9
				c1.4,3.5,2.4,6.5,2.4,6.8c0,0.2-0.6,2-1.4,4s-1.4,3.6-1.4,3.6c0,0.1,1,0.1,2.1,0.1l2.1-0.1l5-12l4.9-11.9h-4.6l-1.9,5.4
				c-1,3-2,5.5-2.1,5.7c-0.1,0.2-0.6-0.8-1.1-2.2c-0.5-1.3-1.3-3.9-1.9-5.6L83.4,6l-2.3-0.1l-2.3-0.1L79.5,7.4L79.5,7.4z"/>
			<path id="Shape_00000156561586184500225230000015601901687820366268_" class="st0" d="M52.5,43.5c-3.5,1.1-5.4,3.6-5.4,7.1
				c0,2.8,1.6,5.3,4.1,6.5c1.5,0.7,3.9,0.8,5.6,0.3c2-0.7,3.9-2.6,4.5-4.6c0.7-2.5,0.1-5.2-1.5-7.2C58.2,43.8,54.7,42.8,52.5,43.5z
				 M56.2,46.9c2.9,1.5,2.8,6-0.2,7.4c-2.6,1.3-5.8-0.7-5.8-3.6C50.3,47.4,53.3,45.4,56.2,46.9L56.2,46.9z"/>
		</g>
	</g>
</g>
</svg>
