<?xml version="1.0" encoding="UTF-8"?>
<svg id="Layer_2" data-name="Layer 2" xmlns="http://www.w3.org/2000/svg" xmlns:xlink="http://www.w3.org/1999/xlink" viewBox="0 0 130.89 130.89">
  <defs>
    <style>
      .cls-1 {
        fill: url(#linear-gradient);
      }

      .cls-2 {
        fill: #1c1d1d;
      }
    </style>
    <linearGradient id="linear-gradient" x1="-439.56" y1="290.44" x2="-439.56" y2="289.85" gradientTransform="translate(98087.31 64768.46) scale(223 -223)" gradientUnits="userSpaceOnUse">
      <stop offset="0" stop-color="#ef4044"/>
      <stop offset="1" stop-color="#1c1d1d"/>
    </linearGradient>
  </defs>
  <g id="Layer_1-2" data-name="Layer 1">
    <g id="Combined-Shape">
      <path id="path-mxzsg0yuio-7" class="cls-2" d="M79.2,0c11.04,0,20.02,8.98,20.02,20.02,0,4.65-1.58,9.06-4.48,12.62h0l.44,.44c1.24,1.24,1.93,2.9,1.93,4.66,0,3.55-2.83,6.44-6.36,6.57-.12,3.45-2.89,6.21-6.33,6.33-.12,3.45-2.89,6.21-6.33,6.33-.12,3.52-3.01,6.36-6.57,6.36-1.46,0-2.83-.49-3.97-1.36h0v7.69h35.89c5.82,0,10.56,4.74,10.56,10.56h0v2.3c5.98,1.01,10.56,6.21,10.56,12.48,0,4.11-1.97,7.75-5.01,10.07,6.67,2.95,11.35,9.62,11.35,17.38h0v8.44h-38v-8.44c0-7.75,4.67-14.43,11.35-17.38-3.04-2.32-5.01-5.96-5.01-10.07,0-6.27,4.57-11.47,10.56-12.48h0v-2.3c0-3.49-2.84-6.33-6.33-6.33h-35.89v8.63c5.98,1.01,10.56,6.21,10.56,12.48,0,4.11-1.97,7.75-5.01,10.07,6.67,2.95,11.35,9.62,11.35,17.38h0v8.44H46.44v-8.44c0-7.75,4.67-14.43,11.35-17.38-3.04-2.32-5.01-5.96-5.01-10.07,0-6.27,4.57-11.47,10.56-12.48h0v-8.63H27.44c-3.49,0-6.33,2.84-6.33,6.33h0v2.3c5.98,1.01,10.56,6.21,10.56,12.48,0,4.11-1.97,7.75-5.01,10.07,6.67,2.95,11.35,9.62,11.35,17.38h0v8.44H0v-8.44c0-7.75,4.67-14.43,11.35-17.38-3.04-2.32-5.01-5.96-5.01-10.07,0-6.26,4.57-11.47,10.56-12.48h0v-2.3c0-5.82,4.74-10.56,10.56-10.56H63.33v-6.63c-.6,.18-1.21,.3-1.86,.3-3.55,0-6.44-2.83-6.57-6.36-3.45-.12-6.21-2.89-6.33-6.33-3.45-.12-6.21-2.89-6.33-6.33-3.52-.12-6.36-3.01-6.36-6.57,0-1.44,.48-2.79,1.32-3.92-3.57-3.74-5.54-8.62-5.54-13.8C31.67,8.98,40.65,0,51.69,0c5.17,0,10.02,1.96,13.75,5.5,3.73-3.54,8.59-5.5,13.75-5.5ZM19,107.67c-8.15,0-14.78,6.63-14.78,14.78h0v4.22h4.22v-8.44h4.22v8.44h12.67v-8.44h4.22v8.44h4.22v-4.22c0-8.15-6.63-14.78-14.78-14.78Zm46.44,0c-8.15,0-14.78,6.63-14.78,14.78h0v4.22h4.22v-8.44h4.22v8.44h12.67v-8.44h4.22v8.44h4.22v-4.22c0-8.15-6.63-14.78-14.78-14.78Zm46.44,0c-8.15,0-14.78,6.63-14.78,14.78h0v4.22h4.22v-8.44h4.22v8.44h12.67v-8.44h4.22v8.44h4.22v-4.22c0-8.15-6.63-14.78-14.78-14.78Zm0-21.11c-4.66,0-8.44,3.79-8.44,8.44s3.79,8.44,8.44,8.44,8.44-3.79,8.44-8.44-3.79-8.44-8.44-8.44Zm-92.89,0c-4.66,0-8.44,3.79-8.44,8.44s3.79,8.44,8.44,8.44,8.44-3.79,8.44-8.44-3.79-8.44-8.44-8.44Zm46.44,0c-4.66,0-8.44,3.79-8.44,8.44s3.79,8.44,8.44,8.44,8.44-3.79,8.44-8.44-3.79-8.44-8.44-8.44Zm-12.67-8.44v4.22h-4.22v-4.22h4.22Zm-8.44,0v4.22h-4.22v-4.22h4.22Zm-8.44,0v4.22h-4.22v-4.22h4.22Zm63.33,0v4.22h-4.22v-4.22h4.22Zm-8.44,0v4.22h-4.22v-4.22h4.22Zm-8.44,0v4.22h-4.22v-4.22h4.22ZM51.69,4.22c-8.71,0-15.8,7.09-15.8,15.8,0,4.06,1.53,7.88,4.31,10.82,1.12-.83,2.46-1.29,3.88-1.29,3.55,0,6.44,2.83,6.57,6.36,3.45,.12,6.21,2.89,6.33,6.33,3.45,.12,6.21,2.89,6.33,6.33,3.52,.12,6.36,3.01,6.36,6.57,0,.9-.18,1.77-.52,2.57h0l.71,.71c.45,.45,1.04,.69,1.67,.69,1.3,0,2.37-1.06,2.37-2.37,0-.63-.25-1.23-.69-1.67h0l-5.02-5.02,2.99-2.99,5.02,5.02c.45,.45,1.04,.69,1.67,.69,1.3,0,2.37-1.06,2.37-2.37,0-.63-.25-1.23-.69-1.67h0l-5.02-5.02,2.99-2.99,5.02,5.02c.45,.45,1.04,.69,1.67,.69,1.3,0,2.37-1.06,2.37-2.37,0-.63-.25-1.23-.69-1.67h0l-5.02-5.02,2.99-2.99,5.02,5.02c.45,.45,1.04,.69,1.67,.69,1.3,0,2.37-1.06,2.37-2.37,0-.63-.25-1.23-.69-1.67h0l-14-14c-1.9,.75-3.95,1.15-6.06,1.15h-1.6l-2.37,2.37c-1.2,1.2-2.79,1.86-4.48,1.86h-7.93c-2.81,0-5.1-2.29-5.1-5.1,0-1.36,.53-2.64,1.49-3.6h0l10.28-10.28c-2.93-2.73-6.72-4.24-10.75-4.24Zm11.39,48.56c-.63,0-1.23,.25-1.67,.69h0l-1.6,1.6c-.45,.45-.69,1.04-.69,1.67,0,1.3,1.06,2.37,2.37,2.37,.63,0,1.23-.25,1.67-.69h0l1.6-1.6c.45-.45,.69-1.04,.69-1.67,0-1.3-1.06-2.37-2.37-2.37Zm-6.33-6.33c-.63,0-1.23,.25-1.67,.69h0l-1.6,1.6c-.45,.45-.69,1.04-.69,1.67,0,1.3,1.06,2.37,2.37,2.37,.63,0,1.23-.25,1.67-.69h0l1.6-1.6c.45-.45,.69-1.04,.69-1.67,0-1.3-1.06-2.37-2.37-2.37Zm-6.33-6.33c-.63,0-1.23,.25-1.67,.69h0l-1.6,1.6c-.45,.45-.69,1.04-.69,1.67,0,1.3,1.06,2.37,2.37,2.37,.63,0,1.23-.25,1.67-.69h0l1.6-1.6c.45-.45,.69-1.04,.69-1.67,0-1.3-1.06-2.37-2.37-2.37Zm-6.33-6.33c-.63,0-1.23,.25-1.67,.69h0l-1.6,1.6c-.45,.45-.69,1.04-.69,1.67,0,1.3,1.06,2.37,2.37,2.37,.63,0,1.23-.25,1.67-.69h0l1.6-1.6c.45-.45,.69-1.04,.69-1.67,0-1.3-1.06-2.37-2.37-2.37ZM79.2,4.22c-4.22,0-8.19,1.64-11.17,4.63h0l-12.88,12.88c-.16,.16-.26,.39-.26,.62,0,.48,.39,.87,.87,.87h7.93c.56,0,1.1-.22,1.49-.62h0l3.6-3.6h3.35c3.29,0,6.38-1.28,8.7-3.6h0l2.99,2.99c-.57,.57-1.18,1.07-1.81,1.54h0l9.71,9.71c2.11-2.74,3.27-6.08,3.27-9.61,0-8.71-7.09-15.8-15.8-15.8Z"/>
      <path id="path-mxzsg0yuio-7-2" data-name="path-mxzsg0yuio-7" class="cls-1" d="M79.2,0c11.04,0,20.02,8.98,20.02,20.02,0,4.65-1.58,9.06-4.48,12.62h0l.44,.44c1.24,1.24,1.93,2.9,1.93,4.66,0,3.55-2.83,6.44-6.36,6.57-.12,3.45-2.89,6.21-6.33,6.33-.12,3.45-2.89,6.21-6.33,6.33-.12,3.52-3.01,6.36-6.57,6.36-1.46,0-2.83-.49-3.97-1.36h0v7.69h35.89c5.82,0,10.56,4.74,10.56,10.56h0v2.3c5.98,1.01,10.56,6.21,10.56,12.48,0,4.11-1.97,7.75-5.01,10.07,6.67,2.95,11.35,9.62,11.35,17.38h0v8.44h-38v-8.44c0-7.75,4.67-14.43,11.35-17.38-3.04-2.32-5.01-5.96-5.01-10.07,0-6.27,4.57-11.47,10.56-12.48h0v-2.3c0-3.49-2.84-6.33-6.33-6.33h-35.89v8.63c5.98,1.01,10.56,6.21,10.56,12.48,0,4.11-1.97,7.75-5.01,10.07,6.67,2.95,11.35,9.62,11.35,17.38h0v8.44H46.44v-8.44c0-7.75,4.67-14.43,11.35-17.38-3.04-2.32-5.01-5.96-5.01-10.07,0-6.27,4.57-11.47,10.56-12.48h0v-8.63H27.44c-3.49,0-6.33,2.84-6.33,6.33h0v2.3c5.98,1.01,10.56,6.21,10.56,12.48,0,4.11-1.97,7.75-5.01,10.07,6.67,2.95,11.35,9.62,11.35,17.38h0v8.44H0v-8.44c0-7.75,4.67-14.43,11.35-17.38-3.04-2.32-5.01-5.96-5.01-10.07,0-6.26,4.57-11.47,10.56-12.48h0v-2.3c0-5.82,4.74-10.56,10.56-10.56H63.33v-6.63c-.6,.18-1.21,.3-1.86,.3-3.55,0-6.44-2.83-6.57-6.36-3.45-.12-6.21-2.89-6.33-6.33-3.45-.12-6.21-2.89-6.33-6.33-3.52-.12-6.36-3.01-6.36-6.57,0-1.44,.48-2.79,1.32-3.92-3.57-3.74-5.54-8.62-5.54-13.8C31.67,8.98,40.65,0,51.69,0c5.17,0,10.02,1.96,13.75,5.5,3.73-3.54,8.59-5.5,13.75-5.5ZM19,107.67c-8.15,0-14.78,6.63-14.78,14.78h0v4.22h4.22v-8.44h4.22v8.44h12.67v-8.44h4.22v8.44h4.22v-4.22c0-8.15-6.63-14.78-14.78-14.78Zm46.44,0c-8.15,0-14.78,6.63-14.78,14.78h0v4.22h4.22v-8.44h4.22v8.44h12.67v-8.44h4.22v8.44h4.22v-4.22c0-8.15-6.63-14.78-14.78-14.78Zm46.44,0c-8.15,0-14.78,6.63-14.78,14.78h0v4.22h4.22v-8.44h4.22v8.44h12.67v-8.44h4.22v8.44h4.22v-4.22c0-8.15-6.63-14.78-14.78-14.78Zm0-21.11c-4.66,0-8.44,3.79-8.44,8.44s3.79,8.44,8.44,8.44,8.44-3.79,8.44-8.44-3.79-8.44-8.44-8.44Zm-92.89,0c-4.66,0-8.44,3.79-8.44,8.44s3.79,8.44,8.44,8.44,8.44-3.79,8.44-8.44-3.79-8.44-8.44-8.44Zm46.44,0c-4.66,0-8.44,3.79-8.44,8.44s3.79,8.44,8.44,8.44,8.44-3.79,8.44-8.44-3.79-8.44-8.44-8.44Zm-12.67-8.44v4.22h-4.22v-4.22h4.22Zm-8.44,0v4.22h-4.22v-4.22h4.22Zm-8.44,0v4.22h-4.22v-4.22h4.22Zm63.33,0v4.22h-4.22v-4.22h4.22Zm-8.44,0v4.22h-4.22v-4.22h4.22Zm-8.44,0v4.22h-4.22v-4.22h4.22ZM51.69,4.22c-8.71,0-15.8,7.09-15.8,15.8,0,4.06,1.53,7.88,4.31,10.82,1.12-.83,2.46-1.29,3.88-1.29,3.55,0,6.44,2.83,6.57,6.36,3.45,.12,6.21,2.89,6.33,6.33,3.45,.12,6.21,2.89,6.33,6.33,3.52,.12,6.36,3.01,6.36,6.57,0,.9-.18,1.77-.52,2.57h0l.71,.71c.45,.45,1.04,.69,1.67,.69,1.3,0,2.37-1.06,2.37-2.37,0-.63-.25-1.23-.69-1.67h0l-5.02-5.02,2.99-2.99,5.02,5.02c.45,.45,1.04,.69,1.67,.69,1.3,0,2.37-1.06,2.37-2.37,0-.63-.25-1.23-.69-1.67h0l-5.02-5.02,2.99-2.99,5.02,5.02c.45,.45,1.04,.69,1.67,.69,1.3,0,2.37-1.06,2.37-2.37,0-.63-.25-1.23-.69-1.67h0l-5.02-5.02,2.99-2.99,5.02,5.02c.45,.45,1.04,.69,1.67,.69,1.3,0,2.37-1.06,2.37-2.37,0-.63-.25-1.23-.69-1.67h0l-14-14c-1.9,.75-3.95,1.15-6.06,1.15h-1.6l-2.37,2.37c-1.2,1.2-2.79,1.86-4.48,1.86h-7.93c-2.81,0-5.1-2.29-5.1-5.1,0-1.36,.53-2.64,1.49-3.6h0l10.28-10.28c-2.93-2.73-6.72-4.24-10.75-4.24Zm11.39,48.56c-.63,0-1.23,.25-1.67,.69h0l-1.6,1.6c-.45,.45-.69,1.04-.69,1.67,0,1.3,1.06,2.37,2.37,2.37,.63,0,1.23-.25,1.67-.69h0l1.6-1.6c.45-.45,.69-1.04,.69-1.67,0-1.3-1.06-2.37-2.37-2.37Zm-6.33-6.33c-.63,0-1.23,.25-1.67,.69h0l-1.6,1.6c-.45,.45-.69,1.04-.69,1.67,0,1.3,1.06,2.37,2.37,2.37,.63,0,1.23-.25,1.67-.69h0l1.6-1.6c.45-.45,.69-1.04,.69-1.67,0-1.3-1.06-2.37-2.37-2.37Zm-6.33-6.33c-.63,0-1.23,.25-1.67,.69h0l-1.6,1.6c-.45,.45-.69,1.04-.69,1.67,0,1.3,1.06,2.37,2.37,2.37,.63,0,1.23-.25,1.67-.69h0l1.6-1.6c.45-.45,.69-1.04,.69-1.67,0-1.3-1.06-2.37-2.37-2.37Zm-6.33-6.33c-.63,0-1.23,.25-1.67,.69h0l-1.6,1.6c-.45,.45-.69,1.04-.69,1.67,0,1.3,1.06,2.37,2.37,2.37,.63,0,1.23-.25,1.67-.69h0l1.6-1.6c.45-.45,.69-1.04,.69-1.67,0-1.3-1.06-2.37-2.37-2.37ZM79.2,4.22c-4.22,0-8.19,1.64-11.17,4.63h0l-12.88,12.88c-.16,.16-.26,.39-.26,.62,0,.48,.39,.87,.87,.87h7.93c.56,0,1.1-.22,1.49-.62h0l3.6-3.6h3.35c3.29,0,6.38-1.28,8.7-3.6h0l2.99,2.99c-.57,.57-1.18,1.07-1.81,1.54h0l9.71,9.71c2.11-2.74,3.27-6.08,3.27-9.61,0-8.71-7.09-15.8-15.8-15.8Z"/>
    </g>
  </g>
</svg>