<?xml version="1.0" encoding="UTF-8"?>
<svg id="Layer_2" data-name="Layer 2" xmlns="http://www.w3.org/2000/svg" viewBox="0 0 228.47 40.47">
  <defs>
    <style>
      .cls-1 {
        fill: #fff;
      }

      .cls-2 {
        fill: #2d2d2d;
      }
    </style>
  </defs>
  <g id="Layer_1-2" data-name="Layer 1">
    <g>
      <path class="cls-2" d="M228.47,35.05c-1.61-.37-3.23-.13-4.85-.16-2.42-.05-2.42-.01-2.53-2.6-1.27,1.28-2.46,2.38-4.13,2.76-5.02,1.14-9.21-1.55-10.19-6.57-1.09-5.62,1.31-11.06,5.8-13.04,2.18-.96,4.48-1.19,6.82-.82,1.21,.19,1.59-.12,1.62-1.38,.03-1.64-.05-2.87-2.22-2.48-.57,.1-.85-.24-.84-.81,0-.69,.04-1.39-.02-2.07-.08-.95,.38-1.17,1.24-1.15,1.92,.04,3.84,.09,5.75-.01,1.27-.07,1.54,.43,1.53,1.59-.05,6.85,.04,13.71-.06,20.56-.02,1.65,.38,2.36,2.08,2.04v4.15Z"/>
      <path class="cls-2" d="M10.48,30.82c5.57-3.97,11.85-6.21,18.57-7.28,2.04-.33,4.1-.82,6.2-.33,.61-.15,1.19-.26,1.05,.7,.66,.46,1.29,.99,2,1.36,3.09,1.59,3.05,4.25,2.58,7.4-3.43-3.16-6.72-6.17-11.09-7.59,4.06,2.64,7.24,6.09,9.83,10.11,1.73,2.69,1.66,3.24-.89,5.29h-.35c-.97-.42-1.72-1.07-2.38-1.92-3.08-3.98-6.61-7.51-10.21-10,3.49,2.18,6.48,5.71,8.69,9.91,.34,.64,.86,1.32,.06,2.01h-3.84c-1.14-.66-2.05-1.54-2.93-2.53-2.06-2.32-4.43-4.34-6.85-6.28-.18-.15-.28,.1-.14-.09,0,0,.04,.02,.1,.06,2.51,1.94,4.85,4.03,6.47,6.81,.38,.66,.85,1.27,.22,2.02h-4.53c-2.48-1.36-4.28-3.55-6.45-5.29-1.4-1.12-2.87-1.96-4.72-1.94-.8-.61-1.99-1.02-1.37-2.42Z"/>
      <path class="cls-2" d="M10.48,30.82c.31,.83,1.1,1.16,1.72,1.68,3.12,1.35,5.66,3.45,7.74,6.09,.43,.55,.76,1.17,.29,1.88h-5.23c-1.62-.65-2.98-1.65-4.26-2.83-.86-.8-1.94-1.41-3.06-1.86-.76-.31-1.47-.69-1.74-1.55,1.42-1.27,2.91-2.44,4.55-3.41Z"/>
      <path class="cls-1" d="M34.53,40.47c-2.56-5.35-6.26-9.77-11.03-13.33,6.5,2.75,11.06,7.63,14.87,13.33h-3.84Z"/>
      <path class="cls-2" d="M6.28,40.47c-.78-.97-1.91-1.45-2.94-2.05-.83-.48-.89-.98-.18-1.57,.91-.75,1.48-1.93,2.76-2.23,2.42,.91,4.29,2.62,6.25,4.2,.47,.38,.83,.97,.38,1.64H6.28Z"/>
      <path class="cls-1" d="M27.56,40.47c-2.25-4.04-5.38-7.31-9.34-10.29,.6,0,.86-.08,1.03,.01,4.67,2.49,8.62,5.78,11.45,10.28h-3.14Z"/>
      <path class="cls-1" d="M20.23,40.47c-2.05-3.28-4.93-5.73-8.03-7.97,.4,.04,.86-.02,1.19,.15,3.74,1.96,7.18,4.29,9.63,7.82h-2.79Z"/>
      <path class="cls-1" d="M12.56,40.47c-1.76-2.45-4.26-4.08-6.63-5.85,0-.13,0-.27,.01-.4,2.75,1.37,5.43,2.86,7.77,4.87,.48,.41,.87,.91,1.3,1.37h-2.44Z"/>
      <path class="cls-2" d="M0,40.47c.1-.14,.2-.28,.31-.41q1.54-1.89,3.45-.27c.26,.22,.52,.46,.77,.69H0Z"/>
      <path class="cls-2" d="M34.89,19.65c1.62-1.93,2.94-3.5,4.26-5.06-.07-.11-.14-.22-.22-.32-1.76,.97-3.51,1.95-5.49,3.04,.14-2.23,1.53-3.92,1.72-6.38-1.55,1.78-2.81,3.25-4.41,5.09v-6.81c-.14-.02-.28-.04-.42-.07-.74,1.95-1.47,3.9-2.31,6.13-1.34-2.05-1.58-4.27-2.89-6.05v6.57c-1.88-1.41-2.81-3.34-4.65-4.49,.67,1.89,1.34,3.79,2.19,6.18-2.21-1.24-3.99-2.23-5.76-3.23l-.27,.24c1.3,1.59,2.61,3.18,4.21,5.13-2.39-.39-4.38-.72-6.37-1.04-.05,.13-.11,.26-.16,.39,1.19,.72,2.38,1.43,3.56,2.14-.28,.58-.72,.57-1.1,.65-5.33,1.1-10.35,3-15.07,5.7-1.63,.93-1.66,.9-1.66-.96,0-7.37-.01-14.75,0-22.12C.06,1.26,1.36,0,4.55,0c10.63,0,21.27,0,31.9,0,3.2,0,4.51,1.19,4.56,4.33,.07,4.26,0,8.53,.04,12.79,0,1.06-.38,1.59-1.45,1.73-1.41,.19-2.81,.47-4.7,.79Z"/>
      <path class="cls-2" d="M61.22,18.79c1.39,0,2.79-.06,4.18,.02,1.04,.06,1.27-.35,1.24-1.29-.06-1.78-.06-3.57,0-5.36,.03-.97-.27-1.42-1.27-1.27-1.08,.16-1.23-.41-1.2-1.31,.08-3.21-.31-2.55,2.51-2.61,2.21-.04,4.42,.04,6.62-.03,1.07-.04,1.5,.29,1.36,1.36-.07,.51-.04,1.04,0,1.55,.05,.7-.15,1.14-.95,1.02-1.17-.17-1.47,.35-1.46,1.46,.05,5.7,.03,11.41,0,17.11,0,.92,.06,1.64,1.27,1.44,.96-.16,1.16,.32,1.14,1.18-.08,3.44,.36,2.73-2.69,2.79-2.15,.04-4.3-.04-6.45,.03-1.08,.04-1.49-.32-1.35-1.38,.07-.51,.05-1.04,0-1.55-.08-.82,.25-1.2,1.08-1.06,1.24,.21,1.43-.43,1.39-1.47-.07-1.73-.04-3.46,0-5.18,.02-.81-.11-1.28-1.11-1.26-2.9,.05-5.81,.05-8.71,0-.96-.01-1.19,.42-1.17,1.26,.03,1.5,.03,3,0,4.49-.02,1.23-.24,2.55,1.76,2.18,.54-.1,.67,.33,.67,.77,0,.69-.02,1.38,.02,2.07,.05,.81-.28,1.13-1.11,1.12-2.73-.03-5.46-.04-8.19,0-.94,.01-1.24-.36-1.18-1.23,.04-.63,.02-1.27,.01-1.9,0-.54,.16-.96,.78-.85,1.65,.29,1.56-.73,1.55-1.84-.03-5.53-.02-11.06,0-16.59,0-.91,.09-1.81-1.3-1.59-.9,.14-1.01-.42-1.04-1.15-.14-2.76-.16-2.76,2.57-2.76,2.21,0,4.42,.04,6.62-.02,.99-.03,1.39,.3,1.29,1.28-.13,1.21,.67,2.98-1.79,2.7-.64-.07-.64,.55-.64,1.01,0,1.96,.01,3.92-.01,5.88-.01,.76,.33,.99,1.05,.98,1.51-.03,3.02-.01,4.53,0Z"/>
      <path class="cls-2" d="M203.88,25.08c0,1.4-.01,2.44,0,3.48,.02,1.18-.45,2.72,1.75,2.38,.57-.09,.52,.46,.57,.85,.36,2.97,.25,3.09-2.75,3.09-1.92,0-3.84-.05-5.75,.02-1.04,.04-1.53-.27-1.39-1.36,.15-1.19-.68-2.93,1.78-2.72,.58,.05,.36-.74,.37-1.15,.03-2.19,.02-4.38,.01-6.57-.01-2.37-.83-3.61-2.58-3.92-2.37-.43-4.35,.7-5.12,2.86-.34,.95-.32,1.92-.32,2.9,0,1.21-.01,2.42,0,3.63,.01,1.17-.48,2.61,1.7,2.4,.85-.09,.54,.87,.54,1.37,.01,3.04,.22,2.51-2.42,2.55-2.03,.03-4.07-.02-6.1,.01-.81,.01-1.31-.29-1.08-1.09,.3-1.06-1.13-3,1.48-2.97,.4,0,.34-.53,.34-.86,0-3.34-.02-6.68,.02-10.02,.01-1-.49-1.12-1.3-1.1-2.32,.06-.99-1.7-1.25-2.62-.31-1.09,.37-1.36,1.37-1.31,1.33,.07,2.67,.05,4.01,0,1.37-.04,2.64-.27,2.41,1.92-.11,1.02,.7,.42,1.07,.02,1.84-2.01,4.17-2.62,6.8-2.33,3.21,.35,5.13,2.21,5.66,5.39,.3,1.83,.1,3.68,.17,5.15Z"/>
      <path class="cls-2" d="M174.71,31.78c-2.15,3.33-4.93,3.93-8.16,3.3-2.66-.52-4.41-2.25-4.71-4.64-.36-2.87,.89-5.14,3.51-6.28,2.12-.92,4.4-.91,6.66-1.08,.81-.06,2.09,.53,2.33-.72,.27-1.38,.01-2.85-1.5-3.55-1.62-.74-3.3-.41-4.94,.03-.71,.19-.5,.86-.45,1.32,.11,1.11-.27,1.47-1.43,1.47-3.31,0-3.22,.04-3.34-3.26-.05-1.53,.47-2.26,1.89-2.76,3.08-1.1,6.21-1.48,9.41-.88,3.67,.69,5.52,3.03,5.57,7.04,.03,2.53-.1,5.06-.21,7.59-.04,.98,0,1.74,1.32,1.54,.74-.12,1.05,.24,1.01,.98-.04,.63-.05,1.27,0,1.9,.07,.85-.33,1.11-1.13,1.09-1.33-.03-2.68-.08-4,.02-1.34,.1-1.97-.3-1.75-1.71,.05-.31-.04-.65-.09-1.41Z"/>
      <path class="cls-2" d="M109.55,31.85c-2.19,3.29-5.02,3.88-8.29,3.21-2.55-.53-4.3-2.34-4.61-4.77-.32-2.54,.89-4.81,3.24-5.97,2.2-1.08,4.6-1.03,6.97-1.24,.82-.07,2.11,.61,2.36-.91,.26-1.64-.5-3.04-1.88-3.49-1.49-.48-2.98-.23-4.46,.13-.82,.2-.66,.89-.6,1.41,.14,1.19-.4,1.42-1.49,1.42-3.19,0-3.06,.03-3.23-3.18-.09-1.74,.61-2.42,2.13-2.93,2.81-.95,5.64-1.28,8.57-.89,3.84,.52,6.05,2.88,6.12,6.73,.05,2.65-.05,5.3-.13,7.94-.03,.93-.13,1.81,1.27,1.59,.77-.12,1.03,.26,.98,.99-.04,.63-.05,1.27,0,1.9,.07,.84-.29,1.12-1.1,1.09-1.22-.04-2.45-.09-3.66,.01-1.48,.12-2.38-.2-2.07-1.92,.04-.21-.05-.44-.14-1.12Z"/>
      <path class="cls-2" d="M93.53,29.81c.08,.28,.13,.38,.14,.49,.01,3.89-.34,4.25-4.24,4.76-2.62,.34-5.21,.41-7.76-.4-4.68-1.48-7.16-5.64-6.62-11.03,.52-5.2,3.67-8.55,8.62-9.08,7.83-.84,10.84,4.39,11.16,10.54,.06,1.11-.59,1.02-1.31,1.02-3.72,0-7.44,.07-11.15-.04-1.65-.05-1.57,.63-1.08,1.72,1.02,2.29,2.97,3.09,5.32,3.25,2.4,.16,4.71-.32,6.92-1.25Z"/>
      <path class="cls-2" d="M158.42,18.94c0,3.57,.01,7.14-.01,10.71,0,.8,.09,1.28,1.1,1.27,2.27-.03,.94,1.72,1.2,2.65,.31,1.09-.39,1.34-1.39,1.32-2.32-.05-4.65-.08-6.97,.01-1.29,.05-1.62-.47-1.51-1.61,.12-1.13-.55-2.72,1.69-2.43,.56,.07,.52-.51,.52-.9,0-6.05-.01-12.1,.02-18.15,0-1.23-.81-1.11-1.52-1.02-2.33,.29-1.46-1.41-1.64-2.48-.23-1.36,.44-1.66,1.68-1.59,1.74,.09,3.49,.12,5.22,0,1.38-.1,1.64,.44,1.62,1.68-.08,3.51-.03,7.03-.03,10.54Z"/>
      <path class="cls-2" d="M148.42,30.63c.07,.18,.15,.28,.14,.39-.11,3.73,.66,3.3-3.37,4.16-1.1,.23-2.19,.16-3.28-.05-2.76-.51-4.16-2.1-4.19-4.88-.03-3.34-.04-6.68,.01-10.02,.02-1.03-.28-1.55-1.37-1.37-1.78,.29-1.44-.96-1.43-1.94,.01-.95-.42-2.26,1.39-1.98,1.23,.19,1.42-.46,1.41-1.51-.02-2.57,.03-2.57,2.63-2.76,.46-.03,.93-.05,1.39-.11,.91-.13,1.31,.11,1.34,1.16,.06,3.21,.12,3.19,3.47,3.24,.59,0,1.49-.36,1.72,.36,.32,1.03,.34,2.2-.03,3.22-.22,.62-1.04,.3-1.58,.31-3.6,.05-3.6,.04-3.6,3.65,0,1.61,0,3.23,0,4.84,.02,3.42,1.07,4.26,4.39,3.55,.32-.07,.64-.16,.96-.25Z"/>
      <path class="cls-2" d="M126.02,17.37c.82,0,.91-.63,1.21-1,1.41-1.7,3.26-2.09,5.33-1.81,.32,.04,.8,.03,.78,.5-.05,1.32-.09,2.65-.27,3.96-.09,.63-.73,.37-1.17,.35-3.32-.09-5.16,1.39-5.48,4.67-.19,1.94-.04,3.92-.11,5.87-.03,.93,.48,1.03,1.2,.98,2.32-.15,1.12,1.61,1.34,2.54,.27,1.11-.3,1.5-1.44,1.46-2.38-.07-4.77-.09-7.15,0-1.28,.05-1.64-.46-1.51-1.61,.12-1.13-.56-2.74,1.69-2.43,.45,.06,.52-.37,.52-.73,0-3.46,0-6.92,.01-10.37,0-.98-.65-.94-1.3-.91-2.31,.12-1.13-1.61-1.36-2.55-.29-1.21,.45-1.43,1.5-1.39,1.39,.06,2.79,.01,4.18,.02q2.41,0,2.01,2.44Z"/>
      <path class="cls-2" d="M36.3,23.9c-.22-.43-.67-.52-1.05-.7,1.63-.69,3.28-.3,4.92-.1,.62,.08,.87,.5,.89,1.08,.02,.45,.18,1.02-.2,1.31-.53,.4-.94-.19-1.37-.4-1.02-.51-1.96-1.24-3.19-1.19Z"/>
      <path class="cls-2" d="M37.51,21.68c.44-.92,1.24-1.06,1.84-1.44,.41-.27,.88-.77,1.37-.52,.6,.31,.3,1.02,.33,1.56,.04,.84-.22,1.32-1.22,1-.74-.24-1.5-.39-2.32-.6Z"/>
      <path class="cls-1" d="M220.85,23.29c-.04,1.26,.13,2.76-.41,4.2-.76,2.02-2.35,3.19-4.3,3.11-1.7-.07-3.13-1.36-3.62-3.42-.41-1.7-.41-3.41,.21-5.09,1.26-3.44,4.85-3.74,7.54-2.73,.57,.21,.58,.64,.58,1.11,0,.86,0,1.72,0,2.82Z"/>
      <path class="cls-1" d="M171.87,26.41c2.66-.05,2.87,.25,2.08,2.3-.73,1.92-2.78,2.99-4.8,2.51-1.15-.27-1.86-1.01-1.94-2.16-.07-1.03,.55-1.72,1.51-2.09,1.15-.45,2.37-.52,3.15-.57Z"/>
      <path class="cls-1" d="M105.75,31.29c-2.43,.02-3.54-.75-3.63-2.09-.11-1.62,.97-2.23,2.33-2.48,.91-.17,1.84-.28,2.76-.31,2.16-.07,2.42,.32,1.58,2.34-.69,1.65-1.96,2.51-3.04,2.54Z"/>
      <path class="cls-1" d="M84.98,22.43c-.81,0-1.61,0-2.42,0-1.79-.01-1.93-.21-1.27-1.82,.66-1.6,2.07-2.51,3.79-2.45,1.87,.07,3.14,1.08,3.68,2.83,.3,.97,.23,1.54-1.01,1.45-.92-.07-1.84-.01-2.77-.01Z"/>
    </g>
  </g>
</svg>