<?xml version="1.0" encoding="UTF-8"?>
<svg width="600px" height="134px" viewBox="0 0 600 134" version="1.1" xmlns="http://www.w3.org/2000/svg" xmlns:xlink="http://www.w3.org/1999/xlink">
    <title>Group 4</title>
    <g id="SocialMedia" stroke="none" stroke-width="1" fill="none" fill-rule="evenodd">
        <g id="Group-11" transform="translate(-150.000000, -172.000000)">
            <g id="Group-9" transform="translate(131.000000, 172.000000)">
                <g id="Group-4" transform="translate(19.000000, 0.000000)">
                    <g id="Group-13-Copy-2">
                        <path d="M112.72242,0 L112.722,68.541 L92.395,88.918 L92.3954262,48.1639344 L27.718,113 L0,113 L112.72242,0 Z" id="Combined-Shape" fill="#FF3B3F"></path>
                        <polygon id="Path-Copy" fill="#B3B3B3" points="68.2775801 113 162.520915 113 162.520915 92.6229508 116.323202 92.6229508 181 27.7868852 181 0"></polygon>
                        <path d="M112.721921,68.446523 L112.72242,113 L92.1099583,112.999857 L92.1099212,88.866523 L112.721921,68.446523 Z" id="Combined-Shape" fill="#FFC4C5"></path>
                    </g>
                    <path d="M212.84472,58 C204.080745,58 197.322981,63.4789272 196.583851,71.908046 C196.478261,72.5402299 196.900621,72.9616858 197.534161,72.9616858 L203.341615,73.0670498 C203.975155,73.0670498 204.397516,72.7509579 204.503106,72.01341 C204.925466,67.5881226 208.409938,64.532567 212.63354,64.532567 C218.124224,64.532567 221.503106,69.1685824 221.503106,76.1226054 L221.503106,80.2318008 C221.503106,80.4425287 221.291925,80.6532567 221.080745,80.6532567 L213.795031,80.6532567 C203.341615,80.6532567 195,85.289272 195,97.9329502 C195,110.471264 203.341615,113 209.360248,113 C214.111801,113 218.229814,111.524904 220.975155,107.942529 C221.291925,107.626437 221.503106,107.731801 221.503106,108.047893 L221.503106,111.103448 C221.503106,111.735632 221.925466,112.157088 222.559006,112.157088 L227.944099,112.157088 C228.57764,112.157088 229,111.735632 229,111.103448 L229,75.5957854 C229,64.954023 222.664596,58 212.84472,58 Z M210.944099,106.467433 C206.298137,106.467433 202.708075,103.727969 202.708075,97.3007663 C202.708075,90.0306513 207.248447,86.6590038 213.689441,86.6590038 L221.080745,86.6590038 C221.291925,86.6590038 221.503106,86.8697318 221.503106,87.0804598 L221.503106,95.9310345 C221.503106,102.990421 216.223602,106.467433 210.944099,106.467433 Z" id="Shape" fill="#FFFFFF" fill-rule="nonzero"></path>
                    <path d="M257.394904,113 C267.484076,113 274,106.572797 274,98.3544061 L274,97.1954023 C274,96.5632184 273.579618,96.1417625 272.949045,96.1417625 L267.589172,96.0363985 C266.958599,96.0363985 266.538217,96.4578544 266.538217,97.0900383 L266.538217,97.8275862 C266.538217,102.358238 262.859873,106.467433 257.394904,106.467433 C252.140127,106.467433 248.461783,102.358238 248.461783,96.3524904 L248.461783,74.6475096 C248.461783,68.6417625 252.140127,64.532567 257.394904,64.532567 C262.859873,64.532567 266.538217,68.6417625 266.538217,73.1724138 L266.538217,74.0153257 C266.538217,74.5421456 266.958599,74.9636015 267.589172,74.9636015 L272.949045,74.7528736 C273.579618,74.7528736 274,74.3314176 274,73.6992337 L274,72.6455939 C274,64.743295 267.484076,58 257.394904,58 C247.410828,58 241,64.743295 241,74.1206897 L241,96.8793103 C241,106.572797 247.410828,113 257.394904,113 Z" id="Path" fill="#FFFFFF" fill-rule="nonzero"></path>
                    <path d="M304,62.9161392 L304,59.4177215 C304,58.7816456 303.568075,58.3575949 302.920188,58.3575949 L294.713615,58.3575949 C294.497653,58.3575949 294.28169,58.1455696 294.28169,57.9335443 L294.28169,46.0601266 C294.28169,45.4240506 293.849765,45 293.201878,45 L287.802817,45 C287.15493,45 286.723005,45.4240506 286.723005,46.0601266 L286.723005,57.9335443 C286.723005,58.1455696 286.507042,58.3575949 286.29108,58.3575949 L282.079812,58.3575949 C281.431925,58.3575949 281,58.7816456 281,59.4177215 L281,62.9161392 C281,63.5522152 281.431925,63.9762658 282.079812,63.9762658 L286.29108,63.9762658 C286.507042,63.9762658 286.723005,64.1882911 286.723005,64.4003165 L286.723005,99.0664557 C286.723005,109.773734 292.014085,112 299.680751,112 L302.380282,112 C303.028169,112 303.460094,111.575949 303.460094,110.939873 L303.460094,106.381329 C303.460094,105.745253 303.028169,105.321203 302.380282,105.321203 L301.300469,105.321203 C296.765258,105.427215 294.28169,103.625 294.28169,96.8401899 L294.28169,64.4003165 C294.28169,64.1882911 294.497653,63.9762658 294.713615,63.9762658 L302.920188,63.9762658 C303.568075,63.9762658 304,63.5522152 304,62.9161392 Z" id="Path" fill="#FFFFFF" fill-rule="nonzero"></path>
                    <path d="M317.102041,48.1428571 C319.959184,48.1428571 322,45.7857143 322,42.4642857 C322,39.3571429 319.959184,37 317.102041,37 C314.142857,37 312,39.3571429 312,42.4642857 C312,45.7857143 314.142857,48.1428571 317.102041,48.1428571 Z M314.44898,112 L319.653061,112 C320.265306,112 320.673469,111.571429 320.673469,110.928571 L320.673469,58.8571429 C320.673469,58.2142857 320.265306,57.7857143 319.653061,57.7857143 L314.44898,57.7857143 C313.836735,57.7857143 313.428571,58.2142857 313.428571,58.8571429 L313.428571,110.928571 C313.428571,111.571429 313.836735,112 314.44898,112 Z" id="Shape" fill="#FFFFFF" fill-rule="nonzero"></path>
                    <path d="M344.373263,112 L350.732728,112 C351.368674,112 351.792638,111.679842 351.898629,111.039526 L364.935531,59.2806324 C365.147513,58.6403162 364.82954,58.1067194 364.087602,58.1067194 L357.94012,58 C357.304174,58 356.88021,58.3201581 356.774219,58.9604743 L347.764978,100.26087 C347.658987,100.687747 347.447004,100.687747 347.341013,100.26087 L338.225781,58.9604743 C338.11979,58.3201581 337.695826,58 337.05988,58 L330.912398,58 C330.17046,58 329.852487,58.4268775 330.064469,59.173913 L343.207362,111.039526 C343.313353,111.679842 343.737317,112 344.373263,112 Z" id="Path" fill="#FFFFFF" fill-rule="nonzero"></path>
                    <path d="M406,87.2911877 L406,74.1206897 C406,64.637931 399.674121,58 389.447284,58 C379.43131,58 373,64.637931 373,74.1206897 L373,96.8793103 C373,106.572797 379.43131,113 389.447284,113 C398.72524,113 404.523962,107.731801 405.683706,99.51341 C405.789137,98.8812261 405.367412,98.3544061 404.734824,98.3544061 L399.463259,98.1436782 C398.830671,98.1436782 398.514377,98.4597701 398.303514,99.091954 C397.354633,103.411877 394.086262,106.467433 389.447284,106.467433 C384.175719,106.467433 380.485623,102.358238 380.485623,96.4578544 L380.485623,88.7662835 C380.485623,88.5555556 380.696486,88.3448276 380.907348,88.3448276 L404.945687,88.3448276 C405.578275,88.3448276 406,87.9233716 406,87.2911877 Z M389.447284,64.532567 C394.929712,64.532567 398.619808,68.6417625 398.619808,74.6475096 L398.619808,81.7068966 C398.619808,81.9176245 398.408946,82.1283525 398.198083,82.1283525 L380.907348,82.1283525 C380.696486,82.1283525 380.485623,81.9176245 380.485623,81.7068966 L380.485623,74.6475096 C380.485623,68.6417625 384.175719,64.532567 389.447284,64.532567 Z" id="Shape" fill="#FFFFFF" fill-rule="nonzero"></path>
                    <path d="M439.126761,112 L444.873239,112 C445.549296,112 446,111.571429 446,110.928571 L446,38.0714286 C446,37.4285714 445.549296,37 444.873239,37 L439.126761,37 C438.450704,37 438,37.4285714 438,38.0714286 L438,110.928571 C438,111.571429 438.450704,112 439.126761,112 Z" id="Path" fill="#FFFFFF" fill-rule="nonzero"></path>
                    <path d="M473.447619,113 C483.504762,113 490,106.572797 490,96.8793103 L490,74.1206897 C490,64.637931 483.504762,58 473.447619,58 C463.390476,58 457,64.637931 457,74.1206897 L457,96.8793103 C457,106.572797 463.390476,113 473.447619,113 Z M473.447619,106.467433 C468.104762,106.467433 464.438095,102.358238 464.438095,96.4578544 L464.438095,74.6475096 C464.438095,68.6417625 468.104762,64.532567 473.447619,64.532567 C478.790476,64.532567 482.561905,68.6417625 482.561905,74.6475096 L482.561905,96.4578544 C482.561905,102.358238 478.790476,106.467433 473.447619,106.467433 Z" id="Shape" fill="#FFFFFF" fill-rule="nonzero"></path>
                    <path d="M526.490385,59.9069033 L526.490385,63.1910146 C526.490385,63.6147709 526.278846,63.72071 525.961538,63.2969537 C523.528846,59.6950252 519.509615,58 515.384615,58 C506.394231,58 501,64.4622835 501,74.2086783 L501,96.5618229 C501,106.09634 506.288462,112.770501 515.384615,112.770501 C519.403846,112.770501 523.423077,111.075476 525.961538,107.367608 C526.278846,107.049791 526.490385,107.261669 526.490385,107.579487 L526.490385,110.757659 C526.490385,121.351566 523,127.496033 511.259615,127.178215 C510.625,127.178215 510.201923,127.601972 510.201923,128.237606 L510.201923,132.792986 C510.201923,133.428621 510.519231,133.852377 511.259615,133.958316 C528.5,134.69989 534,125.48319 534,111.393293 L534,59.9069033 C534,59.2712689 533.576923,58.8475126 532.942308,58.8475126 L527.548077,58.8475126 C526.913462,58.8475126 526.490385,59.2712689 526.490385,59.9069033 Z M517.605769,106.202279 C512.317308,106.202279 508.509615,102.070655 508.509615,96.1380666 L508.509615,74.7383737 C508.509615,68.6998465 512.317308,64.5682226 517.605769,64.5682226 C522.894231,64.5682226 526.490385,68.6998465 526.490385,74.7383737 L526.490385,96.1380666 C526.490385,102.070655 522.894231,106.202279 517.605769,106.202279 Z" id="Shape" fill="#FFFFFF" fill-rule="nonzero"></path>
                    <path d="M550.102041,48.1428571 C552.959184,48.1428571 555,45.7857143 555,42.4642857 C555,39.3571429 552.959184,37 550.102041,37 C547.142857,37 545,39.3571429 545,42.4642857 C545,45.7857143 547.142857,48.1428571 550.102041,48.1428571 Z M547.44898,112 L552.653061,112 C553.265306,112 553.673469,111.571429 553.673469,110.928571 L553.673469,58.8571429 C553.673469,58.2142857 553.265306,57.7857143 552.653061,57.7857143 L547.44898,57.7857143 C546.836735,57.7857143 546.428571,58.2142857 546.428571,58.8571429 L546.428571,110.928571 C546.428571,111.571429 546.836735,112 547.44898,112 Z" id="Shape" fill="#FFFFFF" fill-rule="nonzero"></path>
                    <path d="M583.394904,113 C593.484076,113 600,106.572797 600,98.3544061 L600,97.1954023 C600,96.5632184 599.579618,96.1417625 598.949045,96.1417625 L593.589172,96.0363985 C592.958599,96.0363985 592.538217,96.4578544 592.538217,97.0900383 L592.538217,97.8275862 C592.538217,102.358238 588.859873,106.467433 583.394904,106.467433 C578.140127,106.467433 574.461783,102.358238 574.461783,96.3524904 L574.461783,74.6475096 C574.461783,68.6417625 578.140127,64.532567 583.394904,64.532567 C588.859873,64.532567 592.538217,68.6417625 592.538217,73.1724138 L592.538217,74.0153257 C592.538217,74.5421456 592.958599,74.9636015 593.589172,74.9636015 L598.949045,74.7528736 C599.579618,74.7528736 600,74.3314176 600,73.6992337 L600,72.6455939 C600,64.743295 593.484076,58 583.394904,58 C573.410828,58 567,64.743295 567,74.1206897 L567,96.8793103 C567,106.572797 573.410828,113 583.394904,113 Z" id="Path" fill="#FFFFFF" fill-rule="nonzero"></path>
                </g>
            </g>
        </g>
    </g>
</svg>