<?xml version="1.0" encoding="UTF-8"?>
<svg id="Layer_2" data-name="Layer 2" xmlns="http://www.w3.org/2000/svg" xmlns:xlink="http://www.w3.org/1999/xlink" viewBox="0 0 121.72 152.15">
  <defs>
    <style>
      .cls-1 {
        fill: url(#linear-gradient);
      }
    </style>
    <linearGradient id="linear-gradient" x1="-620.18" y1="545.7" x2="-620.18" y2="545.02" gradientTransform="translate(110704.84 121692.15) scale(178.41 -223)" gradientUnits="userSpaceOnUse">
      <stop offset="0" stop-color="#ef4044"/>
      <stop offset="1" stop-color="#1c1d1d"/>
    </linearGradient>
  </defs>
  <g id="Layer_1-2" data-name="Layer 1">
    <path id="Innovative-Ideas" class="cls-1" d="M57.87,18.17c.15,1.22-.72,2.33-1.94,2.49-20.17,2.5-35.39,19.7-35.39,40.01,0,14.07,7.15,26.89,19.13,34.31,4.16,2.57,6.77,7.21,6.86,12.14v.27s0,9.38,0,9.38h28.64v-9.17c0-5.2,2.65-9.97,7.09-12.75,10.29-6.46,17.07-17.05,18.59-29.05,.15-1.22,1.27-2.09,2.49-1.93,1.22,.15,2.09,1.27,1.93,2.49-1.69,13.33-9.21,25.09-20.64,32.27-3.06,1.92-4.91,5.17-5,8.73v.25s0,9.5,0,9.5c2.21,.77,3.82,2.83,3.9,5.28v.19s0,3.18,0,3.18c0,1.35-.46,2.58-1.24,3.57,.73,.93,1.18,2.08,1.23,3.33v.24s0,3.18,0,3.18c0,3.14-2.51,5.7-5.62,5.79h-.17s-7.01,0-7.01,0v5.04c0,2.85-2.27,5.18-5.1,5.27h-.17s-9.21,0-9.21,0c-2.85,0-5.18-2.27-5.27-5.1v-.17s0-5.04,0-5.04h-7.01c-3.14,0-5.7-2.51-5.79-5.62v-.17s0-3.18,0-3.18c0-1.35,.46-2.58,1.24-3.57-.73-.93-1.18-2.08-1.23-3.33v-.24s0-3.18,0-3.18c0-2.47,1.55-4.57,3.73-5.41l.17-.06v-9.7c0-3.5-1.82-6.81-4.76-8.62-6.37-3.94-11.69-9.46-15.4-15.97-3.82-6.71-5.84-14.36-5.84-22.13,0-22.5,17.01-41.67,39.3-44.44,1.22-.15,2.33,.72,2.49,1.94Zm8.41,123.67h-10.84v5.04c0,.41,.33,.77,.73,.81h.08s9.21,0,9.21,0c.41,0,.77-.33,.81-.73v-.08s0-5.04,0-5.04Zm11.46-10.31H43.98c-.69,0-1.28,.56-1.33,1.24v.1s0,3.18,0,3.18c0,.69,.56,1.28,1.24,1.33h.1s33.77,0,33.77,0c.69,0,1.28-.56,1.33-1.24v-.1s0-3.18,0-3.18c0-.72-.61-1.34-1.34-1.34Zm0-10.31H43.98c-.69,0-1.28,.56-1.33,1.24v.1s0,3.18,0,3.18c0,.69,.56,1.28,1.24,1.33h.1s33.77,0,33.77,0c.69,0,1.28-.56,1.33-1.24v-.1s0-3.18,0-3.18c0-.72-.61-1.34-1.34-1.34Zm-54.69-25.7c.87-.87,2.28-.87,3.15,0,.87,.87,.87,2.28,0,3.15h0l-5.23,5.23c-.87,.87-2.28,.87-3.15,0-.87-.87-.87-2.28,0-3.15h0l5.23-5.23Zm72.46,0c.87-.87,2.28-.87,3.15,0h0l5.23,5.23c.87,.87,.87,2.28,0,3.15-.87,.87-2.28,.87-3.15,0h0l-5.23-5.23c-.87-.87-.87-2.28,0-3.15ZM64.83,28.38c1.69,0,3.08,1.34,3.16,3.01v.14s0,6.75,0,6.75c1.14,.36,2.26,.81,3.33,1.34l.46,.23,4.77-4.77c1.19-1.19,3.11-1.23,4.35-.11l.12,.11,5.62,5.62c.6,.6,.92,1.39,.92,2.23,0,.79-.29,1.53-.81,2.11l-.12,.12-4.77,4.77c.55,1.06,1.02,2.17,1.41,3.3l.16,.49h6.75c1.69,0,3.08,1.34,3.15,3.01v.14s0,7.94,0,7.94c0,1.69-1.34,3.08-3.01,3.15h-.14s-6.75,0-6.75,0c-.36,1.14-.81,2.26-1.34,3.33l-.23,.46,4.77,4.77c.6,.6,.92,1.39,.92,2.23,0,.79-.29,1.53-.81,2.11l-.12,.12-5.62,5.62c-1.19,1.19-3.11,1.23-4.35,.11l-.12-.11-4.77-4.77c-1.06,.55-2.17,1.02-3.3,1.41l-.49,.16v6.75c0,1.69-1.34,3.08-3.01,3.15h-.14s-7.94,0-7.94,0c-1.69,0-3.08-1.34-3.15-3.01v-.14s0-6.75,0-6.75c-1.14-.36-2.26-.81-3.33-1.34l-.46-.23-4.77,4.77c-1.19,1.19-3.11,1.23-4.35,.11l-.12-.11-5.62-5.62c-1.19-1.19-1.23-3.11-.11-4.35l.11-.12,4.77-4.77c-.55-1.06-1.02-2.17-1.41-3.3l-.16-.49h-6.75c-1.69,0-3.08-1.34-3.15-3.01v-.14s0-7.94,0-7.94c0-1.69,1.34-3.08,3.01-3.16h.14s6.75,0,6.75,0c.36-1.14,.81-2.26,1.34-3.33l.23-.46-4.77-4.77c-.6-.6-.93-1.39-.93-2.23,0-.79,.29-1.53,.81-2.11l.12-.12,5.62-5.62c1.19-1.19,3.11-1.23,4.35-.11l.12,.11,4.77,4.77c1.06-.55,2.17-1.02,3.3-1.41l.49-.16v-6.75c0-1.69,1.34-3.08,3.01-3.16h.14s7.94,0,7.94,0Zm-1.3,4.46h-5.34v7.15c0,1.04-.71,1.93-1.72,2.17-2.03,.48-3.96,1.27-5.73,2.37-.84,.52-1.92,.42-2.65-.23l-.1-.09-5.05-5.05-3.78,3.78,5.05,5.05c.73,.73,.86,1.87,.32,2.75-1.1,1.77-1.9,3.69-2.37,5.73-.23,.97-1.06,1.66-2.04,1.72h-.13s-7.15,0-7.15,0v5.34h7.15c1.04,0,1.93,.71,2.17,1.72,.48,2.03,1.27,3.96,2.37,5.73,.52,.84,.43,1.92-.23,2.65l-.09,.1-5.05,5.06,3.78,3.78,5.05-5.05c.73-.73,1.87-.86,2.75-.32,1.77,1.1,3.69,1.9,5.73,2.37,.97,.23,1.66,1.06,1.72,2.04v.13s0,7.15,0,7.15h5.34v-7.15c0-1.04,.71-1.93,1.72-2.17,2.03-.48,3.96-1.27,5.73-2.37,.84-.52,1.92-.43,2.65,.23l.1,.09,5.05,5.05,3.78-3.78-5.05-5.06c-.73-.73-.86-1.87-.32-2.75,1.1-1.77,1.9-3.69,2.37-5.73,.23-.97,1.06-1.66,2.04-1.72h.13s7.15,0,7.15,0v-5.34h-7.15c-1.04,0-1.93-.71-2.17-1.72-.48-2.03-1.27-3.96-2.37-5.73-.52-.84-.43-1.92,.23-2.65l.09-.1,5.05-5.05-3.78-3.78-5.05,5.05c-.73,.73-1.87,.86-2.75,.32-1.77-1.1-3.69-1.9-5.73-2.37-.97-.23-1.66-1.06-1.72-2.04v-.13s0-7.15,0-7.15Zm-2.67,16.08c6.58,0,11.94,5.36,11.94,11.94s-5.36,11.94-11.94,11.94-11.94-5.36-11.94-11.94,5.36-11.94,11.94-11.94Zm0,4.46c-4.13,0-7.48,3.36-7.48,7.48s3.36,7.48,7.48,7.48,7.48-3.36,7.48-7.48-3.36-7.48-7.48-7.48Zm5.47-37.15c20.37,2.48,36.59,18.71,38.99,39.18,.14,1.22-.73,2.33-1.95,2.47-.09,0-.18,.02-.26,.02-1.11,0-2.08-.84-2.21-1.97-2.17-18.51-16.6-33.01-35.11-35.27-1.22-.15-2.09-1.26-1.94-2.48,.15-1.22,1.26-2.09,2.48-1.94Zm34.41,1.6c.87-.87,2.28-.87,3.15,0,.87,.87,.87,2.28,0,3.15h0l-5.23,5.23c-.87,.87-2.28,.87-3.15,0-.87-.87-.87-2.28,0-3.15h0l5.23-5.23Zm-82.92,0c.87-.87,2.28-.87,3.15,0h0l5.23,5.23c.87,.87,.87,2.28,0,3.15-.87,.87-2.28,.87-3.15,0h0l-5.23-5.23c-.87-.87-.87-2.28,0-3.15ZM9.62,58.63H2.23c-1.23,0-2.23,1-2.23,2.23s1,2.23,2.23,2.23h7.39c1.23,0,2.23-1,2.23-2.23s-1-2.23-2.23-2.23Zm109.87,0h-7.39c-1.23,0-2.23,1-2.23,2.23s1,2.23,2.23,2.23h7.39c1.23,0,2.23-1,2.23-2.23s-1-2.23-2.23-2.23ZM60.86,0c-1.23,0-2.23,1-2.23,2.23v7.39c0,1.23,1,2.23,2.23,2.23s2.23-1,2.23-2.23V2.23c0-1.23-1-2.23-2.23-2.23Z"/>
  </g>
</svg>