<?xml version="1.0" encoding="UTF-8"?>
<svg id="Layer_2" data-name="Layer 2" xmlns="http://www.w3.org/2000/svg" xmlns:xlink="http://www.w3.org/1999/xlink" viewBox="0 0 152.15 152.15">
  <defs>
    <style>
      .cls-1 {
        fill: url(#linear-gradient);
      }
    </style>
    <linearGradient id="linear-gradient" x1="-264.46" y1="-320.86" x2="-264.46" y2="-321.54" gradientTransform="translate(59050.7 -71551.83) scale(223 -223)" gradientUnits="userSpaceOnUse">
      <stop offset="0" stop-color="#ef4044"/>
      <stop offset="1" stop-color="#1c1d1d"/>
    </linearGradient>
  </defs>
  <g id="Layer_1-2" data-name="Layer 1">
    <path id="JavaScript" class="cls-1" d="M142.43,0c5.35,0,9.7,4.35,9.72,9.7h0V142.43c0,5.37-4.36,9.72-9.72,9.72H9.72c-5.37,0-9.72-4.36-9.72-9.72H0V9.72C0,4.35,4.35,0,9.72,0H142.43ZM69.1,38.76h-9.22v47.49c0,3.07-.23,5.55-.68,7.47-.45,1.91-1.1,3.39-1.98,4.45-.88,1.08-1.94,1.78-3.2,2.18-1.27,.38-2.69,.57-4.31,.57-6.29,0-9.43-4.25-9.43-12.74h-9.11v1.9c-.04,2.69,.4,5.35,1.3,7.89,1.54,4.53,5.06,8.15,9.55,9.83,2.29,.88,4.84,1.33,7.68,1.33,3.22,0,6.03-.43,8.46-1.29,2.42-.85,4.45-2.21,6.08-4.05,1.61-1.87,2.83-4.25,3.64-7.23,.81-2.97,1.2-6.59,1.2-10.81h0l.03-46.99Zm30.5,17.86c-2.61-.03-5.21,.34-7.71,1.11-2.29,.74-4.26,1.74-5.88,3.03-1.64,1.3-2.88,2.83-3.75,4.59-.86,1.77-1.3,3.68-1.3,5.74,0,2.34,.33,4.28,.99,5.82,.67,1.53,1.73,2.86,3.07,3.87,1.61,1.18,3.4,2.07,5.3,2.66,2.14,.74,4.7,1.47,7.66,2.21,2.48,.64,4.94,1.32,7.39,2.03,1.53,.4,3,.95,4.42,1.64,1.06,.57,1.78,1.2,2.15,1.94,.4,.91,.59,1.88,.55,2.88,.01,2.25-1.06,4.36-2.89,5.68-.93,.71-2.11,1.27-3.53,1.67-1.4,.41-3.05,.61-4.89,.61-8.27,0-12.44-3.05-12.48-9.12h-8.95c.74,10.77,7.92,16.14,21.53,16.14,3.07,0,5.85-.4,8.33-1.19,2.29-.71,4.45-1.86,6.32-3.36,1.67-1.37,3.03-3.09,3.99-5.03,.93-1.93,1.42-4.01,1.39-6.29,0-2.41-.37-4.42-1.08-6.02-.72-1.6-1.81-2.97-3.3-4.08-1.5-1.12-3.36-2.07-5.58-2.86-2.24-.79-4.89-1.54-7.92-2.28-3.14-.76-5.62-1.42-7.44-1.94-1.81-.52-3.19-1.06-4.11-1.6-.93-.54-1.52-1.12-1.76-1.76-.24-.62-.37-1.43-.37-2.41-.03-1.01,.26-2,.78-2.85,.54-.82,1.26-1.52,2.21-2.07,.95-.57,2.04-.99,3.33-1.29,1.29-.3,2.66-.45,4.16-.45,6.74,0,10.27,2.35,10.58,7.03h8.81c-.2-9.36-6.9-14.04-20.06-14.04Z"/>
  </g>
</svg>