<?xml version="1.0" encoding="UTF-8"?>
<svg id="Layer_2" data-name="Layer 2" xmlns="http://www.w3.org/2000/svg" viewBox="0 0 121.32 125.04">
  <defs>
    <style>
      .cls-1 {
        fill: #4d4d4e;
      }
    </style>
  </defs>
  <g id="Layer_1-2" data-name="Layer 1">
    <g id="Laravel-Logo">
      <path id="Shape" class="cls-1" d="M121.25,28.29c.04,.17,.07,.34,.07,.51v26.84c0,.7-.37,1.35-.98,1.7l-22.5,12.97v25.71c0,.7-.37,1.35-.98,1.7l-46.97,27.07c-.11,.06-.22,.1-.34,.14-.04,.01-.09,.04-.13,.05-.33,.09-.67,.09-1,0-.05-.01-.1-.04-.15-.06-.11-.04-.22-.07-.32-.13L.98,97.71c-.61-.35-.98-1-.98-1.7V15.49c0-.18,.02-.35,.07-.51,.01-.06,.05-.11,.07-.16,.04-.1,.07-.21,.12-.3,.04-.06,.09-.11,.13-.17,.06-.08,.11-.16,.17-.23,.06-.06,.13-.1,.19-.15,.07-.06,.13-.12,.22-.17h0L24.46,.26c.61-.35,1.35-.35,1.95,0l23.48,13.53h0c.08,.05,.14,.11,.22,.17,.06,.05,.13,.09,.19,.15,.07,.07,.12,.15,.18,.23,.04,.06,.1,.11,.13,.17,.06,.1,.09,.2,.13,.3,.02,.06,.05,.11,.07,.17,.04,.17,.07,.34,.07,.51v50.29l19.57-11.28V28.8c0-.17,.02-.34,.07-.51,.02-.06,.05-.11,.07-.17,.04-.1,.07-.21,.13-.3,.04-.06,.09-.11,.13-.17,.06-.08,.11-.16,.18-.23,.06-.06,.13-.1,.19-.15,.07-.06,.14-.12,.22-.17h0l23.48-13.53c.6-.35,1.35-.35,1.95,0l23.48,13.53c.08,.05,.15,.11,.22,.17,.06,.05,.13,.09,.19,.15,.07,.07,.12,.15,.18,.23,.04,.06,.1,.11,.13,.17,.06,.1,.09,.2,.13,.3,.02,.06,.05,.11,.07,.17h0Zm-3.85,26.22v-22.32l-8.22,4.74-11.35,6.54v22.32l19.57-11.28h0Zm-23.48,40.37v-22.33l-11.17,6.38-31.89,18.22v22.54l43.05-24.81ZM3.91,18.88V94.88l43.05,24.81v-22.54l-22.49-12.74h0s0,0,0,0c-.08-.04-.14-.11-.21-.16-.06-.05-.13-.09-.19-.14h0c-.06-.07-.11-.14-.16-.21-.05-.07-.11-.12-.15-.19h0c-.04-.08-.07-.17-.1-.25-.03-.07-.07-.14-.09-.22h0c-.02-.1-.03-.19-.04-.29,0-.07-.03-.15-.03-.22V30.16l-11.35-6.55L3.91,18.88h0ZM25.44,4.22L5.88,15.49l19.56,11.27,19.56-11.28L25.44,4.22h0Zm10.17,70.36l11.35-6.54V18.88l-8.22,4.74-11.35,6.54v49.16l8.22-4.74ZM95.89,17.52l-19.56,11.27,19.56,11.27,19.56-11.28-19.56-11.27Zm-1.96,25.94l-11.35-6.54-8.22-4.74v22.32l11.35,6.54,8.22,4.74v-22.32Zm-45.01,50.29l28.69-16.4,14.34-8.19-19.55-11.27-22.51,12.97-20.51,11.82,19.53,11.07Z"/>
    </g>
  </g>
</svg>