<?xml version="1.0" encoding="UTF-8"?>
<svg id="Layer_2" data-name="Layer 2" xmlns="http://www.w3.org/2000/svg" xmlns:xlink="http://www.w3.org/1999/xlink" viewBox="0 0 152.15 154.68">
  <defs>
    <style>
      .cls-1 {
        fill: url(#linear-gradient);
      }
    </style>
    <linearGradient id="linear-gradient" x1="-453.37" y1="-67.76" x2="-453.37" y2="-68.44" gradientTransform="translate(101177.77 -15362.63) scale(223 -226.72)" gradientUnits="userSpaceOnUse">
      <stop offset="0" stop-color="#ef4044"/>
      <stop offset="1" stop-color="#1c1d1d"/>
    </linearGradient>
  </defs>
  <g id="Layer_1-2" data-name="Layer 1">
    <path id="Long-Term-Success" class="cls-1" d="M120.57,.42l.13,.09,30.43,22.82c.62,.46,.99,1.19,1.02,1.96,.02,.72-.27,1.42-.8,1.91l-.12,.1-30.43,25.36c-.76,.63-1.81,.77-2.7,.35-.85-.4-1.41-1.23-1.46-2.16v-.14s0-12.68,0-12.68H60.86c-30.76,0-55.79,25.03-55.79,55.79s24.52,55.28,54.86,55.78h.92s.38,0,.38,0v5.07h-.31s-.05-2.53-.05-2.53v2.53C27.64,154.68,.55,127.93,0,94.83v-1c0-33.22,26.75-60.31,59.85-60.85h1s58.32,0,58.32,0c1.36,0,2.46,1.06,2.53,2.4v.13s0,9.8,0,9.8l23.81-19.84L121.72,7.61v7.61c0,1.36-1.06,2.46-2.4,2.53h-.13s-98.9,0-98.9,0v-5.07H116.65V2.54c0-.96,.54-1.84,1.4-2.27,.81-.4,1.77-.35,2.52,.15Zm-49.72,148.3l.91,4.99c-1.71,.31-3.47,.55-5.24,.72h0l-.47-5.05c1.63-.15,3.24-.37,4.81-.66h0Zm9.34-2.55l1.75,4.76c-1.65,.61-3.34,1.15-5.03,1.62h0l-1.34-4.89c1.55-.42,3.1-.92,4.62-1.48h0Zm8.75-4.14l2.56,4.38c-1.5,.87-3.07,1.7-4.68,2.46h0l-2.17-4.58c1.47-.7,2.92-1.46,4.29-2.27h0Zm7.91-5.58l3.27,3.87c-1.34,1.13-2.75,2.22-4.18,3.24h0l-2.93-4.14c1.32-.93,2.61-1.93,3.84-2.97h0Zm6.83-6.88l3.89,3.25c-1.14,1.36-2.34,2.67-3.57,3.91h0l-3.6-3.58c1.13-1.13,2.23-2.34,3.27-3.58h0ZM60.86,55.79c20.97,0,38.04,17.06,38.04,38.04s-17.06,38.04-38.04,38.04-38.04-17.06-38.04-38.04,17.06-38.04,38.04-38.04Zm48.38,65.83l4.4,2.53c-.88,1.54-1.84,3.05-2.84,4.47h0l-4.16-2.91c.91-1.3,1.79-2.68,2.6-4.09h0ZM63.39,60.99v7.48h-5.07v-7.47c-3.99,.31-7.78,1.33-11.25,2.94l-.43,.2,2.47,4.27-4.39,2.54-2.47-4.29c-3.22,2.21-6.02,4.98-8.28,8.16l-.28,.4,4.29,2.47-2.54,4.39-4.27-2.47c-1.66,3.44-2.73,7.21-3.1,11.18l-.04,.5h7.48v5.07h-7.47c.31,3.99,1.33,7.78,2.94,11.25l.2,.43,4.27-2.47,2.54,4.39-4.29,2.47c2.21,3.22,4.98,6.02,8.16,8.28l.4,.28,2.47-4.29,4.39,2.54-2.47,4.27c3.44,1.66,7.21,2.73,11.18,3.1l.5,.04v-7.48h5.07v7.48c3.99-.31,7.78-1.33,11.25-2.94l.43-.2-2.47-4.27,4.39-2.54,2.47,4.29c3.22-2.21,6.02-4.97,8.28-8.16l.28-.4-4.29-2.47,2.54-4.39,4.27,2.47c1.66-3.44,2.73-7.21,3.1-11.18l.04-.5h-7.48v-5.07h7.47c-.31-3.99-1.33-7.78-2.94-11.25l-.2-.43-4.27,2.47-2.54-4.39,4.29-2.47c-2.21-3.22-4.98-6.02-8.16-8.28l-.4-.28-2.47,4.29-4.39-2.54,2.47-4.27c-3.59-1.73-7.52-2.82-11.68-3.14Zm49.93,51.84l4.76,1.73c-.6,1.65-1.28,3.29-2.02,4.89h0l-4.6-2.14c.68-1.47,1.31-2.98,1.85-4.49h0Zm2.49-9.35l5,.87c-.3,1.74-.68,3.48-1.14,5.17h0l-4.9-1.31c.41-1.55,.76-3.14,1.04-4.73h0Zm-52.42-29.94v18.85l11.45,6.87-2.61,4.35-12.68-7.61c-.72-.43-1.18-1.19-1.23-2.03v-.15s0-20.29,0-20.29h5.07Zm58.32,20.29c0,1.75-.08,3.53-.23,5.28h0l-5.05-.44c.14-1.61,.21-3.23,.21-4.84h5.07ZM5.07,12.68v5.07H0v-5.07H5.07Zm10.14,0v5.07h-5.07v-5.07h5.07Z"/>
  </g>
</svg>