<?xml version="1.0" encoding="UTF-8"?>
<svg id="Layer_2" data-name="Layer 2" xmlns="http://www.w3.org/2000/svg" xmlns:xlink="http://www.w3.org/1999/xlink" viewBox="0 0 130.89 130.89">
  <defs>
    <style>
      .cls-1 {
        fill: url(#linear-gradient);
      }

      .cls-1, .cls-2 {
        fill-rule: evenodd;
      }

      .cls-2 {
        fill: #1c1d1d;
      }
    </style>
    <linearGradient id="linear-gradient" x1="-551.61" y1="110.82" x2="-551.61" y2="110.23" gradientTransform="translate(123075.39 24712.52) scale(223 -223)" gradientUnits="userSpaceOnUse">
      <stop offset="0" stop-color="#ef4044"/>
      <stop offset="1" stop-color="#1c1d1d"/>
    </linearGradient>
  </defs>
  <g id="Layer_1-2" data-name="Layer 1">
    <g id="Combined-Shape">
      <path id="path-mxzsg0yuio-14" class="cls-2" d="M124.56,0c3.44,0,6.24,2.75,6.33,6.16v.17s0,101.33,0,101.33c0,3.44-2.75,6.24-6.16,6.33h-.17s-59.5,0-59.5,0c-.85,2.4-3.1,4.14-5.77,4.22h-.18s-2.11,0-2.11,0v6.33c0,3.44-2.75,6.24-6.16,6.33h-.17s-8.44,0-8.44,0c-3.44,0-6.24-2.75-6.33-6.16v-.17s0-6.33,0-6.33h-3.77c-3.33,0-6.6-.87-9.48-2.53l-.3-.17-6.04-3.63H0v-33.78H16.3l6.04-3.63c2.74-1.64,5.85-2.53,9.04-2.66-8.66-5.16-14.49-14.59-14.49-25.38,0-7.91,3.13-15.09,8.21-20.4l.24-.25V6.33C25.33,2.9,28.08,.09,31.5,0h.17s92.89,0,92.89,0ZM44.72,84.44h-4.61v40.11c0,1.13,.89,2.05,2,2.11h.11s8.44,0,8.44,0c1.13,0,2.05-.89,2.11-2v-.11s0-6.33,0-6.33h-2.11c-3.49,0-6.33-2.84-6.33-6.33,0-1.63,.63-3.1,1.65-4.22-1.01-1.12-1.65-2.59-1.65-4.22s.63-3.1,1.65-4.22c-1.01-1.12-1.65-2.59-1.65-4.22s.63-3.1,1.65-4.22c-1.01-1.12-1.65-2.59-1.65-4.22,0-.74,.15-1.45,.39-2.11Zm10.17-8.44h-22.77c-2.57,0-5.1,.67-7.34,1.95l-.27,.16-7.04,4.23H4.22v25.33h13.25l7.04,4.23c2.21,1.32,4.73,2.05,7.3,2.1h.31s3.77,0,3.77,0v-26.46c-2.69,2-5.96,3.17-9.41,3.23h-.31s-.83,0-.83,0v-4.22h.83c3.98,0,7.68-1.94,9.94-5.2l.13-.2,.63-.94h13.8c2.33,0,4.22-1.89,4.22-4.22Zm4.22,33.78h-8.44c-1.17,0-2.11,.95-2.11,2.11s.89,2.05,2,2.11h.11s8.44,0,8.44,0c1.17,0,2.11-.95,2.11-2.11s-.95-2.11-2.11-2.11ZM126.67,21.11H61.59c8.62,5.17,14.41,14.57,14.41,25.33,0,12.09-7.3,22.49-17.72,27.06,.52,.7,.83,1.56,.83,2.49,0,1.46-.4,2.82-1.06,4.01l-.12,.21h1.17c3.49,0,6.33,2.84,6.33,6.33,0,1.63-.63,3.1-1.65,4.22,1.01,1.12,1.65,2.59,1.65,4.22s-.63,3.1-1.65,4.22c1.01,1.12,1.65,2.59,1.65,4.22s-.63,3.1-1.65,4.22c.5,.55,.89,1.18,1.17,1.88l.09,.23h59.5c1.13,0,2.05-.89,2.11-2v-.11s0-86.55,0-86.55Zm-52.61,46.39v7.6l6.31-6.36,8.41,8.48,8.41-8.48,8.41,8.48,6.93-6.98,2.97,3-9.9,9.98-8.41-8.48-8.41,8.48-8.41-8.48-6.31,6.36v20.32h4.21v-12.72h4.21v12.72h4.21v-8.48h4.21v8.48h4.21v-16.96h4.21v16.96h4.21v-12.72h4.21v12.72h4.21v-21.19h4.21v21.19h4.21v4.24h-50.48v-38.15h4.21Zm-14.94,33.83h-8.44c-1.17,0-2.11,.95-2.11,2.11s.89,2.05,2,2.11h.11s8.44,0,8.44,0c1.17,0,2.11-.95,2.11-2.11s-.95-2.11-2.11-2.11Zm0-8.44h-8.44c-1.17,0-2.11,.95-2.11,2.11s.89,2.05,2,2.11h.11s8.44,0,8.44,0c1.17,0,2.11-.95,2.11-2.11s-.95-2.11-2.11-2.11Zm0-8.44h-8.44c-1.17,0-2.11,.95-2.11,2.11s.89,2.05,2,2.11h.11s8.44,0,8.44,0c1.17,0,2.11-.95,2.11-2.11s-.95-2.11-2.11-2.11Zm-12.67-63.33c-13.97,0-25.33,11.36-25.33,25.33s11.36,25.33,25.33,25.33,25.33-11.36,25.33-25.33-11.36-25.33-25.33-25.33Zm-.08,4.13c11.65,0,21.13,9.48,21.13,21.13s-9.48,21.13-21.13,21.13-21.13-9.48-21.13-21.13,9.48-21.13,21.13-21.13Zm55.17,0c11.65,0,21.13,9.48,21.13,21.13s-9.48,21.13-21.13,21.13-21.13-9.48-21.13-21.13,9.48-21.13,21.13-21.13Zm-55.17,4.23c-9.32,0-16.9,7.58-16.9,16.9s7.58,16.9,16.9,16.9,16.9-7.58,16.9-16.9-7.58-16.9-16.9-16.9Zm42.68,19.02h-4.27c.95,7.55,6.89,13.56,14.41,14.61l.24,.03v-4.27c-5.3-.9-9.48-5.08-10.37-10.37Zm29.25,0h-4.27c-.88,5.22-4.96,9.36-10.15,10.33l-.23,.04v4.27c7.63-.96,13.69-7.01,14.65-14.65Zm-16.76-10.56c-4.66,0-8.45,3.79-8.45,8.45s3.79,8.45,8.45,8.45,8.45-3.79,8.45-8.45-3.79-8.45-8.45-8.45Zm2.11-8.31v4.27c5.22,.88,9.36,4.96,10.33,10.15l.04,.23h4.27c-.96-7.63-7.01-13.69-14.65-14.65Zm-4.23,0c-7.55,.95-13.56,6.89-14.61,14.41l-.03,.24h4.27c.88-5.22,4.96-9.36,10.15-10.33l.23-.04v-4.27ZM124.56,4.22H31.67c-1.13,0-2.05,.89-2.11,2v.11s0,15.89,0,15.89c4.69-3.28,10.37-5.25,16.5-5.33h.38s80.22,0,80.22,0V6.33c0-1.16-.95-2.11-2.11-2.11Zm-69.97,4v4.11h-4.11v-4.11h4.11Zm-8.22,0v4.11h-4.11v-4.11h4.11Zm-8.8,0v4.11h-4.11v-4.11h4.11Z"/>
      <path id="path-mxzsg0yuio-14-2" data-name="path-mxzsg0yuio-14" class="cls-1" d="M124.56,0c3.44,0,6.24,2.75,6.33,6.16v.17s0,101.33,0,101.33c0,3.44-2.75,6.24-6.16,6.33h-.17s-59.5,0-59.5,0c-.85,2.4-3.1,4.14-5.77,4.22h-.18s-2.11,0-2.11,0v6.33c0,3.44-2.75,6.24-6.16,6.33h-.17s-8.44,0-8.44,0c-3.44,0-6.24-2.75-6.33-6.16v-.17s0-6.33,0-6.33h-3.77c-3.33,0-6.6-.87-9.48-2.53l-.3-.17-6.04-3.63H0v-33.78H16.3l6.04-3.63c2.74-1.64,5.85-2.53,9.04-2.66-8.66-5.16-14.49-14.59-14.49-25.38,0-7.91,3.13-15.09,8.21-20.4l.24-.25V6.33C25.33,2.9,28.08,.09,31.5,0h.17s92.89,0,92.89,0ZM44.72,84.44h-4.61v40.11c0,1.13,.89,2.05,2,2.11h.11s8.44,0,8.44,0c1.13,0,2.05-.89,2.11-2v-.11s0-6.33,0-6.33h-2.11c-3.49,0-6.33-2.84-6.33-6.33,0-1.63,.63-3.1,1.65-4.22-1.01-1.12-1.65-2.59-1.65-4.22s.63-3.1,1.65-4.22c-1.01-1.12-1.65-2.59-1.65-4.22s.63-3.1,1.65-4.22c-1.01-1.12-1.65-2.59-1.65-4.22,0-.74,.15-1.45,.39-2.11Zm10.17-8.44h-22.77c-2.57,0-5.1,.67-7.34,1.95l-.27,.16-7.04,4.23H4.22v25.33h13.25l7.04,4.23c2.21,1.32,4.73,2.05,7.3,2.1h.31s3.77,0,3.77,0v-26.46c-2.69,2-5.96,3.17-9.41,3.23h-.31s-.83,0-.83,0v-4.22h.83c3.98,0,7.68-1.94,9.94-5.2l.13-.2,.63-.94h13.8c2.33,0,4.22-1.89,4.22-4.22Zm4.22,33.78h-8.44c-1.17,0-2.11,.95-2.11,2.11s.89,2.05,2,2.11h.11s8.44,0,8.44,0c1.17,0,2.11-.95,2.11-2.11s-.95-2.11-2.11-2.11ZM126.67,21.11H61.59c8.62,5.17,14.41,14.57,14.41,25.33,0,12.09-7.3,22.49-17.72,27.06,.52,.7,.83,1.56,.83,2.49,0,1.46-.4,2.82-1.06,4.01l-.12,.21h1.17c3.49,0,6.33,2.84,6.33,6.33,0,1.63-.63,3.1-1.65,4.22,1.01,1.12,1.65,2.59,1.65,4.22s-.63,3.1-1.65,4.22c1.01,1.12,1.65,2.59,1.65,4.22s-.63,3.1-1.65,4.22c.5,.55,.89,1.18,1.17,1.88l.09,.23h59.5c1.13,0,2.05-.89,2.11-2v-.11s0-86.55,0-86.55Zm-52.61,46.39v7.6l6.31-6.36,8.41,8.48,8.41-8.48,8.41,8.48,6.93-6.98,2.97,3-9.9,9.98-8.41-8.48-8.41,8.48-8.41-8.48-6.31,6.36v20.32h4.21v-12.72h4.21v12.72h4.21v-8.48h4.21v8.48h4.21v-16.96h4.21v16.96h4.21v-12.72h4.21v12.72h4.21v-21.19h4.21v21.19h4.21v4.24h-50.48v-38.15h4.21Zm-14.94,33.83h-8.44c-1.17,0-2.11,.95-2.11,2.11s.89,2.05,2,2.11h.11s8.44,0,8.44,0c1.17,0,2.11-.95,2.11-2.11s-.95-2.11-2.11-2.11Zm0-8.44h-8.44c-1.17,0-2.11,.95-2.11,2.11s.89,2.05,2,2.11h.11s8.44,0,8.44,0c1.17,0,2.11-.95,2.11-2.11s-.95-2.11-2.11-2.11Zm0-8.44h-8.44c-1.17,0-2.11,.95-2.11,2.11s.89,2.05,2,2.11h.11s8.44,0,8.44,0c1.17,0,2.11-.95,2.11-2.11s-.95-2.11-2.11-2.11Zm-12.67-63.33c-13.97,0-25.33,11.36-25.33,25.33s11.36,25.33,25.33,25.33,25.33-11.36,25.33-25.33-11.36-25.33-25.33-25.33Zm-.08,4.13c11.65,0,21.13,9.48,21.13,21.13s-9.48,21.13-21.13,21.13-21.13-9.48-21.13-21.13,9.48-21.13,21.13-21.13Zm55.17,0c11.65,0,21.13,9.48,21.13,21.13s-9.48,21.13-21.13,21.13-21.13-9.48-21.13-21.13,9.48-21.13,21.13-21.13Zm-55.17,4.23c-9.32,0-16.9,7.58-16.9,16.9s7.58,16.9,16.9,16.9,16.9-7.58,16.9-16.9-7.58-16.9-16.9-16.9Zm42.68,19.02h-4.27c.95,7.55,6.89,13.56,14.41,14.61l.24,.03v-4.27c-5.3-.9-9.48-5.08-10.37-10.37Zm29.25,0h-4.27c-.88,5.22-4.96,9.36-10.15,10.33l-.23,.04v4.27c7.63-.96,13.69-7.01,14.65-14.65Zm-16.76-10.56c-4.66,0-8.45,3.79-8.45,8.45s3.79,8.45,8.45,8.45,8.45-3.79,8.45-8.45-3.79-8.45-8.45-8.45Zm2.11-8.31v4.27c5.22,.88,9.36,4.96,10.33,10.15l.04,.23h4.27c-.96-7.63-7.01-13.69-14.65-14.65Zm-4.23,0c-7.55,.95-13.56,6.89-14.61,14.41l-.03,.24h4.27c.88-5.22,4.96-9.36,10.15-10.33l.23-.04v-4.27ZM124.56,4.22H31.67c-1.13,0-2.05,.89-2.11,2v.11s0,15.89,0,15.89c4.69-3.28,10.37-5.25,16.5-5.33h.38s80.22,0,80.22,0V6.33c0-1.16-.95-2.11-2.11-2.11Zm-69.97,4v4.11h-4.11v-4.11h4.11Zm-8.22,0v4.11h-4.11v-4.11h4.11Zm-8.8,0v4.11h-4.11v-4.11h4.11Z"/>
    </g>
  </g>
</svg>