<?xml version="1.0" encoding="UTF-8"?>
<svg id="Layer_2" data-name="Layer 2" xmlns="http://www.w3.org/2000/svg" viewBox="0 0 423.02 122.46">
  <defs>
    <style>
      .cls-1 {
        fill: #2d2d2d;
      }
    </style>
  </defs>
  <g id="Layer_1-2" data-name="Layer 1">
    <g>
      <path class="cls-1" d="M61.3,6.31v6.31c6.73,0,13.19,1.4,18.94,3.79,8.7,3.65,16.13,9.82,21.46,17.67,5.19,7.72,8.28,17.11,8.28,27.21,0,6.73-1.4,13.19-3.79,18.94-3.65,8.7-9.82,16.13-17.67,21.46-7.72,5.19-17.11,8.28-27.21,8.28-6.73,0-13.19-1.4-18.94-3.79-8.7-3.65-16.13-9.82-21.46-17.67-5.19-7.71-8.28-17.11-8.28-27.21,0-6.73,1.4-13.19,3.79-18.94,3.65-8.7,9.82-16.13,17.67-21.46,7.72-5.19,17.11-8.28,27.21-8.28V0c-8.42,0-16.55,1.68-23.85,4.77-10.94,4.63-20.34,12.48-26.93,22.16C3.93,36.75,0,48.53,0,61.16c0,8.42,1.68,16.55,4.77,23.85,4.63,10.94,12.48,20.34,22.16,26.93,9.82,6.59,21.6,10.52,34.23,10.52,8.42,0,16.55-1.68,23.85-4.77,10.94-4.63,20.34-12.49,26.93-22.16,6.59-9.82,10.52-21.6,10.52-34.23,0-8.42-1.68-16.55-4.77-23.85-4.63-10.94-12.49-20.34-22.16-26.93C85.71,3.93,73.92,0,61.3,0V6.31h0Z"/>
      <path class="cls-1" d="M54.15,42.5h.28c4.07-6.03,9.12-8.14,15.99-8.14,13.47,0,18.8,8.42,18.8,20.9v31h-17.81v-24.41c0-4.77,.84-13.19-8-13.19-7.29,0-9.26,5.47-9.26,11.64v26.09h-17.81V36.05h17.81v6.45"/>
      <path class="cls-1" d="M196.38,63.96h-37.45c0,7.29,3.79,11.08,11.08,11.08,3.79,0,6.59-1.26,8.42-4.63h17.25c-2.81,11.78-14.03,17.11-25.53,17.11-16.55,0-29.04-9.4-29.04-26.65s11.36-26.79,27.77-26.79c17.39,0,27.49,10.8,27.49,27.91v1.96h0Zm-16.55-10.24c-.84-4.77-5.33-7.86-10.1-7.86-5.19,0-9.54,2.67-10.52,7.86h20.62"/>
      <polygon class="cls-1" points="214.38 5.05 232.2 5.05 232.2 86.13 214.38 86.13 214.38 5.05 214.38 5.05"/>
      <path class="cls-1" d="M273.02,42.5h.28c4.07-6.03,9.12-8.14,15.99-8.14,13.47,0,18.8,8.42,18.8,20.9v31h-17.81v-24.41c0-4.77,.84-13.19-8-13.19-7.29,0-9.26,5.47-9.26,11.64v26.09h-17.81V36.05h17.81v6.45"/>
      <path class="cls-1" d="M376.35,63.96h-37.45c0,7.29,3.79,11.08,11.08,11.08,3.79,0,6.59-1.26,8.42-4.63h17.25c-2.8,11.78-14.03,17.11-25.53,17.11-16.55,0-29.04-9.4-29.04-26.65s11.36-26.79,27.77-26.79c17.39,0,27.49,10.8,27.49,27.91v1.96h0Zm-16.55-10.24c-.84-4.77-5.33-7.86-10.1-7.86-5.19,0-9.54,2.67-10.52,7.86h20.62"/>
      <polyline class="cls-1" points="412.92 86.13 395.1 86.13 395.1 50.64 389.35 50.64 389.35 36.05 395.1 36.05 395.1 20.9 412.92 20.9 412.92 36.05 423.02 36.05 423.02 50.64 412.92 50.64 412.92 86.13"/>
    </g>
  </g>
</svg>