<?xml version="1.0" encoding="UTF-8"?>
<svg id="Layer_2" data-name="Layer 2" xmlns="http://www.w3.org/2000/svg" viewBox="0 0 110.75 124.9">
  <defs>
    <style>
      .cls-1 {
        fill: #4d4d4e;
      }
    </style>
  </defs>
  <g id="Layer_1-2" data-name="Layer 1">
    <path id="nodeJS-Logo" class="cls-1" d="M55.37,124.9c-1.72,0-3.32-.46-4.81-1.26l-15.25-9.06c-2.29-1.26-1.15-1.72-.46-1.95,3.09-1.03,3.67-1.26,6.88-3.1,.34-.23,.8-.12,1.15,.11l11.69,7c.46,.23,1.03,.23,1.37,0l45.74-26.51c.46-.23,.69-.69,.69-1.26V35.97c0-.57-.23-1.03-.69-1.26L55.95,8.32c-.46-.23-1.03-.23-1.37,0L8.83,34.71c-.46,.23-.69,.8-.69,1.26v52.9c0,.46,.23,1.03,.69,1.26l12.5,7.23c6.76,3.44,11.01-.57,11.01-4.59V40.56c0-.69,.57-1.38,1.38-1.38h5.85c.69,0,1.38,.57,1.38,1.38v52.21c0,9.06-4.93,14.34-13.53,14.34-2.64,0-4.7,0-10.55-2.87l-12.04-6.88c-2.98-1.72-4.81-4.93-4.81-8.38V36.09c0-3.44,1.83-6.66,4.81-8.38L50.56,1.2c2.87-1.61,6.76-1.61,9.63,0l45.74,26.51c2.98,1.72,4.82,4.93,4.82,8.38v52.9c0,3.44-1.84,6.66-4.82,8.38l-45.74,26.51c-1.49,.69-3.21,1.03-4.81,1.03h0Zm14.1-36.37c-20.06,0-24.19-9.18-24.19-16.98,0-.69,.57-1.38,1.38-1.38h5.96c.69,0,1.26,.46,1.26,1.15,.92,6.08,3.55,9.06,15.71,9.06,9.63,0,13.76-2.18,13.76-7.34,0-2.98-1.15-5.16-16.17-6.65-12.5-1.26-20.29-4.02-20.29-14,0-9.29,7.8-14.8,20.87-14.8,14.67,0,21.9,5.05,22.81,16.06,0,.35-.12,.69-.34,1.03-.23,.23-.57,.46-.92,.46h-5.96c-.57,0-1.15-.46-1.26-1.03-1.38-6.31-4.93-8.38-14.33-8.38-10.55,0-11.81,3.67-11.81,6.43,0,3.33,1.49,4.36,15.71,6.2,14.1,1.84,20.75,4.48,20.75,14.34-.12,10.1-8.37,15.84-22.93,15.84Z"/>
  </g>
</svg>