<?xml version="1.0" encoding="UTF-8"?>
<svg id="Layer_2" data-name="Layer 2" xmlns="http://www.w3.org/2000/svg" xmlns:xlink="http://www.w3.org/1999/xlink" viewBox="0 0 120.99 136.45">
  <defs>
    <style>
      .cls-1 {
        fill: url(#linear-gradient);
      }
    </style>
    <linearGradient id="linear-gradient" x1="-541.22" y1="747.21" x2="-541.22" y2="746.53" gradientTransform="translate(96036.65 149442.26) scale(177.33 -200)" gradientUnits="userSpaceOnUse">
      <stop offset="0" stop-color="#ef4044"/>
      <stop offset="1" stop-color="#1c1d1d"/>
    </linearGradient>
  </defs>
  <g id="Layer_1-2" data-name="Layer 1">
    <path id="NodeJS-Copy" class="cls-1" d="M60.49,136.45c-1.88,0-3.63-.5-5.26-1.38l-16.66-9.9c-2.51-1.38-1.25-1.88-.5-2.13,3.38-1.13,4.01-1.38,7.51-3.38,.38-.25,.88-.13,1.25,.12l12.78,7.65c.5,.25,1.13,.25,1.5,0l49.97-28.96c.5-.25,.75-.75,.75-1.38V39.3c0-.63-.25-1.13-.75-1.38L61.12,9.09c-.5-.25-1.13-.25-1.5,0L9.64,37.92c-.5,.25-.75,.88-.75,1.38v57.79c0,.5,.25,1.13,.75,1.38l13.65,7.9c7.39,3.76,12.02-.63,12.02-5.01V44.31c0-.75,.63-1.5,1.5-1.5h6.39c.75,0,1.5,.63,1.5,1.5v57.04c0,9.9-5.39,15.67-14.78,15.67-2.88,0-5.13,0-11.52-3.13l-13.15-7.52c-3.26-1.88-5.26-5.39-5.26-9.15V39.43c0-3.76,2-7.27,5.26-9.15L55.23,1.32c3.13-1.75,7.39-1.75,10.52,0l49.97,28.96c3.26,1.88,5.26,5.39,5.26,9.15v57.79c0,3.76-2,7.27-5.26,9.15l-49.97,28.96c-1.63,.75-3.51,1.13-5.26,1.13h0Zm15.41-39.74c-21.92,0-26.43-10.03-26.43-18.55,0-.75,.63-1.5,1.5-1.5h6.51c.75,0,1.38,.5,1.38,1.25,1,6.64,3.88,9.9,17.16,9.9,10.52,0,15.03-2.38,15.03-8.02,0-3.26-1.25-5.64-17.66-7.27-13.65-1.38-22.17-4.39-22.17-15.29,0-10.15,8.52-16.17,22.8-16.17,16.03,0,23.92,5.52,24.92,17.55,0,.38-.13,.75-.38,1.13-.25,.25-.63,.5-1,.5h-6.51c-.63,0-1.25-.5-1.38-1.13-1.5-6.89-5.39-9.15-15.66-9.15-11.52,0-12.9,4.01-12.9,7.02,0,3.64,1.63,4.76,17.16,6.77,15.41,2.01,22.67,4.89,22.67,15.67-.13,11.03-9.14,17.3-25.05,17.3Z"/>
  </g>
</svg>