<?xml version="1.0" encoding="UTF-8"?>
<svg width="223px" height="223px" viewBox="0 0 223 223" version="1.1" xmlns="http://www.w3.org/2000/svg" xmlns:xlink="http://www.w3.org/1999/xlink">
    <title>Combined Shape</title>
    <defs>
        <linearGradient x1="50%" y1="0%" x2="50%" y2="100%" id="linearGradient-1">
            <stop stop-color="#FF3B3F" offset="0%"></stop>
            <stop stop-color="#1D1D1D" offset="100%"></stop>
        </linearGradient>
        <path d="M517.501287,97.0222816 C540.216946,97.0222816 558.377247,115.319475 558.377387,137.903082 L558.377387,143.608474 C562.786789,146.182476 565.803275,150.990255 565.803275,156.485217 C565.803275,164.724015 559.094775,171.358203 550.929587,171.358203 L547.539727,171.358203 C544.937633,176.620549 541.001901,181.172111 536.092271,184.358425 L536.092271,189.933177 C536.668766,189.931772 537.237676,190.062397 537.754611,190.318069 L552.62099,197.758286 C554.336991,198.616567 555.110989,200.604097 554.421273,202.389212 C557.779386,204.383779 560.814133,206.595644 563.538438,209.009085 C565.556593,207.448587 567.703981,206.059324 570.006309,204.89341 C565.095144,200.150657 562.115742,193.550319 562.115742,186.202394 C562.115742,171.878793 573.713213,160.194651 588.124609,160.194651 C602.536146,160.194651 614.133616,171.878793 614.133616,186.202394 C614.133616,193.529673 611.120642,200.16049 606.228581,204.9007 C619.839289,211.805171 629,226.034938 629,242.471512 L629,248.837401 C629,261.484616 618.945047,271.694789 606.504467,271.694789 L580.691417,271.694789 L580.691417,279.156637 C580.691417,283.618856 579.288949,287.989347 575.886027,290.86494 C572.483104,293.739971 567.592727,294.68113 561.614821,293.499764 C549.49283,290.244898 537.499515,287.046221 525.537657,283.780539 L520.137089,289.195436 C518.683911,290.655918 516.320056,290.655918 514.867016,289.195436 L509.473614,283.787703 C497.390534,287.02515 485.344957,290.247006 473.302049,293.514373 C467.484002,294.651771 462.584776,293.794474 459.118148,290.86494 C455.714803,287.989347 454.319921,283.618856 454.319921,279.156637 L454.319921,271.694789 L428.499707,271.694789 C416.059125,271.694789 406.004173,261.484616 406.004173,248.837401 L406.004173,242.471512 C406.004173,226.034938 415.164883,211.805171 428.775593,204.9007 C423.883532,200.16049 420.870558,193.529673 420.870558,186.202394 C420.870558,171.878793 432.468028,160.194651 446.879425,160.194651 C461.290752,160.194651 472.888362,171.878793 472.888362,186.202394 C472.888362,193.550319 469.908959,200.150657 464.997794,204.89341 C467.303213,206.061431 469.452429,207.453223 471.47283,209.01639 C474.180277,206.614327 477.212355,204.398515 480.575533,202.389214 C479.885538,200.605928 480.675689,198.619378 482.383122,197.758287 L497.25681,190.318071 C497.761524,190.066626 498.314982,189.942309 498.875464,189.940202 L498.917605,189.940202 L498.917605,184.365588 C493.918646,181.032339 490.043737,176.612403 487.441221,171.358067 L484.043917,171.358067 C475.877746,171.358067 469.170369,164.723874 469.170369,156.48508 C469.170369,150.977611 472.177725,146.170817 476.603561,143.601029 L476.603561,137.90294 C476.603561,115.319333 494.785775,97.0222816 517.501287,97.0222816 Z M549.287755,208.007088 L535.009526,222.285879 C533.556345,223.746362 531.192631,223.746362 529.739454,222.285879 L528.737892,221.284317 L525.181013,224.768432 L528.367748,247.146812 L531.902856,246.218296 C532.590322,246.063777 533.258967,245.998289 533.870018,246.007588 C534.730548,244.475184 535.743775,242.151645 536.984138,240.171698 C538.790181,237.358194 541.684466,234.559299 547.241085,234.517157 C552.798139,234.517157 558.383568,239.334066 558.383568,245.688296 L558.383568,256.823054 C558.382163,258.026192 558.257144,259.209806 558.012723,260.343411 L559.312085,260.662281 C564.087274,261.926666 562.23614,269.085516 557.446482,267.877461 L554.789744,267.187746 C552.006301,270.712879 547.945128,272.983883 543.494709,273.444629 C542.476993,274.480888 541.190695,275.236625 539.669248,275.643992 L533.005553,277.451439 L531.829807,277.77031 L563.268466,286.23386 C567.489214,287.046923 569.773562,286.28162 571.101018,285.159253 C572.360486,284.12062 573.249671,282.116934 573.249671,279.156356 L573.249671,249.388738 C573.249671,231.155547 565.546914,217.058666 549.287755,208.007088 Z M485.720866,208.007088 C469.89562,216.814414 461.750378,230.660834 461.750378,249.388921 L461.750378,279.156525 C461.750378,282.117103 462.659369,284.122334 463.920803,285.188513 C465.211456,286.275763 467.518139,287.046952 471.753215,286.233621 L503.416904,277.704752 C502.788997,276.910245 502.522101,275.8782 502.662572,274.873829 L504.658815,260.89368 L477.553706,267.87652 C472.722469,269.155794 470.842398,261.883583 475.688246,260.661481 L476.987608,260.349634 C476.751615,259.214062 476.625191,258.02004 476.625191,256.821818 L476.625191,245.68706 C476.625191,239.332985 482.182245,234.516061 487.760372,234.516061 C491.335793,234.516061 494.155339,236.168849 496.050158,238.305014 C497.94498,240.441165 499.044027,242.962769 499.919164,245.382251 C500.794024,247.801719 501.426146,250.182009 502.031578,252.045645 C502.257737,252.738591 502.408042,253.256931 502.627178,253.751391 L505.806609,252.938061 L509.835334,224.687394 L506.350937,221.203279 L505.269307,222.28491 C503.816129,223.745378 501.452274,223.745378 499.999237,222.28491 L485.720866,208.007088 Z M518.495125,230.668406 C517.843195,230.852831 517.152075,230.85564 516.498882,230.675836 L510.285266,274.104298 L517.500585,281.290259 L524.716046,274.104298 L518.495125,230.668406 Z M533.477677,253.489678 L529.42072,254.541529 L531.641993,270.111394 L537.754049,268.456358 C538.449383,268.269812 538.71066,267.597235 538.987389,266.561959 C539.306217,265.067904 539.155913,262.654182 538.515405,260.363091 C537.875416,258.07186 536.844642,256.023785 535.640801,254.679472 C534.546665,253.461584 533.887854,253.377301 533.477677,253.489678 Z M547.240453,241.948185 C545.361295,241.947834 544.306494,242.527139 543.233292,244.198048 C542.467441,245.391073 541.720132,247.038242 540.67081,249.126632 C540.847804,249.302222 541.01637,249.534 541.179317,249.715208 C543.330217,252.118536 544.785081,255.184889 545.679884,258.389325 C546.260032,260.46704 546.594017,262.589003 546.58733,264.704364 C549.222436,263.078968 550.94265,260.204779 550.942791,256.821382 L550.942791,245.686625 C550.942791,243.471248 548.746518,241.948537 547.240453,241.948185 Z M598.960878,209.857955 C595.66963,211.366198 591.992226,212.231502 588.123218,212.231502 C584.255194,212.231502 580.534244,211.357348 577.249317,209.857955 C574.176783,210.951245 571.349793,212.488846 568.770876,214.380155 C576.646694,223.718984 580.690027,235.464511 580.690027,249.388612 L580.690027,264.261597 L606.503076,264.261597 C614.879815,264.261597 621.565418,257.379054 621.565418,248.83698 L621.565418,242.471091 C621.565418,227.280499 612.12559,214.557009 598.960878,209.857955 Z M457.752069,209.857955 C454.467141,211.357769 450.74619,212.231502 446.878028,212.231502 C443.009019,212.231502 439.331615,211.366338 436.040367,209.857955 C422.875796,214.557009 413.435967,227.280499 413.435967,242.471091 L413.435967,248.83698 C413.435967,257.379054 420.121571,264.261597 428.49831,264.261597 L454.318523,264.261597 L454.318523,249.388612 C454.318523,235.671004 458.248498,223.868586 466.244911,214.387319 C463.662479,212.491656 460.829591,210.953633 457.752069,209.857955 Z M487.760367,241.948326 C486.283442,241.948115 484.058092,243.470967 484.058092,245.686344 L484.058092,256.821101 C484.058092,257.391556 484.119914,257.93799 484.218244,258.475996 L495.382499,255.601668 C495.20129,255.088947 495.088899,254.758839 494.947037,254.324781 C494.246366,252.171072 493.647957,249.916082 492.92172,247.908182 C492.1959,245.900282 491.31964,244.193272 490.475406,243.240875 C489.630893,242.288408 488.763474,241.948537 487.760367,241.948326 Z M519.685621,212.231502 L515.315689,212.231502 L511.606398,215.947958 L517.529664,221.871081 L523.474839,216.020582 L519.685621,212.231502 Z M536.816823,198.164378 L526.472783,208.508009 L532.374273,214.409233 L544.663713,202.091402 L536.816823,198.164378 Z M498.184486,198.164378 L490.344766,202.091402 L502.634203,214.409233 L508.528527,208.508009 L498.184486,198.164378 Z M446.878028,167.634574 C436.672489,167.634574 428.309516,175.895567 428.309516,186.202103 C428.309516,196.50878 436.65802,204.798858 446.878028,204.798858 C457.098033,204.798858 465.482709,196.50878 465.482709,186.202103 C465.482709,175.895567 457.083565,167.634574 446.878028,167.634574 Z M588.123218,167.634574 C577.917821,167.634574 569.518466,175.895567 569.518466,186.202103 C569.518466,196.50878 577.903212,204.798858 588.123218,204.798858 C598.343225,204.798858 606.691729,196.50878 606.691729,186.202103 C606.691729,175.895567 598.328756,167.634574 588.123218,167.634574 Z M506.350797,188.045792 L506.350797,195.841681 L515.330158,204.798858 L519.67101,204.798858 L528.650371,195.827075 L528.650371,188.053095 C525.261495,189.244855 521.636067,189.891024 517.500585,189.933166 C513.364823,189.895101 509.745571,189.242609 506.350797,188.045792 Z M530.378035,139.108033 C526.209118,140.827543 521.567517,141.626827 517.500585,141.626827 C512.459341,141.626827 508.553108,140.624564 504.608669,139.129804 C502.062903,143.889682 496.953393,147.552339 491.46264,148.667683 L491.46264,156.717545 C491.46264,170.870896 503.006733,182.500252 517.500585,182.500252 C531.850877,182.500252 543.502295,171.045221 543.502295,156.717545 L543.502295,148.667683 C537.935398,147.479295 533.111328,144.032684 530.378035,139.108033 Z M484.043987,149.045134 C479.894951,149.045134 476.610866,152.416029 476.610866,156.478045 C476.610866,160.539918 479.894951,163.91812 484.044058,163.91812 L484.827889,163.91812 C484.309535,161.593598 484.058105,159.195186 484.058105,156.717549 L484.043987,149.045134 Z M550.935486,149.045134 L550.935205,156.717549 C550.935205,159.191532 550.658476,161.591067 550.144351,163.910814 L550.928182,163.910814 C555.07743,163.910814 558.368678,160.539918 558.368678,156.478045 C558.368678,152.418419 555.081223,149.049223 550.935486,149.045134 Z M599.265842,141.619528 C601.124561,141.619528 602.982438,142.857783 602.982438,145.335984 L602.982438,149.052437 C602.982438,154.008838 595.549246,154.008838 595.549246,149.052437 L595.549246,145.335984 C595.549246,142.857082 597.407123,141.619528 599.265842,141.619528 Z M435.742567,141.612094 C437.601427,141.612094 439.459304,142.850349 439.459304,145.328548 L439.459304,149.045005 C439.459304,154.001541 432.025971,154.001541 432.025971,149.045005 L432.025971,145.328548 C432.025971,142.849648 433.883848,141.612094 435.742567,141.612094 Z M517.50059,104.454982 C499.021845,104.454982 484.036766,119.301701 484.036766,137.895217 L484.036766,141.611671 L487.775132,141.619102 C492.742767,141.619102 497.716023,138.146929 499.033646,133.228317 C499.446353,131.653772 500.840533,130.525785 502.467051,130.455549 C503.083862,130.433074 503.692103,130.566522 504.245561,130.840441 C508.565203,132.952151 512.597295,134.19392 517.500454,134.19392 C522.171699,134.19392 526.406772,132.952855 530.726272,130.840441 C532.83475,129.799547 535.368856,130.954648 535.967265,133.228601 C537.263536,138.066157 542.227108,141.619795 547.196991,141.612362 L550.928055,141.604928 L550.935503,137.895779 C550.953748,119.301278 535.979472,104.455403 517.50059,104.454982 Z M588.116054,130.470298 C589.974774,130.470298 591.83265,131.708412 591.83265,134.186614 L591.83265,137.903067 C591.83265,142.859608 584.399458,142.859608 584.399458,137.903067 L584.399458,134.186614 C584.399458,131.707852 586.257195,130.470298 588.116054,130.470298 Z M424.59278,130.462865 C426.451639,130.462865 428.309375,131.701123 428.309375,134.179322 L428.309375,137.895779 C428.309375,142.852174 420.876324,142.852174 420.876324,137.895779 L420.876324,134.179322 C420.876324,131.700419 422.734201,130.462865 424.59278,130.462865 Z M610.41563,126.753845 C612.274349,126.753845 614.132226,127.991962 614.132226,130.470302 L614.132226,134.186617 C614.132226,139.143155 606.699034,139.143155 606.699034,134.186617 L606.699034,130.470302 C606.699034,127.991399 608.55691,126.753845 610.41563,126.753845 Z M446.892637,126.746411 C448.751216,126.746411 450.609091,127.984666 450.609091,130.462865 L450.609091,134.179322 C450.609091,139.135721 443.17604,139.135721 443.17604,134.179322 L443.17604,130.462865 C443.17604,127.983965 445.033777,126.746411 446.892637,126.746411 Z M599.265842,71.0073045 C600.31095,71.0073045 601.316024,71.4216956 602.060523,72.2701436 L628.069531,102.00881 C630.152162,104.367048 628.476477,108.199658 625.267545,108.185906 L614.132226,108.185906 L614.132226,115.618817 C614.132226,120.578865 606.691729,120.578865 606.691729,115.618817 L606.691729,104.447679 C606.700017,102.39244 608.374719,100.734049 610.430098,100.745832 L617.122865,100.745832 L599.258538,80.3635514 L581.430452,100.745832 L588.123218,100.745832 C590.164551,100.753978 591.817198,102.406626 591.825346,104.447679 L591.825144,119.547452 C591.707175,124.385607 584.281479,124.310011 584.392154,119.320663 L584.392154,108.185906 L573.249671,108.185906 C570.043267,108.193351 568.333027,104.411437 570.454849,102.00881 L596.463856,72.2701436 C597.132922,71.5073832 598.220734,71.0073045 599.265842,71.0073045 Z M435.735403,71 C436.737106,71 437.79289,71.414391 438.537389,72.2628391 L464.546326,102.001506 C466.659302,104.40666 464.945828,108.179614 461.744342,108.171437 L450.609091,108.171437 L450.609091,115.60421 C450.609091,120.564401 443.168595,120.564401 443.168595,115.60421 L443.168595,104.440513 C443.176742,102.388084 444.847091,100.730796 446.899658,100.738526 L453.599732,100.738526 L435.735403,80.3562469 L417.907318,100.738526 L424.600084,100.738526 C426.641276,100.746674 428.294064,102.399323 428.302211,104.440513 L428.302211,119.313502 C428.195032,124.16033 420.981397,124.16033 420.86902,119.313502 L420.86902,108.171437 L409.726394,108.171437 C406.52856,108.173404 404.821129,104.403991 406.931714,102.001506 L432.940722,72.2628391 C433.609788,71.5000787 434.733841,71 435.735403,71 Z M497.400513,76.8939747 C498.403902,76.8939044 499.306992,77.256321 500.006541,77.9755353 L505.276472,83.2453249 C508.667173,86.7582371 503.673551,91.896124 500.006541,88.486037 L494.736471,83.2453247 C492.417144,80.9446818 494.040574,76.8659506 497.400513,76.8939747 Z M537.600794,76.894116 C540.960181,76.8681995 542.584173,80.9448226 540.264847,83.2454654 L534.994769,88.4861775 C531.32776,91.8962645 526.333997,86.7583776 529.7247,83.2454654 L534.994769,77.9756752 C535.694458,77.2564623 536.597828,76.8940453 537.600794,76.894116 Z M517.500585,71.0073045 C519.666094,71.0476199 521.217182,72.6498382 521.217182,74.7091509 L521.217182,82.1420615 C521.217182,84.6182937 519.358322,85.8625906 517.500585,85.865681 C515.64285,85.8625906 513.78399,84.6188556 513.78399,82.1420615 L513.78399,74.7091509 C513.78399,72.6498382 515.335076,71.049446 517.500585,71.0073045 Z" id="path-2"></path>
    </defs>
    <g id="Site-Icons" stroke="none" stroke-width="1" fill="none" fill-rule="evenodd">
        <g id="Icons-to-Still-Be-Converted---11/7/22" transform="translate(-406.000000, -71.000000)" fill-rule="nonzero">
            <g id="Combined-Shape">
                <use fill="#000000" xlink:href="#path-2"></use>
                <use fill="url(#linearGradient-1)" xlink:href="#path-2"></use>
            </g>
        </g>
    </g>
</svg>