<?xml version="1.0" encoding="UTF-8"?>
<svg id="Layer_2" data-name="Layer 2" xmlns="http://www.w3.org/2000/svg" xmlns:xlink="http://www.w3.org/1999/xlink" viewBox="0 0 162.61 152.15">
  <defs>
    <style>
      .cls-1 {
        fill: url(#linear-gradient);
      }
    </style>
    <linearGradient id="linear-gradient" x1="-445.01" y1="541.62" x2="-445.01" y2="540.94" gradientTransform="translate(106141.75 120781.18) scale(238.33 -223)" gradientUnits="userSpaceOnUse">
      <stop offset="0" stop-color="#ef4044"/>
      <stop offset="1" stop-color="#1c1d1d"/>
    </linearGradient>
  </defs>
  <g id="Layer_1-2" data-name="Layer 1">
    <path id="Reliability" class="cls-1" d="M25.77,75.07c3.07,0,5.58,2.45,5.67,5.5v.17s0,6.23,0,6.23c5.94,.23,11.79,1.91,16.98,4.88,9.88,5.66,13.54,6.75,14.72,6.94h.04s33.55,2.95,33.55,2.95c.04,0,.08,0,.13,.01,6.55,.93,11.6,6.12,12.36,12.66l.03,.25,.17,1.7,6.65,.37,31.14-20.84c4.5-3.02,10.65-1.84,13.7,2.65,2.75,4.04,2.12,9.5-1.43,12.81l-.18,.16-31.47,28.31s-.06,.05-.09,.07c-3.27,2.66-7.19,4.42-11.36,5.09-.01,0-.02,0-.04,0h-.05c-.05,.02-.15,.03-.28,.05l-.31,.04c-2.63,.38-12.93,1.86-23.33,3.36l-1.42,.2c-10.86,1.57-21.45,3.09-23.12,3.33l-.21,.03h-.01c-4.29,.41-6.66-.44-6.82-.5h0s-29.33-11.11-29.33-11.11v1.69c0,3.07-2.45,5.58-5.5,5.67h-.17s-20.1,0-20.1,0c-3.07,0-5.58-2.45-5.67-5.5v-.17s0-61.37,0-61.37c0-3.07,2.45-5.58,5.5-5.67h.17s20.1,0,20.1,0Zm0,4.76H5.67c-.47,0-.86,.36-.9,.81v.09s0,61.37,0,61.37c0,.47,.36,.86,.81,.9h.09s20.1,0,20.1,0c.47,0,.86-.36,.9-.81v-.09s0-33.99,0-33.99c0-1.32,1.07-2.38,2.38-2.38s2.31,1,2.38,2.25v.13s0,27.2,0,27.2l30.92,11.71c1.54,.42,3.05,.52,4.51,.29,0,0,.02,0,.02,0h.02s.02,0,.02,0l48.7-7.02c3.19-.51,6.2-1.82,8.75-3.81l.29-.23,31.44-28.28c1.94-1.72,2.29-4.61,.85-6.74-1.55-2.28-4.64-2.92-6.96-1.47l-.15,.1-31.81,21.29c-.39,.26-.84,.4-1.3,.4h-.15s-9.34-.53-9.34-.53c0,0-46.59,3.05-48.06,2.9-2.73-.28-5.19-1.54-6.94-3.63-.84-1.01-.71-2.51,.3-3.35,1.01-.84,2.51-.71,3.35,.3,.93,1.12,2.25,1.81,3.71,1.94h.04s.05,0,.05,0l44.93-2.77-.13-1.27c-.44-4.38-3.72-7.89-8.03-8.62l-.22-.04-33.56-2.94s-.08,0-.13-.01c-1.11-.16-4.47-.63-16.51-7.54-4.33-2.48-9.18-3.93-14.13-4.22l-.48-.02v5.63c0,1.32-1.07,2.38-2.38,2.38s-2.31-1-2.38-2.25v-.13s0-16.63,0-16.63c0-.5-.41-.91-.91-.91Zm-10.49,42.04c4.65,0,8.43,3.78,8.43,8.43s-3.78,8.43-8.43,8.43-8.43-3.78-8.43-8.43,3.78-8.43,8.43-8.43Zm0,4.76c-2.02,0-3.66,1.64-3.66,3.66s1.64,3.66,3.66,3.66,3.66-1.64,3.66-3.66-1.64-3.66-3.66-3.66ZM105.54,0c2.41,0,4.46,1.87,4.67,4.26,.68,7.78,5.58,14.48,12.79,17.47,2.33,.97,3.75,3.3,3.51,5.81-1.02,10.98-7.16,48.15-43.38,65.37-.4,.19-.84,.3-1.29,.33h-.19s-.02,0-.02,0c-.5,0-1-.11-1.46-.32C43.76,76.13,37.19,39.04,36.04,28.07c-.26-2.51,1.11-4.85,3.42-5.84,7.17-3.07,12-9.81,12.6-17.6,.18-2.41,2.1-4.25,4.48-4.34h.16s48.8-.29,48.8-.29h.03Zm-.07,4.76l-48.66,.29c-.75,9.54-6.68,17.8-15.48,21.56-.38,.16-.6,.55-.56,.97,1.08,10.28,7.19,44.91,40.85,60.77,33.47-16.26,39.18-50.96,40.14-61.25,.04-.42-.2-.81-.6-.97-8.83-3.66-14.84-11.85-15.7-21.37Zm5.12,42.11c1.22,.5,1.8,1.89,1.29,3.11-6.01,14.56-15.6,25.6-28.52,32.8-.56,.31-1.17,.47-1.79,.47s-1.2-.15-1.75-.45c-13.01-7.06-22.75-18-28.92-32.52-.51-1.21,.05-2.61,1.26-3.12,1.21-.51,2.61,.05,3.13,1.26,5.66,13.3,14.5,23.36,26.28,29.9,11.69-6.68,20.4-16.82,25.91-30.16,.5-1.22,1.89-1.8,3.11-1.29Zm-13.22-17.92c1.06,.7,1.38,2.1,.74,3.19l-.07,.11-15.85,23.93c-.81,1.21-2.57,1.42-3.63,.41,0,0-2.44-2.31-4.9-4.65l-.4-.38-.15-.15h0l-.3-.29c-2.22-2.11-4.24-4.02-4.24-4.02-.95-.91-.99-2.41-.09-3.37,.87-.92,2.31-.99,3.26-.18l.1,.09,7.94,7.54,14.29-21.56c.73-1.1,2.21-1.4,3.3-.67Zm1.83-19.97c1.6,0,3.03,1.06,3.5,2.58,2.08,6.78,6.57,12.54,12.64,16.2,1.27,.77,1.95,2.22,1.72,3.69-.41,2.64-.97,5.31-1.65,7.95-.33,1.27-1.63,2.04-2.9,1.71-1.27-.33-2.04-1.63-1.71-2.9,.58-2.24,1.07-4.52,1.44-6.77-6.4-4.06-11.22-10.15-13.7-17.3l-.14-.4-34.4,.2c-2.36,7.35-7.16,13.64-13.63,17.86,.4,2.25,.91,4.51,1.52,6.75,.34,1.27-.41,2.57-1.67,2.92-1.29,.36-2.64-.61-2.92-1.67-.71-2.62-1.3-5.29-1.74-7.92-.25-1.47,.41-2.93,1.67-3.71,6.03-3.74,10.45-9.55,12.45-16.35,.44-1.48,1.79-2.54,3.33-2.62h.16s36.01-.22,36.01-.22h.02Z"/>
  </g>
</svg>