<?xml version="1.0" encoding="UTF-8"?>
<svg id="Layer_2" data-name="Layer 2" xmlns="http://www.w3.org/2000/svg" xmlns:xlink="http://www.w3.org/1999/xlink" viewBox="0 0 152.15 152.15">
  <defs>
    <style>
      .cls-1 {
        fill: url(#linear-gradient);
      }
    </style>
    <linearGradient id="linear-gradient" x1="-242.11" y1="-94.29" x2="-242.11" y2="-94.97" gradientTransform="translate(54066 -21026.22) scale(223 -223)" gradientUnits="userSpaceOnUse">
      <stop offset="0" stop-color="#ef4044"/>
      <stop offset="1" stop-color="#1c1d1d"/>
    </linearGradient>
  </defs>
  <g id="Layer_1-2" data-name="Layer 1">
    <path id="Resource-Libraries" class="cls-1" d="M144.78,0c3.99,0,7.26,3.2,7.36,7.17v.2s0,29.45,0,29.45c0,3.99-3.2,7.26-7.17,7.36h-.2s-34.36,0-34.36,0c-3.99,0-7.26-3.2-7.36-7.17v-.2s0-12.27,0-12.27h-7.36c-1.31,0-2.38,1.03-2.45,2.32v.13s0,29.45,0,29.45c0,3.99-3.2,7.26-7.17,7.36h-.2s-2.45,0-2.45,0v9.82h19.63v-12.27c0-3.99,3.2-7.26,7.17-7.36h.2s34.36,0,34.36,0c3.99,0,7.26,3.2,7.36,7.17v.2s0,29.45,0,29.45c0,3.99-3.2,7.26-7.17,7.36h-.2s-34.36,0-34.36,0c-3.99,0-7.26-3.2-7.36-7.17v-.2s0-12.27,0-12.27h-19.63v9.82h2.45c3.99,0,7.26,3.2,7.36,7.17v.2s0,29.45,0,29.45c0,1.31,1.03,2.38,2.32,2.45h.13s7.36,0,7.36,0v-12.27c0-3.99,3.2-7.26,7.17-7.36h.2s34.36,0,34.36,0c3.99,0,7.26,3.2,7.36,7.17v.2s0,29.45,0,29.45c0,3.99-3.2,7.26-7.17,7.36h-.2s-34.36,0-34.36,0c-3.99,0-7.26-3.2-7.36-7.17v-.2s0-12.27,0-12.27h-7.36c-3.99,0-7.26-3.2-7.36-7.17v-.2s0-29.45,0-29.45c0-1.31-1.03-2.38-2.32-2.45h-.13s-2.45,0-2.45,0v29.45c0,3.99-3.2,7.26-7.17,7.36h-.2s-68.71,0-68.71,0C3.37,130.06,.11,126.86,0,122.89v-.2s0-93.25,0-93.25c0-3.99,3.2-7.26,7.17-7.36h.2s68.71,0,68.71,0c3.99,0,7.26,3.2,7.36,7.17v.2s0,29.45,0,29.45h2.45c1.31,0,2.38-1.03,2.45-2.32v-.13s0-29.45,0-29.45c0-3.99,3.2-7.26,7.17-7.36h.2s7.36,0,7.36,0V7.36C103.07,3.37,106.26,.11,110.23,0h.2s34.36,0,34.36,0Zm2.45,122.7h-39.26v22.09c0,1.31,1.03,2.38,2.32,2.45h.13s34.36,0,34.36,0c1.31,0,2.38-1.03,2.45-2.32v-.13s0-22.09,0-22.09Zm-4.91,14.72v4.91h-4.91v-4.91h4.91Zm-9.82,0v4.91h-19.63v-4.91h19.63Zm9.82-9.82v4.91h-29.45v-4.91h29.45ZM78.53,46.63H4.91V122.7c0,1.31,1.03,2.38,2.32,2.45h.13s68.71,0,68.71,0c1.31,0,2.38-1.03,2.45-2.32v-.13s0-76.07,0-76.07Zm-17.18,4.91c4.06,0,7.36,3.3,7.36,7.36h0v4.91c0,3.2-2.06,5.89-4.91,6.91h0v5.81c2.85,1.02,4.91,3.72,4.91,6.91h0v4.91c0,3.19-2.06,5.89-4.91,6.91h0v5.81c2.85,1.02,4.91,3.72,4.91,6.91h0v4.91c0,4.06-3.3,7.36-7.36,7.36H22.09c-4.06,0-7.36-3.3-7.36-7.36h0v-4.91c0-3.2,2.06-5.89,4.91-6.91h0v-5.81c-2.85-1.02-4.91-3.72-4.91-6.91h0v-4.91c0-3.2,2.06-5.89,4.91-6.91h0v-5.81c-2.85-1.02-4.91-3.72-4.91-6.91h0v-4.91c0-4.06,3.3-7.36,7.36-7.36H61.35Zm83.43,61.35h-34.36c-1.31,0-2.38,1.03-2.45,2.32v.13s0,2.45,0,2.45h39.26v-2.45c0-1.35-1.1-2.45-2.45-2.45Zm-83.43-7.36H22.09c-1.35,0-2.45,1.1-2.45,2.45h0v4.91c0,1.35,1.1,2.45,2.45,2.45H61.35c1.35,0,2.45-1.1,2.45-2.45h0v-4.91c0-1.35-1.1-2.45-2.45-2.45h0Zm-2.45-9.82H24.54v4.91H58.9v-4.91Zm88.34-26.99h-39.26v22.09c0,1.31,1.03,2.38,2.32,2.45h.13s34.36,0,34.36,0c1.31,0,2.38-1.03,2.45-2.32v-.13s0-22.09,0-22.09Zm-85.89,12.27H22.09c-1.35,0-2.45,1.1-2.45,2.45h0v4.91c0,1.35,1.1,2.45,2.45,2.45H61.35c1.35,0,2.45-1.1,2.45-2.45h0v-4.91c0-1.35-1.1-2.45-2.45-2.45h0Zm71.16,2.45v4.91h-19.63v-4.91h19.63Zm9.82,0v4.91h-4.91v-4.91h4.91Zm0-9.82v4.91h-29.45v-4.91h29.45Zm-83.43-2.45H24.54v4.91H58.9v-4.91Zm2.45-14.72H22.09c-1.35,0-2.45,1.1-2.45,2.45h0v4.91c0,1.35,1.1,2.45,2.45,2.45H61.35c1.35,0,2.45-1.1,2.45-2.45h0v-4.91c0-1.35-1.1-2.45-2.45-2.45h0Zm83.43,2.45h-34.36c-1.31,0-2.38,1.03-2.45,2.32v.13s0,2.45,0,2.45h39.26v-2.45c0-1.35-1.1-2.45-2.45-2.45ZM76.07,26.99H7.36c-1.31,0-2.38,1.03-2.45,2.32v.13s0,12.27,0,12.27H78.53v-12.27c0-1.35-1.1-2.45-2.45-2.45Zm71.16-12.27h-39.26v22.09c0,1.31,1.03,2.38,2.32,2.45h.13s34.36,0,34.36,0c1.31,0,2.38-1.03,2.45-2.32v-.13s0-22.09,0-22.09ZM34.36,31.9v4.91h-4.91v-4.91h4.91Zm-9.82,0v4.91h-4.91v-4.91h4.91Zm-9.82,0v4.91h-4.91v-4.91h4.91Zm127.61-2.45v4.91h-4.91v-4.91h4.91Zm-9.82,0v4.91h-19.63v-4.91h19.63Zm9.82-9.82v4.91h-29.45v-4.91h29.45Zm2.45-14.72h-34.36c-1.31,0-2.38,1.03-2.45,2.32v.13s0,2.45,0,2.45h39.26v-2.45c0-1.35-1.1-2.45-2.45-2.45Z"/>
  </g>
</svg>