<?xml version="1.0" encoding="UTF-8"?>
<svg width="223px" height="223px" viewBox="0 0 223 223" version="1.1" xmlns="http://www.w3.org/2000/svg" xmlns:xlink="http://www.w3.org/1999/xlink">
    <title>Sales Pipeline</title>
    <defs>
        <linearGradient x1="50%" y1="0%" x2="50%" y2="100%" id="linearGradient-1">
            <stop stop-color="#FF3B3F" offset="0%"></stop>
            <stop stop-color="#1D1D1D" offset="100%"></stop>
        </linearGradient>
    </defs>
    <g id="Site-Icons" stroke="none" stroke-width="1" fill="none" fill-rule="evenodd">
        <g id="Icons-to-Still-Be-Converted---11/7/22" transform="translate(-345.000000, -1191.000000)" fill="url(#linearGradient-1)" fill-rule="nonzero">
            <path d="M367.3,1191 C368.756933,1191 370.080067,1191.85112 370.682167,1193.17797 L389.2655,1234.0613 C389.78955,1235.20975 389.692917,1236.55147 389.00905,1237.61072 C388.325183,1238.67368 387.147,1239.31667 385.883333,1239.31667 L371.016667,1239.31667 L371.016667,1250.46667 L423.05,1250.46667 L423.05,1239.31667 L408.183333,1239.31667 C406.131733,1239.31667 404.466667,1237.65532 404.466667,1235.6 L404.466667,1198.43333 C404.466667,1196.37802 406.131733,1194.71667 408.183333,1194.71667 L445.35,1194.71667 C447.4016,1194.71667 449.066667,1196.37802 449.066667,1198.43333 L449.066667,1235.6 C449.066667,1237.65532 447.4016,1239.31667 445.35,1239.31667 L430.483333,1239.31667 L430.483333,1250.46667 L478.8,1250.46667 L478.8,1238.98217 C468.270683,1237.20188 460.216667,1228.04402 460.216667,1217.01667 C460.216667,1204.71822 470.218217,1194.71667 482.516667,1194.71667 C494.815117,1194.71667 504.816667,1204.71822 504.816667,1217.01667 C504.816667,1228.04773 496.76265,1237.2056 486.233333,1238.98217 L486.233333,1250.46667 L538.266667,1250.46667 L538.266667,1241.4203 L521.485917,1231.35185 C520.3672,1230.68285 519.683333,1229.47493 519.683333,1228.16667 L519.683333,1205.86667 C519.683333,1204.5584 520.3672,1203.35048 521.489633,1202.68148 L540.072967,1191.53148 C541.25115,1190.82903 542.719233,1190.82903 543.897417,1191.53148 L562.48075,1202.68148 C563.599467,1203.35048 564.283333,1204.5584 564.283333,1205.86667 L564.283333,1228.16667 C564.283333,1229.47493 563.599467,1230.68285 562.48075,1231.35185 L545.7,1241.4203 L545.7,1254.18333 C545.7,1256.23865 544.034933,1257.9 541.983333,1257.9 L460.216667,1257.9 L460.216667,1272.76667 L564.283333,1272.76667 C566.334933,1272.76667 568,1274.42802 568,1276.48333 L568,1335.95 C568,1338.00532 566.334933,1339.66667 564.283333,1339.66667 L460.216667,1339.66667 L460.216667,1354.78978 C474.860333,1356.62953 486.233333,1369.1324 486.233333,1384.26667 C486.233333,1400.66088 472.894217,1414 456.5,1414 C440.105783,1414 426.766667,1400.66088 426.766667,1384.26667 C426.766667,1369.1324 438.139667,1356.62953 452.783333,1354.78978 L452.783333,1339.66667 L348.716667,1339.66667 C346.665067,1339.66667 345,1338.00532 345,1335.95 L345,1276.48333 C345,1274.42802 346.665067,1272.76667 348.716667,1272.76667 L452.783333,1272.76667 L452.783333,1257.9 L367.3,1257.9 C365.2484,1257.9 363.583333,1256.23865 363.583333,1254.18333 L363.583333,1239.31667 L348.716667,1239.31667 C347.453,1239.31667 346.274817,1238.67368 345.59095,1237.61072 C344.907083,1236.55147 344.81045,1235.21347 345.3345,1234.0613 L363.917833,1193.17797 C364.519933,1191.85112 365.843067,1191 367.3,1191 Z M456.5,1361.96667 C444.20155,1361.96667 434.2,1371.96822 434.2,1384.26667 C434.2,1396.56512 444.20155,1406.56667 456.5,1406.56667 C468.79845,1406.56667 478.8,1396.56512 478.8,1384.26667 C478.8,1371.96822 468.79845,1361.96667 456.5,1361.96667 Z M465.022317,1374.20565 L470.277683,1379.46102 L455.411017,1394.32768 C454.686267,1395.05243 453.7348,1395.41667 452.783333,1395.41667 C451.831867,1395.41667 450.8804,1395.05243 450.15565,1394.32768 L442.722317,1386.89435 L447.977683,1381.63898 L452.783333,1386.44463 L465.022317,1374.20565 Z M560.566667,1280.2 L352.433333,1280.2 L352.433333,1332.23333 L560.566667,1332.23333 L560.566667,1280.2 Z M381.776417,1289.68493 L396.643083,1319.41827 C397.219167,1320.57043 397.1597,1321.93817 396.47955,1323.03458 C395.7994,1324.131 394.60635,1324.8 393.316667,1324.8 L363.583333,1324.8 C362.29365,1324.8 361.1006,1324.131 360.424167,1323.03458 C359.747733,1321.93817 359.68455,1320.57043 360.260633,1319.41827 L375.1273,1289.68493 C376.38725,1287.16503 380.516467,1287.16503 381.776417,1289.68493 Z M445.35,1287.63333 C447.4016,1287.63333 449.066667,1289.29468 449.066667,1291.35 L449.066667,1321.08333 C449.066667,1323.13865 447.4016,1324.8 445.35,1324.8 L415.616667,1324.8 C413.565067,1324.8 411.9,1323.13865 411.9,1321.08333 L411.9,1291.35 C411.9,1289.29468 413.565067,1287.63333 415.616667,1287.63333 L445.35,1287.63333 Z M482.516667,1287.63333 C492.763517,1287.63333 501.1,1295.96982 501.1,1306.21667 C501.1,1316.46352 492.763517,1324.8 482.516667,1324.8 C472.269817,1324.8 463.933333,1316.46352 463.933333,1306.21667 C463.933333,1295.96982 472.269817,1287.63333 482.516667,1287.63333 Z M536.21135,1288.02358 L551.078017,1295.45692 C552.337967,1296.08875 553.133333,1297.37472 553.133333,1298.78333 L553.133333,1313.65 C553.133333,1315.05862 552.337967,1316.34458 551.078017,1316.97642 L536.21135,1324.40975 C535.691017,1324.66992 535.11865,1324.8 534.55,1324.8 C533.98135,1324.8 533.408983,1324.66992 532.88865,1324.40975 L518.021983,1316.97642 C516.762033,1316.34458 515.966667,1315.05862 515.966667,1313.65 L515.966667,1298.78333 C515.966667,1297.37472 516.762033,1296.08875 518.018267,1295.45692 L532.884933,1288.02358 C533.933033,1287.49953 535.166967,1287.49953 536.21135,1288.02358 Z M378.45,1299.66047 L369.5969,1317.36667 L387.3031,1317.36667 L378.45,1299.66047 Z M441.633333,1295.06667 L419.333333,1295.06667 L419.333333,1317.36667 L441.633333,1317.36667 L441.633333,1295.06667 Z M482.516667,1295.06667 C476.3693,1295.06667 471.366667,1300.0693 471.366667,1306.21667 C471.366667,1312.36403 476.3693,1317.36667 482.516667,1317.36667 C488.664033,1317.36667 493.666667,1312.36403 493.666667,1306.21667 C493.666667,1300.0693 488.664033,1295.06667 482.516667,1295.06667 Z M534.55,1295.50523 L523.4,1301.08023 L523.4,1311.3531 L534.55,1316.9281 L545.7,1311.3531 L545.7,1301.08023 L534.55,1295.50523 Z M541.983333,1199.0503 L527.116667,1207.9703 L527.116667,1226.05932 L541.983333,1234.97932 L556.85,1226.05932 L556.85,1207.9703 L541.983333,1199.0503 Z M482.516667,1202.15 C474.3177,1202.15 467.65,1208.8177 467.65,1217.01667 C467.65,1225.21563 474.3177,1231.88333 482.516667,1231.88333 C490.715633,1231.88333 497.383333,1225.21563 497.383333,1217.01667 C497.383333,1208.8177 490.715633,1202.15 482.516667,1202.15 Z M441.633333,1202.15 L411.9,1202.15 L411.9,1231.88333 L441.633333,1231.88333 L441.633333,1202.15 Z M367.3,1203.69985 L354.48865,1231.88333 L380.11135,1231.88333 L367.3,1203.69985 Z" id="Sales-Pipeline"></path>
        </g>
    </g>
</svg>