<?xml version="1.0" encoding="UTF-8"?>
<svg id="Layer_2" data-name="Layer 2" xmlns="http://www.w3.org/2000/svg" xmlns:xlink="http://www.w3.org/1999/xlink" viewBox="0 0 152.15 127.81">
  <defs>
    <style>
      .cls-1 {
        fill: url(#linear-gradient);
      }
    </style>
    <linearGradient id="linear-gradient" x1="-41.1" y1="133.32" x2="-41.1" y2="132.64" gradientTransform="translate(9241.72 24974.84) scale(223 -187.33)" gradientUnits="userSpaceOnUse">
      <stop offset="0" stop-color="#ef4044"/>
      <stop offset="1" stop-color="#000"/>
    </linearGradient>
  </defs>
  <g id="Layer_1-2" data-name="Layer 1">
    <path id="Simplicity" class="cls-1" d="M63.58,0c2.87,0,5.55,1.51,7.03,3.96l.11,.2,23.56,41.21c.64,1.12,1.82,1.84,3.11,1.9h.17s16.98,0,16.98,0v-6.83c0-2.59,1.47-4.84,3.84-5.89,2.3-1.01,4.88-.63,6.77,1.01l.16,.14,24.15,22.14c1.7,1.55,2.67,3.77,2.67,6.07s-.91,4.36-2.5,5.9l-.17,.16-24.15,22.14c-1.91,1.75-4.56,2.19-6.93,1.15-2.31-1.01-3.76-3.18-3.84-5.68v-.21s0-6.83,0-6.83h-16.98c-1.29,0-2.5,.67-3.19,1.76l-.09,.14-23.56,41.22c-1.42,2.49-4.06,4.07-6.92,4.14h-.23s-5.12,0-5.12,0c-1.23,0-2.23-1-2.23-2.23s.93-2.16,2.1-2.23h.13s5.12,0,5.12,0c1.3,0,2.5-.67,3.19-1.76l.09-.14,23.56-41.22c1.42-2.49,4.06-4.07,6.92-4.14h.23s19.21,0,19.21,0c1.19,0,2.16,.93,2.23,2.1v.13s0,9.06,0,9.06c0,1.19,.9,1.68,1.18,1.81,.27,.12,1.17,.43,2.02-.26l.11-.09,24.15-22.14c.79-.72,1.22-1.71,1.22-2.78,0-1.01-.38-1.94-1.09-2.65l-.14-.13-24.15-22.14c-.88-.81-1.85-.47-2.13-.35-.26,.12-1.1,.57-1.17,1.65v.15s0,9.06,0,9.06c0,1.19-.93,2.16-2.1,2.23h-.13s-19.21,0-19.21,0c-2.87,0-5.54-1.51-7.03-3.95l-.11-.19L66.86,6.36c-.64-1.13-1.82-1.84-3.11-1.9h-.17s-37.73,0-37.73,0c-1.23,0-2.23-1-2.23-2.23S24.55,.07,25.73,0h.13s37.73,0,37.73,0Zm-15.52,123.35c1.23,0,2.23,1,2.23,2.23s-.93,2.16-2.1,2.23h-.13s-45.84,0-45.84,0c-1.23,0-2.23-1-2.23-2.23s.93-2.16,2.1-2.23h.13s45.84,0,45.84,0Zm-4.74-43.21l.15,.15,11.75,11.75c1.33,1.33,2.06,3.09,2.06,4.97s-.67,3.5-1.9,4.8l-.16,.17-11.75,11.75c-1.37,1.37-3.17,2.06-4.97,2.06s-3.6-.69-4.97-2.06c-2.61-2.61-2.74-6.78-.37-9.54l.14-.15H7.03c-3.88,0-7.03-3.15-7.03-7.03s3.05-6.93,6.84-7.03h.19s26.26,0,26.26,0c-2.5-2.76-2.42-7.03,.24-9.69,2.69-2.69,7.04-2.74,9.79-.15Zm-4.82,2.54c-.69,0-1.33,.27-1.82,.75-.97,.97-1,2.53-.1,3.53l.1,.11,3.55,3.55c.64,.64,.83,1.6,.48,2.43-.33,.79-1.08,1.32-1.92,1.37h-.13s-31.63,0-31.63,0c-1.42,0-2.57,1.15-2.57,2.57s1.08,2.5,2.44,2.57h.13s31.63,0,31.63,0c.9,0,1.71,.54,2.06,1.38,.33,.79,.17,1.69-.39,2.33l-.1,.1-3.55,3.55c-1,1-1,2.64,0,3.64,.97,.97,2.52,1,3.53,.1l.11-.1,11.75-11.75c.97-.97,1-2.52,.1-3.53l-.1-.11-11.75-11.75c-.49-.49-1.13-.75-1.82-.75Zm21.01-37.57c1.8,0,3.5,.67,4.81,1.9l.17,.16,11.75,11.75c2.69,2.69,2.74,7.04,.15,9.79l-.15,.15-11.76,11.75c-1.37,1.37-3.17,2.06-4.97,2.06s-3.6-.68-4.97-2.06c-1.33-1.33-2.06-3.1-2.06-4.97,0-1.69,.59-3.28,1.67-4.55l.15-.17H7.03c-3.88,0-7.03-3.15-7.03-7.03,0-1.88,.73-3.64,2.06-4.97,1.27-1.27,2.95-2,4.74-2.05h.23s14.28,0,14.28,0c1.23,0,2.23,1,2.23,2.23s-.93,2.16-2.1,2.23h-.13s-14.28,0-14.28,0c-.69,0-1.33,.27-1.82,.75-.49,.49-.76,1.13-.76,1.82,0,1.37,1.08,2.5,2.44,2.57h.13s52.65,0,52.65,0c.9,0,1.71,.54,2.06,1.38,.33,.79,.17,1.69-.39,2.33l-.1,.1-3.55,3.55c-.49,.49-.76,1.13-.76,1.82s.27,1.33,.76,1.82c.49,.49,1.13,.75,1.82,.75,.63,0,1.23-.23,1.7-.65l.11-.11,11.76-11.75c.49-.49,.75-1.13,.75-1.82,0-.64-.23-1.23-.65-1.71l-.11-.11-11.76-11.75c-.48-.49-1.13-.75-1.82-.75s-1.33,.27-1.82,.75c-.49,.49-.76,1.13-.76,1.82,0,.63,.23,1.23,.65,1.71l.11,.12,3.55,3.55c.64,.64,.83,1.6,.48,2.43-.33,.79-1.08,1.32-1.92,1.37h-.13s-27.96,0-27.96,0c-1.23,0-2.23-1-2.23-2.23s.93-2.16,2.1-2.23h.13s22.59,0,22.59,0c-1.18-1.3-1.82-2.96-1.82-4.72,0-1.88,.73-3.64,2.06-4.97,1.33-1.33,3.09-2.06,4.97-2.06ZM43.33,13.92l.15,.15,11.75,11.75c1.33,1.33,2.06,3.09,2.06,4.97s-.67,3.5-1.9,4.8l-.16,.17-11.75,11.75c-1.37,1.37-3.17,2.06-4.97,2.06s-3.6-.69-4.97-2.06c-2.61-2.61-2.74-6.78-.37-9.54l.14-.15H7.03c-3.88,0-7.03-3.15-7.03-7.03s3.05-6.93,6.84-7.03h.19s26.26,0,26.26,0c-2.5-2.76-2.42-7.03,.24-9.69,2.69-2.69,7.04-2.74,9.79-.15Zm-4.82,2.54c-.69,0-1.33,.27-1.82,.75-.97,.97-1,2.53-.1,3.53l.1,.11,3.55,3.55c.64,.64,.83,1.6,.48,2.43-.33,.79-1.08,1.32-1.92,1.37h-.13s-31.63,0-31.63,0c-1.42,0-2.57,1.15-2.57,2.57s1.08,2.5,2.44,2.57h.13s31.63,0,31.63,0c.9,0,1.71,.54,2.06,1.38,.33,.79,.17,1.69-.39,2.33l-.1,.1-3.55,3.55c-1,1-1,2.64,0,3.64,.97,.97,2.52,1,3.53,.1l.11-.1,11.75-11.75c.97-.97,1-2.52,.1-3.53l-.1-.11-11.75-11.75c-.49-.49-1.13-.75-1.82-.75ZM15.45,0c1.23,0,2.23,1,2.23,2.23s-1,2.23-2.23,2.23H2.23C1,4.46,0,3.46,0,2.23S1,0,2.23,0H15.45Z"/>
  </g>
</svg>