<?xml version="1.0" encoding="UTF-8"?>
<svg id="Layer_2" data-name="Layer 2" xmlns="http://www.w3.org/2000/svg" viewBox="0 0 142.36 124.9">
  <defs>
    <style>
      .cls-1 {
        fill: #4d4d4e;
      }
    </style>
  </defs>
  <g id="Layer_1-2" data-name="Layer 1">
    <g id="Swift-Logo">
      <path id="Path" class="cls-1" d="M87.75,0c62.58,41.88,42.29,87.9,42.29,87.9,0,0,17.78,19.73,10.63,37.01,0,0-7.37-12.07-19.62-12.07s-18.84,12.07-42.73,12.07C25.19,124.9,0,81.24,0,81.24c47.88,31.05,80.6,9.05,80.6,9.05C58.98,77.99,13.12,19.12,13.12,19.12c39.98,33.47,57.23,42.25,57.23,42.25C59.98,53.02,31.07,12.1,31.07,12.1c23.13,23.01,69.12,55.09,69.12,55.09C113.37,31.73,87.75,0,87.75,0h0Z"/>
    </g>
  </g>
</svg>