<?xml version="1.0" encoding="UTF-8"?>
<svg id="Layer_2" data-name="Layer 2" xmlns="http://www.w3.org/2000/svg" xmlns:xlink="http://www.w3.org/1999/xlink" viewBox="0 0 155.53 136.45">
  <defs>
    <style>
      .cls-1 {
        fill: url(#linear-gradient);
      }
    </style>
    <linearGradient id="linear-gradient" x1="-319.01" y1="-557.65" x2="-319.01" y2="-558.33" gradientTransform="translate(72798.48 -111530.23) scale(227.96 -200)" gradientUnits="userSpaceOnUse">
      <stop offset="0" stop-color="#ef4044"/>
      <stop offset="1" stop-color="#1c1d1d"/>
    </linearGradient>
  </defs>
  <g id="Layer_1-2" data-name="Layer 1">
    <path id="Swift" class="cls-1" d="M95.86,0c68.37,45.75,46.2,96.03,46.2,96.03,0,0,19.42,21.55,11.61,40.43,0,0-8.06-13.19-21.43-13.19s-20.58,13.19-46.68,13.19C27.52,136.45,0,88.75,0,88.75c52.31,33.92,88.06,9.88,88.06,9.88C64.44,85.21,14.34,20.89,14.34,20.89c43.67,36.56,62.52,46.16,62.52,46.16-11.33-9.12-42.92-53.83-42.92-53.83,25.27,25.14,75.51,60.19,75.51,60.19C123.86,34.67,95.86,0,95.86,0h0Z"/>
  </g>
</svg>