<?xml version="1.0" encoding="UTF-8"?>
<svg id="Layer_2" data-name="Layer 2" xmlns="http://www.w3.org/2000/svg" viewBox="0 0 591.83 161.71">
  <defs>
    <style>
      .cls-1 {
        fill: #fff;
      }

      .cls-2 {
        fill: #fefefe;
      }

      .cls-3 {
        fill: #2d2d2d;
      }
    </style>
  </defs>
  <g id="Layer_1-2" data-name="Layer 1">
    <g>
      <g id="Layer_1-2" data-name="Layer 1-2">
        <g id="Layer_1-3" data-name="Layer 1-3">
          <path class="cls-3" d="M555.36,152.07c-2.63,1.13-4.88,2.35-7.24,2.91-4.41,1.03-9.21-1.6-10.89-5.73s.1-9.11,4.23-11.55c6.76-4.03,16.15,0,16.25,8.64,.1,3.2-.1,6.39,.19,9.59,.28,3.38,1.88,4.7,5.73,4.88,0-6.01,.1-12.02-.1-18.03-.1-1.7-.95-3.38-1.78-4.88-5.45-9.49-18.88-10.99-26.67-3.2-8.54,8.54-5.16,22.64,6.39,25.92,2.35,.65,5.08,.65,7.51,.57,5.63-.28,7.51-3.1,6.39-9.11h-.01Z"/>
          <path class="cls-3" d="M450.33,155.27c-2.45-5.08-4.41-9.21-6.48-13.25-1.41-2.82-2.73-5.73-4.23-8.54-1.88-3.28-4.33-4.03-7.99-2.53,3.95,8.17,7.79,16.25,11.74,24.42,.38,.85,.85,1.7,1.32,2.53,.19,.38,.47,.85,.75,1.22,2.53,3.28,6.66,3.48,9.39,.28,.75-.85,1.32-1.78,1.78-2.82,3.85-7.89,7.71-15.69,11.46-23.58,.38-.75,.47-1.7,.75-2.63-4.03-.75-5.83-.1-7.51,2.63-.75,1.22-1.32,2.53-1.88,3.85-2.91,5.83-5.73,11.65-9.11,18.41h0Z"/>
          <path class="cls-3" d="M591.72,134.87c-.85-1.03-1.41-1.98-2.25-2.63-4.13-2.82-8.54-3.2-13.05-.95-4.33,2.07-6.48,5.63-6.66,10.24-.19,5.26-.1,10.52,0,15.78,0,1.22,.19,2.45,.28,3.66,4.41-.75,5.83-2.25,6.01-6.21,.1-4.33-.1-8.64,.1-12.87,.1-3.66,2.53-5.73,6.21-5.73,.95,0,1.98,.1,2.82,.47,2.35,.85,4.33,.19,6.66-1.78h-.11Z"/>
          <path class="cls-3" d="M400.82,143.61c3.48-6.76,10.42-19.83,10.42-19.83,0,0,8.74,15.88,10.8,19.83h-21.22Zm23.11-9.77c-2.25-4.41-4.41-8.84-6.96-13.05-2.82-4.7-8.26-4.61-11.27,0-.38,.57-.57,1.13-.85,1.7-4.7,9.02-9.49,18.03-14.19,27.05-1.98,3.76-3.85,7.51-5.83,11.37,5.63,.75,6.66,.28,9.02-3.95,1.32-2.35,2.53-4.7,3.66-6.76h27.9c1.22,2.35,2.45,4.61,3.66,6.86,2.35,4.33,3.2,4.7,9.02,3.85-4.79-9.29-9.39-18.13-14.09-27.05h-.06Z"/>
          <path class="cls-3" d="M494.3,152.17c1.22,6.39-.57,8.84-7.04,9.11-2.35,.1-4.79,0-7.04-.65-7.79-2.35-11.55-8.74-10.52-17.48,.85-6.86,7.33-12.68,14.85-13.25,10.34-.75,18.32,6.29,18.6,16.63,.19,4.88,0,9.77,0,14.75-4.79-.75-6.21-2.16-6.39-6.01-.19-3.01,0-6.01-.1-9.11-.1-4.23-2.16-7.24-6.01-8.92-3.95-1.78-7.79-1.32-11.17,1.32-3.66,2.82-4.79,7.14-3.1,10.99,1.5,3.58,5.54,6.39,10.52,5.54,2.53-.47,4.88-1.88,7.33-2.82l.1-.1h-.03Z"/>
          <path class="cls-3" d="M555.36,152.07c1.13,6.01-.75,8.84-6.39,9.11-2.53,.1-5.16,.19-7.51-.57-11.55-3.28-15.03-17.38-6.39-25.92,7.79-7.79,21.23-6.29,26.67,3.2,.85,1.5,1.7,3.2,1.78,4.88,.19,6.01,.1,12.02,.1,18.03-3.85-.19-5.45-1.5-5.73-4.88-.28-3.2-.1-6.39-.19-9.59-.1-8.64-9.49-12.77-16.25-8.64-4.03,2.45-5.83,7.42-4.23,11.55,1.7,4.13,6.48,6.86,10.89,5.73,2.35-.57,4.61-1.78,7.24-2.91h.01Z"/>
          <path class="cls-3" d="M450.33,155.27c3.38-6.76,6.21-12.59,9.11-18.41,.65-1.32,1.13-2.63,1.88-3.85,1.6-3.38,4.51-3.48,7.71-2.63-.28,.85-8.54,18.32-12.4,26.21-.47,1.03-1.03,1.98-1.78,2.82-2.82,3.2-6.86,3.01-9.39-.28-.28-.38-.47-.85-.75-1.22-.47-.85-.95-1.7-1.32-2.53-3.95-8.17-7.79-16.25-11.74-24.42,3.66-1.5,6.11-.75,7.99,2.53,1.5,2.82,2.82,5.63,4.23,8.54,2.07,4.13,4.03,8.26,6.48,13.25h-.01Z"/>
          <path class="cls-3" d="M508.86,117.41c4.61,1.6,5.83,2.63,5.91,6.76,.1,1.6,.1,5.73,.1,5.54h8.84c-.65,4.98-2.35,6.29-8.74,6.66-.1,2.16-.47,12.12,0,14.09,.85,3.28,3.28,4.98,7.14,4.98,3.01-.06,5.38,.9,7.14,2.91-3.48,3.85-7.99,3.58-12.22,2.45s-7.04-4.23-7.89-8.74c-.19-1.22-.19-2.53-.19-3.76,0-9.02-.1-30.82-.1-31v.1h.01Z"/>
          <path class="cls-3" d="M591.72,134.87c-2.35,2.07-4.33,2.73-6.66,1.78-.85-.28-1.88-.47-2.82-.47-3.66-.1-6.11,2.07-6.21,5.73-.19,4.33,.1,8.64-.1,12.87-.1,3.95-1.6,5.36-6.01,6.21-.1-1.22-.28-2.45-.28-3.66,0-5.26-.19-10.52,0-15.78,.19-4.7,2.35-8.17,6.66-10.24,4.61-2.25,8.92-1.78,13.05,.95,.85,.57,1.41,1.6,2.25,2.63h.11Z"/>
          <path class="cls-3" d="M372.93,125.48c0-5.08-3.76-9.11-8.54-9.02-4.98,.19-9.02,3.1-9.21,8.92-.19,5.08,3.85,8.64,9.21,8.84,4.61,.19,9.29-4.23,8.54-8.84v.1Z"/>
          <path class="cls-3" d="M355.27,137.6c.47,7.99,6.01,10.62,10.52,9.67,1.88-.38,3.76-1.7,5.16-3.01,1.5-1.41,2.35-3.38,1.5-6.11-5.73,3.01-11.37,2.73-17.2-.57h.01Z"/>
          <path class="cls-3" d="M350.85,117.59c-5.54,0-8.92,3.2-9.02,8.36-.1,5.16,3.66,8.46,9.49,8.54-2.82-7.33-2.82-8.26-.57-16.9,0,0,.1,0,.1,0Z"/>
          <path class="cls-3" d="M376.96,134.87c7.71-1.78,10.34-4.98,9.29-10.8-.75-4.51-4.03-6.86-9.11-6.29,2.91,5.54,2.35,11.09-.28,17.1h.1Z"/>
          <path class="cls-3" d="M372.93,125.48c.75,4.61-3.95,9.02-8.54,8.84-5.36-.19-9.39-3.76-9.21-8.84,.19-5.83,4.13-8.84,9.21-8.92,4.79-.19,8.46,3.95,8.54,9.02v-.1Z"/>
          <path class="cls-3" d="M372.93,112.9c-6.01-2.73-11.65-2.45-17.2,0-.75-5.55,4.05-9.41,8.56-9.31,5.36,.19,7.99,2.63,8.64,9.21,0,0,0,.1,0,.1Z"/>
          <path class="cls-3" d="M355.27,137.6c5.83,3.2,11.46,3.48,17.2,.57,.95,2.73,.1,4.7-1.5,6.11-1.5,1.32-3.28,2.63-5.16,3.01-4.51,.95-10.05-1.7-10.52-9.67h-.01Z"/>
          <path class="cls-3" d="M350.85,117.59c-2.35,8.64-2.25,9.59,.57,16.9-5.83,0-9.59-3.38-9.49-8.54s3.38-8.36,9.02-8.36c0,0-.1,0-.1,0Z"/>
          <path class="cls-3" d="M376.96,134.87c2.63-6.01,3.2-11.55,.28-17.1,4.98-.57,8.36,1.78,9.11,6.29,.95,5.83-1.6,9.11-9.29,10.8h-.1Z"/>
        </g>
      </g>
      <g id="Layer_1-2-2" data-name="Layer 1-2">
        <g>
          <path class="cls-3" d="M68.52,26.98c1.5,0,2.37-.5,2.37-1.74,0-1.12-.75-1.74-2.49-1.74h-3.98v3.49s4.11,0,4.11,0Zm-1-6.48c1.62,0,2.49-.62,2.49-1.74v-.12c0-1-.75-1.62-2.24-1.62h-3.36v3.49h3.11Zm-6.48-6.6h7.22c1.87,0,3.24,.5,4.11,1.37,.75,.75,1.12,1.62,1.12,2.74v.12c0,1.87-1,2.87-2.12,3.49,1.87,.75,2.99,1.87,2.99,3.99v.12c0,2.99-2.36,4.49-5.85,4.49h-7.47V13.9m16.07,0h3.49v12.95h7.85v3.36h-11.33V13.9Zm23.17,9.47l-2.12-5.36-2.12,5.36h4.24Zm-3.61-9.59h3.11l6.72,16.44h-3.61l-1.37-3.74h-6.72l-1.37,3.74h-3.49s6.72-16.44,6.72-16.44Zm10.34,8.22c0-4.61,3.36-8.47,8.1-8.47,2.99,0,4.73,1.12,6.23,2.62l-2.24,2.62c-1.12-1.12-2.36-1.87-3.99-1.87-2.62,0-4.49,2.24-4.49,5.11s1.74,5.11,4.49,5.11c1.74,0,2.87-.75,4.11-1.87l2.24,2.36c-1.62,1.74-3.49,2.87-6.48,2.87-4.61,0-7.97-3.74-7.97-8.47m16.69-8.1h3.49v7.1l6.35-7.1h4.24l-6.48,6.85,6.72,9.47h-4.11l-4.86-6.97-1.87,1.99v4.98h-3.49V13.9h0Zm26.53,4.24c0-.87-.62-1.5-1.37-1.5-.87,0-1.37,.62-1.37,1.62,0,.62,.25,1.12,.75,1.87,1.37-.5,1.99-1.12,1.99-1.99m-.12,7.97l-2.86-2.99c-.87,.5-1.25,1.25-1.25,1.99,0,1.12,.75,1.87,1.99,1.87,.75,0,1.37-.37,2.12-.87m1.74,1.87c-1.25,1-2.61,1.62-4.24,1.62-2.74,0-4.86-1.62-4.86-4.36,0-1.87,1-3.24,2.74-4.11-.62-1-1-1.99-1-2.99v-.12c0-1.99,1.62-3.99,4.36-3.99,2.49,0,4.11,1.74,4.11,3.86s-1.25,3.24-2.99,3.99l1.87,1.99c.5-.75,1-1.62,1.37-2.61l2.36,1.37c-.5,1.12-1.12,2.24-1.87,3.24l2.12,2.12-2.36,1.74-1.62-1.74m7.23-14.08h3.86l4.11,11.46,4.11-11.46h3.61l-6.23,16.44h-3.11l-6.35-16.44Zm17.81,0h11.83v3.11h-8.47v3.36h7.47v3.11h-7.47v3.49h8.6v3.24h-11.96V13.9h0Zm23.92,9.47l-1.99-5.36-2.12,5.36h4.11Zm-3.61-9.59h3.24l6.73,16.44h-3.61l-1.49-3.74h-6.6l-1.5,3.74h-3.49s6.72-16.44,6.72-16.44Zm13.7,3.36h-4.86v-3.24h13.08v3.24h-4.86v13.08h-3.36v-13.08h0Zm9.09,4.86c0-4.61,3.36-8.47,8.1-8.47,2.99,0,4.73,1.12,6.23,2.62l-2.24,2.62c-1.12-1.12-2.37-1.87-3.99-1.87-2.62,0-4.49,2.24-4.49,5.11s1.87,5.11,4.49,5.11c1.87,0,2.87-.75,4.11-1.87l2.24,2.36c-1.62,1.74-3.36,2.87-6.48,2.87-4.61,0-7.97-3.74-7.97-8.47m16.82-8.1h3.36v6.35h6.35v-6.35h3.49V30.23h-3.49v-6.6h-6.35v6.6h-3.36V13.9h0Z"/>
          <g>
            <path class="cls-3" d="M24.75,12.36H14.09v3.24h10.66c.78,0,1.41-.73,1.41-1.62s-.63-1.62-1.41-1.62Z"/>
            <path class="cls-3" d="M46.27,0H2.55C1.07,0,0,1.21,0,2.55V41.44c0,1.48,1.07,2.55,2.55,2.55H46.27c1.48,0,2.55-1.07,2.55-2.55V2.55c0-1.34-1.07-2.55-2.55-2.55Zm-12.34,36.47h-9.39l-8.18-14.35h8.39c.78,0,1.41-.73,1.41-1.62s-.63-1.62-1.41-1.62H14.09v.02s0,3.22,0,3.22l2.01,3.76H7.38V9.11H28.84c3.02,0,4.78,2.12,4.94,4.7,.1,1.49-.49,2.82-1.53,3.68,1.03,.86,1.63,2.19,1.53,3.68-.17,2.59-1.92,4.7-4.94,4.7h-2.55c.03,.05,.32,.59,3.48,6.43l8.32-11.94h6.84s-11,16.09-11,16.09Z"/>
          </g>
          <path class="cls-3" d="M51.83,42v-.61h.63c.25,0,.58,.04,.58,.29,0,.38-.51,.33-.81,.33h-.4Zm.79,.33c.42-.01,.75-.18,.75-.65,0-.51-.42-.63-.85-.63h-1.03v2.36h.33v-1.09h.4l.71,1.09h.4l-.72-1.09h0Zm-.31,1.75c-.99,0-1.84-.81-1.84-1.83s.85-1.83,1.84-1.83,1.84,.81,1.84,1.83-.85,1.83-1.84,1.83m0,.33c1.22,0,2.17-.96,2.17-2.16s-.96-2.16-2.17-2.16-2.17,.96-2.17,2.16,.96,2.16,2.17,2.16"/>
        </g>
      </g>
      <g id="Layer_1-2-3" data-name="Layer 1-2">
        <g>
          <path class="cls-3" d="M215.09,141.25c1.1,.73,2.33,.96,3.41,1.54,2.61,1.41,3.44,3.52,1.89,6.02-2.56,4.15-5.41,8.13-8.14,12.18-.39,.59-.97,.69-1.62,.69-9.64,0-19.28,0-28.91,.01-1.34,0-1.21-.48-.61-1.32,1.42-2.03,2.79-4.07,4.17-6.11,.6-.89,1.25-1.77,1.75-2.72,1.11-2.11,.47-3.59-1.8-4.26-1.44-.42-2.94-.54-4.43-.62-1.23-.07-2.08,.47-2.78,1.54-2.68,4.08-5.47,8.09-8.18,12.16-.6,.9-1.24,1.32-2.38,1.32-9.33-.04-18.65-.02-27.98-.04-.54,0-1.26,.26-1.57-.3-.32-.57,.31-1.02,.61-1.47,10.21-15.07,20.42-30.12,30.61-45.21,.72-1.07,1.51-1.47,2.78-1.46,16.65,.03,33.29,0,49.94,.03,3.73,0,7.41,.47,10.89,1.9,4.09,1.7,5.65,4.87,4.29,9.08-1.7,5.28-5.26,9.09-9.88,12.02-3.29,2.09-6.9,3.45-10.61,4.57-.49,.14-.97,.3-1.46,.44h.01Z"/>
          <path class="cls-3" d="M50.06,161.64c-5.51,0-11.03,.13-16.54-.04-5.35-.17-10.56-1.13-15.12-4.23-5.76-3.9-7.44-9.95-4.46-16.19,3.31-6.94,8.78-11.86,15.14-15.85,9.58-6.02,19.97-9.96,31.21-11.57,2.09-.3,4.19-.53,6.31-.53h27.98c1.78,0,1.8,.05,1.26,1.72-1.24,3.81-2.5,7.61-3.7,11.44-.33,1.07-.91,1.43-2.01,1.43-5.46,.03-10.93-.25-16.38,.24-6.48,.58-12.27,2.95-17.4,6.94-.97,.77-1.8,1.69-2.45,2.76-1.74,2.86-.96,5.95,1.94,7.67,1.78,1.05,3.74,1.43,5.78,1.43,5.25,.01,10.52,.01,15.77,.03,.5,0,1.15-.23,1.43,.28,.29,.53-.31,.92-.58,1.31-2.81,3.99-5.67,7.95-8.44,11.97-.63,.92-1.34,1.26-2.43,1.25-5.77-.04-11.54-.02-17.31-.02v-.03h-.01Z"/>
          <path class="cls-3" d="M103.58,161.65c-9.63,0-19.27,0-28.89-.01-.58,0-1.38,.31-1.7-.32-.28-.54,.37-1,.68-1.45,10.69-15.47,21.4-30.94,32.08-46.42,.52-.75,1.1-1.11,2.03-1.11,9.53,.02,19.06,.01,28.59,.02,.4,0,.92-.14,1.17,.22,.33,.5-.21,.84-.46,1.19-7.18,10.34-14.37,20.67-21.55,31.02-.36,.52-1.15,1.04-.81,1.7,.34,.64,1.23,.34,1.86,.31,8.7-.39,17.4-.06,26.11-.17,.5,0,1.15-.2,1.45,.29,.37,.6-.28,1.02-.58,1.45-2.6,3.76-5.28,7.47-7.8,11.28-.98,1.5-2.08,2.06-3.9,2.04-9.42-.09-18.85-.04-28.28-.04h-.01Z"/>
          <path class="cls-3" d="M151.89,82.63c22.47-.17,42.5,6.75,59.98,20.89,1.84,1.49,3.56,3.12,5.32,4.71,.47,.41,.99,.93,.58,1.58-.48,.73-1.13,.24-1.63-.03-2.39-1.22-4.74-2.49-7.12-3.71-11.39-5.79-23.22-10.38-35.74-13.07-11.12-2.4-22.28-2.36-33.49-.62-15.66,2.43-31.09,5.75-46.18,10.63-7.6,2.46-15.05,5.35-22.4,8.46-.29,.12-.56,.26-.85,.38-.39,.17-.82,.29-1.11-.16-.28-.42-.04-.8,.23-1.12,.6-.72,1.38-1.24,2.17-1.72,12.53-7.59,25.46-14.34,39.4-19.1,10.62-3.61,21.47-6.18,32.67-7.09,2.71-.22,5.46-.03,8.19-.03h0Z"/>
          <path class="cls-2" d="M193.52,132.4h-3.39c-.67,0-1.03-.18-.54-.89,.98-1.44,1.95-2.89,2.95-4.33,.24-.35,.56-.63,1-.63,2.46-.02,4.94-.27,7.39,.2,.96,.19,2.02,.44,2.2,1.61,.17,1.08-.69,1.69-1.46,2.17-2.57,1.65-5.46,2.01-8.15,1.86h-.01Z"/>
        </g>
      </g>
      <g id="Layer_1-2-4" data-name="Layer 1-2">
        <g>
          <path class="cls-3" d="M591.83,38.41c-1.76-.4-3.53-.14-5.31-.18-2.65-.05-2.65-.01-2.77-2.85-1.39,1.4-2.69,2.6-4.52,3.02-5.49,1.25-10.08-1.7-11.15-7.19-1.19-6.15,1.43-12.1,6.35-14.27,2.39-1.05,4.9-1.3,7.46-.9,1.32,.21,1.74-.13,1.77-1.51,.03-1.79-.05-3.14-2.43-2.71-.62,.11-.93-.26-.92-.89,0-.76,.04-1.52-.02-2.27-.09-1.04,.42-1.28,1.36-1.26,2.1,.04,4.2,.1,6.29-.01,1.39-.08,1.69,.47,1.67,1.74-.05,7.5,.04,15-.07,22.5-.02,1.81,.42,2.58,2.28,2.23v4.54h0Z"/>
          <path class="cls-3" d="M353.3,33.78c6.09-4.34,12.97-6.8,20.32-7.97,2.23-.36,4.49-.9,6.78-.36,.67-.16,1.3-.28,1.15,.77,.72,.5,1.41,1.08,2.19,1.49,3.38,1.74,3.34,4.65,2.82,8.1-3.75-3.46-7.35-6.75-12.14-8.31,4.44,2.89,7.92,6.66,10.76,11.06,1.89,2.94,1.82,3.55-.97,5.79h-.38c-1.06-.46-1.88-1.17-2.6-2.1-3.37-4.36-7.23-8.22-11.17-10.94,3.82,2.39,7.09,6.25,9.51,10.84,.37,.7,.94,1.44,.07,2.2h-4.2c-1.25-.72-2.24-1.69-3.21-2.77-2.25-2.54-4.85-4.75-7.5-6.87-.2-.16-.31,.11-.15-.1,0,0,.04,.02,.11,.07,2.75,2.12,5.31,4.41,7.08,7.45,.42,.72,.93,1.39,.24,2.21h-4.96c-2.71-1.49-4.68-3.88-7.06-5.79-1.53-1.23-3.14-2.14-5.16-2.12-.88-.67-2.18-1.12-1.5-2.65h-.02Z"/>
          <path class="cls-3" d="M353.3,33.78c.34,.91,1.2,1.27,1.88,1.84,3.41,1.48,6.19,3.78,8.47,6.66,.47,.6,.83,1.28,.32,2.06h-5.72c-1.77-.71-3.26-1.81-4.66-3.1-.94-.88-2.12-1.54-3.35-2.04-.83-.34-1.61-.76-1.9-1.7,1.55-1.39,3.18-2.67,4.98-3.73h-.01Z"/>
          <path class="cls-1" d="M379.61,44.34c-2.8-5.85-6.85-10.69-12.07-14.59,7.11,3.01,12.1,8.35,16.27,14.59h-4.2Z"/>
          <path class="cls-3" d="M348.7,44.34c-.85-1.06-2.09-1.59-3.22-2.24-.91-.53-.97-1.07-.2-1.72,1-.82,1.62-2.11,3.02-2.44,2.65,1,4.69,2.87,6.84,4.6,.51,.42,.91,1.06,.42,1.79h-6.86Z"/>
          <path class="cls-1" d="M371.99,44.34c-2.46-4.42-5.89-8-10.22-11.26,.66,0,.94-.09,1.13,.01,5.11,2.72,9.43,6.32,12.53,11.25h-3.44Z"/>
          <path class="cls-1" d="M363.97,44.34c-2.24-3.59-5.39-6.27-8.79-8.72,.44,.04,.94-.02,1.3,.16,4.09,2.14,7.86,4.69,10.54,8.56h-3.05Z"/>
          <path class="cls-1" d="M355.57,44.34c-1.93-2.68-4.66-4.46-7.25-6.4,0-.14,0-.3,.01-.44,3.01,1.5,5.94,3.13,8.5,5.33,.53,.45,.95,1,1.42,1.5h-2.68Z"/>
          <path class="cls-3" d="M341.83,44.34c.11-.15,.22-.31,.34-.45,1.12-1.38,2.38-1.48,3.78-.3,.28,.24,.57,.5,.84,.76h-4.96Z"/>
          <path class="cls-3" d="M380.01,21.56c1.77-2.11,3.22-3.83,4.66-5.54-.08-.12-.15-.24-.24-.35-1.93,1.06-3.84,2.13-6.01,3.33,.15-2.44,1.67-4.29,1.88-6.98-1.7,1.95-3.07,3.56-4.83,5.57v-7.45c-.15-.02-.31-.04-.46-.08-.81,2.13-1.61,4.27-2.53,6.71-1.47-2.24-1.73-4.67-3.16-6.62v7.19c-2.06-1.54-3.07-3.65-5.09-4.91,.73,2.07,1.47,4.15,2.4,6.76-2.42-1.36-4.37-2.44-6.3-3.53l-.3,.26c1.42,1.74,2.86,3.48,4.61,5.61-2.62-.43-4.79-.79-6.97-1.14-.05,.14-.12,.28-.18,.43,1.3,.79,2.6,1.56,3.9,2.34-.31,.63-.79,.62-1.2,.71-5.83,1.2-11.33,3.28-16.49,6.24-1.78,1.02-1.82,.98-1.82-1.05,0-8.06-.01-16.14,0-24.2,.01-3.41,1.43-4.79,4.92-4.79h34.91c3.5,0,4.94,1.3,4.99,4.74,.08,4.66,0,9.33,.04,14,0,1.16-.42,1.74-1.59,1.89-1.54,.21-3.07,.51-5.14,.86h-.01Z"/>
          <path class="cls-3" d="M408.82,20.62c1.52,0,3.05-.07,4.57,.02,1.14,.07,1.39-.38,1.36-1.41-.07-1.95-.07-3.91,0-5.87,.03-1.06-.3-1.55-1.39-1.39-1.18,.18-1.35-.45-1.31-1.43,.09-3.51-.34-2.79,2.75-2.86,2.42-.04,4.84,.04,7.24-.03,1.17-.04,1.64,.32,1.49,1.49-.08,.56-.04,1.14,0,1.7,.05,.77-.16,1.25-1.04,1.12-1.28-.19-1.61,.38-1.6,1.6,.05,6.24,.03,12.49,0,18.72,0,1.01,.07,1.79,1.39,1.58,1.05-.18,1.27,.35,1.25,1.29-.09,3.76,.39,2.99-2.94,3.05-2.35,.04-4.71-.04-7.06,.03-1.18,.04-1.63-.35-1.48-1.51,.08-.56,.05-1.14,0-1.7-.09-.9,.27-1.31,1.18-1.16,1.36,.23,1.56-.47,1.52-1.61-.08-1.89-.04-3.79,0-5.67,.02-.89-.12-1.4-1.21-1.38-3.17,.05-6.36,.05-9.53,0-1.05-.01-1.3,.46-1.28,1.38,.03,1.64,.03,3.28,0,4.91-.02,1.35-.26,2.79,1.93,2.39,.59-.11,.73,.36,.73,.84,0,.76-.02,1.51,.02,2.27,.05,.89-.31,1.24-1.21,1.23-2.99-.03-5.97-.04-8.96,0-1.03,.01-1.36-.39-1.29-1.35,.04-.69,.02-1.39,.01-2.08,0-.59,.18-1.05,.85-.93,1.81,.32,1.71-.8,1.7-2.01-.03-6.05-.02-12.1,0-18.15,0-1,.1-1.98-1.42-1.74-.98,.15-1.11-.46-1.14-1.26-.15-3.02-.18-3.02,2.81-3.02,2.42,0,4.84,.04,7.24-.02,1.08-.03,1.52,.33,1.41,1.4-.14,1.32,.73,3.26-1.96,2.95-.7-.08-.7,.6-.7,1.11,0,2.14,.01,4.29-.01,6.43-.01,.83,.36,1.08,1.15,1.07,1.65-.03,3.3-.01,4.96,0h-.02Z"/>
          <path class="cls-3" d="M564.92,27.5c0,1.53-.01,2.67,0,3.81,.02,1.29-.49,2.98,1.91,2.6,.62-.1,.57,.5,.62,.93,.39,3.25,.27,3.38-3.01,3.38-2.1,0-4.2-.05-6.29,.02-1.14,.04-1.67-.3-1.52-1.49,.16-1.3-.74-3.21,1.95-2.98,.63,.05,.39-.81,.4-1.26,.03-2.4,.02-4.79,.01-7.19-.01-2.59-.91-3.95-2.82-4.29-2.59-.47-4.76,.77-5.6,3.13-.37,1.04-.35,2.1-.35,3.17,0,1.32-.01,2.65,0,3.97,.01,1.28-.53,2.86,1.86,2.63,.93-.1,.59,.95,.59,1.5,.01,3.33,.24,2.75-2.65,2.79-2.22,.03-4.45-.02-6.67,.01-.89,.01-1.43-.32-1.18-1.19,.33-1.16-1.24-3.28,1.62-3.25,.44,0,.37-.58,.37-.94,0-3.65-.02-7.31,.02-10.96,.01-1.09-.54-1.23-1.42-1.2-2.54,.07-1.08-1.86-1.37-2.87-.34-1.19,.4-1.49,1.5-1.43,1.46,.08,2.92,.05,4.39,0,1.5-.04,2.89-.3,2.64,2.1-.12,1.12,.77,.46,1.17,.02,2.01-2.2,4.56-2.87,7.44-2.55,3.51,.38,5.61,2.42,6.19,5.9,.33,2,.11,4.03,.19,5.64h.01Z"/>
          <path class="cls-3" d="M533,34.83c-2.35,3.64-5.39,4.3-8.93,3.61-2.91-.57-4.83-2.46-5.15-5.08-.39-3.14,.97-5.62,3.84-6.87,2.32-1.01,4.81-1,7.29-1.18,.89-.07,2.29,.58,2.55-.79,.3-1.51,.01-3.12-1.64-3.88-1.77-.81-3.61-.45-5.41,.03-.78,.21-.55,.94-.49,1.44,.12,1.21-.3,1.61-1.56,1.61-3.62,0-3.52,.04-3.65-3.57-.05-1.67,.51-2.47,2.07-3.02,3.37-1.2,6.8-1.62,10.3-.96,4.02,.76,6.04,3.32,6.09,7.7,.03,2.77-.11,5.54-.23,8.31-.04,1.07,0,1.9,1.44,1.69,.81-.13,1.15,.26,1.11,1.07-.04,.69-.05,1.39,0,2.08,.08,.93-.36,1.21-1.24,1.19-1.46-.03-2.93-.09-4.38,.02-1.47,.11-2.16-.33-1.91-1.87,.05-.34-.04-.71-.1-1.54h.01Z"/>
          <path class="cls-3" d="M461.7,34.91c-2.4,3.6-5.49,4.25-9.07,3.51-2.79-.58-4.71-2.56-5.04-5.22-.35-2.78,.97-5.26,3.55-6.53,2.41-1.18,5.03-1.13,7.63-1.36,.9-.08,2.31,.67,2.58-1,.28-1.79-.55-3.33-2.06-3.82-1.63-.53-3.26-.25-4.88,.14-.9,.22-.72,.97-.66,1.54,.15,1.3-.44,1.55-1.63,1.55-3.49,0-3.35,.03-3.53-3.48-.1-1.9,.67-2.65,2.33-3.21,3.07-1.04,6.17-1.4,9.38-.97,4.2,.57,6.62,3.15,6.7,7.36,.05,2.9-.05,5.8-.14,8.69-.03,1.02-.14,1.98,1.39,1.74,.84-.13,1.13,.28,1.07,1.08-.04,.69-.05,1.39,0,2.08,.08,.92-.32,1.23-1.2,1.19-1.33-.04-2.68-.1-4,.01-1.62,.13-2.6-.22-2.27-2.1,.04-.23-.05-.48-.15-1.23h.02Z"/>
          <path class="cls-3" d="M444.17,32.68c.09,.31,.14,.42,.15,.54,.01,4.26-.37,4.65-4.64,5.21-2.87,.37-5.7,.45-8.49-.44-5.12-1.62-7.83-6.17-7.24-12.07,.57-5.69,4.02-9.36,9.43-9.94,8.57-.92,11.86,4.8,12.21,11.53,.07,1.21-.65,1.12-1.43,1.12-4.07,0-8.14,.08-12.2-.04-1.81-.05-1.72,.69-1.18,1.88,1.12,2.51,3.25,3.38,5.82,3.56,2.63,.18,5.15-.35,7.57-1.37v.02Z"/>
          <path class="cls-3" d="M515.18,20.78c0,3.91,.01,7.81-.01,11.72,0,.88,.1,1.4,1.2,1.39,2.48-.03,1.03,1.88,1.31,2.9,.34,1.19-.43,1.47-1.52,1.44-2.54-.05-5.09-.09-7.63,.01-1.41,.05-1.77-.51-1.65-1.76,.13-1.24-.6-2.98,1.85-2.66,.61,.08,.57-.56,.57-.98,0-6.62-.01-13.24,.02-19.86,0-1.35-.89-1.21-1.66-1.12-2.55,.32-1.6-1.54-1.79-2.71-.25-1.49,.48-1.82,1.84-1.74,1.9,.1,3.82,.13,5.71,0,1.51-.11,1.79,.48,1.77,1.84-.09,3.84-.03,7.69-.03,11.53h.02Z"/>
          <path class="cls-3" d="M504.24,33.57c.08,.2,.16,.31,.15,.43-.12,4.08,.72,3.61-3.69,4.55-1.2,.25-2.4,.18-3.59-.05-3.02-.56-4.55-2.3-4.58-5.34-.03-3.65-.04-7.31,.01-10.96,.02-1.13-.31-1.7-1.5-1.5-1.95,.32-1.58-1.05-1.56-2.12,.01-1.04-.46-2.47,1.52-2.17,1.35,.21,1.55-.5,1.54-1.65-.02-2.81,.03-2.81,2.88-3.02,.5-.03,1.02-.05,1.52-.12,1-.14,1.43,.12,1.47,1.27,.07,3.51,.13,3.49,3.8,3.55,.65,0,1.63-.39,1.88,.39,.35,1.13,.37,2.41-.03,3.52-.24,.68-1.14,.33-1.73,.34-3.94,.05-3.94,.04-3.94,3.99v5.3c.02,3.74,1.17,4.66,4.8,3.88,.35-.08,.7-.18,1.05-.27h0Z"/>
          <path class="cls-3" d="M479.72,19.06c.9,0,1-.69,1.32-1.09,1.54-1.86,3.57-2.29,5.83-1.98,.35,.04,.88,.03,.85,.55-.05,1.44-.1,2.9-.3,4.33-.1,.69-.8,.4-1.28,.38-3.63-.1-5.65,1.52-6,5.11-.21,2.12-.04,4.29-.12,6.42-.03,1.02,.53,1.13,1.31,1.07,2.54-.16,1.23,1.76,1.47,2.78,.3,1.21-.33,1.64-1.58,1.6-2.6-.08-5.22-.1-7.82,0-1.4,.05-1.79-.5-1.65-1.76,.13-1.24-.61-3,1.85-2.66,.49,.07,.57-.4,.57-.8,0-3.79,0-7.57,.01-11.35,0-1.07-.71-1.03-1.42-1-2.53,.13-1.24-1.76-1.49-2.79-.32-1.32,.49-1.56,1.64-1.52,1.52,.07,3.05,.01,4.57,.02,1.76,0,2.49,.89,2.2,2.67h.02Z"/>
          <path class="cls-3" d="M381.55,26.21c-.24-.47-.73-.57-1.15-.77,1.78-.76,3.59-.33,5.38-.11,.68,.09,.95,.55,.97,1.18,.02,.49,.2,1.12-.22,1.43-.58,.44-1.03-.21-1.5-.44-1.12-.56-2.14-1.36-3.49-1.3Z"/>
          <path class="cls-3" d="M382.87,23.78c.48-1.01,1.36-1.16,2.01-1.58,.45-.3,.96-.84,1.5-.57,.66,.34,.33,1.12,.36,1.71,.04,.92-.24,1.44-1.33,1.09-.81-.26-1.64-.43-2.54-.66Z"/>
          <path class="cls-1" d="M583.49,25.54c-.04,1.38,.14,3.02-.45,4.6-.83,2.21-2.57,3.49-4.71,3.4-1.86-.08-3.42-1.49-3.96-3.74-.45-1.86-.45-3.73,.23-5.57,1.38-3.76,5.31-4.09,8.25-2.99,.62,.23,.63,.7,.63,1.21v3.09Z"/>
          <path class="cls-1" d="M529.9,28.96c2.91-.05,3.14,.27,2.28,2.52-.8,2.1-3.04,3.27-5.25,2.75-1.26-.3-2.04-1.11-2.12-2.36-.08-1.13,.6-1.88,1.65-2.29,1.26-.49,2.59-.57,3.45-.62h0Z"/>
          <path class="cls-1" d="M457.54,34.3c-2.66,.02-3.87-.82-3.97-2.29-.12-1.77,1.06-2.44,2.55-2.71,1-.19,2.01-.31,3.02-.34,2.36-.08,2.65,.35,1.73,2.56-.76,1.81-2.14,2.75-3.33,2.78Z"/>
          <path class="cls-1" d="M434.82,24.6h-2.65c-1.96-.01-2.11-.23-1.39-1.99,.72-1.75,2.27-2.75,4.15-2.68,2.05,.08,3.44,1.18,4.03,3.1,.33,1.06,.25,1.69-1.11,1.59-1.01-.08-2.01-.01-3.03-.01Z"/>
        </g>
      </g>
    </g>
  </g>
</svg>