<?xml version="1.0" encoding="UTF-8"?>
<svg id="Layer_2" data-name="Layer 2" xmlns="http://www.w3.org/2000/svg" xmlns:xlink="http://www.w3.org/1999/xlink" viewBox="0 0 162.33 152.15">
  <defs>
    <style>
      .cls-1 {
        fill: url(#linear-gradient);
      }
    </style>
    <linearGradient id="linear-gradient" x1="-30.75" y1="545.7" x2="-30.75" y2="545.02" gradientTransform="translate(7398.46 121692.15) scale(237.92 -223)" gradientUnits="userSpaceOnUse">
      <stop offset="0" stop-color="#ef4044"/>
      <stop offset="1" stop-color="#1c1d1d"/>
    </linearGradient>
  </defs>
  <g id="Layer_1-2" data-name="Layer 1">
    <path id="UI_UX-Development-Copy" data-name="UI/UX-Development-Copy" class="cls-1" d="M152.4,0c5.4,0,9.81,4.34,9.93,9.71v.22s0,132.29,0,132.29c0,5.4-4.34,9.81-9.71,9.93h-.22s-142.47,0-142.47,0C4.53,152.15,.12,147.81,0,142.43v-.22s0-132.29,0-132.29C0,4.53,4.34,.12,9.71,0h.22s142.47,0,142.47,0Zm0,4.76H9.93c-2.8,0-5.08,2.23-5.17,5.01v.17s0,18.43,0,18.43h13.26c1.31,0,2.38,1.07,2.38,2.38s-.99,2.31-2.25,2.37h-.13s-13.26,0-13.26,0v109.1c0,2.8,2.23,5.08,5.01,5.17h.17s142.47,0,142.47,0c2.8,0,5.08-2.23,5.17-5.01v-.17s0-109.1,0-109.1H26.89c-1.31,0-2.38-1.06-2.38-2.38s1-2.31,2.25-2.37h.13s130.68,0,130.68,0V9.93c0-2.85-2.32-5.17-5.17-5.17Zm-17.84,34.29c4.15,0,7.53,3.38,7.53,7.53h0v20.78c0,4.15-3.38,7.53-7.53,7.53h-20.78c-4.15,0-7.53-3.38-7.53-7.53h0v-2.88c-2.43-.77-4.36-2.7-5.13-5.13h0l-37.14,.14c-.77,2.44-2.7,4.37-5.14,5.14h0v2.88c0,4.15-3.38,7.53-7.53,7.53h-2.88c-.77,2.44-2.7,4.36-5.14,5.14h0v9.72c0,2.39,1.95,4.34,4.34,4.34h22.4c.77-2.44,2.7-4.36,5.14-5.14h0v-3.04c0-4.06,3.3-7.37,7.37-7.37h21.11c4.06,0,7.37,3.3,7.37,7.37h0v6.26c0,1.31-1.06,2.38-2.38,2.38s-2.38-1.07-2.38-2.38h0v-6.26c0-1.44-1.17-2.61-2.61-2.61h-21.11c-1.44,0-2.61,1.17-2.61,2.61h0v3.04c3.29,1.05,5.5,4.1,5.5,7.51,0,4.82-4.01,6.85-4.05,6.88-.47,.26-.95,.47-1.46,.63h0v3.04c0,1.44,1.17,2.61,2.61,2.61h3.35c2.44-7.04,12.42-7.09,14.89,0h2.86c1.44,0,2.61-1.17,2.61-2.61h0v-6.26c0-1.31,1.07-2.38,2.38-2.38s2.38,1.06,2.38,2.38h0v6.26c0,4.06-3.3,7.37-7.37,7.37h-2.73c-.75,2.61-2.82,4.68-5.44,5.41-.94,3.91-4.47,6.83-8.67,6.83h-25.81c-.89,2.13-2.68,3.78-4.9,4.49h0v2.88c0,4.15-3.38,7.53-7.53,7.53H27.77c-4.15,0-7.53-3.38-7.53-7.53h0v-20.78c0-4.15,3.38-7.53,7.53-7.53h20.78c4.15,0,7.53,3.38,7.53,7.53h0v2.88c2.65,.84,4.7,3.05,5.31,5.79h25.4c1.62,0,3.03-.94,3.72-2.3-2.29-.88-4.07-2.8-4.76-5.19h-3.22c-4.06,0-7.37-3.3-7.37-7.37h0v-3.04c-2.44-.77-4.36-2.7-5.14-5.14h-22.4c-5.01,0-9.09-4.08-9.09-9.09h0v-9.72c-2.44-.77-4.36-2.7-5.14-5.14h-2.88c-4.15,0-7.53-3.38-7.53-7.53h0v-20.78c0-4.15,3.38-7.53,7.53-7.53h20.78c4.15,0,7.53,3.38,7.53,7.53h0v2.88c2.43,.77,4.36,2.7,5.13,5.13h0l37.14-.14c.77-2.44,2.7-4.37,5.14-5.14h0v-2.88c0-4.15,3.38-7.53,7.53-7.53h20.78ZM48.55,110.57H27.77c-1.53,0-2.77,1.24-2.77,2.77h0v20.78c0,1.53,1.24,2.77,2.77,2.77h20.78c1.53,0,2.77-1.24,2.77-2.77h0v-2.88c-7.29-2.32-7.37-12.68,0-15.03h0v-2.88c0-1.53-1.24-2.77-2.77-2.77h0Zm5.15,10.04c-1.72,0-3.12,1.4-3.12,3.12s1.4,3.12,3.12,3.12,3.12-1.4,3.12-3.12-1.4-3.12-3.12-3.12Zm42.74-8.25c-.38-4.11-5.86-4.29-6.25,0,0,1.72,1.41,3.11,3.12,3.11s3.12-1.39,3.12-3.11Zm-18.43-18.85c-1.9-.29-3.6,1.18-3.6,3.09,0,1.72,1.4,3.12,3.12,3.12s3.12-1.4,3.12-3.12c0-1.56-1.15-2.86-2.65-3.09Zm-37.1-23.98c-1.56,0-2.86,1.15-3.09,2.65-.29,1.91,1.19,3.6,3.09,3.6,1.72,0,3.12-1.4,3.12-3.13s-1.4-3.12-3.12-3.12Zm10.39-25.58H30.52c-1.53,0-2.77,1.24-2.77,2.77h0v20.78c0,1.53,1.24,2.77,2.77,2.77h2.88c1.48-4.62,5.9-5.33,5.93-5.34,3.93-.8,7.86,1.48,9.09,5.34h2.88c1.53,0,2.77-1.24,2.77-2.77h0v-2.88c-5.45-1.74-5.48-7.08-5.49-7.12-.18-3.66,2.16-6.85,5.49-7.91h0v-2.88c0-1.53-1.24-2.77-2.77-2.77h0Zm83.25-.15h-20.78c-1.53,0-2.77,1.24-2.77,2.77h0v2.88c3.13,1,5.33,3.84,5.49,7.11h0c.18,3.61-2.09,6.84-5.49,7.92h0v2.88c0,1.53,1.24,2.77,2.77,2.77h20.78c1.53,0,2.77-1.24,2.77-2.77h0v-20.78c0-1.53-1.24-2.77-2.77-2.77h0Zm-78.1,10.19c-1.72,0-3.12,1.4-3.12,3.12s1.4,3.12,3.12,3.12,3.12-1.4,3.12-3.12-1.4-3.12-3.12-3.12Zm52.17-.15c-1.72,0-3.12,1.4-3.12,3.12s1.4,3.12,3.12,3.12,3.12-1.4,3.12-3.12-1.41-3.12-3.12-3.12ZM21.29,8.58c4.4,0,7.97,3.58,7.97,7.97s-3.58,7.97-7.97,7.97-7.98-3.58-7.98-7.97,3.58-7.97,7.98-7.97Zm18.95,0c4.4,0,7.98,3.58,7.98,7.97s-3.58,7.97-7.98,7.97-7.97-3.58-7.97-7.97,3.58-7.97,7.97-7.97Zm18.95,0c4.4,0,7.97,3.58,7.97,7.97s-3.58,7.97-7.97,7.97-7.98-3.58-7.98-7.97,3.58-7.97,7.98-7.97ZM21.29,13.34c-1.77,0-3.22,1.44-3.22,3.22s1.45,3.22,3.22,3.22,3.22-1.44,3.22-3.22-1.44-3.22-3.22-3.22Zm18.95,0c-1.77,0-3.22,1.44-3.22,3.22s1.44,3.22,3.22,3.22,3.22-1.44,3.22-3.22-1.44-3.22-3.22-3.22Zm18.95,0c-1.78,0-3.22,1.44-3.22,3.22s1.44,3.22,3.22,3.22,3.22-1.44,3.22-3.22-1.44-3.22-3.22-3.22Zm84.23,.84c1.31,0,2.38,1.06,2.38,2.38s-1.06,2.38-2.38,2.38h-57.91c-1.31,0-2.38-1.06-2.38-2.38s1.06-2.38,2.38-2.38h57.91Z"/>
  </g>
</svg>