<?xml version="1.0" encoding="UTF-8"?>
<svg id="Layer_2" data-name="Layer 2" xmlns="http://www.w3.org/2000/svg" xmlns:xlink="http://www.w3.org/1999/xlink" viewBox="0 0 123.78 152.15">
  <defs>
    <style>
      .cls-1 {
        fill: url(#linear-gradient);
      }
    </style>
    <linearGradient id="linear-gradient" x1="-593.44" y1="122.21" x2="-593.44" y2="121.54" gradientTransform="translate(107723.96 27255.1) scale(181.42 -223)" gradientUnits="userSpaceOnUse">
      <stop offset="0" stop-color="#ef4044"/>
      <stop offset="1" stop-color="#1c1d1d"/>
    </linearGradient>
  </defs>
  <g id="Layer_1-2" data-name="Layer 1">
    <path id="Yii" class="cls-1" d="M.14,33.69c27.74-11.12,60.58,.88,77.7,24.91h0l.78,1.16s0,0,0,0h0s0,0,0,0c0,0,0,0,0,0,0,0,3.27,4.65,5.4,9.63,2.13,4.98,6.5,13.76,7.53,27.32l.02,.32c0,.11,.02,.21,.02,.32l.02,.32c0,.11,.02,.21,.02,.32l.02,.32h0l.02,.32c.22,3.19,.3,6.67-.46,14.83v.02c0,.08-.01,.15-.02,.22v.11h-.01s0,0,0,0c0,0,0,0,0,0-.05,.4-.1,.69-.1,.69-1.99,12.54-9.01,24.19-20.62,31.46-4.41,2.77-9.51,4.93-15.37,6.19-.06-.26-.12-.52-.18-.79l-.36-1.57c-1.37-6.04-2.67-12.13-2.93-18.33-.29-6.97,.29-13.1,3.42-19.29,3.16-6.25,8.45-12.41,12.1-18.85h0c-11.3-3.08-20.53-2.16-32.05-5.7C6.62,79.53-1.19,50.54,.14,33.69ZM99.16,0c21.57,13.52,29.54,38.69,21.61,62.07-5.77,17.01-11.19,24.14-24.88,41.65,1.56-18.35-4.73-31.19-11.07-45.27l-.41-.91h0c-1.65-3.67-3.93-7.86-5.3-11.87-4.05-11.84-2.33-19.78,5.07-30.83,3.53-5.27,9.63-11.38,14.98-14.84Z"/>
  </g>
</svg>